<?xml version="1.0" encoding="UTF-8"?>
<svg id="Capa_3" data-name="Capa 3" xmlns="http://www.w3.org/2000/svg" viewBox="0 0 250 250">
  <defs>
    <style>
      .cls-1 {
        fill: #f6a42c;
        stroke-width: 0px;
      }
    </style>
  </defs>
  <path class="cls-1" d="M51.98,220.41c-.11-.04-.21-.1-.33-.13-.17-.05-.34-.08-.51-.12-.35-.09-.66-.25-.95-.46-.24-.17-.44-.39-.58-.66-.26-.47-.41-.97-.47-1.51-.03-.35-.08-.7-.12-1.05-.02-.23-.03-.47-.04-.7,0-.35,0-.71,0-1.06,0-17.15,0-34.31,0-51.46,0-.38,0-.77,0-1.15,0-.18-.02-.35-.05-.53-.04-.24-.17-.44-.37-.58-.12-.08-.25-.15-.39-.2-.45-.14-.91-.23-1.39-.23-1.25,0-2.45-.26-3.65-.59-.37-.1-.73-.24-1.07-.4-.53-.26-1.06-.51-1.58-.79-.78-.42-1.49-.95-2.15-1.54-.57-.51-1.1-1.06-1.62-1.62-.36-.39-.68-.82-.96-1.26-.37-.57-.7-1.16-1-1.76-.54-1.09-.9-2.23-1.14-3.42-.13-.64-.2-1.28-.19-1.93,0-.38,0-.76,0-1.15,0-6.77,0-13.53-.01-20.3,0-.65,0-1.29-.09-1.94-.04-.23-.03-.47-.03-.7,0-2.68,0-5.35,0-8.03,0-.29,0-.59.05-.88.06-.41.07-.82.07-1.23,0-1.29,0-2.59,0-3.88,0-5.77,0-11.53.01-17.3,0-.5,0-1,.01-1.5,0-.29.03-.59.08-.88.06-.35.11-.7.18-1.04.42-1.92,1.22-3.68,2.4-5.26.56-.76,1.22-1.44,1.91-2.07.26-.24.54-.45.83-.66.64-.47,1.3-.91,2.02-1.26.58-.29,1.16-.58,1.77-.8,1.05-.39,2.13-.68,3.25-.8.09,0,.18-.01.26-.03.58-.13,1.17-.13,1.76-.13,3.03,0,6.06-.01,9.09-.02.62,0,1.23,0,1.85-.09.32-.04.65-.03.97-.03,2.32,0,4.65-.01,6.97-.01,8.18,0,16.36,0,24.54,0,.62,0,1.23,0,1.85.09.32.04.65.03.97.03,1.62,0,3.24,0,4.85.01,1.47,0,2.94,0,4.41.01,1.24,0,1.25,0,2.46.19.93.14,1.85.33,2.74.66.52.19,1.04.4,1.56.63.76.33,1.45.78,2.13,1.25.85.59,1.6,1.3,2.28,2.07.66.76,1.23,1.58,1.7,2.46.1.18.19.37.28.55.52,1,.88,2.05,1.17,3.14.2.74.34,1.49.44,2.25.1.74.06,1.47-.22,2.17-.21.53-.53.98-.97,1.34-.16.13-.33.24-.52.33-.55.24-1.13.34-1.72.26-.48-.06-.9-.26-1.27-.57-.51-.42-.87-.96-1.05-1.6-.1-.34-.18-.68-.22-1.04-.06-.68-.21-1.34-.37-1.99-.1-.4-.24-.79-.42-1.16-.11-.24-.24-.47-.35-.71-.27-.56-.66-1.04-1.05-1.52-.85-.88-1.81-1.59-2.96-2.02-.47-.17-.95-.31-1.44-.42-.72-.16-1.45-.25-2.19-.25-2.53.01-5.06,0-7.59,0-15.51,0-31.01,0-46.52,0-.24,0-.47,0-.71,0-.8-.03-1.59.07-2.37.22-1.11.21-2.16.57-3.13,1.16-.73.45-1.38.99-1.91,1.68-.83,1.1-1.38,2.32-1.67,3.66-.15.69-.24,1.39-.23,2.1,0,.62,0,1.24,0,1.85,0,14.21,0,28.42,0,42.63,0,.32,0,.65,0,.97,0,.29,0,.59-.05.88-.06.35-.07.7-.07,1.06,0,1.29,0,2.59,0,3.88,0,.35.01.71.07,1.06.05.29.06.59.06.88,0,.21,0,.41,0,.62,0,.92.17,1.81.45,2.69.18.56.38,1.11.66,1.63.24.44.51.86.83,1.25.13.16.26.32.39.48.08.09.15.18.24.26.92.86,1.95,1.51,3.16,1.86.94.27,1.9.37,2.88.29.06,0,.12-.01.17-.03.34-.08.59-.26.73-.58.09-.22.15-.45.17-.68.01-.23.02-.47.03-.71,0-.47,0-.94,0-1.41,0-15.68,0-31.36,0-47.05,0-.24,0-.47,0-.71,0-.29.02-.59.07-.88.03-.17.05-.35.07-.52.03-.32.12-.64.2-.95.19-.67.56-1.23,1.1-1.67.16-.13.34-.24.53-.32.24-.11.5-.18.76-.22.23-.04.47-.04.7,0,.41.07.8.19,1.16.4.4.22.71.52.92.92.26.47.42.97.49,1.5q.14,1.2.15,2.46c0,35.54,0,71.08,0,106.62,0,.41,0,.82,0,1.24,0,.21,0,.41.02.62.01.42.15.81.39,1.16.15.23.34.4.59.52.35.17.71.29,1.1.3.24.01.47.01.71.01,4.24,0,8.47,0,12.71,0,.21,0,.41,0,.62,0,.12,0,.23-.01.35-.03.55-.06.91-.42.97-.97.02-.18.03-.35.03-.53,0-.35,0-.71,0-1.06,0-17.36,0-34.72,0-52.08,0-.18,0-.35,0-.53-.02-.59.09-1.17.21-1.75.09-.43.26-.84.49-1.22.28-.44.66-.75,1.12-.97.21-.1.44-.16.68-.18.35-.03.71-.03,1.06,0,.42.04.81.16,1.17.36.29.16.52.38.71.65.2.29.36.61.46.95.05.17.09.34.11.52.04.29.08.58.11.88.02.26.04.53.04.79,0,.47,0,.94,0,1.41,0,17.01,0,34.01,0,51.02,0,.5,0,1,.01,1.5,0,.18.03.35.06.52.05.24.2.43.42.53.13.06.27.11.42.14.14.03.29.04.44.04.26,0,.53,0,.79,0,4.38,0,8.77,0,13.15,0,.29,0,.59,0,.88-.01.15,0,.29-.02.44-.06.34-.08.58-.27.7-.6.07-.19.12-.39.13-.6.01-.21.02-.41.02-.62,0-.41,0-.82,0-1.24,0-21.62,0-43.25,0-64.87,0-.79,0-1.59,0-2.38,0-.63.13-1.23.33-1.82.26-.77.78-1.3,1.52-1.63.24-.11.5-.18.76-.24.26-.06.53-.06.79-.01.17.03.35.07.52.11.32.08.61.21.89.38.28.18.51.4.68.68.33.54.53,1.12.55,1.75,0,.24.01.47.01.71,0,.79,0,1.59.02,2.38.02.76.02,1.53,0,2.29-.02.94,0,1.88,0,2.82,0,.38.02.76.08,1.14.05.32.07.64.11.96.03.21.14.38.29.53.18.17.39.26.63.27.5.04,1,.04,1.5-.02.97-.12,1.91-.36,2.78-.83.81-.44,1.52-.99,2.08-1.74.67-.88,1.11-1.87,1.4-2.93.11-.64.26-1.27.26-1.92,0-.44,0-.88,0-1.32.02-1.01-.14-1.99-.39-2.97-.23-.88-.54-1.74-.93-2.57-.49-1.01-1.08-1.96-1.74-2.86-.28-.38-.57-.75-.88-1.11-.75-.87-1.45-1.78-2.17-2.67-.37-.46-.75-.9-1.12-1.37-.4-.51-.8-1.01-1.21-1.52-.51-.65-1.02-1.29-1.53-1.94-.38-.48-.76-.97-1.14-1.46-.71-.9-1.42-1.8-2.12-2.71-.79-1.02-1.58-2.05-2.37-3.08-.61-.79-1.23-1.58-1.84-2.37-.16-.21-.32-.42-.48-.63-.88-1.14-1.74-2.3-2.63-3.43-1.03-1.32-2.04-2.66-3.08-3.98-.36-.46-.71-.94-1.06-1.41-.47-.64-.85-1.34-1.18-2.06-.06-.13-.12-.27-.18-.4-.2-.43-.34-.87-.46-1.33-.12-.46-.2-.92-.28-1.38-.03-.14-.04-.29-.04-.44,0-.47,0-.94,0-1.41,0-.15.01-.29.04-.44.16-.9.39-1.78.79-2.61.18-.37.39-.73.61-1.07.32-.49.67-.97,1.09-1.38.1-.1.21-.21.31-.31.57-.61,1.23-1.09,1.94-1.52.74-.45,1.53-.75,2.36-.97.43-.11.86-.21,1.3-.22.38-.01.76-.13,1.14-.11.35.02.7.09,1.05.11.74.05,1.45.25,2.14.5,1.01.37,1.91.91,2.74,1.58.57.46,1.08.99,1.55,1.57.66.82,1.33,1.65,1.99,2.48.83,1.03,1.65,2.07,2.47,3.11.83,1.03,1.66,2.06,2.49,3.09.48.6.94,1.2,1.41,1.81.31.39.62.79.93,1.18.65.83,1.31,1.67,1.96,2.5,1.69,2.15,3.32,4.35,4.95,6.55.75,1.02,1.51,2.03,2.22,3.08.41.61.88,1.17,1.36,1.74.15.18.31.36.46.54.3.36.63.69,1,.99.52.43,1.05.85,1.63,1.21.53.33,1.07.61,1.66.81.25.09.5.17.75.25.31.1.62.18.94.22.18.02.35.06.52.09.2.03.41.06.61.06.53,0,1.06,0,1.59,0,.18,0,.35-.03.53-.05.29-.04.58-.08.87-.12.53-.07,1.04-.2,1.54-.38.5-.18.95-.46,1.36-.8.13-.11.25-.25.36-.39.54-.69,1.08-1.4,1.62-2.09.82-1.04,1.6-2.11,2.43-3.14.61-.76,1.19-1.54,1.78-2.3.63-.81,1.27-1.62,1.9-2.43.61-.79,1.22-1.58,1.84-2.37.61-.79,1.23-1.58,1.85-2.36.09-.12.18-.23.27-.35.74-.95,1.48-1.9,2.23-2.85.61-.79,1.22-1.59,1.84-2.37.82-1.04,1.61-2.1,2.43-3.14.59-.74,1.15-1.49,1.73-2.23.5-.65,1.01-1.31,1.51-1.95.13-.16.26-.32.4-.47.24-.26.5-.5.74-.76.49-.51,1.05-.94,1.63-1.35,1.06-.74,2.24-1.16,3.5-1.39.17-.03.35-.04.53-.04.44,0,.88,0,1.32,0,.74,0,1.46.13,2.17.33.42.12.84.27,1.26.41.33.12.65.27.96.45.77.44,1.51.92,2.12,1.57.22.23.45.46.68.7.33.34.6.72.84,1.13.55.95.97,1.95,1.16,3.03.08.44.14.87.14,1.31,0,.26,0,.53,0,.79,0,.56-.06,1.12-.2,1.66-.03.11-.06.23-.09.34-.21.93-.6,1.78-1.08,2.6-.28.48-.59.95-.93,1.39-1.1,1.45-2.18,2.92-3.29,4.37-.82,1.08-1.65,2.14-2.49,3.21-.66.83-1.31,1.66-1.96,2.5-.99,1.28-2.01,2.54-3.01,3.81-.62.79-1.22,1.58-1.84,2.37-.61.79-1.23,1.58-1.85,2.36-.09.12-.18.24-.27.35-.74.95-1.48,1.9-2.23,2.85-.63.81-1.26,1.63-1.89,2.44-.82,1.04-1.61,2.1-2.45,3.12-.04.05-.08.09-.11.14-.62.82-1.26,1.63-1.91,2.43-.17.21-.31.43-.46.65-.32.5-.54,1.04-.64,1.63-.02.15-.05.29-.08.43-.05.26-.07.53-.02.79.09.5.09,1,.1,1.5,0,.65,0,1.29,0,1.94,0,.44-.02.88-.09,1.32-.06.35-.05.7.02,1.05.03.14.06.29.08.43.04.23.11.46.22.67.11.24.23.48.36.71.14.26.31.5.51.72.4.43.82.85,1.26,1.24.11.1.23.18.36.25.13.08.27.11.42.11.23,0,.39-.1.5-.3.09-.15.14-.32.17-.5.02-.15.04-.29.04-.44.02-.53.04-1.06.15-1.58.04-.7.12-1.41.2-2.11.05-.47.06-.94.14-1.4.03-.14.04-.29.04-.44.01-.44.06-.88.13-1.32.04-.26.05-.53.06-.79.03-.65.18-1.28.39-1.89.2-.57.52-1.05.99-1.44.2-.17.42-.32.68-.41.22-.07.45-.14.68-.19.2-.05.41-.04.61-.02.5.07.97.22,1.41.49.31.19.55.44.74.75.32.54.51,1.12.53,1.76.02.74.04,1.47-.11,2.2-.01.06-.02.12-.02.17-.02.8-.16,1.58-.23,2.37-.06.73-.17,1.46-.21,2.19-.1.46-.12.93-.14,1.4,0,.12-.01.24-.04.35-.08.43-.12.87-.14,1.32,0,.15-.03.29-.05.44-.01.09-.04.17-.04.26-.05.82-.17,1.64-.24,2.46-.02.32-.04.65-.1.96-.01.06-.02.12-.03.17-.03.41-.05.82-.1,1.23-.05.41-.13.81-.13,1.23,0,.03,0,.06,0,.09,0,.41-.11.82-.15,1.23-.03.41-.02.82-.1,1.23-.06.32-.08.64-.1.96-.01.23-.02.47-.06.7-.06.38-.1.76-.12,1.14-.01.23-.04.47-.07.7-.01.12-.05.23-.05.35-.03.79-.17,1.58-.23,2.37-.02.23-.05.47-.08.7-.03.26-.06.53-.09.79-.02.18-.03.35-.07.53-.07.35-.1.7-.12,1.05-.02.26-.06.53-.1.79-.03.2-.04.41-.03.62.01.15.04.29.1.43.12.29.31.49.61.6.22.08.45.14.69.16.18.01.35.02.53.02.38,0,.76,0,1.15,0,16.71,0,33.42,0,50.13,0,.41,0,.82,0,1.24,0,.18,0,.35,0,.53-.04.14-.02.29-.07.42-.12.24-.09.38-.27.43-.52.03-.11.04-.23.04-.35,0-.15-.02-.29-.03-.44-.02-.15-.06-.29-.07-.44-.02-.8-.16-1.58-.23-2.37-.06-.73-.18-1.46-.21-2.19-.09-.46-.1-.94-.15-1.4-.08-.7-.15-1.4-.22-2.1,0-.09-.04-.17-.04-.26-.03-.41-.06-.82-.1-1.23-.04-.38-.14-.75-.14-1.14,0-.03,0-.06,0-.09,0-.47-.12-.93-.15-1.4-.04-.47-.04-.94-.13-1.4-.04-.23-.05-.47-.07-.7-.02-.23-.02-.47-.06-.7-.08-.47-.09-.94-.14-1.4-.08-.7-.16-1.4-.2-2.11-.09-.46-.1-.94-.15-1.4-.07-.7-.16-1.4-.2-2.11-.1-.49-.13-.99-.15-1.49,0-.15-.03-.29-.05-.44-.06-.32-.08-.64-.11-.96-.07-.76-.18-1.52-.22-2.28-.09-.43-.12-.87-.14-1.32,0-.15-.01-.3-.04-.44-.09-.46-.12-.93-.14-1.4,0-.12-.01-.24-.04-.35-.08-.43-.12-.87-.14-1.31,0-.15-.03-.29-.05-.44-.01-.09-.04-.17-.04-.26-.05-.79-.15-1.58-.23-2.37-.01-.12,0-.24-.02-.35-.11-.73-.15-1.46-.24-2.19-.01-.09-.04-.17-.04-.26-.03-.41-.05-.82-.1-1.23-.05-.41-.13-.81-.13-1.23,0-.06,0-.12,0-.18-.11-.76-.16-1.52-.25-2.28-.02-.17-.06-.35-.07-.52-.02-.5-.05-1-.15-1.49-.03-.74-.14-1.46-.21-2.19-.03-.32-.04-.65-.11-.96,0-.03-.01-.06-.01-.09-.03-.41-.05-.82-.1-1.23-.04-.41-.14-.81-.14-1.23,0-.32-.04-.65-.1-.96-.01-.06-.02-.12-.03-.17-.04-.76-.15-1.52-.22-2.28,0-.03,0-.06,0-.09,0-.44-.13-.87-.16-1.31-.03-.44-.04-.88-.12-1.32-.04-.2-.05-.41-.06-.61-.01-.15,0-.29-.02-.44-.04-.38-.11-.76-.14-1.14-.03-.38-.04-.76-.12-1.14,0-.03-.01-.06-.01-.09-.05-.79-.15-1.58-.23-2.37,0-.06,0-.12,0-.18,0-.44-.12-.87-.15-1.31-.03-.44-.03-.88-.12-1.32-.06-.29-.07-.58-.08-.88-.01-.35-.03-.71-.1-1.05-.02-.12-.05-.23-.05-.35,0-.71-.15-1.4-.19-2.11-.03-.53-.04-1.06-.01-1.59.02-.42.14-.81.33-1.18.34-.66.87-1.1,1.57-1.35.08-.03.17-.05.25-.08.68-.22,1.34-.13,1.97.17.11.05.21.11.3.18.4.3.75.66.98,1.12.1.21.2.43.28.65.18.53.32,1.07.35,1.63,0,.15.01.3.04.44.09.49.14.99.15,1.49.11.7.16,1.4.21,2.11.1.46.1.94.15,1.4.08.7.14,1.4.21,2.11.04.44.12.87.14,1.32,0,.12.02.24.04.35.08.41.1.82.13,1.23.07.76.18,1.52.22,2.28.09.43.1.88.14,1.31.07.73.17,1.46.21,2.19.09.43.12.87.14,1.32,0,.18.02.35.05.53.07.38.11.76.12,1.14,0,.03,0,.06,0,.09.1.76.16,1.52.25,2.28,0,.06.02.12.03.17.03.41.05.82.1,1.23.04.41.14.81.14,1.23,0,.32.04.65.1.96,0,.03.01.06.01.09.03.41.06.82.1,1.23.04.41.14.81.14,1.23,0,.32.04.65.1.97.04.2.06.41.07.61.02.35.05.7.11,1.05.04.23.05.47.07.7.02.23.02.47.06.7.08.47.12.93.14,1.4,0,.12.01.24.04.35.08.43.12.87.14,1.31,0,.15.03.29.05.44.01.09.04.17.04.26.03.41.05.82.1,1.23.04.41.14.81.14,1.23,0,.32.04.65.1.96.08.41.06.82.12,1.23.06.41.14.81.14,1.23,0,.44.12.87.15,1.31.04.44.04.88.11,1.32.05.26.06.53.08.79.02.23.02.47.06.7.07.44.1.88.14,1.32.06.73.16,1.46.21,2.19.02.35.1.7.16,1.05.02.12.07.22.13.32.11.17.36.26.54.18.08-.03.16-.07.24-.11.28-.16.54-.35.78-.58.29-.29.59-.58.88-.87.52-.53.91-1.15,1.21-1.83.32-.73.53-1.5.68-2.28.04-.23.06-.47.07-.7.02-.5.02-1,.02-1.5,0-3.3,0-6.59,0-9.89,0-.59,0-1.18.08-1.76.04-.32.03-.65.04-.97,0-1.47,0-2.94,0-4.41,0-8.15,0-16.3,0-24.45,0-.32,0-.65,0-.97,0-.21,0-.41-.03-.62-.09-.56-.08-1.11-.09-1.67,0-2.65,0-5.3,0-7.94,0-.38-.01-.76,0-1.15,0-.65-.12-1.29-.28-1.92-.2-.8-.52-1.57-.96-2.27-.56-.91-1.27-1.69-2.15-2.31-1-.71-2.12-1.14-3.31-1.4-.69-.15-1.39-.23-2.1-.22-2.8,0-5.59,0-8.39,0-15.48,0-30.95,0-46.43,0-.26,0-.53,0-.79,0-.74-.02-1.47.1-2.18.27-1.13.27-2.17.74-3.08,1.48-.11.09-.24.18-.35.27-.36.3-.7.63-.97,1.02-.29.41-.58.82-.81,1.26-.45.9-.79,1.84-.94,2.83-.06.38-.11.76-.18,1.13-.05.29-.12.58-.2.86-.18.64-.55,1.17-1.06,1.59-.14.11-.29.21-.45.28-.67.3-1.35.37-2.06.18-.78-.22-1.35-.7-1.74-1.39-.33-.57-.49-1.19-.48-1.86,0-.32.01-.65.08-.97.09-.46.14-.93.24-1.39.19-.8.42-1.59.7-2.37.05-.14.1-.28.16-.41.46-1.02.95-2.02,1.62-2.93.54-.73,1.11-1.45,1.8-2.06.75-.66,1.55-1.27,2.41-1.77,1.43-.84,2.96-1.44,4.6-1.75.52-.1,1.05-.17,1.57-.26.23-.04.47-.05.7-.05.5-.01,1-.01,1.5-.01,2.59,0,5.18-.01,7.77-.02.56,0,1.12,0,1.67-.08.32-.04.65-.03.97-.04,2.06,0,4.12-.01,6.18-.01,9.06,0,18.12,0,27.19,0,.24,0,.47,0,.71,0,.21,0,.41,0,.62.03.56.09,1.11.08,1.67.09,2.68,0,5.35.01,8.03.02.32,0,.65,0,.97.01.27,0,.53.02.79.07.14.03.29.05.44.07,1.33.14,2.6.51,3.83,1,1.02.4,1.96.95,2.85,1.59.82.59,1.55,1.27,2.21,2.02.45.51.84,1.06,1.2,1.63.11.17.22.34.33.51v69.55c-.27.31-.48.67-.72,1-.17.24-.34.48-.54.69-.63.66-1.27,1.31-1.99,1.87-.79.62-1.62,1.17-2.51,1.62-.18.09-.37.18-.55.29-.2.12-.4.24-.6.38-.41.29-.64.68-.67,1.18-.03.62-.03,1.24.06,1.85.06.38.1.76.12,1.14,0,.12.01.24.04.35.08.43.1.88.15,1.31.07.64.16,1.28.19,1.93,0,.09.02.18.04.26.06.32.09.64.11.96.02.26.05.53.09.79.11.7.08,1.41.22,2.1.04.17.02.35.04.53.02.26.02.53.06.79.07.44.12.87.13,1.32,0,.15.01.3.04.44.13.64.13,1.29.14,1.93,0,.44,0,.88,0,1.32-.01.42-.13.81-.3,1.19-.07.16-.17.31-.28.45-.29.35-.63.61-1.06.77-.61.22-1.24.37-1.89.37-.62,0-1.23,0-1.85.01-.26,0-.53,0-.79.03-.24.02-.46.08-.68.18-.16.08-.29.2-.38.36-.07.13-.13.27-.15.41-.02.2-.04.41-.05.61,0,.5,0,1,0,1.5,0,10.58,0,21.17,0,31.75,0,.74-.07,1.47-.19,2.19-.07.44-.22.85-.42,1.25-.24.46-.59.8-1.06,1.02-.19.09-.38.16-.57.22-.14.05-.28.09-.4.17h-48.02c-.11-.05-.21-.1-.32-.14-.19-.07-.4-.11-.59-.19-.73-.27-1.25-.76-1.49-1.52-.03-.08-.06-.17-.08-.25-.11-.43-.2-.86-.19-1.31,0-.47,0-.94,0-1.41,0-10.12,0-20.23,0-30.35,0-.29,0-.59,0-.88.02-.53-.06-1.06-.17-1.57-.07-.35-.22-.67-.41-.97-.15-.22-.34-.41-.56-.55-.22-.15-.46-.27-.71-.34-.42-.12-.85-.22-1.3-.22-.32,0-.65,0-.97-.01-.84-.03-1.62-.26-2.34-.7-.31-.19-.56-.43-.74-.74-.33-.54-.52-1.12-.53-1.75,0-.24-.01-.47,0-.71.06-.67.18-1.34.19-2.02,0-.12.03-.23.05-.35.06-.32.09-.64.1-.96,0-.41.1-.82.14-1.23.04-.41.07-.82.1-1.23,0-.03,0-.06.01-.09.06-.29.08-.58.1-.88.06-.76.19-1.52.22-2.28.1-.49.13-.99.15-1.49,0-.18.04-.35.07-.52.1-.76.15-1.52.25-2.28,0-.03,0-.06,0-.09.01-.38.04-.76.12-1.14.06-.32.07-.64.06-.97,0-.3-.07-.58-.19-.85-.29-.65-.78-1.09-1.44-1.35-.22-.09-.46-.1-.7-.06-.2.03-.38.21-.43.4-.04.17-.06.35-.06.52,0,.56,0,1.12,0,1.68,0,17.76,0,35.52,0,53.29,0,.35,0,.71,0,1.06,0,.23-.02.47-.04.7-.03.35-.08.7-.11,1.05-.04.41-.16.8-.31,1.19-.22.55-.63.91-1.17,1.13-.14.06-.28.1-.42.14-.14.04-.29.06-.43.1-.11.03-.22.08-.33.13h-30.72c-.11-.05-.21-.11-.32-.14-.19-.07-.4-.12-.59-.19-.14-.05-.27-.12-.39-.2-.47-.33-.82-.76-1-1.31-.12-.37-.19-.74-.2-1.13,0-.65-.02-1.29-.02-1.94,0-17.74,0-35.48,0-53.21,0-.29,0-.59,0-.88,0-.62-.11-1.23-.18-1.84-.02-.2-.23-.37-.43-.38-.18-.01-.36,0-.52.06-.42.14-.84.28-1.25.44-.6.23-1.22.44-1.84.63-.65.2-1.32.31-2,.29-.26,0-.53,0-.79,0-.18,0-.35,0-.53.02-.24.02-.46.08-.68.18-.22.1-.4.25-.52.46-.06.1-.11.21-.15.32-.13.42-.22.85-.22,1.3,0,.24,0,.47,0,.71,0,1.26,0,2.53,0,3.79,0,2.38,0,4.77,0,7.15,0,.47,0,.94.07,1.41.03.23.04.47.04.7,0,.26,0,.53,0,.79,0,7.65,0,15.3,0,22.95,0,.24,0,.47,0,.71,0,.21,0,.41-.04.62-.07.47-.08.94-.08,1.41,0,.62,0,1.24,0,1.85,0,.35,0,.71.06,1.06.05.29.06.59.06.88,0,2.29,0,4.59,0,6.88,0,.24,0,.47-.03.7-.09.58-.09,1.17-.09,1.76,0,.41,0,.82-.03,1.23-.03.6-.22,1.15-.52,1.67-.23.39-.56.69-.98.86-.24.1-.5.18-.75.26-.14.04-.28.09-.41.17h-47.66ZM117.49,177.49h-.01c0,9.8,0,19.59,0,29.39,0,1.74,0,3.47,0,5.21,0,.32,0,.65.02.97,0,.15.02.29.05.44.11.46.36.8.82.97.14.05.28.09.43.09.32.02.65.02.97.01,1.5-.03,3-.03,4.5,0,.24,0,.47,0,.71,0,.15,0,.29-.02.44-.03.21-.03.39-.12.55-.26.11-.1.21-.21.28-.34.12-.21.2-.43.21-.67.02-.41.03-.82.03-1.23,0-10.5,0-21.01,0-31.51,0-.24,0-.47,0-.71.02-.63.2-1.22.51-1.76.21-.36.5-.66.85-.88.33-.21.68-.36,1.07-.39.5-.04,1-.06,1.48.11.03,0,.06.02.08.03.54.2.96.56,1.3,1.02.05.07.1.15.13.23.24.54.42,1.1.42,1.7,0,.24,0,.47,0,.71,0,9.12,0,18.24,0,27.36,0,.41,0,.82,0,1.24,0,.29-.03.59-.08.88-.15.91-.13,1.82-.09,2.73.02.42.18.8.42,1.14.1.15.23.27.37.37.34.24.72.4,1.14.42.15,0,.29.02.44.02.59,0,1.18-.02,1.76-.04.18,0,.35-.02.53-.06.46-.09.93-.11,1.41-.11.38,0,.76,0,1.15,0,.24,0,.47,0,.71-.01.12,0,.23-.03.35-.05.41-.08.74-.41.82-.83.02-.12.04-.23.05-.35.01-.23.02-.47.02-.71,0-.47,0-.94,0-1.41,0-22.36,0-44.72,0-67.08,0-.47.01-.94,0-1.41-.02-.71.08-1.41.23-2.1.12-.55.26-1.09.49-1.6.32-.7.68-1.37,1.16-1.97.56-.72,1.11-1.45,1.68-2.16.84-1.03,1.63-2.08,2.46-3.12.48-.6.94-1.21,1.41-1.81.71-.9,1.42-1.81,2.12-2.71.13-.16.25-.33.37-.49.62-.79,1.23-1.57,1.85-2.36.61-.79,1.22-1.58,1.84-2.37.69-.88,1.38-1.76,2.06-2.64.14-.19.28-.38.43-.56.63-.81,1.27-1.62,1.9-2.43.6-.77,1.19-1.54,1.78-2.3.69-.88,1.38-1.76,2.07-2.64.38-.49.75-.98,1.14-1.46,1.01-1.26,1.96-2.57,2.94-3.86.25-.33.44-.7.59-1.08.15-.38.25-.78.29-1.2.05-.6-.1-1.17-.33-1.72-.23-.53-.61-.93-1.06-1.28-.3-.23-.63-.43-1.01-.54-.28-.08-.57-.14-.86-.2-.17-.04-.35-.03-.53,0-.17.04-.35.07-.52.12-.57.17-1.1.43-1.54.83-.42.37-.81.77-1.15,1.22-.59.77-1.2,1.53-1.8,2.29-.85,1.09-1.7,2.18-2.55,3.27-.81,1.05-1.63,2.09-2.44,3.13-.83,1.07-1.66,2.13-2.49,3.2-.81,1.05-1.63,2.09-2.44,3.13-.83,1.07-1.66,2.13-2.49,3.2-.83,1.07-1.67,2.13-2.49,3.21-.72.93-1.43,1.87-2.16,2.8-.16.21-.32.42-.48.63-.58.74-1.16,1.48-1.74,2.23-.58.74-1.13,1.5-1.73,2.23-.19.23-.38.45-.61.63-.35.27-.72.51-1.13.69-.3.14-.6.24-.92.3-.52.11-1.05.15-1.58.15-2.65,0-5.3,0-7.94,0-.56,0-1.12,0-1.68,0-.57,0-1.11-.09-1.65-.24-.57-.16-1.1-.42-1.56-.79-.28-.22-.54-.45-.75-.74-.14-.19-.3-.36-.45-.55-.56-.72-1.11-1.44-1.67-2.17-.3-.4-.6-.8-.91-1.2-.98-1.25-1.96-2.5-2.93-3.75-.79-1.02-1.59-2.04-2.39-3.06-.89-1.13-1.77-2.28-2.65-3.41-.47-.6-.93-1.21-1.41-1.81-.71-.9-1.41-1.81-2.12-2.71-.13-.16-.25-.33-.37-.49-.63-.81-1.27-1.62-1.9-2.44-.6-.77-1.19-1.54-1.78-2.3-.71-.9-1.41-1.81-2.12-2.71-.2-.25-.4-.51-.6-.76-.57-.71-1.14-1.42-1.7-2.14-.33-.42-.7-.8-1.08-1.16-.28-.27-.61-.46-.97-.6-.39-.15-.79-.21-1.21-.25-.12-.01-.24,0-.35.02-.59.09-1.14.3-1.64.62-.15.09-.29.2-.42.32-.49.45-.82.99-.98,1.64-.03.14-.07.29-.1.43-.07.32-.08.64,0,.96.03.14.06.29.1.43.16.64.42,1.22.82,1.74.43.56.86,1.12,1.3,1.67.85,1.09,1.7,2.18,2.55,3.27.81,1.05,1.63,2.09,2.44,3.13.83,1.07,1.66,2.14,2.49,3.2.74.95,1.47,1.91,2.21,2.87.14.19.28.38.43.56.6.77,1.2,1.53,1.79,2.29.63.81,1.26,1.63,1.89,2.44.78,1,1.57,1.98,2.35,2.98.65.83,1.29,1.68,1.94,2.51.05.07.11.14.16.21.51.65,1.02,1.29,1.53,1.94.62.78,1.23,1.57,1.86,2.35.42.53.83,1.07,1.23,1.61.12.17.23.34.33.52.19.36.38.73.56,1.1.13.26.23.54.31.82.27.97.48,1.94.45,2.95,0,.18,0,.35,0,.53,0,11.42,0,22.83,0,34.25ZM162.5,197.63h0c0,4.88,0,9.76,0,14.64,0,.26,0,.53,0,.79,0,.12.01.24.03.35.08.53.46,1.14,1.24,1.16.26,0,.53.01.79.01,4.47,0,8.94,0,13.4,0,.24,0,.47,0,.71,0,.12,0,.24-.01.35-.04.47-.1.8-.35.93-.83.09-.31.15-.63.15-.96,0-.26,0-.53,0-.79,0-9.5,0-18.99,0-28.49,0-.24,0-.47,0-.71,0-.36-.06-.7-.16-1.04-.11-.39-.36-.66-.73-.84-.19-.09-.39-.15-.59-.15-.35-.01-.71-.02-1.06-.02-2.62,0-5.23.01-7.85.01-1.62,0-3.23-.01-4.85-.01-.29,0-.59,0-.88.02-.27.01-.52.1-.75.22-.21.11-.38.28-.49.49-.13.24-.21.49-.22.75-.01.32-.02.65-.02.97,0,4.82,0,9.64,0,14.46ZM186.15,197.71c0,4.79,0,9.59,0,14.38,0,.32,0,.65,0,.97,0,.15.02.29.05.44.1.53.53.96,1.07,1.04.15.02.29.04.44.04.26,0,.53,0,.79,0,4.29,0,8.59,0,12.88,0,.26,0,.53,0,.79,0,.15,0,.29-.01.44-.04.44-.07.75-.31.93-.72.01-.03.02-.05.03-.08.11-.31.18-.62.18-.95,0-1.06,0-2.12-.01-3.18,0-.18-.02-.35-.05-.53-.05-.32-.06-.64-.06-.97,0-1.76,0-3.53,0-5.29,0-.29,0-.59.06-.88.06-.35.06-.7.06-1.06,0-2.12,0-4.23,0-6.35,0-.32,0-.65-.05-.97-.06-.35-.06-.7-.06-1.06,0-1.76,0-3.53,0-5.29,0-.35.01-.7.06-1.06.03-.2.05-.41.05-.61,0-.94,0-1.88.01-2.82,0-.36-.06-.7-.17-1.04-.11-.36-.34-.61-.66-.79-.21-.11-.44-.17-.68-.18-.32,0-.65-.01-.97-.01-2.68,0-5.35,0-8.03.01-1.59,0-3.18,0-4.76,0-.29,0-.59,0-.88.02-.27.01-.52.09-.76.2-.22.11-.38.27-.49.49-.13.27-.2.55-.2.85,0,.35-.01.71-.01,1.06,0,4.79,0,9.59,0,14.38Z"/>
  <path class="cls-1" d="M77.93,28.34c.13.07.27.13.42.14.5.04.99.14,1.48.23.55.1,1.1.23,1.63.38,1.04.3,2.08.63,3.06,1.11.03.01.05.03.08.04,1.66.71,3.16,1.69,4.59,2.78.66.58,1.37,1.11,1.97,1.76.28.3.56.6.82.92.35.43.73.84,1.06,1.3.67.93,1.31,1.88,1.82,2.91.39.79.79,1.58,1.1,2.41.21.55.4,1.11.55,1.68.11.43.23.85.32,1.28.18.8.33,1.61.37,2.44,0,.18.03.35.06.53.07.38.09.76.09,1.14,0,.35,0,.71,0,1.06,0,.32-.02.65-.07.97-.03.14-.05.29-.06.44-.05.79-.19,1.58-.36,2.35-.22,1.04-.51,2.05-.89,3.04-.43,1.13-.97,2.21-1.55,3.26-.4.72-.88,1.39-1.36,2.06-.31.43-.67.82-1,1.23-.35.44-.73.84-1.13,1.24-.37.37-.75.74-1.18,1.07-.37.29-.71.61-1.09.89-1.88,1.4-3.92,2.49-6.14,3.23-.95.32-1.91.6-2.9.77-.46.08-.93.18-1.39.22-.73.06-1.46.11-2.2.18-.38.03-.76.02-1.14-.04-.38-.06-.76-.09-1.14-.1-.32,0-.64-.04-.96-.1-.38-.07-.75-.13-1.13-.19-.81-.14-1.61-.36-2.39-.62-1.64-.54-2.12-.73-3.65-1.54-1.15-.61-2.22-1.32-3.24-2.12-.14-.11-.27-.23-.4-.35-.15-.14-.3-.29-.46-.41-.47-.35-.88-.78-1.29-1.2-.06-.06-.13-.12-.18-.19-.54-.66-1.12-1.29-1.61-1.98-.46-.65-.89-1.31-1.3-1.99-.7-1.16-1.23-2.41-1.68-3.69-.4-1.14-.7-2.31-.91-3.5-.04-.23-.07-.47-.1-.7-.02-.17-.02-.35-.06-.53-.11-.52-.12-1.05-.12-1.58,0-.56,0-1.12,0-1.68,0-.21,0-.41.02-.62.15-1.14.25-2.28.52-3.4.29-1.17.66-2.32,1.11-3.44.73-1.82,1.72-3.48,2.93-5.01.6-.76,1.23-1.5,1.94-2.16.26-.24.51-.49.79-.7.12-.09.23-.18.34-.28.8-.7,1.66-1.31,2.57-1.85.5-.3,1.01-.6,1.54-.86.74-.37,1.5-.69,2.28-.95.69-.24,1.39-.47,2.11-.65.83-.21,1.67-.36,2.51-.47.21-.03.41-.06.59-.16h4.41ZM91.17,49.91s0,0,0,0c0-.44,0-.88-.02-1.32,0-.23-.03-.47-.06-.7-.12-.79-.27-1.56-.48-2.33-.27-.97-.62-1.9-1.09-2.79-.27-.52-.59-1.02-.89-1.52-.35-.58-.78-1.1-1.21-1.63-.46-.57-.98-1.09-1.54-1.57-.6-.52-1.23-1-1.9-1.43-1.04-.68-2.13-1.24-3.32-1.62-.28-.09-.56-.19-.84-.27-.25-.07-.51-.13-.77-.2-.51-.13-1.04-.16-1.57-.25-.35-.06-.7-.09-1.05-.09-.38,0-.76,0-1.15,0-.21,0-.41,0-.62.03-.7.1-1.4.17-2.09.33-1.01.22-1.99.52-2.93.94-.75.34-1.48.72-2.18,1.15-.85.53-1.63,1.15-2.38,1.82-.96.87-1.78,1.87-2.48,2.97-.35.55-.7,1.09-.96,1.68-.48,1.08-.9,2.17-1.14,3.33-.1.49-.23.97-.24,1.48,0,.09-.01.18-.03.26-.14.67-.12,1.35-.11,2.02,0,.21.02.41.05.61.05.35.1.7.12,1.05.01.15.04.29.06.44.17,1.02.45,2.01.81,2.97.23.6.46,1.21.78,1.77.15.25.29.51.45.76.65,1.05,1.37,2.05,2.28,2.91.28.26.54.55.83.79.69.55,1.39,1.09,2.15,1.54,1.25.74,2.57,1.3,3.97,1.67.65.17,1.32.31,1.98.41.32.05.64.09.96.09.62,0,1.23,0,1.85.01.83.01,1.64-.13,2.45-.29.78-.16,1.54-.38,2.29-.64,1.03-.37,2-.86,2.93-1.43.53-.32,1.01-.71,1.5-1.09.74-.59,1.41-1.25,2.02-1.97.72-.85,1.35-1.78,1.84-2.79.14-.29.28-.58.43-.87.32-.63.54-1.3.73-1.98.06-.23.12-.45.17-.68.25-1.07.4-2,.38-3.05,0-.18,0-.35,0-.53Z"/>
  <path class="cls-1" d="M185.26,28.34c.13.07.27.13.41.14.79.08,1.56.27,2.34.42.2.04.4.09.6.14,1.65.46,3.25,1.03,4.75,1.86,1.19.65,2.31,1.41,3.37,2.26.78.63,1.49,1.33,2.19,2.05.16.17.31.35.46.53.09.11.18.24.28.34.41.43.74.91,1.07,1.4.23.34.46.69.68,1.03.13.2.25.4.36.61.5.94.98,1.88,1.35,2.87.12.33.24.66.35,1,.36,1.12.62,2.27.82,3.43.08.46.13.93.19,1.4.02.17.03.35.03.53,0,.94,0,1.88,0,2.82,0,.32-.03.64-.08.97-.09.58-.16,1.16-.27,1.74-.17.87-.39,1.72-.65,2.56-.12.39-.28.77-.43,1.16-.29.74-.59,1.47-.97,2.17-.45.83-.91,1.65-1.48,2.4-.14.19-.27.38-.41.58-.17.24-.34.48-.54.69-.1.11-.2.21-.29.33-.49.67-1.1,1.22-1.69,1.8-.12.12-.26.23-.4.35-.16.13-.32.26-.47.39-.46.42-.96.78-1.46,1.13-.36.25-.73.49-1.1.73-.12.08-.25.16-.37.23-1.21.66-2.45,1.28-3.75,1.75-.83.3-1.69.51-2.55.71-.63.14-1.27.23-1.91.33-.23.04-.47.04-.7.05-.35.01-.7.04-1.05.09-.56.08-1.11.08-1.67,0-.38-.05-.76-.09-1.14-.1-.32,0-.64-.05-.96-.1-.85-.12-1.68-.31-2.5-.53-1.95-.5-3.78-1.28-5.52-2.31-1.09-.65-2.11-1.4-3.07-2.22-.07-.06-.13-.12-.2-.17-.48-.35-.88-.78-1.3-1.19-.02-.02-.04-.04-.06-.06-1.05-1.19-2.07-2.4-2.88-3.78-.49-.84-.93-1.7-1.35-2.58-.05-.11-.1-.21-.14-.32-.46-1.15-.85-2.32-1.12-3.53-.16-.69-.26-1.39-.37-2.08-.03-.17-.03-.35-.04-.53-.02-.23-.04-.47-.07-.7-.12-.91-.12-1.82,0-2.73.02-.17.05-.35.06-.53.04-1,.22-1.99.46-2.96.08-.31.16-.63.24-.94.04-.14.07-.29.12-.43.3-.86.58-1.73.98-2.55.35-.71.7-1.43,1.1-2.11.41-.68.85-1.34,1.33-1.97.34-.45.67-.89,1.07-1.29.12-.13.23-.26.34-.4.39-.48.82-.92,1.31-1.3.14-.11.28-.22.4-.34.58-.55,1.22-1.01,1.87-1.47.8-.56,1.64-1.03,2.49-1.51.08-.04.15-.09.24-.12.7-.3,1.39-.64,2.11-.89.92-.32,1.84-.61,2.79-.82.57-.12,1.15-.25,1.74-.31.18-.02.35-.06.5-.15h4.59ZM182.98,65.23h0c.21,0,.41,0,.62,0,.83.03,1.64-.09,2.45-.26,1.5-.31,2.95-.78,4.32-1.5,1.31-.69,2.51-1.52,3.56-2.57.27-.27.54-.54.8-.82.14-.15.28-.3.41-.46.97-1.19,1.75-2.5,2.35-3.92.06-.13.1-.27.16-.41.55-1.41.8-2.88.98-4.38,0-.06,0-.12.01-.18.02-.65.04-1.29,0-1.94-.04-.56-.13-1.11-.22-1.66-.05-.35-.13-.7-.22-1.03-.38-1.31-.32-1.31-.86-2.5-.06-.13-.11-.27-.17-.41-.1-.21-.2-.42-.32-.63-.16-.28-.32-.56-.49-.84-.5-.83-1.08-1.61-1.73-2.33-.91-1.01-1.93-1.89-3.07-2.63-.3-.19-.6-.37-.9-.55-1.16-.71-2.42-1.19-3.74-1.54-.88-.24-1.79-.33-2.69-.47-.06,0-.12-.01-.18-.01-.65,0-1.29,0-1.94,0-.58.08-1.17.14-1.75.23-1.41.23-3.57.99-4.7,1.7-.1.06-.21.11-.31.17-.73.39-1.38.89-2.02,1.42-.23.19-.45.38-.67.57-.34.28-.65.59-.93.94-.13.16-.26.32-.39.47-.88.96-1.54,2.08-2.15,3.22-.06.1-.1.21-.14.32-.08.19-.16.38-.25.57-.27.59-.47,1.2-.64,1.83-.18.65-.32,1.31-.42,1.98-.06.38-.11.76-.11,1.14,0,.71,0,1.41,0,2.12,0,.23.01.47.05.7.17,1.2.39,2.38.83,3.51.13.33.23.67.38.99.48,1.07,1.06,2.1,1.78,3.04.27.35.53.7.82,1.04.86.98,1.85,1.81,2.93,2.53,1.11.73,2.28,1.34,3.55,1.74.53.17,1.07.32,1.61.45.98.22,1.96.38,2.97.36.15,0,.29,0,.44,0Z"/>
  <path class="cls-1" d="M129.32,121.4c-.29,0-.59,0-.88,0-.38,0-.76-.06-1.14-.11-1.44-.19-2.8-.66-4.13-1.24-.24-.11-.48-.23-.71-.36-.26-.14-.51-.29-.76-.45-1.13-.7-2.17-1.51-3.09-2.48-.24-.25-.89-1.05-1.23-1.5-.71-.94-1.28-1.97-1.74-3.06-.37-.87-.64-1.77-.82-2.69-.11-.55-.2-1.1-.21-1.66,0-.26-.05-.53-.08-.79-.03-.23-.03-.47,0-.7.03-.26.08-.53.08-.79.01-.71.16-1.4.3-2.09.18-.84.46-1.64.78-2.43.52-1.3,1.25-2.46,2.11-3.55.13-.16.27-.31.41-.46.29-.3.57-.59.86-.88,1.03-1.03,2.2-1.85,3.49-2.52.81-.42,1.65-.77,2.52-1.04.56-.17,1.13-.31,1.71-.4.52-.09,1.04-.16,1.58-.18.23,0,.47-.04.7-.07.26-.03.53-.03.79,0,.26.03.53.08.79.08.62,0,1.23.13,1.83.25,1.16.23,2.26.65,3.33,1.13.13.06.26.13.39.21.18.1.36.21.54.31.99.53,1.88,1.2,2.68,1.99.25.25.5.5.75.75.78.77,1.42,1.64,1.99,2.58.46.76.84,1.55,1.15,2.38.37.96.61,1.96.78,2.98.02.12.03.23.03.35.02.35.05.7.11,1.05.07.44.06.88,0,1.32-.03.2-.07.41-.07.61-.02.8-.19,1.58-.39,2.34-.24.94-.56,1.86-1,2.73-.33.66-.67,1.31-1.1,1.91-.51.72-1.06,1.41-1.68,2.04-.72.74-1.52,1.39-2.38,1.95-.37.24-.74.49-1.12.71-.61.35-1.25.65-1.92.87-.42.14-.84.28-1.26.41-.48.15-.97.24-1.46.33-.84.16-1.69.18-2.55.17ZM129.38,97.89h0c-.21,0-.41,0-.62,0-.56,0-1.11.1-1.65.25-.8.22-1.56.53-2.26.97-.45.28-.87.61-1.27.95-.22.19-.43.4-.62.62-.57.68-1.07,1.4-1.45,2.2-.54,1.16-.86,2.37-.85,3.66,0,.15,0,.29,0,.44,0,.5.06.99.15,1.49.21,1.08.63,2.08,1.2,3.01.15.25.32.49.52.71.6.69,1.26,1.31,2.04,1.8.8.51,1.65.9,2.58,1.1.46.1.92.22,1.39.24.88.04,1.76.04,2.63-.14.96-.2,1.87-.5,2.72-.99.51-.29,1-.62,1.42-1.04.21-.21.42-.42.62-.62.42-.42.76-.9,1.05-1.41.1-.18.19-.36.28-.55.56-1.15.87-2.37.87-3.65,0-.35,0-.71-.01-1.06,0-.18-.01-.35-.05-.53-.13-.63-.27-1.26-.5-1.87-.23-.61-.54-1.18-.89-1.72-.39-.59-.83-1.14-1.36-1.61-.2-.17-.41-.33-.62-.5-.86-.69-1.83-1.17-2.89-1.47-.59-.17-1.2-.3-1.82-.29-.21,0-.41,0-.62,0Z"/>
</svg>