<?xml version="1.0" encoding="UTF-8"?>
<svg id="Capa_3" data-name="Capa 3" xmlns="http://www.w3.org/2000/svg" viewBox="0 0 250 250">
  <defs>
    <style>
      .cls-1 {
        fill: #f6a42c;
        stroke-width: 0px;
      }
    </style>
  </defs>
  <path class="cls-1" d="M124.06,218.95c-.1-.14-.22-.24-.38-.29-.26-.09-.51-.18-.77-.26-.84-.24-1.66-.53-2.49-.79-.65-.21-1.29-.43-1.94-.63-1.85-.57-3.67-1.2-5.52-1.78-1.35-.42-2.69-.88-4.04-1.3-1.85-.58-3.67-1.2-5.52-1.78-1.79-.56-3.57-1.18-5.36-1.73-1.77-.55-3.52-1.15-5.29-1.7-1.61-.5-3.21-1.05-4.82-1.56-1.77-.55-3.52-1.15-5.29-1.7-1.64-.51-3.26-1.07-4.9-1.58-1.74-.54-3.47-1.14-5.21-1.68-1.66-.52-3.31-1.09-4.97-1.61-1.72-.53-3.42-1.12-5.13-1.65-1.06-.33-2.13-.68-3.19-1.02-1.04-.33-2.1-.58-3.17-.76-.43-.07-.86-.12-1.29-.18-.21-.03-.43-.03-.65-.03-.79-.01-1.58-.02-2.37-.02-4.19,0-8.39,0-12.58,0-.52,0-1.03,0-1.55-.08-.3-.04-.6-.03-.9-.03-1.2,0-2.4,0-3.59,0-.65,0-1.31,0-1.96-.01-.46,0-.92-.05-1.38-.12-.59-.09-1.18-.22-1.76-.36-.48-.12-.94-.29-1.38-.5-.44-.21-.88-.43-1.29-.71-.25-.17-.49-.34-.71-.55-.35-.34-.7-.69-1.04-1.04-.32-.33-.59-.72-.84-1.1-.55-.85-1.01-1.74-1.42-2.67-.16-.35-.24-.72-.24-1.11,0-.22,0-.44,0-.65,0-9.28,0-18.57,0-27.85,0-.22,0-.44,0-.65,0-.33.07-.65.18-.96.34-.92.77-1.8,1.32-2.62.46-.68.98-1.31,1.59-1.86.57-.51,1.18-.97,1.86-1.32.92-.48,1.89-.84,2.91-1.04.43-.08.85-.19,1.29-.2.67-.15,1.35-.13,2.03-.13,6.18,0,12.36,0,18.54,0,.54,0,1.09,0,1.63-.01.3,0,.6-.02.89-.09.11-.02.21-.04.32-.05,1.28-.13,2.51-.49,3.71-.94.99-.38,1.94-.86,2.86-1.38.71-.41,1.41-.82,2.14-1.19.27-.14.52-.29.79-.43.07-.04.14-.08.21-.12.84-.45,1.68-.91,2.52-1.36.46-.24.92-.47,1.36-.74.21-.13.43-.23.65-.35.36-.2.72-.39,1.07-.59.07-.04.14-.08.21-.12.83-.41,1.62-.89,2.44-1.33.55-.3,1.09-.62,1.63-.93.64-.36,1.3-.69,1.97-.99.62-.27,1.25-.53,1.89-.76,1.2-.45,2.44-.77,3.7-1.01.32-.06.64-.11.97-.15.16-.02.32-.04.49-.04.44-.01.87-.04,1.3-.11.24-.04.49-.04.73-.07.29-.04.5-.21.63-.46.08-.15.14-.3.14-.47.03-.63.17-1.24.21-1.87.02-.35.1-.7.15-1.05.26-1.56.51-3.12.88-4.65.25-1.28.64-2.53.97-3.8.07-.26.16-.52.24-.78.19-.6.4-1.19.59-1.78.47-1.48,1.04-2.92,1.64-4.36.29-.7.58-1.41.93-2.09.05-.1.1-.19.14-.3.36-.88.81-1.73,1.24-2.58.21-.41.42-.83.66-1.22.06-.09.11-.19.16-.29.53-1.01,1.12-1.99,1.7-2.98.93-1.57,1.94-3.09,2.97-4.6.68-.99,1.38-1.96,2.11-2.91.68-.89,1.36-1.77,2.04-2.65.44-.48.82-1.02,1.27-1.5.09-.1.19-.2.27-.31.33-.44.71-.82,1.08-1.22.19-.2.37-.4.54-.61.19-.23.39-.45.6-.66.46-.46.92-.93,1.38-1.39.29-.29.59-.57.9-.83.29-.24.56-.51.84-.78.32-.3.63-.61.98-.86.09-.06.17-.14.25-.21.54-.51,1.12-.95,1.7-1.41.28-.22.55-.44.83-.67.08-.07.16-.15.23-.23.32-.4.37-.84.19-1.3-.06-.15-.15-.29-.23-.43-.15-.23-.3-.45-.45-.68-.76-1.15-1.24-2.41-1.51-3.76-.16-.81-.17-1.62-.13-2.44.02-.46.12-.92.25-1.36.13-.44.28-.88.44-1.32.13-.36.31-.7.51-1.02.33-.53.66-1.06,1.1-1.52.07-.08.15-.16.21-.25.25-.33.54-.61.86-.87.28-.22.53-.47.79-.71.08-.07.15-.16.22-.24.42-.51.59-1.1.47-1.75-.05-.27-.12-.53-.19-.79-.17-.6-.34-1.21-.51-1.81-.37-1.31-.75-2.62-1.1-3.93-.48-1.79-.96-3.57-1.47-5.36-.3-1.07-.6-2.15-.93-3.22-.24-.78-.46-1.57-.7-2.35-.17-.57-.37-1.14-.55-1.71-.09-.28-.19-.57-.28-.85-.21-.68-.31-1.38-.41-2.08-.02-.13-.02-.27-.02-.41,0-.27,0-.54,0-.82-.02-1.24.2-2.44.57-3.61.25-.78.58-1.53.97-2.24.37-.67.83-1.28,1.33-1.86.13-.14.26-.28.39-.41,1.04-1.04,1.05-1.07,2.48-1.98.23-.15.47-.28.71-.39.99-.45,2.02-.81,3.1-1,.4-.07.8-.14,1.21-.15.14,0,.27-.02.41-.04.4-.07.81-.08,1.22-.08.35,0,.71-.01,1.06-.02.3,0,.59-.07.88-.17.39-.13.75-.32,1.1-.53.07-.04.14-.09.2-.15.45-.4.88-.81,1.23-1.31.22-.31.45-.62.66-.93.36-.51.8-.97,1.2-1.45.26-.31.56-.59.88-.85.13-.1.26-.2.38-.31.9-.81,1.91-1.45,2.97-2.01,1.26-.67,2.6-1.11,3.98-1.44.37-.09.74-.17,1.12-.2.14,0,.26-.06.38-.13h3.76c.15.08.3.12.47.13.24.02.49.04.73.09.72.16,1.43.34,2.13.57.57.19,1.12.43,1.67.67.22.1.44.21.66.33.22.12.43.24.64.36.33.18.66.39.96.62.29.21.56.43.85.64.4.29.76.62,1.11.97.11.12.23.23.35.35.31.31.6.63.87.97.31.38.61.77.88,1.18.14.2.29.39.43.59.2.29.44.55.7.79.57.53,1.21.92,1.98,1.1.24.05.48.1.73.11.24,0,.49.02.73.02.33,0,.65.02.98.06.27.04.54.06.81.06.63,0,1.24.13,1.86.26.43.09.84.22,1.26.35.26.08.51.18.76.29.27.12.54.26.81.39,1.01.5,1.91,1.15,2.7,1.95.15.15.31.31.46.47.51.57.97,1.17,1.35,1.84.72,1.27,1.2,2.62,1.45,4.06.05.27.11.53.12.81.01.92.08,1.85-.11,2.77-.01.05-.02.11-.02.16-.02.36-.1.7-.18,1.04-.15.61-.31,1.21-.47,1.82-.26.92-.53,1.83-.79,2.75-.38,1.34-.76,2.67-1.14,4.01-.49,1.7-.97,3.4-1.46,5.1-.53,1.86-1.07,3.72-1.59,5.58-.13.45-.23.9-.35,1.34-.05.19-.07.38-.04.57.06.44.21.85.5,1.19.21.25.46.46.72.66.94.72,1.7,1.6,2.34,2.59.23.37.43.76.6,1.16.27.63.46,1.28.6,1.95.06.29.11.59.11.89,0,.6,0,1.2,0,1.8,0,.19-.02.38-.05.57-.25,1.33-.69,2.57-1.44,3.7-.18.27-.36.54-.54.82-.22.33-.29.7-.27,1.09.02.25.1.48.27.67.27.31.56.6.88.85.3.24.59.48.87.74.12.11.24.22.37.32.26.2.5.42.74.65.43.41.86.84,1.33,1.21.15.12.28.26.42.39,1.08,1.08,2.16,2.15,3.23,3.24.17.17.34.35.49.54.24.3.5.57.76.85.21.22.43.42.61.66.43.56.95,1.05,1.37,1.62.75.86,1.45,1.76,2.15,2.67,1.03,1.34,2.01,2.71,2.94,4.12.25.39.49.78.74,1.17.89,1.4,1.74,2.83,2.52,4.3.06.12.13.24.2.36.17.31.35.62.51.93.44.87.86,1.76,1.28,2.65.53,1.14,1.02,2.29,1.5,3.44.45,1.08.86,2.18,1.22,3.29.28.85.56,1.71.85,2.56.07.21.14.41.19.62.28,1,.56,1.99.83,2.99.09.31.15.64.23.95.04.19.08.37.13.56.25,1,.45,2.02.66,3.03.07.35.14.69.18,1.05.07.57.19,1.13.21,1.7,0,.08.02.16.04.24.07.32.08.65.09.97.01.3.02.6.06.9.07.43.08.87.09,1.3,0,.6,0,1.2,0,1.8,0,.38-.02.76-.09,1.14-.07.35-.08.7-.06,1.06,0,.11.03.22.05.32.08.32.44.54.76.47.08-.02.16-.04.23-.07.2-.08.39-.19.57-.32.11-.08.22-.16.32-.25.53-.43,1.11-.78,1.73-1.08.1-.05.2-.1.29-.14.78-.39,1.61-.66,2.47-.83.37-.08.75-.15,1.13-.18.57-.05,1.14-.03,1.71,0,.11,0,.22.02.32.04.56.1,1.12.21,1.68.35,1.09.28,2.11.71,3.07,1.3.54.33,1.04.7,1.49,1.14.21.21.43.42.63.64.43.45.81.96,1.13,1.5.18.3.35.61.53.92v9.97s-.06.09-.09.14c-.42.8-.97,1.51-1.6,2.15-.15.15-.31.31-.46.46-.37.36-.75.71-1.17,1.01-.22.16-.44.32-.65.5-.88.73-1.82,1.39-2.71,2.1-.87.69-1.78,1.35-2.66,2.03-1.64,1.26-3.31,2.49-4.95,3.75-1.51,1.16-3.05,2.29-4.55,3.46-1.38,1.07-2.78,2.09-4.16,3.16-1.33,1.03-2.7,2.03-4.03,3.06-1.64,1.26-3.3,2.5-4.94,3.75-1.28.97-2.57,1.93-3.84,2.91-1.62,1.25-3.26,2.45-4.88,3.7-1.31,1.02-2.65,2-3.97,3.01-1.38,1.07-2.78,2.1-4.16,3.16-1.55,1.2-3.13,2.35-4.68,3.56-1.36,1.05-2.74,2.06-4.1,3.11-1.44,1.12-2.91,2.2-4.36,3.31-1.25.96-2.53,1.9-3.77,2.87-1.16.9-2.35,1.77-3.51,2.67-.69.54-1.39,1.05-2.09,1.57-.52.39-1.05.78-1.56,1.19-1.24.98-2.53,1.88-3.94,2.62-.1.05-.19.1-.28.16-.28.17-.57.31-.88.43-.15.06-.3.13-.45.2-.49.24-1,.44-1.52.61-.31.1-.62.21-.93.31-.18.06-.35.15-.49.28h-6.7ZM126.72,167.31h0c8.77,0,17.54,0,26.3,0,1.33,0,2.67,0,4,0,.84,0,.93-.02,1.7-.18.51-.11.99-.31,1.44-.57.55-.32,1-.75,1.41-1.23.12-.14.22-.31.32-.47.35-.59.56-1.24.67-1.92.09-.59.09-1.19-.05-1.78-.26-1.04-.79-1.9-1.59-2.6-.22-.2-.48-.36-.73-.52-.55-.36-1.16-.6-1.79-.77-.32-.08-.64-.13-.96-.19-.59-.1-1.18-.2-1.77-.3-.46-.07-.91-.15-1.37-.22-.59-.09-1.18-.19-1.77-.28-.46-.07-.91-.14-1.37-.21-.56-.09-1.13-.18-1.69-.27-.48-.08-.97-.15-1.45-.22-.56-.09-1.13-.18-1.69-.27-.46-.07-.91-.14-1.37-.21-.56-.09-1.13-.18-1.69-.27-.7-.11-1.39-.24-2.1-.34-.67-.09-1.35-.2-2.02-.32-.38-.07-.75-.14-1.13-.18-.65-.08-1.29-.19-1.94-.3-.4-.07-.8-.15-1.21-.19-.52-.05-1.02-.15-1.53-.23-.97-.16-1.94-.3-2.9-.45-.27-.04-.53-.11-.81-.13-.52-.05-1.02-.18-1.53-.23-.91-.18-1.83-.28-2.74-.44-.29-.05-.59-.11-.89-.15-.68-.08-1.35-.19-2.02-.31-.37-.07-.75-.14-1.13-.18-.52-.05-1.02-.17-1.53-.22-.88-.18-1.78-.27-2.66-.43-.35-.06-.7-.12-1.05-.17-.99-.16-1.99-.29-2.98-.47-.37-.07-.75-.14-1.13-.18-.54-.06-1.08-.17-1.61-.25-.89-.13-1.77-.29-2.66-.44-.46-.08-.91-.14-1.37-.21-.59-.09-1.18-.19-1.77-.29-.43-.07-.86-.14-1.29-.22-.81-.14-1.61-.27-2.42-.41-.81-.13-1.61-.26-2.42-.39-.81-.13-1.61-.28-2.41-.41-.81-.13-1.61-.26-2.42-.4-1.05-.18-2.09-.38-3.14-.55-.56-.09-1.12-.22-1.7-.24-.08,0-.16-.01-.24-.03-.45-.1-.92-.11-1.38-.12-.38,0-.76-.02-1.14-.08-.54-.08-1.09-.08-1.63,0-.3.04-.59.08-.89.08-.71,0-1.4.16-2.11.23-1.24.22-2.43.59-3.6,1.04-.64.24-1.25.53-1.86.84-.48.25-.95.54-1.41.82-.51.31-1.01.64-1.52.96-1.44.88-2.91,1.71-4.42,2.48-.39.2-.77.4-1.16.6-.34.18-.67.37-1.01.54-.68.35-1.36.69-2.04,1.04-.22.11-.44.22-.65.34-1.16.66-2.35,1.26-3.58,1.78-1.16.48-2.36.85-3.58,1.13-.69.16-1.39.27-2.09.39-.67.11-1.36.08-2.03.21-.18.04-.38.02-.57.02-.41,0-.82,0-1.23,0-6.21,0-12.42,0-18.63,0-.33,0-.65,0-.98.02-.41,0-.81.11-1.2.24-.28.09-.55.23-.8.4-.09.06-.18.13-.25.21-.37.41-.63.88-.76,1.43-.11.51-.19,1.02-.17,1.54,0,.22,0,.44,0,.65,0,7.49,0,14.98,0,22.46,0,.22,0,.44,0,.65,0,.44.05.87.13,1.3.08.44.24.84.46,1.22.19.34.46.61.8.8.43.24.89.4,1.39.44.19.02.38.02.57.06.43.08.87.09,1.3.09,1.77,0,3.54,0,5.31,0,4.71,0,9.42,0,14.13,0,.63,0,1.25,0,1.88.01.3,0,.6.01.89.07.27.05.54.07.81.09.16,0,.33.02.49.05.51.08,1.02.17,1.53.26,1.4.24,2.77.61,4.12,1.04,1.53.49,3.05,1,4.59,1.48,1.66.52,3.31,1.09,4.97,1.6,1.56.48,3.1,1.02,4.66,1.5,1.66.52,3.31,1.09,4.98,1.6,1.56.48,3.1,1.02,4.66,1.5,1.66.52,3.31,1.09,4.97,1.6,1.74.54,3.47,1.14,5.21,1.68,1.82.57,3.61,1.21,5.44,1.75,2.14.72,4.3,1.4,6.45,2.09,1.63.53,3.26,1.07,4.89,1.59,1.45.46,2.9.95,4.35,1.42.91.3,1.82.58,2.72.87.96.31,1.91.63,2.87.95.62.21,1.25.37,1.89.52.8.19,1.61.24,2.42.35.13.02.27.01.41.02.74.02,1.46-.13,2.19-.23.27-.04.54-.1.8-.18.81-.23,1.6-.53,2.35-.93.67-.36,1.33-.75,1.94-1.21.74-.56,1.48-1.11,2.21-1.69,1.01-.79,2.03-1.55,3.05-2.33.84-.65,1.7-1.28,2.53-1.93,1.01-.79,2.03-1.55,3.05-2.33,1.06-.81,2.13-1.6,3.18-2.43.98-.77,1.99-1.52,2.99-2.28,1.3-.99,2.61-1.96,3.9-2.97,1.18-.92,2.39-1.8,3.57-2.72,1.31-1.02,2.65-2,3.97-3.01,1.59-1.23,3.22-2.42,4.81-3.65,1.55-1.2,3.13-2.36,4.68-3.55,1.59-1.23,3.23-2.41,4.82-3.65.54-.42,1.09-.82,1.63-1.23,1.3-.99,2.61-1.97,3.9-2.96,1.49-1.14,3-2.26,4.49-3.41,1.62-1.25,3.26-2.45,4.88-3.7,1.75-1.35,3.53-2.64,5.27-4,.88-.69,1.78-1.35,2.67-2.02,1.46-1.09,2.91-2.2,4.34-3.33.32-.25.62-.53.9-.83.54-.57.84-1.27.96-2.04.07-.43.05-.87,0-1.3-.01-.11-.03-.22-.06-.32-.16-.62-.45-1.17-.86-1.65-.09-.1-.19-.2-.3-.28-.15-.12-.31-.23-.47-.33-.57-.35-1.18-.55-1.86-.54-.14,0-.27,0-.41,0-.47,0-.92.11-1.35.3-.37.16-.74.35-1.09.56-.4.24-.79.49-1.18.73-.9.57-1.79,1.14-2.68,1.72-.09.06-.19.11-.28.17-.74.46-1.48.93-2.21,1.39-.83.53-1.65,1.06-2.48,1.58-.97.61-1.94,1.21-2.9,1.83-.14.09-.28.17-.42.26-.74.46-1.48.93-2.21,1.39-.83.53-1.65,1.06-2.48,1.58-.97.61-1.94,1.21-2.9,1.83-.14.09-.28.17-.42.26-.74.46-1.48.93-2.21,1.39-.83.53-1.65,1.06-2.48,1.58-.97.61-1.94,1.21-2.9,1.83-.14.09-.28.17-.42.26-.65.4-1.29.81-1.94,1.22-.9.57-1.79,1.14-2.68,1.72-.05.03-.09.06-.14.09-.9.57-1.8,1.13-2.69,1.7-.14.09-.27.18-.41.26-.9.57-1.8,1.13-2.69,1.7-.14.09-.27.18-.41.27-.9.57-1.8,1.13-2.69,1.7-.71.45-1.42.91-2.14,1.36-1.24.78-2.49,1.56-3.73,2.35-1.36.86-2.71,1.72-4.07,2.59-.53.34-1.06.67-1.59,1-.9.57-1.8,1.13-2.69,1.7-.74.47-1.47.94-2.21,1.4-.87.55-1.75,1.1-2.63,1.66-.78.5-1.59.94-2.45,1.31-.45.2-.92.35-1.39.48-.5.13-1.01.22-1.53.21-.33,0-.65,0-.98-.01-.16,0-.33-.02-.49-.05-.92-.18-1.78-.49-2.6-.94-.83-.47-1.62-1-2.38-1.57-.59-.44-1.17-.89-1.75-1.34-1.56-1.19-3.14-2.35-4.69-3.55-1.14-.89-2.3-1.74-3.45-2.62-1.51-1.16-3.03-2.31-4.54-3.47-.26-.2-.51-.4-.77-.6-.3-.23-.6-.46-.91-.69-.33-.24-.68-.46-1.05-.63-.5-.23-1.03-.37-1.58-.38-.3,0-.6,0-.9,0-3.54,0-7.08,0-10.62,0-.3,0-.6,0-.9,0-.27,0-.54-.02-.81-.07-.13-.03-.27-.05-.4-.06-.41-.04-.8-.16-1.19-.29-.42-.14-.8-.35-1.15-.62-.63-.5-1-1.14-1.07-1.95-.03-.35-.03-.71,0-1.06.02-.16.05-.32.09-.48.1-.34.26-.66.47-.95.09-.13.2-.26.33-.36.29-.26.6-.47.96-.62.5-.21,1.02-.38,1.57-.43.19-.02.38-.04.57-.08.27-.05.54-.06.81-.06.22,0,.44,0,.65,0,9.97,0,19.93,0,29.9,0ZM139.54,91.19h0c-3.05,0-6.1,0-9.15,0-2.26,0-4.52,0-6.78,0-.46,0-.92.04-1.38.13-.65.13-1.26.34-1.82.69-.23.14-.47.28-.69.43-.9.61-1.79,1.24-2.66,1.9-.48.36-.96.72-1.41,1.11-.56.48-1.15.92-1.67,1.44-.06.06-.12.11-.18.16-.46.34-.86.75-1.27,1.15-.73.73-1.46,1.46-2.19,2.2-.33.33-.65.66-.93,1.03-.08.11-.17.21-.27.31-.52.52-.97,1.1-1.44,1.67-.76.92-1.5,1.87-2.22,2.83-.67.89-1.34,1.79-1.97,2.71-1.02,1.48-2.01,2.98-2.93,4.52-.28.47-.55.94-.82,1.41-.48.83-.95,1.65-1.38,2.5-.23.46-.46.92-.7,1.39-.57,1.14-1.09,2.31-1.58,3.5-.3.73-.58,1.47-.87,2.2-.18.46-.34.92-.5,1.38-.13.39-.26.78-.38,1.16-.1.31-.19.63-.28.94-.3.99-.58,1.99-.82,2.99-.08.34-.15.69-.23,1.04-.26,1.14-.47,2.29-.65,3.45-.05.35-.11.7-.15,1.05-.03.27-.06.54-.11.81-.07.38-.07.76-.06,1.14,0,.19.05.38.11.56.09.27.26.47.52.61.36.2.75.32,1.16.38.22.03.43.05.65.08.91.16,1.83.27,2.74.43.59.1,1.19.16,1.77.27.48.09.97.14,1.45.23.43.07.86.13,1.29.2,1.02.16,2.04.34,3.06.49.78.11,1.56.26,2.34.39.4.07.8.14,1.21.19.62.08,1.24.19,1.85.29.72.12,1.45.26,2.18.35.86.11,1.72.26,2.58.4.97.16,1.94.29,2.9.46.48.08.97.15,1.45.22.56.09,1.13.18,1.69.27.46.08.92.13,1.37.21.91.16,1.83.28,2.74.43.48.08.97.16,1.45.22.46.06.91.15,1.37.23.4.07.8.14,1.21.19.89.11,1.77.28,2.66.42.75.12,1.5.26,2.25.38.4.06.81.08,1.22.05.08,0,.16-.02.24-.04.17-.04.3-.14.38-.29.11-.19.17-.4.19-.62.03-.35,0-.71-.05-1.06-.09-.7-.09-2.48,0-3.18.03-.24.06-.49.06-.73,0-.3-.05-.59-.14-.88-.13-.41-.38-.72-.75-.93-.26-.15-.53-.27-.81-.38-.28-.11-.56-.22-.84-.33-1.4-.56-2.69-1.3-3.9-2.2-.37-.28-.74-.56-1.07-.88-.41-.38-.99-.95-1.38-1.39-.79-.87-1.46-1.83-2-2.87-.19-.36-.37-.73-.54-1.1-.09-.2-.18-.4-.26-.6-.48-1.28-.81-2.6-.99-3.95-.02-.13-.03-.27-.03-.41-.04-1.06-.04-2.12,0-3.19,0-.19.02-.38.05-.57.14-.94.31-1.88.59-2.79.33-1.07.76-2.1,1.32-3.07.47-.8.98-1.57,1.57-2.29.5-.61,1.05-1.18,1.65-1.7.53-.47,1.09-.91,1.69-1.29.32-.2.64-.42.96-.62.18-.12.37-.23.56-.33.89-.47,1.8-.91,2.75-1.24.13-.05.26-.09.38-.14.1-.04.2-.09.29-.14.46-.23.78-.58.97-1.06.05-.13.09-.26.15-.38.07-.18.15-.35.24-.52.31-.57.75-1,1.33-1.29.5-.24,1.02-.37,1.58-.37.44,0,.87.05,1.28.2.81.29,1.4.83,1.77,1.6.08.17.15.35.22.53.13.34.33.62.59.88.22.21.45.39.73.52.17.08.35.15.53.22,1,.36,1.95.83,2.9,1.32.66.34,1.27.74,1.86,1.18.26.19.53.39.77.61.67.6,1.3,1.24,1.91,1.9.06.06.11.12.16.19.77.96,1.42,2,1.93,3.12.5,1.09.89,2.23,1.18,3.39.16.61.25,1.23.36,1.84.09.51.12,1.03.12,1.54,0,.5-.09.98-.26,1.44-.39,1.06-1.11,1.79-2.2,2.14-.29.09-.58.15-.88.15-.16,0-.33,0-.49,0-.42-.01-.8-.13-1.17-.34-.43-.24-.79-.58-1.08-.98-.42-.59-.65-1.25-.79-1.95-.08-.43-.13-.86-.19-1.29-.02-.13-.03-.27-.06-.4-.15-.67-.31-1.32-.57-1.96-.45-1.1-1.07-2.08-1.91-2.92-.06-.06-.12-.11-.17-.17-.53-.56-1.16-.99-1.8-1.4-.07-.04-.14-.07-.22-.11-.35-.15-.73.02-.86.38-.04.1-.06.21-.07.32-.01.24-.02.49-.02.73,0,4.68,0,9.37,0,14.05,0,.22,0,.44,0,.65,0,.3.05.6.13.89.07.27.21.5.41.69.16.15.33.29.53.38.22.1.45.2.68.28.82.31,1.61.66,2.39,1.07,1.51.79,2.89,1.74,4.07,2.97.44.45.86.91,1.23,1.42.68.95,1.32,1.93,1.76,3.03.03.08.07.15.1.22.42.95.72,1.94.94,2.95.22,1.01.37,2.03.49,3.06.04.33.12.64.25.94.21.47.55.81,1.01,1.03.25.12.51.2.78.24.38.06.75.13,1.13.18,1.08.16,2.13.44,3.15.84,1.41.56,2.66,1.36,3.79,2.37.1.09.2.19.29.29.28.33.57.66.83,1.01.77,1.04,1.37,2.16,1.79,3.38.11.31.2.62.31.93.06.18.12.36.19.54.05.12.13.24.21.35.17.21.4.28.66.22.08-.02.16-.04.23-.08.19-.1.39-.2.57-.31.69-.44,1.38-.88,2.06-1.32.89-.57,1.79-1.15,2.68-1.72.05-.03.09-.06.14-.09.94-.6,1.89-1.19,2.83-1.79.69-.44,1.38-.88,2.07-1.31.48-.3.97-.61,1.46-.91.62-.39,1.25-.78,1.87-1.17.3-.19.59-.38.89-.58.14-.09.27-.18.4-.28.46-.37.77-.84.93-1.4.04-.13.07-.26.1-.4.16-.74.3-1.5.4-2.25.08-.59.2-1.18.2-1.78,0-.08.02-.16.03-.24.08-.4.09-.81.1-1.22,0-.41.01-.82.01-1.23,0-.93-.02-1.85,0-2.78,0-.79-.18-1.57-.19-2.36,0-.14-.03-.27-.05-.4-.02-.16-.05-.32-.07-.48-.1-.81-.22-1.62-.37-2.42-.04-.24-.1-.48-.14-.72-.34-1.71-.77-3.4-1.28-5.07-.64-2.08-1.4-4.12-2.28-6.12-.19-.42-.36-.85-.56-1.27-.78-1.59-1.53-3.19-2.41-4.73-.05-.09-.1-.19-.15-.29-.38-.73-.8-1.43-1.21-2.13-.47-.8-.96-1.58-1.45-2.37-.49-.79-1-1.56-1.53-2.32-.72-1.03-1.46-2.04-2.22-3.03-.25-.32-.5-.65-.75-.97-.38-.47-.77-.92-1.14-1.39-.44-.56-.97-1.03-1.39-1.6-.08-.11-.18-.2-.28-.3-1.19-1.24-2.4-2.45-3.64-3.64-.16-.15-.31-.3-.48-.44-.3-.23-.58-.49-.86-.75-.18-.17-.37-.32-.56-.48-.12-.11-.26-.2-.38-.31-.47-.42-.96-.8-1.46-1.18-.84-.65-1.69-1.29-2.56-1.89-.34-.23-.68-.46-1.02-.67-.33-.2-.67-.35-1.04-.47-.7-.23-1.42-.38-2.16-.37-.14,0-.27,0-.41,0-5.17,0-10.35,0-15.52,0ZM140.84,71.41h0c4.46,0,8.93,0,13.39,0,.27,0,.54,0,.82,0,.19,0,.38-.02.57-.04.14-.01.26-.06.39-.12.23-.11.4-.28.54-.49.16-.25.27-.53.35-.82.27-.97.54-1.94.81-2.91.21-.76.43-1.52.64-2.28.34-1.21.68-2.41,1.01-3.62.27-.94.54-1.89.8-2.83.24-.86.49-1.73.73-2.59.24-.86.49-1.73.73-2.59.23-.84.47-1.68.7-2.52.2-.73.41-1.47.54-2.22.09-.49.08-.97-.04-1.46-.03-.13-.06-.27-.1-.4-.26-.96-.83-1.71-1.61-2.29-.42-.31-.89-.53-1.38-.69-.42-.13-.84-.23-1.28-.23-.44,0-.87,0-1.31,0-.16,0-.33.02-.49.05-.11.01-.21.07-.3.13-.21.15-.36.34-.39.6-.04.3-.06.6-.1.89-.05.35-.07.7-.07,1.06,0,.41,0,.82,0,1.23,0,2.56,0,5.12,0,7.68,0,.3,0,.6-.01.9-.05.91-.38,1.69-1.04,2.33-.04.04-.08.08-.12.11-.66.58-1.4.94-2.29.91-.14,0-.27,0-.41-.01-.3-.01-.59-.09-.87-.21-.43-.19-.81-.45-1.16-.76-.04-.04-.08-.08-.11-.12-.54-.65-.86-1.38-.9-2.23-.02-.35-.01-.71-.01-1.06,0-2.7,0-5.39,0-8.09,0-.82,0-1.63,0-2.45,0-.24,0-.49-.03-.73-.07-.51-.09-1.03-.11-1.55,0-.33-.05-.65-.13-.97-.15-.64-.35-1.26-.6-1.86-.1-.25-.23-.49-.37-.73-.35-.59-.74-1.14-1.18-1.66-.19-.23-.4-.44-.63-.64-.5-.42-1.01-.82-1.58-1.15-1.05-.61-2.17-1-3.38-1.14-.14-.02-.27-.04-.4-.06-.6-.1-1.19-.1-1.79,0-.16.03-.32.05-.49.07-.71.08-1.39.26-2.06.5-.59.21-1.15.49-1.68.83-.6.38-1.15.83-1.66,1.32-.08.08-.15.16-.22.24-.58.69-1.09,1.43-1.44,2.26-.36.83-.63,1.68-.7,2.59-.01.14-.02.27-.05.41-.08.4-.09.81-.09,1.22,0,1.52-.01,3.05-.02,4.57,0,1.96-.01,3.92-.01,5.88,0,.76-.04,1.52-.14,2.28-.09.69-.32,1.32-.7,1.89-.23.35-.52.63-.87.85-.49.32-1.03.49-1.62.5-.22,0-.44,0-.65,0-.28,0-.54-.08-.79-.18-.15-.06-.3-.14-.44-.21-.47-.25-.83-.62-1.08-1.08-.21-.38-.38-.78-.47-1.21-.07-.32-.12-.64-.12-.97,0-.54,0-1.09,0-1.63,0-.33,0-.65-.06-.98-.05-.3-.05-.6-.05-.9,0-.84,0-1.69,0-2.53,0-.22,0-.44.03-.65.1-.65.08-1.3.08-1.96,0-.27-.01-.54-.05-.81-.05-.3-.06-.6-.06-.9,0-.22,0-.44,0-.65,0-.14-.02-.27-.04-.41-.05-.33-.35-.67-.69-.73-.32-.06-.64-.12-.97-.17-.35-.05-.71-.04-1.06.03-.21.04-.43.07-.64.12-.64.15-1.24.38-1.79.76-1.09.75-1.81,2.1-1.85,3.39,0,.33,0,.65,0,.98,0,.3.05.6.13.89.1.37.18.74.29,1.11.34,1.23.69,2.46,1.04,3.69.39,1.39.79,2.78,1.18,4.16.26.92.54,1.83.78,2.75.32,1.21.68,2.41,1.02,3.62.32,1.15.64,2.31.97,3.46.14.5.28,1,.42,1.49.07.26.16.52.29.76.06.12.13.24.21.35.2.27.45.48.77.58.31.1.63.18.96.19.52.02,1.04.05,1.55-.02.6-.08,1.19-.08,1.79-.08,4.41,0,8.82,0,13.23,0ZM137.94,84.27h0c5.23,0,10.45,0,15.68,0,.25,0,.49,0,.73,0,.24,0,.49-.01.73-.05.35-.05.7-.06,1.06-.06.76,0,1.52,0,2.29,0,.24,0,.49,0,.73-.02.6-.03,1.1-.28,1.54-.67.08-.07.15-.16.21-.25.37-.52.58-1.11.66-1.74.02-.16.02-.33-.01-.49-.03-.13-.06-.27-.09-.4-.06-.27-.17-.52-.32-.75-.08-.11-.15-.23-.23-.34-.11-.16-.25-.29-.4-.4-.16-.11-.32-.21-.48-.31-.14-.08-.29-.14-.46-.17-.51-.11-1.01-.2-1.54-.18-.22,0-.44,0-.65,0-2.48,0-4.95,0-7.43,0-8.19,0-16.39,0-24.58,0-1.39,0-2.78.01-4.17,0-.52,0-1.03.07-1.54.18-.55.12-1.02.36-1.41.77-.35.36-.6.77-.72,1.26-.17.67-.17.76.01,1.44.12.46.35.85.69,1.18.46.45,1.03.72,1.66.82.7.11,1.4.21,2.11.17h15.93ZM134.46,174.5c-3.95,0-7.89,0-11.84,0-.27,0-.54,0-.82,0-.05,0-.11.02-.16.03-.02,0-.05.03-.06.05-.03.05-.02.11.02.15.17.14.33.28.5.41,1.97,1.5,3.96,2.97,5.93,4.48,1.42,1.1,2.87,2.16,4.31,3.24.11.08.22.16.33.24.32.2.66.25,1.02.13.18-.06.36-.13.52-.22.26-.14.52-.3.77-.46.76-.48,1.52-.96,2.27-1.44.14-.09.28-.17.41-.26.76-.48,1.52-.95,2.28-1.43.69-.44,1.38-.87,2.07-1.31.97-.61,1.93-1.22,2.9-1.83.32-.2.65-.4.97-.61.41-.26.82-.53,1.23-.8.05-.03.09-.07.13-.1.04-.04.06-.09.05-.14-.01-.05-.05-.09-.11-.1-.3-.01-.6-.02-.9-.02-3.95,0-7.89,0-11.84,0ZM136.12,122.9h0c0-2.18,0-4.35,0-6.53,0-.22,0-.44-.01-.65,0-.22-.06-.43-.14-.63-.11-.27-.34-.37-.58-.36-.14,0-.27.04-.39.1-.12.06-.24.12-.36.2-.57.37-1.09.81-1.6,1.27-.53.48-.96,1.04-1.35,1.63-.34.5-.59,1.04-.8,1.6-.31.82-.45,1.68-.56,2.54-.02.13-.02.27-.02.41,0,.33,0,.65,0,.98,0,.16,0,.33.03.49.1.62.2,1.23.38,1.84.22.74.55,1.42.95,2.07.56.88,1.29,1.62,2.09,2.28.31.26.64.51.99.72.19.11.38.21.6.26.17.04.33.01.46-.11.06-.05.11-.12.14-.19.11-.25.16-.52.17-.79,0-.22.01-.44.01-.65,0-2.15,0-4.3,0-6.45ZM143.05,145.57c0,.3,0,.6,0,.9,0,.25.06.48.15.71.08.21.22.37.41.48.09.05.19.11.29.14.29.08.58.14.87.2.21.04.43.07.64.1.72.12,1.45.22,2.17.37.16.03.32.03.49.01.3-.03.56-.27.61-.57.07-.41.06-.81-.03-1.21-.19-.79-.42-1.58-.79-2.3-.36-.7-.78-1.37-1.34-1.93-.5-.5-.99-1-1.5-1.5-.13-.13-.28-.26-.43-.37-.3-.21-.64-.29-1.01-.21-.2.04-.35.15-.45.32-.04.07-.08.15-.09.22-.03.16-.05.32-.05.48,0,.6.01,1.19.1,1.79.05.3.06.6.01.89-.08.48-.08.97-.07,1.46Z"/>
</svg>