<?xml version="1.0" encoding="UTF-8"?>
<svg id="Capa_3" data-name="Capa 3" xmlns="http://www.w3.org/2000/svg" viewBox="0 0 250 250">
  <defs>
    <style>
      .cls-1 {
        fill: #f6a42c;
        stroke-width: 0px;
      }
    </style>
  </defs>
  <path class="cls-1" d="M162.19,19.74c4.02,0,8.05,0,12.07,0,.29.07.58.17.88.22,19.17,2.81,33.29,12.83,42.4,29.88,3.16,5.92,4.78,12.33,5.74,18.93v11.71c-.07.3-.16.59-.2.89-3.69,23.25-16.69,38.66-38.98,46.2-1.68.57-1.31,1.04-.38,2.01,2.03,2.12,2.09,4.17.09,6.08-4.05,3.88-8.16,7.69-12.31,11.46-1.87,1.7-3.8,1.55-5.73-.17-.7-.62-1.25-1.45-2.28-1.92-.09.43-.2.71-.2.99-.01,6.58,0,13.17-.02,19.75,0,1.41.57,1.3,1.56.79,4.14-2.11,8.51-2.68,12.93-1.19,1.85.63,2.99.2,4.39-.95,7.74-6.36,18.46-6.97,26.74-1.55,5.52,3.61,8.93,8.69,10.18,15.21.18.96.06,2.16,1.39,2.53,1.41.39,2.22,1.43,2.82,2.68v21.22c-.99,2.07-2.64,2.74-4.9,2.73-23.72-.05-47.44-.03-71.16-.03-.43,0-.86.01-1.28-.02-2.15-.16-3.65-1.74-3.62-3.83.02-2.08,1.53-3.61,3.72-3.74.67-.04,1.34-.02,2.01-.02,21.4,0,42.81,0,64.21,0,.55,0,1.1-.02,1.65,0,1.04.04,1.61-.4,1.61-1.49,0-2.8,0-5.61,0-8.41,0-1.08-.52-1.56-1.58-1.53-.61.02-1.22,0-1.83,0-55,0-110.01,0-165.01,0-.55,0-1.1.03-1.65,0-1.26-.07-1.76.53-1.74,1.75.03,2.32,0,4.63,0,6.95q0,2.73,2.76,2.73c21.65,0,43.3,0,64.94,0,.73,0,1.47-.04,2.19.05,2.5.3,4,2.86,3.03,5.17-.84,2.01-2.51,2.4-4.49,2.4-23.78-.02-47.56-.01-71.35-.02-3.6,0-4.94-1.34-4.95-4.99-.02-5.43-.01-10.85,0-16.28,0-4.23,1.31-5.54,5.61-5.57,4.57-.03,9.15,0,13.72-.01,2.5,0,2.6-.11,2.6-2.56,0-10.31,0-20.61,0-30.92,0-.58.21-1.22-.26-1.76-.76.09-1.11.72-1.57,1.17-2.77,2.63-4.44,2.69-7.23.13-3.68-3.38-7.34-6.79-10.99-10.2-2.62-2.45-2.64-4.48-.06-7,4.84-4.73,9.68-9.46,14.58-14.13,1.11-1.06,1.57-2.15,1.56-3.68-.05-9.94-.04-19.88-.02-29.82,0-3.54,1.36-4.9,4.84-4.9,5.31-.01,10.61,0,15.92,0,3.96,0,5.08,1.14,5.09,5.13,0,2.03,0,4.06,0,6.51.85-.77,1.31-1.15,1.74-1.57,5.04-4.88,10.07-9.77,15.1-14.65,3.63-3.52,7.25-7.06,10.91-10.56,1.87-1.79,3.85-2.04,5.56-.53,1.33,1.17,1.63.95,2.1-.68,4.86-16.89,15.34-28.96,31.33-36.25,5.03-2.29,10.38-3.47,15.81-4.35ZM155.47,158.3c0-6.46-.04-12.92.03-19.39.01-1.47-.46-2.52-1.5-3.53-14-13.68-27.98-27.37-41.91-41.11-1.29-1.27-2.06-1.12-3.26.06-13.89,13.69-27.82,27.35-41.77,40.99-.99.97-1.44,1.98-1.44,3.37.04,13.05.02,26.09.02,39.14,0,2.35.17,2.52,2.48,2.53,7.13.01,14.27.01,21.4,0,2.65,0,2.76-.11,2.76-2.82,0-10.18-.01-20.36.01-30.54,0-3.94,1.36-5.37,5.25-5.39,8.66-.06,17.31-.05,25.97,0,3.81.02,5.13,1.45,5.13,5.26,0,10.42.03,20.85-.02,31.27,0,1.67.58,2.26,2.23,2.25,7.44-.05,14.88-.06,22.31,0,1.73.01,2.36-.57,2.33-2.34-.08-6.58-.03-13.17-.03-19.75ZM166.06,111.78c.11.97.76,1.31,1.21,1.76,2.16,2.15,4.45,4.18,6.51,6.42,1.24,1.35,2.5,1.61,4.21,1.24,24.77-5.34,40.84-28.41,37.2-53.5-3.66-25.24-27.13-43.15-52.54-40.1-20.78,2.49-37.8,18.87-41.2,39.62-.19,1.14.07,1.99.91,2.78,2.57,2.43,5.08,4.92,7.63,7.36.32.3.58.84,1.39.51-.76-10.61,2.28-20.07,9.49-28.02,7.27-8,16.44-12.19,27.21-12.22,20.53-.05,36.02,15.82,37.24,34.55.55,8.51-1.49,16.38-6.38,23.35-7.96,11.32-19.05,16.62-32.87,16.25ZM168.38,45.45c-11.03-.01-20.84,5.97-26.08,15.67-5.32,9.86-4.52,25.62,5.23,33.34,1.43,1.13,2.65,2.52,3.93,3.82.99,1.01,2.11,1.84,3.37,2.48,5.72,2.88,11.76,3.93,18.09,2.93,15.18-2.4,25.74-16,24.6-31.62-1.08-14.78-14.02-26.6-29.15-26.62ZM175.33,132.54c-.2-.73-.84-1.14-1.35-1.64-20.69-20.08-41.4-40.15-62.06-60.26-1.19-1.16-1.81-1.02-2.92.07-14.66,14.3-29.37,28.56-44.06,42.83-6.12,5.94-12.24,11.9-18.41,17.79-1.07,1.02-1.09,1.66.04,2.58,1.32,1.07,2.53,2.29,3.78,3.45,1.82,1.71,1.82,1.72,3.6-.02,17.63-17.28,35.26-34.57,52.89-51.85,2.76-2.7,4.57-2.7,7.32,0,10.71,10.49,21.43,20.99,32.14,31.48,7.01,6.87,14.04,13.72,20.99,20.65,1.21,1.2,1.99,1.21,3.12.02,1.3-1.37,2.75-2.59,4.13-3.89.35-.33.76-.63.8-1.21ZM100.11,164.82c0,4.44.06,8.89-.03,13.33-.03,1.69.61,2.25,2.25,2.23,5.42-.06,10.84-.06,16.25,0,1.65.02,2.26-.61,2.25-2.26-.05-8.89-.05-17.78,0-26.67,0-1.61-.65-2.1-2.19-2.09-5.48.06-10.96.07-16.44,0-1.59-.02-2.15.53-2.12,2.12.07,4.44.03,8.89.03,13.33ZM187.25,180.36c7.37,0,14.74.01,22.12,0,2.05,0,2.32-.35,1.75-2.27-1.68-5.59-5.37-9.26-11.01-10.65-5.91-1.46-10.95.37-14.99,4.87-2.88,3.22-3.63,3.4-7.44,1.31-5.02-2.75-11.15-.81-13.5,4.26-.96,2.07-.73,2.47,1.5,2.47,7.19.01,14.38,0,21.57,0ZM61.63,105.29c.15.07.3.15.45.22,3.12-3.06,6.24-6.11,9.35-9.17.46-.45.58-1.05.58-1.68,0-2.92-.02-5.84,0-8.77.01-1.16-.51-1.66-1.66-1.63-1.52.04-3.04,0-4.57,0-4.58.03-4.16-.55-4.17,4.24-.01,5.59,0,11.18,0,16.78Z"/>
  <path class="cls-1" d="M129.58,207.2c-2.18,0-3.81-1.63-3.8-3.81.02-2.19,1.66-3.78,3.86-3.75,2.08.03,3.71,1.65,3.74,3.72.04,2.12-1.66,3.84-3.8,3.85Z"/>
  <path class="cls-1" d="M171.83,64.87c0,1.91.02,3.55,0,5.19-.01,1.19.89,1.47,1.72,1.85,3.67,1.7,6.31,4.36,7.38,8.33,1.53,5.69-1.41,10.94-7.23,12.94-1.14.39-1.97.91-2.67,1.98-1.57,2.4-4.96,2.3-6.36-.21-.67-1.19-1.55-1.75-2.73-2.17-2.15-.78-4.04-2-5.51-3.78-1.39-1.69-1.36-3.9.02-5.31,1.47-1.5,3.7-1.54,5.44-.1.28.23.53.51.81.74.74.62,1.24.54,1.25-.51.02-2.07,0-4.14,0-6.21,0-1.28-1.09-1.48-1.93-1.91-6.96-3.58-7.86-12.59-1.71-17.41.66-.52,1.41-.97,2.19-1.3.89-.38,1.51-.87,1.85-1.84.55-1.58,1.77-2.48,3.45-2.54,1.69-.06,2.96.75,3.62,2.29.43,1.01,1.15,1.47,2.12,1.81,1.69.6,3.16,1.57,4.35,2.92,1.62,1.83,1.73,4.04.29,5.61-1.45,1.58-3.49,1.61-5.55.08-.14-.1-.3-.18-.76-.44Z"/>
</svg>