<?xml version="1.0" encoding="UTF-8"?>
<svg id="Capa_3" data-name="Capa 3" xmlns="http://www.w3.org/2000/svg" viewBox="0 0 250 250">
  <defs>
    <style>
      .cls-1 {
        fill: #f6a42c;
        stroke-width: 0px;
      }
    </style>
  </defs>
  <path class="cls-1" d="M118.41,34.93h2.16c.19.11.41.16.62.22.61.2,1.18.47,1.72.82.49.32.95.66,1.38,1.07.28.27.57.53.85.79.33.3.66.6.98.9.39.36.77.72,1.15,1.08.35.32.7.63,1.04.95.41.38.8.77,1.21,1.14.46.4.9.82,1.34,1.24.36.34.73.68,1.09,1.02.31.28.61.56.92.84.41.38.81.76,1.21,1.13.35.32.7.63,1.04.95.43.4.85.8,1.27,1.19.34.32.7.63,1.04.95.45.41.89.83,1.34,1.25.3.28.61.56.92.84.39.36.76.73,1.15,1.08.4.35.78.7,1.16,1.07.4.38.81.76,1.21,1.14.35.32.7.63,1.04.95.37.34.72.69,1.09,1.02.4.35.78.71,1.16,1.07.38.36.76.73,1.15,1.08.4.35.78.71,1.16,1.07.38.36.76.73,1.15,1.08.42.37.82.74,1.22,1.13.38.36.77.72,1.15,1.08.35.32.7.63,1.04.95.39.36.77.72,1.15,1.08.33.3.66.59.98.9.54.51,1.08,1.03,1.65,1.52.31.27.61.56.89.87.51.55.97,1.13,1.35,1.79.51.89.76,1.83.72,2.86-.02.53-.1,1.05-.28,1.55-.3.81-.69,1.57-1.26,2.23-.74.86-1.65,1.47-2.75,1.77-.53.15-1.08.25-1.64.25-.25,0-.5,0-.75,0-1.55,0-3.1,0-4.65,0-.28,0-.55,0-.83,0-.11,0-.22.02-.33.04-.41.1-.69.33-.83.74-.06.18-.1.37-.11.57,0,.19-.02.39-.02.58,0,1.27,0,2.55.01,3.82,0,.3.02.61.04.91.03.39.05.77.05,1.16,0,1.5,0,2.99,0,4.49,0,.42-.02.83-.05,1.24-.03.33-.04.66-.04,1,0,1.05-.01,2.1-.01,3.16,0,.22,0,.44.02.66.01.25.07.49.17.72.11.27.3.46.57.58.23.1.47.17.72.18.25.01.5.02.75.02.78,0,1.55,0,2.33,0,7.23,0,14.46,0,21.68,0,8.64,0,17.28,0,25.92,0,.44,0,.89,0,1.33,0,.39,0,.77.03,1.16.09.16.03.33.05.49.07.75.09,1.47.27,2.18.51.84.29,1.63.7,2.32,1.27.66.55,1.26,1.17,1.76,1.87.13.18.26.35.4.53v15.29c-.13.18-.27.35-.4.53-.81,1.08-1.81,1.94-3.02,2.54-.72.36-1.48.61-2.27.78-.38.08-.76.14-1.15.19-.19.02-.38.1-.54.2-.2.13-.32.31-.36.54-.02.11-.03.22-.03.33,0,.22.02.44.05.66.05.36.08.71.1,1.07.01.19.02.39.05.58.08.52.1,1.05.1,1.57,0,.61,0,1.22.01,1.83,0,.72-.04,1.44-.15,2.15-.1.71-.23,1.42-.43,2.11-.07.24-.14.48-.2.72-.06.22-.08.44-.07.66.01.32.12.6.34.83.13.14.28.27.43.39.53.45.99.96,1.41,1.52.61.81,1,1.72,1.15,2.73.09.55.16,1.1.24,1.64.12.8.14,1.6.24,2.4,0,.03,0,.06,0,.08.01,1.16.07,2.33-.1,3.48,0,.05-.01.11-.02.17-.07.94-.24,1.87-.44,2.79-.06.27-.13.54-.18.81-.05.22-.06.44-.05.66.02.29.12.54.29.76.07.09.14.17.22.24.12.11.25.22.38.32.58.49,1.05,1.07,1.45,1.7.67,1.07,1.08,2.24,1.28,3.49.13.82.21,1.65.2,2.48-.01,1.16-.02,2.33-.02,3.49,0,.67-.05,1.33-.13,1.99-.09.72-.26,1.42-.51,2.09-.28.76-.63,1.48-1.14,2.11-.67.85-1.44,1.6-2.38,2.18-.4.25-.81.48-1.23.7-.17.09-.34.18-.5.29-.24.17-.38.4-.42.69-.02.14-.03.28-.03.41,0,.19.01.39.05.58.11.63.14,1.27.23,1.9.05.36.07.72.08,1.08,0,1,0,1.99,0,2.99,0,.36-.04.72-.07,1.08-.07.63-.12,1.27-.18,1.9-.02.2.02.39.1.57.1.24.28.41.51.52.08.03.16.06.24.08.27.06.54.12.81.17.82.16,1.61.41,2.37.76.71.32,1.36.74,1.95,1.25.54.47,1.04.99,1.45,1.59.09.14.2.27.3.4v15.29c-.7,1.12-1.63,2-2.73,2.72-.53.35-1.09.64-1.67.9-.2.09-.4.18-.6.27-.13.06-.23.15-.32.26h-65.15c-.16-.16-.36-.26-.56-.36-.42-.2-.85-.4-1.27-.62-1.08-.58-2.05-1.3-2.86-2.24-.73-.85-1.28-1.81-1.63-2.87-.3-.9-.46-1.83-.5-2.77-.03-.91-.02-1.83.07-2.74.03-.28.05-.55.05-.83.02-1.27.03-2.55.04-3.82,0-.17,0-.33-.03-.5-.04-.27-.19-.46-.44-.56-.1-.04-.21-.07-.32-.09-.14-.03-.27-.03-.41-.05-1.19-.17-2.32-.52-3.34-1.18-.12-.08-.23-.15-.36-.21-.15-.07-.31-.13-.46-.18-.19-.06-.38-.04-.57.03-.18.07-.35.17-.5.3-.23.2-.43.43-.63.66-.24.27-.47.54-.72.8-.9.94-1.82,1.86-2.76,2.76-.18.17-.36.34-.55.51-.59.51-1.18,1.01-1.77,1.51-.7.59-1.43,1.14-2.16,1.69-.91.68-1.85,1.32-2.8,1.94-1.51.98-3.07,1.87-4.67,2.7-1.5.78-3.04,1.47-4.6,2.11-.79.33-1.59.64-2.4.92-2.59.91-5.25,1.57-7.94,2.12-1.25.25-2.5.48-3.76.68-.3.05-.6.13-.86.29h-12.13c-.21-.14-.45-.23-.69-.26-.71-.1-1.42-.24-2.13-.36-1.67-.28-3.32-.62-4.96-1.02-1.72-.42-3.42-.95-5.08-1.57-1.43-.54-2.82-1.15-4.19-1.81-1.07-.52-2.13-1.06-3.2-1.6-.87-.44-1.71-.92-2.54-1.42-1.4-.84-2.78-1.72-4.11-2.67-1.48-1.07-2.93-2.18-4.29-3.4-.12-.11-.25-.22-.38-.33-.23-.2-.46-.4-.68-.61-.94-.9-1.86-1.82-2.76-2.76-.11-.12-.23-.24-.34-.37-.53-.64-1.09-1.25-1.61-1.9-1.03-1.27-2-2.59-2.89-3.96-.68-1.04-1.31-2.12-1.93-3.2-.05-.1-.11-.19-.16-.29-.68-1.3-1.34-2.61-1.91-3.97-.59-1.4-1.14-2.82-1.62-4.27-.16-.47-.29-.95-.44-1.43-.46-1.51-.84-3.04-1.17-4.59-.28-1.33-.53-2.66-.71-4.01-.11-.82-.25-1.64-.29-2.47,0-.11-.02-.22-.03-.33-.09-.55-.1-1.1-.12-1.66-.01-.5-.04-1-.08-1.49-.07-.8-.07-1.6,0-2.41.04-.44.07-.88.08-1.33.01-.64.03-1.27.13-1.91.03-.19.03-.39.05-.58.01-.17.02-.33.04-.5.18-1.37.37-2.74.65-4.1.42-2.07.95-4.1,1.62-6.1.41-1.24.88-2.45,1.38-3.65,1.13-2.69,2.5-5.25,4.07-7.7.97-1.52,2.02-2.98,3.15-4.39,1.02-1.27,2.09-2.51,3.24-3.67.16-.16.31-.32.47-.47,1.08-1.08,2.16-2.15,3.32-3.13.8-.68,1.62-1.34,2.45-1.98,1.27-.99,2.6-1.88,3.96-2.74,1.38-.87,2.8-1.69,4.26-2.43,1.68-.85,3.4-1.62,5.15-2.31,2.35-.92,4.76-1.66,7.21-2.26,1.61-.39,3.25-.7,4.89-.95.49-.08.99-.14,1.48-.2.77-.08,1.54-.2,2.32-.21.14,0,.28-.02.41-.04.38-.06.77-.08,1.16-.08,1.77-.03,3.54-.03,5.32,0,.36,0,.72.03,1.08.07.3.04.61.06.91.07.47.02.94.04,1.41.12.14.02.28.03.41.04.39.02.77.06,1.16.11.16.02.33.03.5.02.11,0,.22-.03.32-.07.22-.07.38-.22.47-.44.08-.18.13-.37.14-.56.01-.22.03-.44.03-.66,0-.55,0-1.11,0-1.66,0-6.81,0-13.63.01-20.44,0-.25,0-.5,0-.75,0-.17-.02-.33-.03-.5-.02-.19-.08-.38-.16-.56-.12-.26-.32-.45-.58-.56-.15-.07-.31-.11-.48-.12-.33,0-.66-.02-1-.01-1.61.04-3.21,0-4.82,0-.87,0-1.71-.17-2.52-.47-1.57-.58-2.66-1.66-3.31-3.19-.27-.64-.43-1.32-.51-2.01-.02-.22-.03-.44-.02-.66.05-.75.24-1.47.58-2.15.32-.62.73-1.18,1.23-1.66.93-.91,1.87-1.81,2.8-2.72.76-.65,1.47-1.35,2.19-2.04.14-.13.28-.27.43-.4.59-.5,1.14-1.05,1.71-1.58.26-.25.53-.49.79-.73.29-.26.58-.52.86-.78.36-.34.71-.7,1.09-1.02.63-.54,1.23-1.12,1.83-1.69.18-.17.36-.35.55-.51.53-.45,1.03-.93,1.53-1.41.18-.17.35-.35.54-.51.68-.57,1.31-1.2,1.95-1.81.16-.15.32-.31.49-.45.47-.39.9-.82,1.35-1.24.94-.9,1.93-1.75,2.86-2.66.06-.06.13-.11.19-.17.35-.32.7-.63,1.04-.95.41-.38.8-.77,1.21-1.14.48-.42.94-.86,1.41-1.29.22-.21.43-.43.67-.63.65-.56,1.27-1.16,1.89-1.75.16-.15.32-.31.49-.45.55-.46,1.07-.97,1.59-1.46.24-.23.49-.45.73-.68.29-.26.58-.52.86-.78.4-.38.79-.78,1.21-1.14.56-.49,1.11-1.01,1.65-1.52.44-.42.93-.78,1.44-1.13.65-.44,1.35-.77,2.1-.98.16-.04.32-.08.47-.16ZM119.1,157.15c-.01-.78-.03-1.58-.05-2.38,0-.39-.03-.77-.09-1.16-.02-.14-.04-.27-.05-.41-.07-1-.25-1.98-.45-2.96-.58-2.89-1.51-5.67-2.82-8.31-.48-.97-1.01-1.91-1.57-2.83-1.24-2.01-2.66-3.88-4.33-5.56-.43-.43-.86-.86-1.29-1.29-.94-.94-1.98-1.77-3.04-2.57-1.08-.82-2.22-1.56-3.4-2.24-1.18-.68-2.38-1.3-3.63-1.83-2.6-1.12-5.29-1.96-8.09-2.44-1.26-.22-2.51-.43-3.79-.48-.19,0-.39-.03-.58-.06-.33-.04-.66-.07-.99-.07-1.05,0-2.1,0-3.16,0-.78,0-1.54.16-2.32.17-.19,0-.38.04-.58.07-.16.02-.33.05-.49.07-.91.09-1.81.26-2.71.43-1.03.2-2.05.45-3.06.75-1.78.53-3.52,1.17-5.2,1.97-2.26,1.07-4.38,2.37-6.37,3.89-.24.19-.48.38-.71.57-.54.43-1.05.9-1.57,1.36-.77.68-1.5,1.39-2.17,2.17-.11.13-.22.25-.33.37-.51.55-.98,1.13-1.44,1.71-1.27,1.62-2.38,3.34-3.34,5.15-1.07,2.01-1.93,4.11-2.58,6.29-.33,1.12-.62,2.24-.81,3.39-.13.74-.24,1.47-.34,2.22-.09.69-.13,1.38-.15,2.07-.01.39-.04.77-.07,1.16-.02.3-.03.61,0,.91.05.44.06.88.07,1.33.01.69.04,1.38.15,2.07.02.11.02.22.03.33.09.6.16,1.21.26,1.81.27,1.53.64,3.03,1.1,4.52.48,1.53,1.08,3.02,1.77,4.48.7,1.48,1.53,2.89,2.44,4.25.91,1.36,1.9,2.66,3.02,3.85.09.1.19.21.28.31.63.73,1.32,1.42,2.06,2.05.17.14.33.3.49.44.19.17.37.33.56.49.58.48,1.16.94,1.76,1.38,2.08,1.53,4.29,2.85,6.66,3.89,2.42,1.07,4.91,1.88,7.5,2.41.84.17,1.69.32,2.54.43.55.07,1.1.14,1.65.17.17,0,.33.03.5.05.36.05.72.07,1.08.08,1.36.02,2.71.03,4.07,0,.47,0,.94-.03,1.41-.1.16-.03.33-.04.5-.05.67-.02,1.32-.15,1.98-.24,1.04-.15,2.07-.37,3.09-.63,2.24-.56,4.4-1.33,6.49-2.3,2.09-.97,4.07-2.14,5.94-3.48,1.06-.76,2.08-1.57,3.03-2.46,1.16-1.07,2.27-2.19,3.29-3.4,1.14-1.36,2.17-2.8,3.1-4.31.61-.99,1.13-2.03,1.63-3.08.47-.97.89-1.97,1.23-3,.13-.39.27-.79.39-1.18.52-1.64.9-3.31,1.15-5.01.08-.55.13-1.1.21-1.65.06-.41.09-.83.1-1.24.02-.78.03-1.55.05-2.35ZM98.67,92.02h0c0,4.02,0,8.03,0,12.05,0,.36,0,.72,0,1.08,0,.28.04.55.11.82.12.49.41.84.85,1.07.15.08.3.14.46.19.34.12.68.23,1.02.34,2.48.81,4.88,1.8,7.21,2.98.3.15.59.3.89.45,1.58.8,3.1,1.71,4.58,2.69,1.67,1.1,3.26,2.29,4.8,3.57,1.15.96,2.27,1.95,3.33,3.01.14.14.28.27.42.4.08.07.18.13.27.19.22.14.5.12.7-.05.06-.05.13-.11.18-.17.1-.13.21-.26.3-.4.35-.54.78-1.01,1.23-1.46,1.05-1.04,2.28-1.74,3.7-2.13.54-.15,1.08-.27,1.63-.31.17-.01.33-.03.49-.09.28-.11.46-.3.5-.6.02-.11.03-.22.02-.33-.02-.36-.02-.72-.07-1.08-.09-.66-.11-1.32-.11-1.99,0-1.27.02-2.55.02-3.82,0-.58.05-1.16.11-1.74.12-1.14.46-2.22,1.01-3.23.69-1.3,1.69-2.33,2.91-3.13.79-.52,1.66-.89,2.58-1.11.24-.06.48-.12.72-.19.24-.07.47-.16.69-.29.34-.21.59-.49.74-.87.09-.23.16-.47.17-.73.01-.22.02-.44.02-.66,0-.55,0-1.11,0-1.66,0-4.98,0-9.97-.01-14.95,0-.14,0-.28,0-.42-.01-.7.1-1.38.28-2.05.21-.79.55-1.51,1.01-2.17.62-.88,1.42-1.55,2.41-1.98.8-.35,1.63-.54,2.49-.59.61-.04,1.22-.04,1.83.04.66.08,1.33.09,1.99.1.75.01,1.49-.08,2.23-.19.03,0,.05-.02.08-.03.12-.03.22-.22.17-.34-.03-.08-.06-.16-.11-.22-.23-.28-.51-.51-.77-.75-.35-.32-.7-.63-1.04-.95-.43-.4-.84-.81-1.27-1.19-.37-.33-.74-.67-1.1-1.01-.42-.4-.85-.8-1.27-1.19-.32-.3-.65-.6-.98-.9-.45-.41-.89-.83-1.33-1.25-.32-.3-.66-.6-.98-.9-.43-.4-.84-.81-1.27-1.19-.42-.37-.82-.74-1.22-1.13-.38-.36-.77-.72-1.15-1.08-.35-.32-.7-.63-1.04-.95-.45-.41-.89-.83-1.33-1.25-.3-.28-.62-.56-.92-.84-.42-.4-.83-.81-1.27-1.2-.5-.44-.98-.9-1.46-1.35-.38-.36-.77-.72-1.15-1.08-.32-.3-.66-.6-.98-.9-.43-.4-.84-.81-1.27-1.19-.41-.37-.82-.74-1.22-1.13-.42-.4-.83-.81-1.27-1.2-.44-.39-.86-.78-1.28-1.19-.42-.4-.84-.81-1.27-1.19-.35-.31-.7-.63-1.04-.96-.66-.63-1.31-1.28-2-1.87-.19-.16-.36-.34-.54-.51-.34-.33-.68-.65-1.02-.98-.22-.21-.45-.41-.71-.57-.14-.09-.29-.16-.44-.23-.13-.06-.26-.08-.4-.09-.23-.01-.44.03-.64.13-.28.14-.51.33-.74.52-.76.65-1.47,1.34-2.19,2.03-.26.25-.51.51-.79.74-.51.43-.98.89-1.46,1.35-.96.92-1.97,1.79-2.92,2.72-.06.06-.12.11-.19.17-.37.34-.74.67-1.1,1.01-.39.36-.76.73-1.15,1.08-.46.4-.9.82-1.35,1.24-.94.9-1.93,1.75-2.86,2.66-.08.08-.17.15-.25.22-.29.26-.58.52-.86.78-.42.4-.83.82-1.27,1.2-.67.58-1.3,1.2-1.95,1.81-.22.21-.44.42-.67.62-.37.34-.74.67-1.1,1.01-.61.57-1.19,1.16-1.82,1.7-.11.09-.2.19-.3.28-1.68,1.61-3.33,3.25-4.94,4.93-.19.2-.38.41-.56.61-.26.29-.52.58-.78.86-.43.47-.88.92-1.29,1.41-.16.19-.34.37-.51.55-.23.24-.46.48-.69.72-.06.06-.1.13-.15.2-.06.08,0,.25.09.27.19.05.38.05.58.05,1.27,0,2.55,0,3.82,0,.28,0,.55,0,.83,0,.53,0,1.05.07,1.57.18.99.21,1.88.66,2.62,1.36.18.17.36.35.53.53.71.74,1.16,1.62,1.41,2.6.14.54.23,1.08.23,1.64,0,.5.01,1,.01,1.5,0,3.85,0,7.7,0,11.55ZM170.54,203.44c9.33,0,18.67,0,28,0,.47,0,.94,0,1.41,0,.48,0,.94-.08,1.39-.22,1.08-.32,1.61-.83,1.93-1.96.11-.4.19-.81.2-1.23.03-1.47.03-2.94,0-4.4,0-.42-.09-.83-.18-1.23-.08-.33-.21-.63-.38-.92-.19-.32-.45-.56-.77-.74-.37-.2-.76-.33-1.18-.38-.8-.1-1.6-.19-2.4-.16-.25,0-.5,0-.75,0-16.26,0-32.51,0-48.77,0-2.13,0-4.26,0-6.4,0-.83,0-1.66.07-2.49.15-.28.03-.54.1-.8.2-.51.2-.89.55-1.13,1.05-.18.38-.3.77-.33,1.19-.02.22-.03.44-.03.66,0,1.69,0,3.38,0,5.07,0,.19,0,.39.03.58.1.86.52,1.51,1.31,1.89.2.1.41.18.62.24.43.12.86.21,1.31.21.5,0,1,0,1.5,0,9.31,0,18.61,0,27.92,0ZM170.51,105.07h0c-4.93,0-9.86,0-14.79,0-4.63,0-9.25,0-13.88,0-.36,0-.72,0-1.08,0-.39,0-.77.07-1.15.18-.81.24-1.33.76-1.58,1.57-.14.46-.18.92-.18,1.4,0,1.74,0,3.49,0,5.23,0,.19,0,.39.03.58.11.79.52,1.39,1.24,1.76.15.07.3.14.46.18.35.11.7.18,1.06.19.3.01.61.02.91.06.63.07,1.27.08,1.91.08,4.02,0,8.03,0,12.05,0,11.47,0,22.93,0,34.4,0,2.8,0,5.59,0,8.39,0,.81,0,1.6-.05,2.4-.15.39-.04.76-.15,1.11-.31.64-.29,1.08-.76,1.32-1.42.16-.45.26-.9.3-1.38.02-.22.02-.44.02-.66,0-1.14,0-2.27,0-3.41,0-.17,0-.33-.01-.5-.01-.47-.11-.93-.22-1.39-.04-.16-.1-.32-.16-.47-.18-.42-.46-.75-.84-1-.23-.15-.49-.27-.76-.33-.46-.11-.92-.21-1.39-.21-.42,0-.83,0-1.25,0-3.19,0-6.37,0-9.56,0-6.26,0-12.52,0-18.78,0ZM161.52,122.4c-7.76,0-15.51,0-23.27,0-.33,0-.66,0-1,0-.25,0-.5,0-.75.03-.61.06-1.22.06-1.83.06-.8,0-1.61,0-2.41.01-.36,0-.72,0-1.08.06-1.05.16-1.78.72-2.15,1.72-.05.13-.09.26-.13.4-.19.65-.23,1.31-.21,1.97.01.53.11,1.04.3,1.54.16.44.36.87.59,1.28.45.8.92,1.58,1.32,2.4.02.05.05.1.08.15.22.39.51.72.85,1.01.21.18.45.32.72.41.26.1.53.16.81.18.47.04.94.04,1.41.04,4.85,0,9.69-.02,14.54-.02,8.31,0,16.62,0,24.93,0,5.43,0,10.86,0,16.29,0,.3,0,.61-.01.91-.02.36,0,.72-.08,1.06-.2.84-.29,1.4-.86,1.66-1.72.13-.43.18-.87.18-1.31,0-1.41,0-2.83,0-4.24,0-.11,0-.22,0-.33-.01-.47-.1-.94-.21-1.39-.05-.19-.11-.37-.19-.55-.17-.39-.45-.7-.82-.91-.19-.11-.4-.2-.61-.26-.35-.1-.7-.17-1.06-.19-.3-.01-.61-.02-.91-.05-.72-.08-1.44-.08-2.16-.08-8.95,0-17.89,0-26.84,0ZM167.71,168.4c3.24,0,6.48,0,9.72,0,.5,0,1,0,1.49.05.25.02.5.03.75.03,2.3,0,4.6,0,6.89,0,.25,0,.5,0,.75-.03.52-.05,1.05-.06,1.58-.06,1.61,0,3.21,0,4.82,0,1.05,0,2.1,0,3.16,0,.41,0,.83-.02,1.24-.05.34-.02.65-.13.95-.28.49-.24.84-.62,1.03-1.14.12-.31.2-.64.22-.97.01-.22.03-.44.03-.66,0-1.58,0-3.16,0-4.73,0-.25-.01-.5-.04-.75-.04-.42-.17-.81-.37-1.18-.11-.2-.24-.37-.42-.51-.26-.22-.55-.38-.87-.47-.43-.12-.86-.2-1.31-.2-.33,0-.66,0-1,0-10.08,0-20.16,0-30.24,0-8.17,0-16.34,0-24.51,0-.61,0-1.22,0-1.83,0-.25,0-.5.01-.75.03-.22.01-.43.08-.64.18-.29.13-.49.36-.61.65-.03.08-.05.16-.08.24-.09.32-.12.65-.13.99,0,.61-.02,1.22-.03,1.83,0,.28-.02.55-.05.83-.06.52-.14,1.04-.21,1.56-.13.99-.3,1.97-.49,2.95-.04.22-.06.44-.08.66-.01.11,0,.22,0,.33.01.38.24.64.6.68.25.03.5.04.75.05.55,0,1.11,0,1.66,0,9.33,0,18.66,0,28,0ZM161.54,185.83h0c8.83,0,17.66,0,26.5,0,.91,0,1.83,0,2.74,0,.33,0,.66-.01,1-.03.39-.02.76-.12,1.13-.26.58-.22.97-.62,1.18-1.2.02-.05.04-.1.05-.16.1-.35.18-.7.2-1.06,0-.25.02-.5.02-.75,0-1.3,0-2.6,0-3.9,0-.25,0-.5-.02-.75-.02-.42-.11-.82-.24-1.22-.24-.7-.72-1.17-1.42-1.41-.34-.12-.69-.2-1.06-.2-.44,0-.89-.02-1.33-.02-5.95,0-11.91,0-17.86,0-10.8,0-21.6,0-32.39-.01-1.19,0-2.38,0-3.57,0-.33,0-.66.01-.99.04-.5.05-.89.29-1.18.69-.13.18-.24.37-.33.58-.14.3-.27.61-.39.91-.41.97-.84,1.93-1.31,2.87-.5.99-1.05,1.95-1.6,2.91-.18.31-.37.62-.55.93-.11.19-.2.4-.28.6-.06.15-.08.32-.08.49.01.27.14.47.36.61.07.04.14.08.22.11.31.12.64.19.97.2.58.01,1.16.02,1.74.02,9.5,0,18.99,0,28.49,0ZM165.19,140h0c-9.25,0-18.5,0-27.75,0-.28,0-.55,0-.83,0-.17,0-.33.01-.5.03-.22.02-.44.08-.63.19-.24.13-.37.32-.4.59-.02.2,0,.39.07.57.11.34.22.68.34,1.02.48,1.36.86,2.75,1.15,4.16.1.49.19.98.26,1.47.05.44.12.88.18,1.32.03.25.09.49.19.72.15.38.41.65.79.81.23.1.47.16.72.17.36,0,.72.02,1.08.02,3.35,0,6.7,0,10.05,0,14.21,0,28.42,0,42.63,0,.39,0,.78,0,1.16,0,.56.01,1.1-.07,1.65-.17.25-.05.48-.13.7-.24.41-.21.71-.53.89-.95.1-.23.17-.47.22-.71.1-.49.16-.98.16-1.48,0-1.33,0-2.66,0-3.99,0-.56-.08-1.1-.18-1.65-.04-.22-.11-.43-.21-.63-.19-.39-.48-.67-.87-.85-.2-.09-.41-.17-.63-.2-.66-.09-1.31-.19-1.98-.18-.53.01-1.05,0-1.58,0-8.89,0-17.78,0-26.67,0ZM80.14,113.85s0,0-.01,0c0-.25,0-.5,0-.75,0-.42-.07-.83-.16-1.23-.08-.36-.31-.58-.66-.67-.19-.05-.38-.07-.58-.05-.85.08-1.71.17-2.56.31-1.61.26-3.22.57-4.8.97-2.21.55-4.37,1.23-6.48,2.09-.74.3-1.48.63-2.21.95-1.06.48-2.09,1.01-3.11,1.58-.6.34-1.21.68-1.8,1.04-1.32.82-2.6,1.7-3.85,2.62-.29.21-.57.44-.82.7-.1.1-.19.2-.28.31-.18.23-.25.49-.22.78.02.17.07.32.15.47.09.17.21.33.34.47.31.35.62.7.94,1.05.19.2.39.4.59.59.18.17.38.32.61.42.37.18.75.18,1.13.02.21-.09.4-.2.58-.32.23-.16.45-.33.67-.49.45-.32.89-.66,1.35-.97,1.76-1.21,3.6-2.28,5.52-3.21,2.12-1.03,4.32-1.86,6.59-2.52,1.33-.39,2.68-.7,4.04-.96.71-.14,1.42-.27,2.13-.35.5-.05.99-.15,1.48-.21.22-.03.43-.09.64-.18.3-.12.5-.34.6-.65.09-.29.14-.59.15-.9,0-.3.01-.61.02-.91ZM38.35,160.24s0,.01,0,.02c-.39,0-.77,0-1.16,0-.19,0-.39.02-.58.04-.17.01-.32.07-.47.15-.27.14-.41.36-.45.66-.03.25,0,.5.02.74.13.96.26,1.92.43,2.87.35,1.99.83,3.95,1.44,5.88.66,2.12,1.5,4.16,2.45,6.17.15.33.32.64.49.96.23.44.47.88.71,1.31.15.27.3.53.45.79.82,1.38,1.69,2.73,2.64,4.02.52.71,1.05,1.42,1.62,2.11.18.21.36.42.58.59.15.12.32.22.51.27.16.05.33.05.49,0,.16-.04.31-.11.45-.2.31-.19.6-.4.86-.65.42-.4.84-.8,1.26-1.2.1-.1.19-.2.28-.31.08-.11.16-.23.22-.35.13-.26.15-.53.06-.8-.08-.24-.2-.46-.35-.66-.18-.24-.37-.48-.56-.72-.42-.55-.85-1.09-1.26-1.65-.67-.92-1.3-1.86-1.88-2.83-.59-.97-1.11-1.98-1.62-2.99-.7-1.42-1.29-2.88-1.81-4.37-.59-1.7-1.05-3.44-1.41-5.2-.18-.9-.33-1.8-.48-2.7-.05-.3-.1-.6-.19-.89-.04-.13-.09-.26-.15-.38-.13-.26-.33-.44-.6-.54-.18-.07-.37-.11-.57-.11-.47-.01-.94-.02-1.41-.03ZM80.14,200.66c0-.29,0-.59-.02-.9,0-.33-.06-.66-.15-.98-.09-.34-.29-.59-.62-.74-.18-.08-.36-.14-.55-.18-.35-.07-.71-.14-1.06-.19-.9-.13-1.81-.27-2.7-.45-1.71-.33-3.4-.77-5.07-1.3-1.95-.62-3.85-1.38-5.69-2.3-1.02-.51-2.02-1.03-3-1.61-1.05-.63-2.07-1.29-3.06-1.99-.39-.27-.78-.53-1.19-.77-.19-.11-.39-.21-.6-.29-.41-.16-.81-.15-1.21.04-.23.11-.44.24-.63.39-.66.5-1.26,1.08-1.84,1.68-.1.1-.18.21-.25.33-.17.28-.18.57-.02.87.09.17.21.32.36.45.19.16.38.32.58.47,1.76,1.35,3.61,2.57,5.53,3.67.89.51,1.79,1.01,2.71,1.45,1.25.6,2.51,1.18,3.8,1.67.96.36,1.91.73,2.9,1.02.8.24,1.59.47,2.39.69,1.04.28,2.1.51,3.16.7,1.47.27,2.95.47,4.44.65.28.03.55.04.83.01.37-.04.67-.29.78-.65.08-.29.14-.59.15-.9,0-.28.01-.55.02-.85ZM88.34,111.22c-.26,0-.42,0-.59,0-.11,0-.22.02-.33.04-.2.04-.35.16-.46.33-.04.07-.08.15-.11.22-.06.18-.12.37-.15.56-.09.66-.18,1.32-.06,1.98.03.19.03.39.05.58.03.28.08.55.17.81.11.34.35.55.69.67.05.02.11.03.16.04.11.02.22.03.33.04.74.08,1.48.18,2.22.3,1.72.29,3.43.65,5.1,1.13,3.45.99,6.72,2.39,9.82,4.21,1.12.66,2.22,1.36,3.28,2.11.38.27.79.51,1.19.76.28.17.59.3.92.38.25.06.49.05.73-.04.29-.1.55-.26.78-.46.42-.37.83-.73,1.23-1.12.22-.21.41-.45.61-.68.07-.08.13-.18.18-.28.2-.33.14-.79-.12-1.08-.13-.15-.28-.27-.43-.39-1.48-1.16-3.02-2.24-4.63-3.23-1.34-.83-2.74-1.57-4.15-2.27-1.84-.91-3.74-1.68-5.68-2.33-1.5-.5-3.02-.92-4.55-1.28-1.4-.33-2.82-.57-4.24-.8-.46-.07-.93-.13-1.4-.18-.22-.03-.44-.03-.57-.04ZM128.14,153.9c.41,0,.8-.01,1.19-.02.33,0,.66-.07.97-.19.28-.1.46-.3.52-.6.03-.13.04-.27.04-.41.01-.39-.01-.77-.07-1.16-.03-.19-.06-.38-.09-.57-.15-1.15-.37-2.3-.63-3.43-.47-2.08-1.06-4.13-1.81-6.13-.52-1.37-1.1-2.72-1.73-4.05-.28-.6-.61-1.18-.93-1.76-.99-1.83-2.1-3.58-3.34-5.25-.5-.67-.99-1.34-1.52-1.97-.12-.15-.25-.29-.39-.43-.16-.16-.33-.29-.53-.4-.28-.16-.57-.18-.88-.06-.21.09-.4.19-.58.33-.26.2-.53.4-.77.63-.41.37-.8.76-1.19,1.15-.1.1-.19.2-.27.31-.16.21-.23.44-.22.7,0,.23.06.44.17.63.12.22.28.41.43.61.43.55.86,1.09,1.27,1.64,1.44,1.93,2.71,3.98,3.78,6.14.38.77.73,1.55,1.06,2.34.36.84.68,1.7.96,2.56.41,1.24.76,2.49,1.04,3.76.24,1.05.42,2.12.59,3.18.06.38.13.76.19,1.15.04.22.11.43.21.63.12.23.3.39.55.48.26.09.53.15.81.16.39,0,.77.01,1.14.02ZM86.68,200.61s.01,0,.02,0c0,.17,0,.33,0,.5,0,.3,0,.61.01.91,0,.2.05.38.15.56.14.26.36.42.65.47.08.02.16.03.25.03.36.02.72,0,1.08-.04.58-.08,1.15-.17,1.72-.26,1.48-.22,2.95-.52,4.4-.87,3.62-.89,7.11-2.13,10.43-3.83.2-.1.4-.2.59-.3.72-.36,1.42-.75,2.11-1.16.55-.33,1.09-.66,1.63-.99.4-.25.79-.51,1.18-.78.43-.3.86-.6,1.29-.9.41-.28.8-.6,1.19-.91.17-.14.33-.29.46-.48.26-.37.3-.77.09-1.17-.08-.15-.17-.29-.27-.42-.57-.72-1.21-1.37-1.92-1.95-.09-.07-.17-.14-.27-.2-.4-.27-.82-.3-1.26-.08-.12.06-.24.13-.36.21-.14.09-.27.19-.4.29-.54.39-1.07.79-1.61,1.17-1.29.92-2.64,1.73-4.03,2.48-1.56.84-3.17,1.58-4.83,2.22-2.28.88-4.62,1.54-7.01,2.03-1.03.21-2.07.38-3.11.52-.33.04-.65.11-.98.19-.13.03-.26.08-.39.14-.32.14-.54.38-.65.71-.07.21-.11.43-.12.65-.01.42-.02.83-.02,1.25ZM130.88,161.71c0-.19,0-.35-.02-.52-.03-.43-.27-.72-.69-.84-.08-.02-.16-.05-.24-.06-.14-.02-.28-.03-.41-.03-.86,0-1.72,0-2.57,0-.17,0-.33.01-.5.04-.47.09-.8.35-.95.82-.02.08-.05.16-.06.24-.06.33-.12.65-.16.98-.09.74-.22,1.48-.35,2.21-.24,1.31-.55,2.6-.92,3.88-.45,1.54-1,3.05-1.65,4.52-.13.3-.28.6-.42.9-.53,1.19-1.16,2.33-1.82,3.45-.74,1.27-1.57,2.48-2.43,3.67-.18.25-.35.5-.52.75-.24.38-.39.79-.48,1.23-.08.36-.08.71,0,1.07.09.44.26.84.51,1.22.28.42.62.78,1,1.1.21.18.46.3.73.38.22.06.44.06.66,0,.27-.08.51-.21.72-.4.23-.2.43-.43.62-.67.82-1.05,1.63-2.1,2.37-3.2,1.14-1.7,2.19-3.46,3.1-5.3,1.16-2.33,2.11-4.75,2.86-7.25.73-2.42,1.21-4.89,1.55-7.39.04-.27.05-.55.07-.8ZM37.76,153.9s0,0,0-.01c.25,0,.5,0,.75,0,.36,0,.71-.08,1.05-.2.71-.25,1.23-.72,1.54-1.42.07-.15.12-.31.17-.47.08-.26.13-.54.17-.81.27-1.67.64-3.31,1.12-4.94.64-2.18,1.46-4.3,2.45-6.34.12-.25.25-.49.38-.74.14-.27.29-.53.43-.8.44-.83.92-1.64,1.43-2.43.56-.86,1.13-1.71,1.75-2.53.13-.18.26-.36.38-.54.44-.7.63-1.47.54-2.3,0-.06,0-.11-.02-.16-.04-.16-.07-.33-.13-.48-.3-.8-.85-1.41-1.53-1.92-.02-.02-.05-.03-.07-.04-.29-.18-.61-.25-.95-.21-.14.02-.27.05-.4.11-.26.11-.49.27-.68.47-.11.12-.22.25-.32.38-1.04,1.26-1.99,2.59-2.89,3.95-1.41,2.13-2.62,4.36-3.64,6.7-.93,2.13-1.69,4.33-2.28,6.58-.52,1.96-.87,3.94-1.13,5.95-.05.36-.05.72-.06,1.08,0,.14.01.28.03.41.04.27.19.45.44.56.21.09.42.14.64.15.28.01.55.02.83.02Z"/>
  <path class="cls-1" d="M86.68,145.95c0,2.1,0,4.21,0,6.31,0,.3,0,.61.02.91,0,.22.07.44.17.64.12.26.3.47.54.61.14.09.29.16.44.22.2.09.41.16.62.23,1.17.43,2.3.97,3.36,1.62.64.39,1.24.83,1.82,1.31.17.14.34.29.51.43.3.25.57.53.82.82.43.51.85,1.02,1.23,1.57.59.88,1.06,1.81,1.43,2.81.44,1.2.75,2.43.87,3.71.01.11.02.22.04.33.14,1.02.12,2.04,0,3.06-.1.77-.24,1.53-.45,2.28-.3,1.05-.73,2.03-1.25,2.98-.55,1-1.24,1.9-2,2.75-.31.35-.66.67-1.02.98-.53.45-1.07.88-1.64,1.27-.97.65-2,1.18-3.09,1.61-.36.14-.73.27-1.09.41-.26.1-.51.21-.75.36-.41.25-.73.59-.92,1.04-.08.18-.14.36-.22.54-.32.73-.86,1.21-1.62,1.45-.27.09-.54.14-.81.15-.22,0-.44,0-.66,0-.51-.02-.98-.16-1.43-.4-.35-.18-.63-.45-.85-.77-.14-.21-.25-.43-.34-.66-.07-.18-.14-.36-.22-.54-.18-.39-.46-.69-.84-.88-.2-.1-.4-.19-.61-.27-.36-.14-.72-.28-1.08-.42-1.54-.6-2.92-1.45-4.21-2.47-.46-.36-.86-.78-1.28-1.19-.98-.96-1.78-2.05-2.43-3.25-.62-1.15-1.07-2.37-1.34-3.65-.15-.73-.22-1.48-.28-2.22-.05-.7.07-1.38.3-2.04.04-.1.08-.21.13-.3.3-.63.79-1.06,1.43-1.33.34-.14.68-.22,1.05-.24.42-.02.83,0,1.24.1.89.24,1.5.81,1.89,1.63.13.28.22.57.27.87.06.3.11.6.15.9.11.86.32,1.69.63,2.49.56,1.45,1.45,2.67,2.69,3.62.33.25.67.49,1.03.7.17.1.34.18.53.22.18.05.41-.04.5-.21.05-.1.1-.2.13-.3.03-.13.06-.27.06-.41.01-.22.01-.44.01-.66,0-2.38,0-4.76,0-7.15,0-.72,0-1.44-.07-2.16-.06-.66-.05-1.33.01-1.99.06-.58.06-1.16.06-1.74,0-.17,0-.33-.03-.5-.08-.59-.37-1.04-.89-1.33-.14-.08-.3-.15-.45-.21-.21-.08-.42-.15-.62-.23-1.12-.41-2.19-.93-3.2-1.57-.66-.41-1.29-.87-1.87-1.38-.04-.04-.08-.08-.12-.11-1.09-.91-1.98-2.01-2.75-3.2-.54-.84-.97-1.74-1.32-2.68-.41-1.12-.67-2.28-.81-3.47-.02-.19-.04-.39-.04-.58,0-.55,0-1.11,0-1.66,0-.61.12-1.21.23-1.81.22-1.15.57-2.25,1.06-3.32.46-1.01,1.04-1.96,1.71-2.84.42-.55.87-1.08,1.35-1.57.7-.72,1.48-1.34,2.31-1.89.98-.64,2.02-1.15,3.12-1.54.29-.1.58-.19.86-.3.21-.08.41-.17.61-.27.43-.23.74-.57.94-1.02.08-.18.15-.36.22-.54.37-.89,1.06-1.39,1.98-1.61.58-.13,1.16-.12,1.73,0,.83.18,1.46.65,1.88,1.39.08.14.15.3.22.45.06.12.12.25.18.37.21.4.52.71.91.94.31.18.64.33.98.44.89.31,1.74.72,2.58,1.15,1.52.79,2.84,1.82,3.99,3.08.26.29.5.59.73.9,1.11,1.48,1.9,3.11,2.38,4.9.26.99.45,2,.58,3.02.07.56.03,1.11-.13,1.64-.28.96-.89,1.64-1.81,2.04-.33.14-.68.24-1.04.27-1.17.1-2.53-.47-3.15-1.86-.17-.38-.29-.78-.32-1.2-.04-.41-.09-.83-.17-1.23-.26-1.47-.85-2.8-1.78-3.98-.28-.35-.59-.66-.92-.96-.43-.39-.9-.74-1.39-1.05-.12-.07-.25-.13-.38-.17-.38-.13-.75.1-.8.49-.01.11-.03.22-.03.33,0,.19,0,.39,0,.58,0,2.13,0,4.26,0,6.4h0ZM80.14,145.54h0c0-1.33,0-2.65,0-3.98,0-.69,0-1.38,0-2.07,0-.25-.01-.5-.03-.75-.01-.17-.07-.32-.16-.46-.1-.15-.24-.23-.41-.24-.08,0-.17,0-.24.03-.13.04-.26.1-.38.17-1.09.63-2,1.48-2.79,2.45-.05.06-.1.13-.15.2-.84,1.21-1.3,2.56-1.4,4.02-.07,1.03.06,2.04.36,3.03.22.75.55,1.44.99,2.09.81,1.19,1.86,2.1,3.12,2.8.12.07.25.11.39.15.21.07.45-.05.56-.25.07-.12.12-.25.12-.39.02-.28.03-.55.03-.83,0-1.99,0-3.98,0-5.97ZM86.68,168.71h0c0,1.96,0,3.93,0,5.89,0,.22,0,.44,0,.66,0,.11.01.22.03.33.01.08.04.16.08.23.09.21.33.34.54.29.11-.02.21-.05.32-.1.31-.13.59-.3.86-.49.87-.61,1.6-1.35,2.18-2.25.81-1.27,1.25-2.64,1.28-4.15,0-.39,0-.77-.01-1.16,0-.22-.03-.44-.07-.66-.3-1.62-.99-3.04-2.09-4.27-.09-.1-.19-.21-.29-.29-.32-.27-.64-.53-.96-.79-.24-.19-.5-.35-.78-.48-.12-.06-.26-.1-.39-.14-.21-.06-.45.05-.56.25-.07.12-.11.25-.12.39-.01.28-.02.55-.02.83,0,1.96,0,3.93,0,5.89Z"/>
</svg>