<?xml version="1.0" encoding="UTF-8"?>
<svg id="Capa_2" data-name="Capa 2" xmlns="http://www.w3.org/2000/svg" viewBox="0 0 125.82 97.88">
  <defs>
    <style>
      .cls-1 {
        fill: #f6a42c;
        stroke-width: 0px;
      }
    </style>
  </defs>
  <g id="Capa_9" data-name="Capa 9">
    <g>
      <path class="cls-1" d="M0,9.92c.74-1.95,1.42-3.91,2.84-5.52C5.24,1.66,8.27.24,11.86.07c2.33-.11,4.66-.06,6.99-.01,6.27.12,11.51,5.19,11.94,11.46.1,1.43.13,2.86.13,4.29,0,21.48,0,42.95,0,64.43,0,2.38-.18,4.74-1.29,6.92-2,3.93-5.2,6.3-9.55,6.85-3.16.4-6.39.46-9.54-.02-5.09-.78-8.51-3.72-10.12-8.66-.11-.35-.27-.68-.41-1.02C0,59.51,0,34.71,0,9.92ZM25,47.24c0-11.53.01-23.06,0-34.59,0-3.67-2.1-6.12-5.71-6.65-2.47-.36-4.98-.21-7.46-.08-1.32.07-2.56.48-3.62,1.35-1.81,1.49-2.52,3.4-2.51,5.72.03,22.73.02,45.47.02,68.2,0,.33,0,.65.01.98.13,3,2.4,5.53,5.35,6,2.44.38,4.9.26,7.34.16,4.74-.19,6.66-3.85,6.63-7.24-.12-11.28-.05-22.57-.05-33.86Z"/>
      <path class="cls-1" d="M69.97,97.85c-13.87,0-27.73,0-41.6,0-.33,0-.66.04-.98,0-.53-.07-1.37.29-1.5-.4-.13-.67.76-.72,1.25-.94,1.75-.78,3.31-1.81,4.45-3.36.61-.82,1.32-1.06,2.3-1.06,13.99.02,27.98.02,41.97.02,12.15,0,24.3,0,36.45,0,3.25,0,5.63-1.45,7.1-4.36.53-1.05.64-2.19.64-3.34,0-19.18.02-38.37-.01-57.55,0-4.75-3.19-7.74-8.09-7.75-11.94-.02-23.89,0-35.83,0-12.84,0-25.69,0-38.53,0-.53,0-1.08.03-1.58-.11-1.45-.38-2.31-1.62-2.17-3.01.14-1.32,1.31-2.45,2.71-2.6.32-.03.65-.02.98-.02,24.75,0,49.49,0,74.24,0,7.16,0,12.53,4.28,13.86,10.96.17.85.15,1.71.15,2.57,0,19.14-.1,38.29.06,57.43.06,7.12-5.79,13.61-13.64,13.57-12.15-.05-24.3-.01-36.45-.01-1.92,0-3.84,0-5.77,0Z"/>
      <path class="cls-1" d="M85,23.11c6.95,0,13.9,0,20.85,0,2.11,0,2.5.39,2.5,2.51,0,6.17,0,12.35,0,18.52,0,1.9-.47,2.38-2.4,2.39-13.94,0-27.88,0-41.82,0-2.03,0-2.56-.54-2.56-2.54,0-6.13,0-12.26,0-18.4,0-1.98.5-2.48,2.46-2.48,6.99,0,13.98,0,20.97,0ZM84.93,26.2c-6.3,0-12.59.02-18.89-.02-1.05,0-1.43.26-1.42,1.37.05,4.82.06,9.65,0,14.47-.01,1.13.32,1.46,1.46,1.46,12.55-.04,25.11-.04,37.66,0,1.14,0,1.58-.27,1.56-1.49-.06-4.78-.06-9.57,0-14.35.01-1.13-.34-1.47-1.47-1.46-6.3.05-12.59.02-18.89.02Z"/>
      <path class="cls-1" d="M67.03,78.34c1.06,0,2.13-.02,3.19,0,2.26.05,3.68,1.26,4.05,3.47.08.44.11.89.12,1.34.05,3.92-1.36,5.36-5.25,5.36-1.72,0-3.43.02-5.15,0-2.55-.05-4.05-1.4-4.31-3.92-.08-.81-.09-1.64,0-2.45.25-2.37,1.79-3.75,4.17-3.8,1.06-.02,2.12,0,3.19,0ZM67.02,85.52s0,0,0,.01c.57,0,1.14,0,1.71,0,2.73,0,2.74-.01,2.67-2.71-.04-1.33-.32-1.62-1.7-1.63-1.43-.02-2.86,0-4.28,0-2.84,0-3.04.25-2.79,3.12.07.79.41,1.21,1.21,1.21,1.06,0,2.12,0,3.18,0Z"/>
      <path class="cls-1" d="M67.03,64.73c-1.1,0-2.21.02-3.31,0-2.17-.06-3.6-1.29-3.98-3.43-.19-1.05-.18-2.12,0-3.17.36-2.17,1.7-3.45,3.89-3.53,2.24-.09,4.5-.08,6.74,0,2.24.08,3.62,1.38,3.93,3.62.12.84.13,1.72.05,2.56-.25,2.61-1.74,3.93-4.37,3.96-.98,0-1.96,0-2.94,0ZM67.07,57.56s0-.01,0-.02c-.61,0-1.22,0-1.84,0-2.65,0-2.67.02-2.61,2.64.03,1.41.3,1.67,1.77,1.69,1.39.01,2.77-.02,4.16,0,2.99.05,2.91-.02,2.83-3.18-.02-.74-.39-1.14-1.14-1.14-1.06,0-2.12,0-3.18,0Z"/>
      <path class="cls-1" d="M84.96,88.27c-1.06,0-2.13.03-3.19,0-2.5-.09-4.01-1.63-4.05-4.12-.01-.74-.02-1.47,0-2.21.07-2.14,1.55-3.74,3.7-3.81,2.37-.08,4.74-.07,7.11,0,1.87.06,3.28,1.26,3.66,3.05.28,1.33.29,2.69,0,4.01-.4,1.82-1.85,2.97-3.8,3.06-1.14.05-2.29,0-3.43,0h0ZM85.05,85.29h0c.57,0,1.14,0,1.71,0,2.66,0,2.69-.06,2.62-2.76-.03-1.15-.54-1.61-1.65-1.59-1.47.03-2.93,0-4.4,0-2.73,0-2.87.18-2.76,2.94.04.99.49,1.41,1.43,1.4,1.02,0,2.04,0,3.06,0Z"/>
      <path class="cls-1" d="M67.05,66.29c1.18,0,2.37-.03,3.55,0,1.84.06,3.24,1.27,3.63,3.06.2.89.19,1.79.15,2.68-.11,2.64-1.39,4.08-4.05,4.29-2.4.19-4.81.22-7.21-.06-1.77-.21-2.96-1.37-3.34-3.1-.21-.93-.19-1.87-.13-2.8.16-2.66,1.66-4.06,4.34-4.09,1.02,0,2.04,0,3.06,0,0,0,0,0,0,.01ZM67.08,69.14c-.61,0-1.22,0-1.84,0-2.65,0-2.68.07-2.63,2.76.02,1.17.53,1.59,1.65,1.56,1.47-.05,2.94-.01,4.4-.01,2.8,0,2.85-.09,2.75-2.89-.04-1.05-.51-1.46-1.52-1.43-.94.03-1.88,0-2.81,0Z"/>
      <path class="cls-1" d="M84.98,64.48c-1.1,0-2.21.03-3.31,0-2.37-.07-3.89-1.59-3.94-3.94-.02-.73-.02-1.47,0-2.21.06-2.28,1.51-3.88,3.8-3.98,2.28-.1,4.58-.1,6.86,0,2.39.1,3.88,1.74,3.96,4.14.02.49,0,.98,0,1.47-.03,2.99-1.56,4.51-4.55,4.53-.94,0-1.88,0-2.82,0h0ZM84.88,61.62h0c.57,0,1.14,0,1.71,0,2.77,0,2.9-.14,2.77-2.9,0-.04,0-.08,0-.12.03-.93-.44-1.32-1.35-1.31-1.55.02-3.1,0-4.65,0-2.84,0-2.98.17-2.79,2.97.06.91.49,1.34,1.38,1.35.98.01,1.96,0,2.94,0Z"/>
      <path class="cls-1" d="M85.01,66.04c1.15,0,2.29,0,3.44,0,.71,0,1.39.15,1.99.54,2,1.27,2.16,3.25,1.8,6.2-.24,1.96-1.59,3.12-3.7,3.29-2.49.21-4.99.25-7.47-.05-1.95-.23-3.25-1.7-3.33-3.64-.03-.86-.03-1.72,0-2.58.07-2.17,1.57-3.69,3.72-3.76,1.19-.04,2.37,0,3.56,0ZM84.81,73.19s0,0,0,.01c.61,0,1.22,0,1.84,0,2.74,0,2.9-.19,2.72-2.93-.06-.96-.48-1.4-1.45-1.39-1.51.02-3.02,0-4.53,0-2.9,0-3.05.16-2.81,3.05,0,.04,0,.08,0,.12.03.75.44,1.12,1.17,1.12,1.02,0,2.04,0,3.06,0Z"/>
      <path class="cls-1" d="M103.06,77.86c1.1,0,2.21-.04,3.31,0,2.31.1,3.78,1.71,3.93,4.02.34,5-1.64,6.42-6.01,6.15-1.46-.09-2.94,0-4.41-.02-2.62-.05-4.08-1.64-4.24-4.22-.32-5.01,1.94-6.23,5.83-5.95.53.04,1.06,0,1.59,0h0ZM102.91,85.03s0,0,0,0c1.06,0,2.12,0,3.18,0,.9,0,1.34-.47,1.35-1.37,0-.41.01-.81,0-1.22-.04-1.32-.44-1.73-1.79-1.74-1.75-.02-3.5-.02-5.25,0-1.52.01-1.87.37-1.88,1.87,0,.41,0,.81,0,1.22,0,.8.43,1.21,1.21,1.22,1.06.02,2.12,0,3.18,0Z"/>
      <path class="cls-1" d="M102.91,64.23c-1.14,0-2.29.04-3.43,0-2.16-.09-3.73-1.69-3.81-3.86-.03-.73-.02-1.47,0-2.2.05-2.32,1.56-3.97,3.88-4.06,2.28-.09,4.57-.09,6.86,0,2.32.09,3.75,1.73,3.9,4.06.3,4.56-1.25,6.43-5.92,6.09-.49-.04-.98,0-1.47,0h0ZM103.01,61.38c.98,0,1.96.01,2.93,0,.98-.02,1.51-.51,1.49-1.53,0-.29,0-.57,0-.86-.01-1.71-.22-1.93-1.88-1.94-1.51-.01-3.02,0-4.52,0-2.51,0-2.55.05-2.52,2.51,0,.12,0,.24,0,.37,0,.97.53,1.42,1.44,1.44,1.02.03,2.04,0,3.06,0Z"/>
      <path class="cls-1" d="M103,65.8c1.18,0,2.37-.03,3.55,0,2.02.07,3.55,1.51,3.7,3.53.07.97.07,1.96,0,2.94-.14,1.88-1.46,3.29-3.34,3.5-2.6.29-5.22.24-7.82.02-.12-.01-.25-.02-.36-.04-2.4-.49-3.36-2.5-3.05-6.35.17-2.09,1.67-3.53,3.77-3.59,1.18-.03,2.37,0,3.55,0ZM102.91,72.95s0,0,0,.01c.78,0,1.55,0,2.33,0,2.09,0,2.2-.12,2.19-2.24,0-.08,0-.16,0-.25-.02-1.53-.28-1.81-1.77-1.82-1.47-.01-2.94.02-4.41,0-2.82-.06-2.79.08-2.73,3.06,0,.04,0,.08,0,.12.07.72.46,1.12,1.2,1.12,1.06,0,2.12,0,3.19,0Z"/>
      <path class="cls-1" d="M50.04,43.34c-.02,1.03-1.01,1.95-2.02,1.89-.98-.06-1.85-.99-1.83-1.96.02-1.03,1.01-1.95,2.03-1.89.99.06,1.85.98,1.83,1.96Z"/>
      <path class="cls-1" d="M39.79,32c-.01,1.04-.94,1.9-2.02,1.87-1.06-.04-1.81-.84-1.79-1.92.01-1.02.85-1.88,1.85-1.9,1.04-.01,1.97.92,1.96,1.95Z"/>
      <path class="cls-1" d="M37.85,39.56c-1.08,0-1.9-.88-1.87-1.99.03-1.02.9-1.88,1.89-1.86,1.01.02,1.96,1,1.92,2-.04.97-.96,1.85-1.94,1.84Z"/>
      <path class="cls-1" d="M50.04,37.6c.03.98-.83,1.89-1.83,1.94-1.04.05-2.01-.84-2.03-1.87-.02-.96.86-1.9,1.83-1.96,1-.06,2,.86,2.02,1.89Z"/>
      <path class="cls-1" d="M46.19,26.25c.03-.97.95-1.87,1.91-1.88,1.02,0,1.95.96,1.92,1.99-.04,1.08-.94,1.9-2.03,1.84-1.01-.06-1.83-.94-1.8-1.95Z"/>
      <path class="cls-1" d="M42.96,24.38c1.01-.01,1.96.94,1.95,1.96,0,1-.87,1.84-1.9,1.85-1.07.01-1.88-.75-1.92-1.8-.04-1.07.82-2,1.87-2.02Z"/>
      <path class="cls-1" d="M44.91,43.31c0,1.01-.97,1.96-1.98,1.93-.99-.03-1.83-.92-1.83-1.93,0-1.07.9-1.95,1.96-1.92.98.03,1.86.94,1.86,1.92Z"/>
      <path class="cls-1" d="M50.03,31.9c.04,1.01-.77,1.89-1.79,1.96-1.07.07-2.02-.77-2.06-1.82-.04-1.01.9-1.98,1.92-1.99.98,0,1.89.87,1.93,1.85Z"/>
      <path class="cls-1" d="M44.91,31.94c.03.99-.8,1.87-1.82,1.92-1.1.06-1.97-.75-1.99-1.85-.02-1.03.78-1.9,1.79-1.96,1-.06,1.99.87,2.03,1.88Z"/>
      <path class="cls-1" d="M37.94,24.38c.97.03,1.86.96,1.85,1.93-.01,1.05-.92,1.91-2,1.88-1.12-.03-1.87-.87-1.81-2.01.06-1,.97-1.83,1.95-1.8Z"/>
      <path class="cls-1" d="M37.83,41.39c1.02-.02,1.98.92,1.96,1.93-.01.96-.92,1.87-1.89,1.89-1.02.02-1.86-.78-1.91-1.82-.05-1.11.75-1.98,1.83-2.01Z"/>
      <path class="cls-1" d="M42.93,39.54c-1.03-.03-1.83-.86-1.83-1.9,0-1.05.94-1.97,1.96-1.93.97.04,1.86.97,1.86,1.93,0,1.04-.92,1.93-1.98,1.9Z"/>
    </g>
  </g>
</svg>