<?xml version="1.0" encoding="UTF-8"?>
<svg id="Capa_2" data-name="Capa 2" xmlns="http://www.w3.org/2000/svg" viewBox="0 0 118.59 118.42">
  <defs>
    <style>
      .cls-1 {
        fill: #f6a42c;
        stroke-width: 0px;
      }
    </style>
  </defs>
  <g id="Capa_9" data-name="Capa 9">
    <g>
      <path class="cls-1" d="M59.27,18.35c22.52,0,40.85,18.28,40.88,40.77.02,22.55-18.34,40.93-40.88,40.92-22.47-.01-40.81-18.37-40.82-40.86,0-22.49,18.32-40.82,40.82-40.83ZM89.52,80.07c9.59-13.16,9.57-34.71-5.7-48.4-15.09-13.51-38.01-12.32-51.84,2.8-13.27,14.5-11.16,34.85-2.85,45.55,1.95-4.65,4.7-8.67,8.43-12,3.72-3.32,8.02-5.6,12.96-7.04-.48-.44-.79-.71-1.09-.99-4.37-4.32-5.9-9.48-3.96-15.32,1.99-6,6.41-9.36,12.67-9.99,6.21-.63,12.07,3.01,14.56,8.73,2.49,5.72,1.07,12.37-3.56,16.61-1.03.95-1.03.94.34,1.39,7.19,2.37,12.88,6.71,17.05,13.03,1.15,1.74,2.01,3.63,2.98,5.63ZM58.77,96.01c2.13-.09,3.75-.08,5.37-.3,8.55-1.14,15.74-4.93,21.77-11.04.55-.56.64-1.08.37-1.79-.59-1.52-1.14-3.05-1.97-4.45-6.24-10.47-15.46-15.24-27.59-14.43-11.02.73-20.68,8.17-24.27,18.6-.35,1.02-.19,1.67.56,2.41,7.3,7.17,16,10.94,25.76,11ZM59.28,59.89c5.86,0,10.69-4.81,10.69-10.66,0-5.8-4.95-10.73-10.71-10.67-5.81.06-10.61,4.86-10.63,10.63-.02,5.84,4.81,10.7,10.65,10.7Z"/>
      <path class="cls-1" d="M86.42,107.18c-1.43-.41-2.66-.75-3.87-1.11-1.48-.44-2.17-1.36-1.88-2.48.31-1.22,1.38-1.74,2.9-1.34,2.74.73,5.47,1.47,8.2,2.25,1.48.43,2.01,1.36,1.62,2.86-.73,2.78-1.49,5.55-2.29,8.32-.4,1.38-1.38,2.01-2.47,1.71-1.18-.33-1.69-1.38-1.33-2.8.29-1.16.62-2.3.94-3.48-.63-.13-.97.24-1.35.44-7.95,4.15-16.38,6.45-25.37,6.83-26.76,1.13-51.24-16.32-58.96-42.16C.79,70.33-.12,64.33.01,58.21c.26-11.57,3.54-22.24,9.99-31.88.89-1.33,1.85-1.7,2.9-1.14,1.15.62,1.36,1.87.47,3.22-2.01,3.03-3.83,6.17-5.12,9.58C.31,58.95,3.27,78.25,17.68,95.44c9.06,10.8,20.94,16.82,34.94,18.54,11.61,1.43,22.55-.76,32.86-6.24.25-.13.48-.29.93-.56Z"/>
      <path class="cls-1" d="M32.4,11.26c1.31.37,2.51.69,3.7,1.05,1.46.44,2.11,1.37,1.79,2.53-.32,1.18-1.34,1.7-2.81,1.31-2.74-.72-5.47-1.47-8.19-2.26-1.6-.46-2.08-1.33-1.67-2.92.73-2.78,1.5-5.55,2.27-8.32.36-1.29,1.32-1.94,2.38-1.68,1.16.29,1.76,1.29,1.46,2.63-.28,1.24-.64,2.46-.97,3.71.59.13.9-.2,1.26-.39C39.55,2.73,47.98.45,56.97.06c28.47-1.25,53.68,18.14,60,45.61,3.79,16.46.95,31.84-8.17,46.06-.13.21-.27.42-.42.62-.79,1.05-1.89,1.33-2.82.73-1-.64-1.21-1.77-.43-2.95,2.91-4.41,5.24-9.1,6.86-14.13,8.35-25.84-3.75-54.4-28.14-66.37-8.8-4.32-18.12-6.17-27.87-5.6-8.01.47-15.58,2.65-22.67,6.44-.22.12-.43.25-.64.39-.06.04-.09.13-.26.4Z"/>
    </g>
  </g>
</svg>