<?xml version="1.0" encoding="utf-8"?>
<!-- Generator: Adobe Illustrator 28.2.0, SVG Export Plug-In . SVG Version: 6.00 Build 0)  -->
<svg version="1.1" id="Capa_1" xmlns="http://www.w3.org/2000/svg" xmlns:xlink="http://www.w3.org/1999/xlink" x="0px" y="0px"
	 viewBox="0 0 335.8 335.8" style="enable-background:new 0 0 335.8 335.8;" xml:space="preserve">
<style type="text/css">
	.st0{fill:#FFFFFF;}
</style>
<g>
	<path class="st0" d="M159.2,235.1c-14.9,0-29.8,0-44.7,0c-7.1,0-10.5-3.5-10.6-10.6c0-10.1,0-20.1,0-30.2c0-19.6,0-39.2,0-58.7
		c0-1.5,0.1-3.1,0.4-4.5c1-4,4.6-6.6,9.1-6.6c9.4,0,18.7,0,28.1,0c14.8,0,29.6,0,44.4,0c1.3,0,1.9-0.2,2-1.7
		c0.8-11.2,6.3-19,16.8-23c15.5-5.9,32.8,5.5,33.7,22.1c0.7,13.4-8.3,24.6-21.5,26.7c-1.6,0.3-2.4,1.2-2.4,2.8
		c0,24.6-0.1,49.1,0.1,73.7c0,6.2-4.3,10.2-10.1,10.1C189.4,235,174.3,235.2,159.2,235.1L159.2,235.1z M109.2,199.5
		c0,1.1,0,2.1,0,3.2c0,3,0.8,3.7,3.9,3.4c0.1,0,0.2,0,0.3-0.1c3.7-0.5,5.8-3,7.6-5.9c5-7.6,16.3-10.6,24.4-6.4
		c5.5,2.8,7.1,7.7,4.3,13.2c-0.7,1.5-1.6,2.9-2,4.5c-1.6,6.4,0.2,12.2,3.3,17.8c0.4,0.7,1.1,0.8,1.8,0.8c2.3,0,4.7,0,7,0
		c1.3,0,1.7-0.2,1.1-1.6c-2.3-5.5-3-11.3-2.3-17.2c0.3-2.8,0.5-5.7,0.8-8.5c0.5-4.3,0.1-8.6,0.6-12.9c0.5-3.8,1.7-7.2,4.9-9.5
		c5.2-3.8,11.2-5.3,17.5-4.8c6,0.5,11.5,2.6,16.7,5.5c2.9,1.6,5.8,3.3,8.5,5.2c0.9,0.6,1.3,0.7,1.4-0.7c0.2-2.7-0.4-4.9-2.6-6.6
		c-1.5-1.2-3-2.3-4.7-3c-1.7-0.7-3.4-1.5-4.9-2.7c-3.4-2.7-4.3-6.4-2.3-10.3c1.1-2.2,2.7-3.9,4.5-5.5c2.6-2.3,5.5-4.3,8.5-6.2
		c0.7-0.4,1.5-0.7,1.4-1.8c-0.1-1.1-1.1-0.9-1.8-1c-2.2-0.5-4.3-1.2-6.2-2.3c-1.4-0.9-1.9-0.6-2.6,0.9
		c-4.7,10.1-12.1,17.1-23.2,19.5c-6.2,1.4-12.5,1.7-18.7,2.5c-10.2,1.4-18.8,5.6-25.2,14c-1.6,2.1-3.4,4-5.4,5.7
		c-4.5,3.9-9.4,6.5-15.7,5c-1.1-0.3-1.2,0.4-1.2,1.2C109.2,196.3,109.2,197.9,109.2,199.5L109.2,199.5z M109.2,175.2
		c0,3.3,0,6.7,0,10c0,2.4,0.6,3.1,3.1,3.5c3.4,0.5,6.2-0.8,8.8-2.7c2.6-1.9,4.6-4.3,6.6-6.7c5.6-7.1,12.8-11.8,21.6-14.1
		c6.9-1.8,14-2,20.9-3.1c6.2-0.9,11.9-2.8,16.6-7.2c3.7-3.5,6.1-7.8,8.1-12.4c0.4-0.8-0.1-1.3-0.6-1.8c-2.4-2.6-4.2-5.6-5.3-9
		c-0.4-1.4-1.1-1.8-2.5-1.8c-5.3,0.1-10.6,0.1-15.9,0c-1.5,0-2.2,0.5-2.5,2c-1.1,4.5-3.5,8.2-7.1,11.2c-4.8,4.1-10.6,6.1-16.6,7.6
		c-6.9,1.7-13.9,3-20.8,4.6c-4.5,1-8.7,2.6-12.3,5.7c-1.5,1.3-2.4,2.7-2.3,4.8C109.4,168.9,109.2,172.1,109.2,175.2L109.2,175.2z
		 M195.7,230C195.7,230,195.7,230,195.7,230c3.3-0.1,6.5,0.1,9.8-0.1c2.4-0.1,3.8-1.5,3.8-3.7c0.1-5.6,0-11.2,0-16.8
		c0-0.8-0.4-1.3-1.2-1.5c-2.8-0.7-5.3-2.2-7.6-3.8c-4.4-3.1-8.8-6.2-13.2-9.3c-1.8-1.2-3.6-2.3-5.7-3c-2-0.6-2.8-0.2-3.5,1.7
		c-0.4,0.9-0.7,1.8-1.1,2.8c-2,5.1-2.6,10.3-1.4,15.6c1.5,6.5,5.1,12,9,17.3c0.5,0.7,1.2,0.8,2,0.8C189.6,230,192.6,230,195.7,230
		L195.7,230z M213.1,103.5c-11.2,0-20.1,8.8-20.1,20c0,11.2,9,20.3,20.1,20.3c11.1,0,20.1-9.1,20.1-20.3
		C233.2,112.4,224.3,103.5,213.1,103.5z M163.9,215c-0.1,4.7,0.6,9.3,3,13.6c0.4,0.8,0.9,1.4,2,1.4c2.8,0,5.6,0,8.4,0
		c1,0,1.3-0.3,0.7-1.2c-0.7-1.1-1.4-2.1-2.1-3.2c-3.7-6-6.2-12.3-6.1-19.5c0-5.8,1.9-11,4.3-16.1c1.3-2.7,4-3.9,7-3.5
		c2.9,0.4,5.3,1.6,7.8,3.1c3.6,2.2,7,4.7,10.4,7.2c2.8,2,5.5,4,8.5,5.5c1.2,0.6,1.7,0.4,1.7-1c-0.1-2.3,0-4.6,0-6.8
		c0-0.7-0.1-1.3-0.8-1.8c-5.3-3.2-10.4-6.8-16.1-9.2c-7.4-3.1-14.8-3.9-22.3-0.1c-3.1,1.6-4.6,4.1-4.7,7.4c-0.2,3.1-0.3,6.3-0.4,9.4
		C164.9,205.1,163.8,209.9,163.9,215L163.9,215z M109.3,156c5.5-3.8,11.3-5.4,17.2-6.8c3.7-0.8,7.4-1.5,11.1-2.3
		c6.2-1.3,12.5-2.7,18-6.2c3.5-2.2,6-5.3,7.4-9.3c0.4-1,0.4-1.7-1-1.7c-8.1,0-16.2,0-24.4,0c-0.8,0-1.4,0.3-1.9,1
		c-6.1,9.2-14.2,15.7-25.3,17.9c-0.7,0.1-1.2,0.4-1.2,1.2C109.3,151.9,109.3,153.7,109.3,156z M109.2,214.3c0,0.3,0,0.6,0,0.9
		c0,2.7,0.2,2.8,2.8,3c3.3,0.3,6.3-0.6,9.2-2.2c2.6-1.5,4.9-3.3,7.4-5c1-0.7,2.1-1.5,3.3-1.9c2.4-0.8,4.5,0.1,5.3,2.5
		c0.5,1.5,0.7,3.1,0.7,4.7c0,4,1,7.7,2.3,11.4c0.6,1.8,1.6,2.6,3.6,2.4c1.5-0.1,1.7-0.4,1-1.7c-1.6-3.4-2.6-6.9-2.8-10.6
		c-0.3-4.7,0.8-9,3.1-13.1c1.6-2.9,0.9-4.9-2.2-6.4c-0.3-0.1-0.5-0.2-0.8-0.3c-5.8-2.1-13.6-0.4-17.2,5.6c-2.8,4.7-6.9,7.7-12.7,7.7
		C109.2,211.3,109.2,211.2,109.2,214.3L109.2,214.3z M123.9,230c3.4,0,6.8,0,10.2,0c1.3,0,1.5-0.4,1-1.5c-1.3-3.3-2.1-6.8-2.3-10.4
		c-0.1-1.1,0.3-2.7-0.5-3.1c-0.9-0.4-1.8,0.9-2.7,1.6c-5.8,4.2-11.8,7.9-19.4,6.6c-0.6-0.1-0.8,0.1-0.9,0.7c-0.7,3.8,1,6,4.9,6.1
		C117.4,230.1,120.7,230,123.9,230L123.9,230z M120.6,129.9C120.6,129.9,120.6,129.9,120.6,129.9c-2.5,0-5,0-7.5,0
		c-2.6,0.1-3.8,1.3-3.9,3.9c0,2.6,0,5.1,0,7.7c0,2.2,0.1,2.3,2.3,1.9c0.5-0.1,1-0.3,1.5-0.4c6.6-2.3,11.8-6.5,16.2-11.8
		c0.2-0.3,0.7-0.6,0.4-1.1c-0.2-0.4-0.7-0.2-1.1-0.2C125.9,129.9,123.3,129.9,120.6,129.9L120.6,129.9z M209.3,156.4
		c-3.6,2.4-6.8,4.6-9.1,7.8c-1.8,2.3-1.4,4.1,1.1,5.5c2.6,1.5,5.6,2.3,8.1,4.5L209.3,156.4L209.3,156.4z"/>
	<path class="st0" d="M115,117.5c0-0.5,0-1.2,0.5-1.5c1.8-1.4,1.4-2.5,0-4c-1.2-1.4-0.1-3.6,1.7-3.9c1-0.2,1.9,0.3,2.5,1
		c0.9,1,1.6,1,2.6,0c1.3-1.4,2.8-1.4,3.8-0.3c1,1,1,2.7-0.3,3.9c-1.1,1-0.9,1.6,0,2.5c1.3,1.3,1.3,2.9,0.3,3.9
		c-1.1,1.1-2.6,1.1-3.8-0.2c-1.1-1.2-1.8-0.9-2.8,0.1c-0.7,0.8-1.7,1.2-2.9,0.7C115.7,119.3,115.1,118.6,115,117.5z"/>
	<path class="st0" d="M149.9,110.4c0,1.3-1.2,2.6-2.6,2.6c-1.4,0-2.5-1.2-2.5-2.6c0-1.4,1.1-2.5,2.4-2.5
		C148.6,107.8,149.9,109,149.9,110.4L149.9,110.4z"/>
	<path class="st0" d="M154.4,175c1.5,0,2.6,1,2.6,2.5c0,1.4-1,2.5-2.3,2.6c-1.3,0.1-2.6-1.1-2.7-2.4C151.8,176.2,153,175,154.4,175
		L154.4,175z"/>
	<path class="st0" d="M147.5,184.5c1.3,0.1,2.5,1.5,2.3,2.8c-0.2,1.3-1.4,2.3-2.7,2.3c-1.5-0.1-2.5-1.3-2.3-2.9
		C145,185.3,146.2,184.4,147.5,184.5L147.5,184.5z"/>
	<path class="st0" d="M162.2,158.4c-1.7-0.1-3,0.1-4.3-0.3c-1.4-0.4-2.5-1.1-2.9-2.6c-0.4-1.5,0.3-2.7,1.4-3.7
		c1.6-1.4,3.5-2.3,5.5-3c3.8-1.3,5.7-4.1,6.6-7.7c1.4-5.4,5.5-9.1,10.6-9.7c6.8-0.8,11.5,4.3,9.8,11c-1.5,5.7-4.6,10.1-10.4,12.4
		C173.2,157,167.6,158.2,162.2,158.4L162.2,158.4z M167.2,152.4c4.7-0.8,9.5-1.3,13.2-4.7c2.2-2,3.6-4.8,3.7-7.9
		c0.1-2-1.1-3.1-3.1-3.3c-3.3-0.2-6.2,2-7.2,5.5C172.8,146.2,170.8,149.8,167.2,152.4L167.2,152.4z"/>
	<path class="st0" d="M149.6,153.3c1.3,0,2.6,1.2,2.6,2.5s-1.1,2.4-2.4,2.5c-1.4,0.1-2.7-1-2.7-2.4
		C147.1,154.6,148.3,153.3,149.6,153.3L149.6,153.3z"/>
	<path class="st0" d="M123.5,172.7c0,1.4-1.3,2.5-2.7,2.5c-1.4-0.1-2.5-1.2-2.4-2.7c0.1-1.3,1.2-2.4,2.5-2.4
		C122.3,170.1,123.6,171.4,123.5,172.7z"/>
	<path class="st0" d="M185.6,206c1.4,0,2.6,1.3,2.5,2.6c-0.1,1.4-1.3,2.5-2.7,2.5c-1.3-0.1-2.4-1.2-2.4-2.5
		C183.1,207.2,184.3,206,185.6,206z"/>
	<path class="st0" d="M200.1,220.6c0,1.4-1.2,2.6-2.6,2.6c-1.3,0-2.5-1.2-2.5-2.5c0-1.4,1.1-2.6,2.5-2.6
		C199,218,200.1,219.1,200.1,220.6L200.1,220.6z"/>
	<path class="st0" d="M201.6,137.8c-2.2,0.1-3.4-1.8-2.5-3.9c1.4-3.2,2.9-6.2,4.4-9.4c0.2-0.4,0.4-0.7,0.5-1.1
		c1.4-4.8,4.7-7.6,9.3-9.3c3.4-1.2,6.6-3,9.8-4.6c1.2-0.6,2.5-0.9,3.6,0.2c1.2,1.1,0.8,2.4,0.2,3.7c-2.3,4.9-4.6,9.7-6.9,14.6
		c-0.5,1.1-1.2,1.8-2.3,2.3c-4.9,2.3-9.8,4.7-14.7,7C202.5,137.5,202,137.7,201.6,137.8L201.6,137.8z M219.2,117.7
		c-0.1-0.1-0.2-0.2-0.4-0.3c-1.5,0.7-3,1.4-4.6,2.1c-0.4,0.2-0.9,0.5-0.4,1c0.7,0.8,1.5,1.5,2.2,2.2c0.4,0.4,0.8,0,0.9-0.3
		C217.7,120.8,218.5,119.3,219.2,117.7L219.2,117.7z M212.8,126.4c-0.8-0.7-1.6-1.3-2.4-2c-0.6-0.6-0.9-0.4-1.3,0.3
		c-0.5,1.2-1.1,2.3-1.6,3.5c-0.1,0.3-0.4,0.6-0.1,1c0.3,0.3,0.7,0,0.9-0.1c1.2-0.5,2.3-1.1,3.5-1.7
		C212.1,127.3,212.5,127.2,212.8,126.4L212.8,126.4z"/>
	<path class="st0" d="M142.5,134.2c1.5,0,2.6,1.1,2.5,2.5c0,1.4-1.2,2.6-2.6,2.5c-1.3,0-2.4-1.2-2.5-2.5
		C139.9,135.4,141.1,134.2,142.5,134.2L142.5,134.2z"/>
</g>
</svg>
