<?xml version="1.0" encoding="UTF-8"?>
<svg id="Capa_2" data-name="Capa 2" xmlns="http://www.w3.org/2000/svg" viewBox="0 0 103.84 109.95">
  <defs>
    <style>
      .cls-1 {
        fill: #f6a42c;
        stroke-width: 0px;
      }
    </style>
  </defs>
  <g id="Capa_9" data-name="Capa 9">
    <g>
      <path class="cls-1" d="M38.31,109.72c-6.93,0-13.85.02-20.78,0C7.85,109.69.14,101.87,0,92.22c-.23-16.78,12.05-32.38,30.09-35.14,1.33-.2,2.66-.33,4.01-.33,9.9.01,19.8,0,29.7,0,3.04,0,5.99.56,8.9,1.4,1.52.44,2.21,1.46,1.87,2.65-.35,1.24-1.42,1.79-2.95,1.36-3.8-1.08-7.68-1.35-11.6-1.33-8.07.03-16.13-.02-24.2.02-6.96.03-13.38,1.9-18.97,6.12-7.64,5.77-11.85,13.44-12.6,23.03-.37,4.78.87,8.86,4.44,12.13,2.79,2.56,6.18,3.52,9.89,3.52,13.73,0,27.46,0,41.19,0,2.09,0,2.98.6,3,2.01.02,1.42-.9,2.07-2.94,2.07-7.17,0-14.34,0-21.51,0Z"/>
      <path class="cls-1" d="M23.49,25.36C23.41,11.49,35.13-.19,49.37,0c13.72.19,25.32,11.59,25.16,25.85-.16,13.96-11.53,25.24-25.65,25.2-14.17-.04-25.42-11.43-25.39-25.69ZM27.58,25.54c.25,11.81,9.19,21.33,21.42,21.35,11.78.02,21.3-9.08,21.35-21.36.05-11.8-9.2-21.31-21.24-21.35-12.09-.03-21.25,9.28-21.54,21.36Z"/>
      <path class="cls-1" d="M103.84,88.1c.02,12.05-9.71,21.84-21.69,21.85-12.07,0-21.96-9.82-21.94-21.8.02-12.04,9.85-21.84,21.89-21.84,12.01,0,21.72,9.73,21.74,21.8ZM82.07,70.54c-9.84.02-17.62,7.8-17.61,17.6.01,9.79,7.84,17.49,17.67,17.57,8.69.07,17.63-6.79,17.56-17.68-.06-10.96-9.1-17.7-17.62-17.49Z"/>
      <path class="cls-1" d="M84.28,81.77c0,1.02.05,2.04-.01,3.05-.06.94.25,1.31,1.24,1.28,2.03-.06,4.07-.03,6.11-.01,1.59.01,2.46.76,2.43,2.08-.02,1.26-.88,1.98-2.4,1.99-2.04.01-4.07.04-6.11-.01-.94-.03-1.31.26-1.28,1.24.06,2.07.03,4.15.01,6.23-.01,1.48-.81,2.33-2.08,2.31-1.22-.02-1.97-.86-1.99-2.28-.02-2.08-.05-4.15,0-6.23.03-.95-.26-1.3-1.25-1.28-2.07.06-4.15.03-6.23.01-1.48-.01-2.33-.8-2.31-2.08.02-1.22.86-1.97,2.28-1.99,2.08-.02,4.15-.04,6.23,0,.94.02,1.31-.26,1.28-1.25-.06-2.07-.03-4.15-.01-6.23.01-1.49.8-2.33,2.08-2.31,1.22.02,1.96.86,1.99,2.28.02,1.06,0,2.12,0,3.18Z"/>
    </g>
  </g>
</svg>