<?xml version="1.0" encoding="utf-8"?>
<!-- Generator: Adobe Illustrator 28.2.0, SVG Export Plug-In . SVG Version: 6.00 Build 0)  -->
<svg version="1.1" id="Capa_1" xmlns="http://www.w3.org/2000/svg" xmlns:xlink="http://www.w3.org/1999/xlink" x="0px" y="0px"
	 viewBox="0 0 335.8 335.8" style="enable-background:new 0 0 335.8 335.8;" xml:space="preserve">
<style type="text/css">
	.st0{fill:#FFFFFF;}
</style>
<g>
	<path class="st0" d="M236.4,171.3c-0.1,42-32.8,75.7-73.7,75.4c-40-0.3-72.3-34-72.2-76c0.1-41.4,33-75.1,73.2-75
		C203.7,95.7,236.5,129.8,236.4,171.3L236.4,171.3z M104.1,171.1c0.4,34.3,26.2,61.4,59.2,61.5c33.2,0.1,59.6-27.3,59.5-61.6
		c-0.1-34.2-26.3-61.2-59.2-61.3C130.5,109.7,104.5,136.8,104.1,171.1L104.1,171.1z"/>
	<path class="st0" d="M156.6,150.6c0-6.6,0-13.2,0-19.7c0-2.7,0.8-4.9,3-6.5c3.9-2.8,9.4-0.7,10.4,4.1c0.2,1.1,0.3,2.1,0.3,3.2
		c0,11.6,0,23.2,0,34.8c0,1.3,0.3,2.3,1.3,3.3c5.5,5.6,10.9,11.2,16.3,16.9c3.7,3.9,2.2,10.3-2.7,11.7c-2.4,0.7-4.8,0.3-6.6-1.6
		c-6.7-6.9-13.3-13.8-19.9-20.6c-1.5-1.6-2-3.6-2-5.7C156.6,163.8,156.6,157.2,156.6,150.6L156.6,150.6z"/>
</g>
</svg>
