<?xml version="1.0" encoding="utf-8"?>
<!-- Generator: Adobe Illustrator 28.2.0, SVG Export Plug-In . SVG Version: 6.00 Build 0)  -->
<svg version="1.1" id="Capa_1" xmlns="http://www.w3.org/2000/svg" xmlns:xlink="http://www.w3.org/1999/xlink" x="0px" y="0px"
	 viewBox="0 0 335.8 335.8" style="enable-background:new 0 0 335.8 335.8;" xml:space="preserve">
<style type="text/css">
	.st0{fill:#FFFFFF;}
</style>
<g>
	<path class="st0" d="M217.3,155.8c0.2-21.3-16.7-42.8-42.6-46.7c-9.7-1.5-19-0.1-27.9,4.1c-3.4,1.7-6.8,0.6-8.2-2.6
		c-1.4-3,0-6.3,3.4-7.9c24.9-12.3,56.4-4.9,73.5,17.3c9.7,12.5,14,26.8,13.1,42.7c-0.8,13.5-5.5,25.5-13.9,36.1
		c-14,17.7-27.8,35.5-41.7,53.2c-3,3.8-7,3.9-10,0.1c-13.6-17.4-27.2-34.9-41-52.3c-7.2-9-12.1-18.9-14.1-30.4
		c-2.2-13.3-0.5-26.1,5.4-38.2c1.6-3.2,4.9-4.5,7.8-3c2.8,1.4,3.9,4.8,2.5,8c-8.7,19.7-6.7,38.2,6.5,55.2c12,15.6,24.3,31,36.4,46.5
		c1.4,1.8,1.4,1.8,2.9-0.1c12.4-15.9,24.9-31.8,37.3-47.8C213.9,181,217.3,170.5,217.3,155.8L217.3,155.8z"/>
	<path class="st0" d="M201.2,158.9c0,18.9-14.8,34-33.4,33.9c-18.4,0-33.1-15.2-33.1-34.3c0-18.6,15-33.6,33.6-33.6
		C186.3,125,201.2,140.4,201.2,158.9L201.2,158.9z M167.9,181.1c12.1,0.1,21.9-9.7,22-22.1c0.1-12.1-10-22.7-21.8-22.5
		c-13.4,0.2-22,11.1-22,22C146.2,171.4,155.4,181.1,167.9,181.1L167.9,181.1z"/>
	<path class="st0" d="M128.2,125.5c-2.2,0-3.9-1.1-4.9-3c-1-1.9-0.9-4,0.2-5.9c0.9-1.5,2.2-2.7,3.7-3.7c2.5-1.6,5.6-1.1,7.3,1.2
		c1.8,2.3,1.8,5.4-0.2,7.6C132.6,123.5,131.1,125.7,128.2,125.5L128.2,125.5z"/>
</g>
</svg>
