<?xml version="1.0" encoding="UTF-8"?>
<svg id="Capa_30" data-name="Capa 30" xmlns="http://www.w3.org/2000/svg" viewBox="0 0 250 250">
  <defs>
    <style>
      .cls-1 {
        fill: #f9f9f9;
      }

      .cls-1, .cls-2, .cls-3 {
        stroke-width: 0px;
      }

      .cls-2 {
        fill: #f6a42c;
      }

      .cls-3 {
        fill: #01424e;
      }
    </style>
  </defs>
  <path class="cls-3" d="M195.98,97.64v91.87c0,10.3-8.33,18.66-18.63,18.66H54.7c-10.3,0-18.63-8.36-18.63-18.66v-12.86h.9c2.64,0,4.92-1.83,5.52-4.42,3.21-14.46,16.32-24.96,31.12-24.96,2.73,0,5.54.39,8.36,1.15.48.14.99.2,1.46.2,1.24,0,2.42-.39,3.43-1.15,1.38-1.07,2.19-2.73,2.19-4.47v-64.01h88.3c10.3,0,18.63,8.36,18.63,18.66Z"/>
  <path class="cls-1" d="M155.43,141.66c0-1.55-1.26-2.81-2.81-2.81h-6.24v-8.9c0-1.55-1.26-2.81-2.81-2.81s-2.81,1.26-2.81,2.81v8.9h-9.73v-31.13c0-1.55-1.26-2.81-2.81-2.81s-2.81,1.26-2.81,2.81v31.13h-13.27v-31.13c0-1.55-1.26-2.81-2.81-2.81s-2.81,1.26-2.81,2.81v67.9c0,1.55,1.26,2.81,2.81,2.81s2.81-1.26,2.81-2.81v-31.13h37.68v15.84h-23.86c-1.55,0-2.81,1.26-2.81,2.81s1.26,2.81,2.81,2.81h26.67c1.55,0,2.81-1.26,2.81-2.81v-21.02c0-.08-.04-.15-.05-.22,0-.08.05-.14.05-.22Z"/>
  <path class="cls-3" d="M83.42,48.25v94.74c-3.12-.84-6.41-1.35-9.82-1.35-17.92,0-32.87,12.58-36.64,29.38h-.9V60.46c0-10.3,8.33-18.63,18.63-18.63h22.31c3.54,0,6.41,2.87,6.41,6.42Z"/>
  <g>
    <rect class="cls-2" x="139.63" y="95.83" width="62.22" height="20.55" transform="translate(-27.29 140.66) rotate(-41.76)"/>
    <path class="cls-2" d="M193.38,66.45h10.27c5.67,0,10.27,4.6,10.27,10.27h0c0,5.67-4.6,10.27-10.27,10.27h-10.27v-20.55h0Z" transform="translate(.64 155.12) rotate(-41.76)"/>
    <path class="cls-2" d="M139.71,138.95l12.63-2.63-13.69-15.33-4.04,12.25c-1.07,3.23,1.77,6.41,5.1,5.71Z"/>
  </g>
</svg>