<?xml version="1.0" encoding="UTF-8"?>
<svg id="Capa_30" data-name="Capa 30" xmlns="http://www.w3.org/2000/svg" viewBox="0 0 250 250">
  <defs>
    <style>
      .cls-1 {
        fill: #f6a42c;
        stroke-width: 0px;
      }
    </style>
  </defs>
  <path class="cls-1" d="M162.02,101.88c-.96-7.32-4.71-11.58-11.9-13.36-3.5-.89-7.12-1.08-11.39-1.21-4.26-.07-8.46-.07-12.72-.07l-3.05.07h-5.98c-3.5,0-7.06,0-10.56.12-2.54.13-4.58.38-6.42.76-6.17,1.27-9.92,4.84-11.51,10.81-.64,2.61-1.02,5.41-1.15,8.39-.13,3.94-.25,8.14-.13,12.28.13,3.56.07,7.12,0,10.56-.06,2.73-.13,5.47-.06,8.21.06,3.24.13,7.06.89,10.62,1.4,7.06,5.47,11.13,12.47,12.59,2.74.57,5.73.83,9.67.89,6.55.07,13.1.07,19.66.07h4.77c4.71,0,9.54,0,14.25-.76,6.93-1.14,11.32-5.28,12.79-11.96.57-2.67.89-5.53.95-8.78v-17.49h.06v-9.03c-.06-4.2-.06-8.53-.63-12.72ZM125.06,151.37h-.07c-14.69-.07-26.21-11.64-26.27-26.4-.06-6.94,2.67-13.55,7.63-18.51,5.03-5.09,11.58-7.82,18.7-7.82s13.74,2.8,18.7,7.82c4.96,5.03,7.7,11.64,7.63,18.57-.06,14.76-11.64,26.33-26.33,26.33ZM150.63,106.84c-4.14-.07-7.38-3.31-7.38-7.44,0-2.04.76-3.88,2.23-5.35,1.4-1.34,3.31-2.16,5.21-2.1,1.97,0,3.88.83,5.28,2.23,1.4,1.46,2.23,3.37,2.16,5.35-.06,4.07-3.37,7.31-7.5,7.31ZM125.13,110.72c-3.88,0-7.51,1.53-10.18,4.2-2.67,2.67-4.2,6.3-4.2,10.05,0,7.89,6.42,14.31,14.25,14.37,3.69-.06,7.44-1.52,10.11-4.2,2.74-2.67,4.2-6.3,4.2-10.05.07-7.89-6.36-14.31-14.18-14.38ZM162.02,101.88c-.96-7.32-4.71-11.58-11.9-13.36-3.5-.89-7.12-1.08-11.39-1.21-4.26-.07-8.46-.07-12.72-.07l-3.05.07h-5.98c-3.5,0-7.06,0-10.56.12-2.54.13-4.58.38-6.42.76-6.17,1.27-9.92,4.84-11.51,10.81-.64,2.61-1.02,5.41-1.15,8.39-.13,3.94-.25,8.14-.13,12.28.13,3.56.07,7.12,0,10.56-.06,2.73-.13,5.47-.06,8.21.06,3.24.13,7.06.89,10.62,1.4,7.06,5.47,11.13,12.47,12.59,2.74.57,5.73.83,9.67.89,6.55.07,13.1.07,19.66.07h4.77c4.71,0,9.54,0,14.25-.76,6.93-1.14,11.32-5.28,12.79-11.96.57-2.67.89-5.53.95-8.78v-17.49h.06v-9.03c-.06-4.2-.06-8.53-.63-12.72ZM125.06,151.37h-.07c-14.69-.07-26.21-11.64-26.27-26.4-.06-6.94,2.67-13.55,7.63-18.51,5.03-5.09,11.58-7.82,18.7-7.82s13.74,2.8,18.7,7.82c4.96,5.03,7.7,11.64,7.63,18.57-.06,14.76-11.64,26.33-26.33,26.33ZM150.63,106.84c-4.14-.07-7.38-3.31-7.38-7.44,0-2.04.76-3.88,2.23-5.35,1.4-1.34,3.31-2.16,5.21-2.1,1.97,0,3.88.83,5.28,2.23,1.4,1.46,2.23,3.37,2.16,5.35-.06,4.07-3.37,7.31-7.5,7.31ZM125.13,110.72c-3.88,0-7.51,1.53-10.18,4.2-2.67,2.67-4.2,6.3-4.2,10.05,0,7.89,6.42,14.31,14.25,14.37,3.69-.06,7.44-1.52,10.11-4.2,2.74-2.67,4.2-6.3,4.2-10.05.07-7.89-6.36-14.31-14.18-14.38ZM192.68,42.6H57.32c-8.08,0-14.69,6.62-14.69,14.76v135.29c0,8.14,6.61,14.76,14.69,14.76h135.35c8.14,0,14.69-6.62,14.69-14.76V57.36c0-8.14-6.55-14.76-14.69-14.76ZM174.61,141.63c-.07.32-.07.63-.07.95-.06,3.43-.38,6.55-1.02,9.48-1.84,8.27-5.85,14.12-12.34,18-4.13,2.48-8.84,3.82-14.88,4.26-1.21.07-2.42.13-3.56.19l-1.65.12h-34.41l-.57-.06c-3.12-.19-5.73-.51-8.14-1.08-10.68-2.35-17.68-8.71-20.73-18.89-1.53-5.09-1.78-10.18-1.84-14.5-.07-10.11,0-20.29,0-30.47,0-3.56.32-7.19.95-10.69,2.23-12.59,11.13-21.12,23.73-22.83,4.96-.7,10.11-.7,14.25-.7l4.52-.07c8.27-.06,16.79-.06,25.19.19,3.05.13,5.79.44,8.27,1.02,6.11,1.34,10.88,3.94,14.57,7.89,4.39,4.77,6.74,10.81,7.44,18.89.13,1.4.19,2.8.25,4.14l.13,1.97-.06,32.19ZM150.12,88.52c-3.5-.89-7.12-1.08-11.39-1.21-4.26-.07-8.46-.07-12.72-.07l-3.05.07h-5.98c-3.5,0-7.06,0-10.56.12-2.54.13-4.58.38-6.42.76-6.17,1.27-9.92,4.84-11.51,10.81-.64,2.61-1.02,5.41-1.15,8.39-.13,3.94-.25,8.14-.13,12.28.13,3.56.07,7.12,0,10.56-.06,2.73-.13,5.47-.06,8.21.06,3.24.13,7.06.89,10.62,1.4,7.06,5.47,11.13,12.47,12.59,2.74.57,5.73.83,9.67.89,6.55.07,13.1.07,19.66.07h4.77c4.71,0,9.54,0,14.25-.76,6.93-1.14,11.32-5.28,12.79-11.96.57-2.67.89-5.53.95-8.78v-17.49h.06v-9.03c-.06-4.2-.06-8.53-.63-12.72-.96-7.32-4.71-11.58-11.9-13.36ZM125.06,151.37h-.07c-14.69-.07-26.21-11.64-26.27-26.4-.06-6.94,2.67-13.55,7.63-18.51,5.03-5.09,11.58-7.82,18.7-7.82s13.74,2.8,18.7,7.82c4.96,5.03,7.7,11.64,7.63,18.57-.06,14.76-11.64,26.33-26.33,26.33ZM150.63,106.84c-4.14-.07-7.38-3.31-7.38-7.44,0-2.04.76-3.88,2.23-5.35,1.4-1.34,3.31-2.16,5.21-2.1,1.97,0,3.88.83,5.28,2.23,1.4,1.46,2.23,3.37,2.16,5.35-.06,4.07-3.37,7.31-7.5,7.31ZM125.13,110.72c-3.88,0-7.51,1.53-10.18,4.2-2.67,2.67-4.2,6.3-4.2,10.05,0,7.89,6.42,14.31,14.25,14.37,3.69-.06,7.44-1.52,10.11-4.2,2.74-2.67,4.2-6.3,4.2-10.05.07-7.89-6.36-14.31-14.18-14.38ZM162.02,101.88c-.96-7.32-4.71-11.58-11.9-13.36-3.5-.89-7.12-1.08-11.39-1.21-4.26-.07-8.46-.07-12.72-.07l-3.05.07h-5.98c-3.5,0-7.06,0-10.56.12-2.54.13-4.58.38-6.42.76-6.17,1.27-9.92,4.84-11.51,10.81-.64,2.61-1.02,5.41-1.15,8.39-.13,3.94-.25,8.14-.13,12.28.13,3.56.07,7.12,0,10.56-.06,2.73-.13,5.47-.06,8.21.06,3.24.13,7.06.89,10.62,1.4,7.06,5.47,11.13,12.47,12.59,2.74.57,5.73.83,9.67.89,6.55.07,13.1.07,19.66.07h4.77c4.71,0,9.54,0,14.25-.76,6.93-1.14,11.32-5.28,12.79-11.96.57-2.67.89-5.53.95-8.78v-17.49h.06v-9.03c-.06-4.2-.06-8.53-.63-12.72ZM125.06,151.37h-.07c-14.69-.07-26.21-11.64-26.27-26.4-.06-6.94,2.67-13.55,7.63-18.51,5.03-5.09,11.58-7.82,18.7-7.82s13.74,2.8,18.7,7.82c4.96,5.03,7.7,11.64,7.63,18.57-.06,14.76-11.64,26.33-26.33,26.33ZM150.63,106.84c-4.14-.07-7.38-3.31-7.38-7.44,0-2.04.76-3.88,2.23-5.35,1.4-1.34,3.31-2.16,5.21-2.1,1.97,0,3.88.83,5.28,2.23,1.4,1.46,2.23,3.37,2.16,5.35-.06,4.07-3.37,7.31-7.5,7.31ZM125.13,110.72c-3.88,0-7.51,1.53-10.18,4.2-2.67,2.67-4.2,6.3-4.2,10.05,0,7.89,6.42,14.31,14.25,14.37,3.69-.06,7.44-1.52,10.11-4.2,2.74-2.67,4.2-6.3,4.2-10.05.07-7.89-6.36-14.31-14.18-14.38ZM162.02,101.88c-.96-7.32-4.71-11.58-11.9-13.36-3.5-.89-7.12-1.08-11.39-1.21-4.26-.07-8.46-.07-12.72-.07l-3.05.07h-5.98c-3.5,0-7.06,0-10.56.12-2.54.13-4.58.38-6.42.76-6.17,1.27-9.92,4.84-11.51,10.81-.64,2.61-1.02,5.41-1.15,8.39-.13,3.94-.25,8.14-.13,12.28.13,3.56.07,7.12,0,10.56-.06,2.73-.13,5.47-.06,8.21.06,3.24.13,7.06.89,10.62,1.4,7.06,5.47,11.13,12.47,12.59,2.74.57,5.73.83,9.67.89,6.55.07,13.1.07,19.66.07h4.77c4.71,0,9.54,0,14.25-.76,6.93-1.14,11.32-5.28,12.79-11.96.57-2.67.89-5.53.95-8.78v-17.49h.06v-9.03c-.06-4.2-.06-8.53-.63-12.72ZM125.06,151.37h-.07c-14.69-.07-26.21-11.64-26.27-26.4-.06-6.94,2.67-13.55,7.63-18.51,5.03-5.09,11.58-7.82,18.7-7.82s13.74,2.8,18.7,7.82c4.96,5.03,7.7,11.64,7.63,18.57-.06,14.76-11.64,26.33-26.33,26.33ZM150.63,106.84c-4.14-.07-7.38-3.31-7.38-7.44,0-2.04.76-3.88,2.23-5.35,1.4-1.34,3.31-2.16,5.21-2.1,1.97,0,3.88.83,5.28,2.23,1.4,1.46,2.23,3.37,2.16,5.35-.06,4.07-3.37,7.31-7.5,7.31ZM125.13,110.72c-3.88,0-7.51,1.53-10.18,4.2-2.67,2.67-4.2,6.3-4.2,10.05,0,7.89,6.42,14.31,14.25,14.37,3.69-.06,7.44-1.52,10.11-4.2,2.74-2.67,4.2-6.3,4.2-10.05.07-7.89-6.36-14.31-14.18-14.38Z"/>
</svg>