<?xml version="1.0" encoding="UTF-8"?>
<svg id="Capa_30" data-name="Capa 30" xmlns="http://www.w3.org/2000/svg" viewBox="0 0 250 250">
  <defs>
    <style>
      .cls-1 {
        fill: #f6a42c;
      }

      .cls-1, .cls-2 {
        stroke-width: 0px;
      }

      .cls-2 {
        fill: #01424e;
      }
    </style>
  </defs>
  <g>
    <path class="cls-1" d="M197.94,111.22c-4.44,7.18-8.11,14.69-9.88,23.06-.95,4.53-1.51,9.11-1.91,13.74-.12,1.33-.67,1.79-1.98,1.77-7.04-.02-14.09-.05-21.15.02-.21,0-.39-.02-.58-.05h-2.16c.02-.14.05-.26.05-.39.02-.79.07-18.06.09-18.85.07-3.63.58-7.23,1.42-10.76.93-3.88,2.35-7.58,4.44-10.99.26-.42.47-.51.86-.14.47.44,1.02.77,1.58,1.07,3.42,1.74,7.04,2.16,10.78,1.53,3.97-.65,6.9-2.74,8.88-6.25,2.16-3.88,3.02-8.11,3.46-12.46.14-1.35.23-2.72.35-4.07v-5.11c-.39-.81-1.07-1.02-1.91-1.02-3.37,0-6.72.16-10.06.63-3.42.49-6.76,1.26-9.88,2.88-2.51,1.3-4.65,3.02-5.88,5.69-1.07,2.35-1.42,4.83-1.33,7.39.02.81.21,1.51,1.05,1.81.81.3,1.39-.12,1.91-.7,2.18-2.51,4.7-4.65,7.51-6.39,1.16-.74,2.37-1.39,3.63-1.98.79-.37,1.65-.09,1.98.6.35.72.09,1.39-.74,1.86-.16.07-.33.16-.51.23-7.83,3.79-13.39,9.74-16.8,17.71-.74,1.77-1.35,3.58-1.91,5.53-.07-.3-.12-.47-.16-.65-.79-4.91-2.09-9.69-4.23-14.2-2.67-5.6-6.35-10.37-11.5-13.88-.47-.3-.91-.63-1.3-.98-.6-.54-.7-1.3-.23-1.91.44-.58,1.21-.7,1.88-.23.44.28.84.6,1.28.88,2.72,1.84,5.14,4,7.16,6.6.77.95,1.44,1.98,2.12,3,.6.95,1.49,1.16,2.28.63.46-.33.6-.81.67-1.35.35-2.07.37-4.14,0-6.18-.47-2.72-1.51-5.11-3.63-7-2.3-2-5-3.21-7.88-4.02-5.09-1.44-10.34-1.7-15.6-1.72-1.19-.02-1.74.6-1.74,1.77-.02,2.74.09,5.49.35,8.2.42,4.14,1.19,8.16,3.07,11.88,1.21,2.35,2.74,4.44,5.18,5.65,4.81,2.35,9.65,2.18,14.48-.02.47-.21.6-.14.81.3.7,1.53,1.3,3.09,1.81,4.7,1.95,6.02,2.77,12.25,3.09,18.55.07,1.77.07,20.01.14,21.78,0,.14.02.26.05.37h-3.16c-.21.02-.44.05-.7.05-6.93-.07-13.85-.07-20.78,0-1.51,0-2.05-.56-2.12-2.05-.63-12.57-4.04-24.29-10.76-35.03-3.18-5.11-5.9-10.44-6.88-16.48-4.49-27.45,14.13-50.25,38.42-53.88,24.54-3.67,46.95,11.83,52.2,36.1,2.51,11.62.67,22.57-5.62,32.75Z"/>
    <path class="cls-1" d="M183.58,155.21c-8.4,0-16.8,0-25.2,0-8.46,0-16.92,0-25.39,0-2.18,0-2.46.38-2.17,2.53.49,3.6,2.55,5.86,5.99,6.71,1.29.32,1.55.9,1.51,2.03-.06,1.73-.03,3.46,0,5.19.04,4.08,2.1,6.77,6.08,7.72,1.08.26,1.43.74,1.42,1.76-.02,1.85-.05,3.71.02,5.56.16,4.27,2.98,7.5,7.21,7.8,3.56.25,7.18.27,10.73-.02,4.44-.36,7.03-3.52,7.07-8,.01-1.67.05-3.34-.01-5-.05-1.25.34-1.83,1.68-2.11,3.62-.75,5.97-3.72,6.07-7.42.05-1.73.09-3.46,0-5.19-.08-1.39.31-2.06,1.77-2.44,3.25-.84,5.11-3.12,5.62-6.42.36-2.34,0-2.71-2.4-2.71Z"/>
  </g>
  <g>
    <path class="cls-2" d="M47.58,110.59c1.16-1.47,2.69-1.87,4.44-1.47,2.29.52,4.19.43,5.18-2.23.37-.99,1.24-1.81,1.93-2.67.4-.5.46-.93.17-1.5-.54-1.05-1.05-2.12-1.51-3.21-.84-1.97-.49-3.44,1.28-4.65,2.08-1.42,4.23-2.75,6.41-4.01,1.64-.94,3.2-.63,4.49.77.8.87,1.53,1.8,2.25,2.74.39.51.79.65,1.42.45,1.89-.58,3.83-.91,5.8-1.03.73-.04,1.12-.33,1.34-1.05.29-.98.69-1.92,1.07-2.87.83-2.05,2.2-2.86,4.39-2.43,2.28.45,4.55.97,6.79,1.56,2.32.61,3.39,2.05,2.92,4.37-.53,2.66-.14,4.59,2.61,5.72.94.39,1.71,1.25,2.5,1.95.48.42.9.52,1.48.22.94-.5,1.9-.96,2.88-1.37,1.95-.83,3.56-.37,4.72,1.41,1.31,2.01,2.59,4.05,3.82,6.11,1.07,1.8.87,3.71-.9,4.8-2.67,1.65-3.63,3.64-2.35,6.58.16.38.22.86.16,1.28-.19,1.53.65,2.18,1.97,2.53.68.18,1.34.46,2,.71,2.09.78,2.97,2.24,2.53,4.44-.46,2.32-.99,4.62-1.59,6.91-.57,2.14-1.91,3.03-4.11,2.87-1.1-.08-2.2-.16-3.29-.33-.71-.11-1.09.15-1.42.73-.89,1.58-1.96,3.05-3.18,4.4-.43.48-.52.88-.21,1.47.55,1.05,1.04,2.12,1.51,3.21.88,2.05.46,3.61-1.38,4.82-1.97,1.3-3.97,2.56-6.01,3.76-2.02,1.18-3.58.83-5.11-.98-.89-1.05-1.48-2.55-2.69-3.07-1.18-.5-2.56.47-3.9.55-.04,0-.08.02-.12.02-2.9-.38-4.01,1.35-4.53,3.82-.18.86-.57,1.65-1.18,2.29-.85.89-1.93,1.2-3.14.93-2.54-.56-5.08-1.13-7.6-1.75-1.62-.4-2.56-1.54-2.57-3.25,0-1.33.2-2.66.38-3.99.14-1-.06-1.73-1.05-2.22-1.34-.67-2.52-1.62-3.63-2.62-.54-.49-1.03-.58-1.69-.23-1.08.57-2.19,1.08-3.31,1.56-2.12.92-3.62.48-4.88-1.46-1.27-1.95-2.5-3.92-3.7-5.91-1.16-1.93-.9-3.46.79-4.94.92-.8,1.88-1.56,2.86-2.29.6-.45.85-.93.62-1.71-.44-1.47-.72-2.99-.8-4.53-.04-.69-.36-1.08-.98-1.3-.89-.31-1.77-.68-2.67-.94-1.75-.5-3.05-1.44-3.48-3.31l2.22-9.68ZM69.4,120.21c-1.58,6.81,2.62,13.62,9.36,15.19,6.86,1.6,13.64-2.62,15.22-9.47,1.57-6.8-2.72-13.71-9.48-15.25-6.74-1.53-13.54,2.76-15.1,9.53Z"/>
    <path class="cls-2" d="M141.59,191.02c-1.21-.24-2.04-1.35-2.9-2.35-.66-.77-1.29-.99-2.24-.6-1.09.45-2.25.71-3.43.85-.76.09-1.19.44-1.36,1.22-.18.8-.46,1.59-.72,2.37-.55,1.65-1.77,2.58-3.47,2.44-1.88-.16-3.76-.42-5.61-.77-1.77-.34-2.96-1.57-2.73-3.32.37-2.79-.62-4.36-3.13-5.56-1.32-.63-2.24-1.02-3.45-.06-.52.41-1.14.72-1.76.96-1.38.54-2.68.31-3.68-.79-1.34-1.49-2.57-3.1-3.61-4.81-.92-1.5-.82-3.14.65-4.26,2.07-1.57,2.4-3.18,1.58-5.62-.51-1.53-1.11-2.37-2.62-2.64-.35-.06-.69-.16-1.03-.25-1.95-.53-2.97-1.95-2.76-3.96.17-1.64.4-3.28.66-4.91.29-1.83,1.65-3.25,3.49-3.04,2.59.3,4.17-.54,4.9-3.02.03-.11.11-.21.2-.29,1.21-1.23.98-2.4.09-3.77-1.71-2.63-1.34-4.16,1.19-6.01,1.05-.77,2.06-1.59,3.12-2.34,1.84-1.28,3.44-1.33,4.84.37,1.5,1.83,2.88,1.79,5.03,1.21,2.23-.6,3.62-1.22,4.07-3.73.33-1.9,1.81-2.6,3.77-2.42,1.68.16,3.36.38,5.02.7,2.05.39,3.22,1.66,2.99,3.73-.24,2.17.69,3.06,2.42,4.16,2.05,1.3,3.58,1.79,5.72.3,1.42-.99,2.95-.49,4.1.88,1.16,1.39,2.26,2.83,3.27,4.33,1.08,1.6.96,3.28-.63,4.54-1.7,1.36-2.28,2.72-1.22,4.68.14.26.19.61.18.92-.04,1.78,1.04,2.4,2.59,2.75,2.7.61,3.55,1.82,3.28,4.55-.16,1.56-.41,3.12-.73,4.66-.37,1.8-1.5,2.99-3.26,2.8-2.58-.28-3.82.76-5.05,2.95-.97,1.73-1.14,2.83-.03,4.46,1.47,2.17,1.06,3.79-1.03,5.42-1.15.9-2.31,1.77-3.49,2.63-.89.64-1.87,1.01-3.22.64ZM131.46,155.18c-5.63-1.31-11.1,2.09-12.41,7.71-1.3,5.56,2.11,11.09,7.63,12.37,5.66,1.32,11.19-2.19,12.54-7.94,1.23-5.24-2.38-10.89-7.75-12.15Z"/>
    <path class="cls-2" d="M57.67,192.97c.23-1.25,1.07-1.97,2-2.59.79-.53.88-1.12.79-2.07-.2-2.07-.78-3.53-3.05-4.2-1.52-.45-2.01-2.01-1.7-3.63.15-.81.36-1.61.55-2.42.63-2.64,2.01-3.68,4.69-3.26,1.1.17,1.73-.08,2.13-1.07.01-.04.03-.07.06-.1,1.47-1.53,2.06-3.11.89-5.2-.64-1.15.04-2.37,1.01-3.26.88-.8,1.93-1.37,2.96-1.93,2.01-1.09,3.62-.81,4.97,1.06.71.98,1.43,1.23,2.49.83.04-.01.08-.03.11-.03,2.14-.08,3.85-.61,4.62-3.02.36-1.15,1.72-1.6,3-1.38,1.32.23,2.63.52,3.9.93,1.67.53,2.53,2.02,2.2,3.95-.2,1.17.12,1.85,1.14,2.4.72.39,1.36.94,1.96,1.5.55.51,1.04.51,1.7.21,2.67-1.22,4.23-.68,5.68,1.89.31.55.65,1.08.96,1.63,1.04,1.85.8,3.55-.92,4.79-1.08.78-1.1,1.56-1.01,2.79.15,2.05.78,3.37,2.86,4.07,1.31.44,1.72,1.8,1.59,3.15-.12,1.29-.42,2.57-.89,3.79-.73,1.89-2.12,2.67-4.25,2.28-1.09-.2-1.58.23-2.23,1.01-1.35,1.65-2.3,3.14-1.04,5.38.66,1.17,0,2.48-1.1,3.32-.88.66-1.81,1.26-2.76,1.81-1.97,1.14-3.67.88-4.98-.96-.82-1.15-1.67-1.53-2.95-1.04-.04.01-.08.03-.12.02-2-.07-3.34.61-3.95,2.75-.38,1.35-1.68,1.9-3.13,1.84-1.39-.06-2.73-.39-4.01-.91-1.72-.7-2.55-1.9-2.27-3.69.26-1.63.03-2.85-1.62-3.51-.11-.04-.21-.12-.28-.21-.98-1.19-2.02-1.17-3.38-.49-2.02,1.02-3.52.48-4.76-1.41-.58-.89-1.12-1.81-1.62-2.75-.38-.71-.51-1.49-.26-2.23ZM77.72,192.41c4.49,1.03,9.08-1.8,10.06-6.2,1.02-4.61-1.74-9.03-6.3-10.07-4.6-1.05-9.06,1.74-10.07,6.28-1,4.48,1.84,8.96,6.31,9.99Z"/>
  </g>
</svg>