<?xml version="1.0" encoding="UTF-8"?>
<svg id="Capa_30" data-name="Capa 30" xmlns="http://www.w3.org/2000/svg" viewBox="0 0 250 250">
  <defs>
    <style>
      .cls-1 {
        fill: #f6a42c;
      }

      .cls-1, .cls-2 {
        stroke-width: 0px;
      }

      .cls-2 {
        fill: #01424e;
      }
    </style>
  </defs>
  <g>
    <path class="cls-2" d="M104.62,164.17c-1.04-.06-2.29.06-3.39.67-1.17.65-1.8.21-2.58-.72-5.06-5.98-12.15-5.66-16.71.7q-2.94,4.1-6.11.11c-2.22-2.79-4.42-5.6-6.7-8.35-.79-.95-.84-1.7-.22-2.77,6.03-10.37,12.02-20.77,17.99-31.18.54-.93,1.1-1.31,2.19-.91,4.14,1.52,8.29,3.01,12.46,4.45,1.38.48,1.22,1.04.34,1.88-1.36,1.3-2.61,2.73-4.04,3.94-1.57,1.33-2.19,2.98-2.26,4.95-.18,5.18-.43,10.36-.54,15.55-.14,6.3,3.58,9.32,9.73,7.96,4.12-.91,7.36-3.1,9.58-6.75,1.38-2.28,2.57-4.65,3.62-7.1.49-1.14,1.22-1.94,2.39-2.4,1.33-.52,2.62-1.12,3.95-1.65,3.16-1.27,6.08-.96,9.08.81,12.01,7.08,24.11,14.01,36.18,20.99,2.72,1.57,3.54,3.06,2.88,5.26-.87,2.93-3.61,4.11-6.31,2.6-3.34-1.87-6.62-3.84-9.93-5.76-.84-.49-1.68-1-2.55-1.41-1.65-.78-3.09-.41-3.91.95-.87,1.45-.53,2.98,1.12,4,2.75,1.71,5.58,3.3,8.38,4.94,2.35,1.38,4.72,2.72,7.05,4.13,2.49,1.5,3.08,3.57,1.77,5.91-1.28,2.28-3.45,2.87-5.99,1.43-5.08-2.88-10.1-5.85-15.15-8.78-.39-.23-.78-.48-1.18-.67-1.67-.82-3.24-.47-4.09.89-.87,1.41-.53,2.96,1.11,4,2.18,1.4,4.46,2.66,6.69,3.97,1.85,1.08,3.72,2.12,5.55,3.23,2.48,1.51,3.08,3.6,1.77,5.92-1.29,2.28-3.49,2.87-5.97,1.46-4.01-2.27-7.97-4.61-11.95-6.92-.39-.23-.77-.48-1.18-.68-1.72-.85-3.35-.52-4.11.82-.82,1.44-.35,3.2,1.26,4.17,3.28,1.98,6.61,3.85,9.89,5.83,2.15,1.3,2.74,2.98,1.92,5.1-1.04,2.69-3.4,3.67-5.94,2.32-2.4-1.27-4.72-2.72-7.1-4.05-.91-.51-1.01-1.17-.83-2.11.97-5.17-1.4-9.51-6.35-11.5-1.24-.5-1.65-.94-1.3-2.39,1.35-5.63-2.01-10.88-7.76-12.17-1.42-.32-2.03-.83-2.26-2.33-.75-4.79-5.24-8.33-10.49-8.33Z"/>
    <path class="cls-2" d="M100.77,150.33c.24-4.26.47-8.33.68-12.4.05-.97.44-1.71,1.14-2.37,3.41-3.28,6.76-6.61,10.23-9.84,4.77-4.45,10.2-5.9,16.49-4.39,5.05,1.22,10.2,1.94,15.38,2.07,5.19.13,10.36-.34,15.39-1.73,1.67-.46,2.51-.07,3.38,1.46,5.5,9.7,11.11,19.33,16.69,28.98,1.25,2.16,1.26,2.17-.88,3.32-1.77.95-3.61,1.78-5.34,2.79-1.27.74-2.29.66-3.58-.09-11.25-6.57-22.61-12.95-33.79-19.64-4.89-2.93-9.61-3.14-14.83-1.21-4.7,1.73-8.61,3.99-10.12,9.21-.49,1.7-1.67,3.2-2.6,4.76-1.3,2.17-3.43,3.11-5.77,3.58-1.89.38-2.42-.15-2.45-2.15-.01-.84,0-1.69,0-2.35Z"/>
    <path class="cls-2" d="M209.62,147.76c.03,1.31-.64,2.22-1.71,2.85-4.48,2.61-8.94,5.26-13.47,7.78-2.06,1.15-3.74.43-5.12-1.95-4.58-7.91-9.14-15.84-13.71-23.76-3.11-5.39-6.23-10.78-9.34-16.17-1.7-2.95-1.29-4.49,1.68-6.21,3.99-2.3,7.97-4.61,11.97-6.89,2.52-1.44,4.09-1.1,5.52,1.38,7.87,13.57,15.7,27.17,23.55,40.76.4.69.69,1.4.63,2.21Z"/>
    <path class="cls-2" d="M84.74,113.76c.03.87-.31,1.63-.74,2.37-7.75,13.42-15.49,26.85-23.24,40.26-1.58,2.73-3.22,3.15-5.96,1.57-4.04-2.33-8.1-4.65-12.12-7.02-2.54-1.5-2.93-3.1-1.45-5.68,7.7-13.37,15.41-26.74,23.14-40.1,1.69-2.93,3.09-3.27,6.04-1.58,4.05,2.32,8.09,4.66,12.14,6.98,1.25.72,2.19,1.63,2.19,3.2Z"/>
    <path class="cls-2" d="M105.12,169.87c1.57.17,2.92.95,3.83,2.43.88,1.44.7,2.88-.23,4.2-4.12,5.89-8.22,11.79-12.43,17.62-1.42,1.97-3.62,2.12-5.68.7-1.94-1.34-2.58-3.46-1.24-5.42,4.16-6.1,8.45-12.11,12.73-18.13.66-.93,1.69-1.39,3.02-1.41Z"/>
    <path class="cls-2" d="M119.67,184.02c.03,1.58-.45,2.5-1.05,3.35-3.16,4.5-6.29,9.02-9.5,13.48-1.96,2.72-4.56,3-6.74.86-1.47-1.45-1.86-3.21-.7-4.92,3.45-5.08,6.98-10.12,10.59-15.09,1.05-1.45,2.72-1.73,4.39-1.1,1.76.67,2.82,1.98,3.02,3.41Z"/>
    <path class="cls-2" d="M83.54,184.45c-3.42-.07-5.51-3.62-3.66-6.46,2.37-3.63,4.89-7.16,7.46-10.65,1.46-1.97,3.64-2.15,5.67-.73,1.91,1.34,2.54,3.49,1.26,5.42-2.46,3.72-5.09,7.34-7.7,10.96-.71.98-1.76,1.51-3.03,1.46Z"/>
    <path class="cls-2" d="M127.27,198.58c-.06.73-.18,1.45-.59,2.05-1.39,2.03-2.72,4.11-4.24,6.03-1.44,1.82-3.35,1.95-5.37.64-1.94-1.25-2.62-3.21-1.56-5.19,1.25-2.34,2.83-4.49,4.58-6.49,1.14-1.31,2.65-1.55,4.25-.82,1.63.75,2.75,1.91,2.94,3.78Z"/>
  </g>
  <path class="cls-1" d="M181.47,49.35c0-4.16-3.35-7.51-7.51-7.51h-97.88c-4.16,0-7.51,3.35-7.51,7.51v45.65c0,.78-.03,1.56.96,1.91,5.87,2.22,10.92,5.93,16.37,8.92,3.2,1.77,4.82,4.7,4.7,8.38-.06,1.56.51,2.13,1.86,2.6,4.43,1.47,8.86,2.99,13.2,4.7,1.71.69,2.87.39,4.16-.78,2.9-2.57,6.14-4.64,10-5.36,4.43-.81,8.8-.15,13.14.75,8.14,1.71,16.31,2.07,24.49.24,1.41-.3,2.1-.75,2.03-2.39-.12-3.11,1.23-5.66,3.74-7.51,1.2-.87,2.52-1.59,3.83-2.31,4.07-2.27,7.9-5,12.24-6.76,1.68-.72,2.24-1.44,2.24-3.2-.06-14.94-.03-29.9-.06-44.84ZM110.98,78.35c.72-1.74,2.27-2.57,3.71-2.75,3.08-.03,4.67,1.74,6.17,3.47,1.74,2.07,3.08,2.16,4.97.06,3.02-3.32,6.29-6.44,9.52-9.55,2.54-2.45,5.66-2.66,7.6-.66,2.03,2.09,1.89,5.03-.66,7.63-4.82,4.94-9.7,9.82-14.67,14.67-2.96,2.9-5.57,2.84-8.59-.06-2.45-2.36-4.85-4.79-7.18-7.24-1.5-1.62-1.68-3.62-.87-5.57Z"/>
</svg>