<?xml version="1.0" encoding="UTF-8"?>
<svg id="Capa_30" data-name="Capa 30" xmlns="http://www.w3.org/2000/svg" viewBox="0 0 250 250">
  <defs>
    <style>
      .cls-1 {
        fill: #f6a42c;
        stroke-width: 0px;
      }
    </style>
  </defs>
  <path class="cls-1" d="M192.67,42.6H57.33c-8.14,0-14.74,6.6-14.74,14.74v135.33c0,8.14,6.6,14.74,14.74,14.74h135.33c8.14,0,14.74-6.6,14.74-14.74V57.33c0-8.14-6.6-14.74-14.74-14.74ZM101.54,171.5c0,1.55,0,1.56-1.57,1.56-5.7,0-11.39,0-17.09,0-1.51,0-1.54-.03-1.54-1.6,0-10.18,0-20.36,0-30.55s0-20.13,0-30.2q0-1.93,1.95-1.94c5.58,0,11.16.03,16.74-.02,1.17-.01,1.54.34,1.53,1.53-.03,20.41-.02,40.81-.02,61.21ZM91.54,100.26c-6.47.01-11.67-5.18-11.68-11.66-.01-6.43,5.16-11.65,11.56-11.66,6.41-.01,11.69,5.18,11.73,11.54.03,6.42-5.24,11.78-11.6,11.79ZM174.49,173.03c-5.7-.05-11.39-.02-17.09-.02-1.54,0-1.61-.08-1.61-1.69-.02-11.43-.03-22.87-.07-34.3,0-1.92-.37-3.8-.91-5.64-1.5-5.11-5.35-6.67-10.07-6.48-.74.03-1.48.15-2.2.3-4.44.96-7.04,3.86-8,8.72-.57,2.93-.63,5.9-.65,8.85-.06,9.56-.02,19.12-.02,28.68,0,1.61,0,1.62-1.62,1.62h-16.85c-1.59,0-1.6,0-1.6-1.53,0-20.41,0-40.82-.02-61.22,0-1.16.31-1.56,1.51-1.55,5.46.05,10.93.05,16.39,0,1.15-.01,1.49.4,1.46,1.5-.06,2.26-.02,4.52-.02,6.78,2.63-3.86,6-6.71,10.32-8.24,7.29-2.57,14.55-2.2,21.49,1.14,5.86,2.82,8.47,8.15,9.85,14.2.83,3.63,1.17,7.32,1.19,11.02.04,12.1,0,24.19.05,36.29,0,1.17-.34,1.57-1.52,1.56Z"/>
</svg>