<?xml version="1.0" standalone="no"?>
<!DOCTYPE svg PUBLIC "-//W3C//DTD SVG 20010904//EN"
 "http://www.w3.org/TR/2001/REC-SVG-20010904/DTD/svg10.dtd">
<svg version="1.0" xmlns="http://www.w3.org/2000/svg"
 width="270.000000pt" height="171.000000pt" viewBox="0 0 270.000000 171.000000"
 preserveAspectRatio="xMidYMid meet">

<g transform="translate(0.000000,171.000000) scale(0.100000,-0.100000)"
fill="#000000" stroke="none">
<path d="M1246 1574 c-10 -25 -7 -29 19 -30 14 -1 25 3 25 8 0 6 8 7 18 3 9
-4 23 -9 30 -12 6 -3 12 2 12 10 0 18 -61 21 -72 3 -5 -7 -8 -5 -8 6 0 23 -17
31 -24 12z"/>
<path d="M1460 1566 c0 -8 5 -18 10 -21 6 -3 10 3 10 14 0 12 -4 21 -10 21 -5
0 -10 -6 -10 -14z"/>
<path d="M1492 1560 c0 -14 2 -19 5 -12 2 6 2 18 0 25 -3 6 -5 1 -5 -13z"/>
<path d="M1363 1555 c0 -18 58 -16 65 3 5 15 -20 16 -36 0 -9 -9 -12 -9 -12 0
0 7 -4 12 -8 12 -5 0 -9 -7 -9 -15z"/>
<path d="M586 1503 c-12 -12 -6 -33 9 -33 8 0 15 6 15 14 0 17 -14 28 -24 19z"/>
<path d="M783 1503 c-18 -7 -16 -43 2 -43 9 0 15 9 15 25 0 14 -1 25 -2 24 -2
0 -9 -3 -15 -6z"/>
<path d="M920 1485 c0 -16 6 -25 15 -25 8 0 15 9 15 19 0 10 -7 21 -15 25 -11
4 -15 -1 -15 -19z"/>
<path d="M1051 1496 c-11 -13 -11 -20 -3 -28 15 -15 24 -5 20 23 -3 21 -4 21
-17 5z"/>
<path d="M1130 1489 c0 -12 4 -18 11 -13 6 3 15 1 19 -6 5 -7 8 -2 8 14 0 19
-6 26 -19 26 -13 0 -19 -7 -19 -21z"/>
<path d="M1251 1494 c0 -12 6 -24 14 -28 19 -7 45 3 45 18 0 6 5 4 10 -4 8
-13 10 -13 10 1 0 11 -9 16 -30 16 -16 0 -27 -4 -24 -9 3 -4 1 -8 -5 -8 -5 0
-12 8 -14 18 -4 13 -5 12 -6 -4z"/>
<path d="M2130 1487 c0 -27 13 -36 26 -16 3 6 -1 18 -10 27 -15 15 -16 14 -16
-11z"/>
<path d="M683 1482 c1 -13 9 -19 29 -19 20 0 28 5 28 19 0 21 -11 23 -28 6 -9
-9 -12 -9 -12 0 0 7 -4 12 -9 12 -6 0 -9 -8 -8 -18z"/>
<path d="M815 1489 c-4 -6 -2 -16 5 -22 10 -9 11 -9 6 0 -3 6 -1 13 6 15 9 3
9 6 1 11 -7 4 -15 2 -18 -4z"/>
<path d="M864 1487 c3 -10 6 -21 6 -23 0 -2 9 -4 20 -4 12 0 20 7 20 18 0 15
-2 15 -10 2 -9 -13 -13 -12 -27 5 -14 18 -15 18 -9 2z"/>
<path d="M961 1476 c0 -20 1 -20 8 -1 8 19 8 19 19 0 8 -15 14 -17 23 -8 16
16 4 31 -26 31 -19 0 -25 -6 -24 -22z"/>
<path d="M1085 1489 c-4 -6 -2 -16 5 -22 10 -9 11 -9 6 0 -3 6 -1 13 6 15 9 3
9 6 1 11 -7 4 -15 2 -18 -4z"/>
<path d="M1183 1487 c-3 -5 0 -14 7 -20 10 -9 11 -9 6 1 -4 7 -1 12 8 12 9 0
16 -4 16 -10 0 -5 4 -10 8 -10 4 0 8 8 8 18 0 18 -43 25 -53 9z"/>
<path d="M1341 1484 c0 -11 3 -14 6 -6 3 7 2 16 -1 19 -3 4 -6 -2 -5 -13z"/>
<path d="M1375 1490 c3 -5 1 -10 -6 -10 -22 0 2 -15 25 -15 14 -1 22 5 22 17
0 13 -4 14 -13 6 -9 -7 -13 -7 -13 1 0 6 -5 11 -11 11 -5 0 -7 -4 -4 -10z"/>
<path d="M1454 1488 c-4 -6 -2 -14 3 -19 12 -12 43 -1 43 15 0 6 5 4 10 -4 8
-13 10 -13 10 2 0 12 -8 16 -30 16 -17 -1 -33 -5 -36 -10z m26 -8 c0 -5 -4
-10 -10 -10 -5 0 -10 5 -10 10 0 6 5 10 10 10 6 0 10 -4 10 -10z"/>
<path d="M1533 1487 c-3 -5 -1 -13 5 -19 6 -6 12 -6 16 1 4 6 12 11 17 11 6 0
7 -4 4 -10 -3 -5 -1 -10 4 -10 6 0 11 9 11 19 0 14 -7 19 -26 17 -14 0 -28 -5
-31 -9z"/>
<path d="M1627 1493 c-4 -3 -7 -15 -7 -25 0 -15 3 -17 19 -8 11 5 27 7 35 4
10 -4 16 -1 16 9 0 21 -17 31 -24 15 -5 -10 -7 -10 -12 0 -6 13 -17 16 -27 5z"/>
<path d="M1701 1483 c0 -10 3 -13 6 -5 2 6 9 12 14 12 4 0 6 -7 2 -16 -4 -12
-2 -15 8 -12 22 7 16 33 -8 36 -17 3 -23 -1 -22 -15z"/>
<path d="M1774 1491 c-2 -2 -4 -10 -4 -17 0 -17 73 -12 94 5 11 10 15 8 19 -6
4 -15 5 -15 6 3 1 19 -4 21 -55 20 -30 0 -57 -3 -60 -5z m26 -11 c0 -5 -2 -10
-4 -10 -3 0 -8 5 -11 10 -3 6 -1 10 4 10 6 0 11 -4 11 -10z m40 0 c0 -5 -4
-10 -10 -10 -5 0 -10 5 -10 10 0 6 5 10 10 10 6 0 10 -4 10 -10z"/>
<path d="M1906 1484 c-8 -22 1 -31 16 -16 9 9 9 15 1 23 -7 7 -12 5 -17 -7z"/>
<path d="M1951 1478 c5 -10 14 -18 20 -18 6 0 7 5 4 10 -3 6 1 10 9 10 9 0 16
-5 16 -11 0 -5 4 -8 10 -4 19 12 -1 30 -35 31 -30 0 -33 -2 -24 -18z"/>
<path d="M2051 1492 c-18 -6 -13 -19 9 -25 11 -3 20 0 20 5 0 7 5 6 14 -1 10
-9 16 -9 21 -1 4 6 4 14 1 17 -7 7 -49 10 -65 5z"/>
<path d="M627 1473 c3 -7 6 -13 8 -13 2 0 5 6 8 13 3 8 -1 14 -8 14 -7 0 -11
-6 -8 -14z"/>
<path d="M822 1218 c6 -18 28 -21 28 -4 0 9 -7 16 -16 16 -9 0 -14 -5 -12 -12z"/>
<path d="M970 1215 c0 -8 8 -15 18 -14 10 0 12 3 4 6 -6 2 -10 9 -6 14 3 5 0
9 -5 9 -6 0 -11 -7 -11 -15z"/>
<path d="M1051 1213 c0 -12 2 -14 6 -4 5 11 7 11 15 0 8 -12 9 -12 6 0 -6 22
-28 25 -27 4z"/>
<path d="M1113 1223 c9 -2 17 -9 17 -14 0 -5 7 -9 15 -9 8 0 15 5 15 11 0 5
-4 7 -10 4 -5 -3 -10 -1 -10 4 0 6 -10 10 -22 10 -17 -1 -19 -2 -5 -6z"/>
<path d="M1210 1215 c0 -20 31 -19 56 1 18 14 18 14 -6 3 -18 -9 -25 -9 -28 0
-5 16 -22 14 -22 -4z"/>
<path d="M1330 1215 c-15 -18 -7 -19 20 -3 16 10 24 10 40 0 27 -16 35 -15 20
3 -7 8 -25 15 -40 15 -15 0 -33 -7 -40 -15z"/>
<path d="M1563 1223 c-7 -2 -13 -9 -13 -14 0 -13 22 -10 44 6 20 15 20 15 0
14 -10 0 -25 -3 -31 -6z"/>
<path d="M1630 1220 c-8 -5 -13 -10 -10 -11 3 0 13 -2 23 -4 9 -2 17 3 17 11
0 16 -9 18 -30 4z"/>
<path d="M1724 1214 c-19 -15 -19 -16 1 -9 41 15 63 17 69 6 4 -6 13 -11 19
-11 21 1 -26 30 -48 30 -12 0 -30 -7 -41 -16z"/>
<path d="M833 1170 c-1 -11 2 -20 8 -20 5 0 9 9 9 20 0 11 -4 20 -8 20 -4 0
-8 -9 -9 -20z"/>
<path d="M1140 1169 c0 -11 4 -18 10 -14 5 3 7 12 3 20 -7 21 -13 19 -13 -6z"/>
<path d="M1220 1180 c10 -6 11 -10 3 -10 -7 0 -13 -4 -13 -10 0 -5 7 -10 15
-10 8 0 15 9 15 20 0 12 -7 20 -17 20 -15 0 -16 -2 -3 -10z"/>
<path d="M1404 1172 c0 -10 5 -19 11 -19 6 0 11 9 11 19 0 10 -5 18 -11 18 -6
0 -11 -8 -11 -18z"/>
<path d="M1548 1183 c7 -3 16 -2 19 1 4 3 -2 6 -13 5 -11 0 -14 -3 -6 -6z"/>
<path d="M977 1173 c-4 -3 -7 -11 -7 -17 0 -6 5 -5 12 2 6 6 9 14 7 17 -3 3
-9 2 -12 -2z"/>
<path d="M1050 1160 c0 -5 5 -10 10 -10 6 0 10 5 10 10 0 6 -4 10 -10 10 -5 0
-10 -4 -10 -10z"/>
<path d="M848 1133 c18 -2 45 -2 60 0 15 2 0 4 -33 4 -33 0 -45 -2 -27 -4z"/>
<path d="M1138 1133 c7 -3 16 -2 19 1 4 3 -2 6 -13 5 -11 0 -14 -3 -6 -6z"/>
<path d="M1328 1133 c7 -3 16 -2 19 1 4 3 -2 6 -13 5 -11 0 -14 -3 -6 -6z"/>
<path d="M1398 1133 c7 -3 16 -2 19 1 4 3 -2 6 -13 5 -11 0 -14 -3 -6 -6z"/>
<path d="M1728 1133 c7 -3 16 -2 19 1 4 3 -2 6 -13 5 -11 0 -14 -3 -6 -6z"/>
<path d="M340 1013 c0 -10 4 -14 8 -8 4 6 11 13 16 18 5 4 2 7 -7 7 -10 0 -17
-8 -17 -17z"/>
<path d="M454 1023 c15 -4 16 -7 5 -14 -11 -7 -11 -9 4 -9 9 0 17 7 17 15 0 9
-9 15 -22 14 -20 -1 -20 -2 -4 -6z"/>
<path d="M840 1013 c0 -10 4 -14 8 -8 4 6 11 13 16 18 5 4 2 7 -7 7 -10 0 -17
-8 -17 -17z"/>
<path d="M551 1006 c2 -2 22 -6 44 -9 27 -4 35 -3 25 3 -14 9 -79 15 -69 6z"/>
<path d="M706 1002 c-2 -4 11 -6 30 -4 19 2 34 6 34 8 0 8 -59 4 -64 -4z"/>
<path d="M936 1002 c-3 -5 8 -6 25 -4 16 2 29 6 29 8 0 8 -49 4 -54 -4z"/>
<path d="M1088 1003 c7 -3 16 -2 19 1 4 3 -2 6 -13 5 -11 0 -14 -3 -6 -6z"/>
<path d="M1143 1003 c9 -2 23 -2 30 0 6 3 -1 5 -18 5 -16 0 -22 -2 -12 -5z"/>
<path d="M1233 1003 c9 -2 23 -2 30 0 6 3 -1 5 -18 5 -16 0 -22 -2 -12 -5z"/>
<path d="M1346 1001 c-4 -5 3 -7 14 -4 23 6 26 13 6 13 -8 0 -17 -4 -20 -9z"/>
<path d="M1398 1003 c6 -2 18 -2 25 0 6 3 1 5 -13 5 -14 0 -19 -2 -12 -5z"/>
<path d="M1538 1003 c12 -2 30 -2 40 0 9 3 -1 5 -23 4 -22 0 -30 -2 -17 -4z"/>
<path d="M1750 1002 c0 -5 14 -7 30 -4 17 2 30 6 30 8 0 2 -13 4 -30 4 -16 0
-30 -4 -30 -8z"/>
<path d="M1953 1003 c9 -2 23 -2 30 0 6 3 -1 5 -18 5 -16 0 -22 -2 -12 -5z"/>
<path d="M2078 1003 c7 -3 16 -2 19 1 4 3 -2 6 -13 5 -11 0 -14 -3 -6 -6z"/>
<path d="M2122 1004 c9 -3 19 -13 22 -22 3 -12 4 -12 3 3 -1 12 -10 21 -22 22
-15 1 -15 0 -3 -3z"/>
<path d="M2238 1003 c12 -2 30 -2 40 0 9 3 -1 5 -23 4 -22 0 -30 -2 -17 -4z"/>
<path d="M383 973 c9 -2 25 -2 35 0 9 3 1 5 -18 5 -19 0 -27 -2 -17 -5z"/>
<path d="M1258 973 c7 -3 16 -2 19 1 4 3 -2 6 -13 5 -11 0 -14 -3 -6 -6z"/>
<path d="M348 953 c7 -3 16 -2 19 1 4 3 -2 6 -13 5 -11 0 -14 -3 -6 -6z"/>
<path d="M528 953 c7 -3 16 -2 19 1 4 3 -2 6 -13 5 -11 0 -14 -3 -6 -6z"/>
<path d="M848 953 c7 -3 16 -2 19 1 4 3 -2 6 -13 5 -11 0 -14 -3 -6 -6z"/>
<path d="M948 953 c7 -3 16 -2 19 1 4 3 -2 6 -13 5 -11 0 -14 -3 -6 -6z"/>
<path d="M1258 953 c7 -3 16 -2 19 1 4 3 -2 6 -13 5 -11 0 -14 -3 -6 -6z"/>
<path d="M1348 953 c6 -2 18 -2 25 0 6 3 1 5 -13 5 -14 0 -19 -2 -12 -5z"/>
<path d="M1418 953 c7 -3 16 -2 19 1 4 3 -2 6 -13 5 -11 0 -14 -3 -6 -6z"/>
<path d="M1658 953 c7 -3 16 -2 19 1 4 3 -2 6 -13 5 -11 0 -14 -3 -6 -6z"/>
<path d="M1728 953 c7 -3 16 -2 19 1 4 3 -2 6 -13 5 -11 0 -14 -3 -6 -6z"/>
<path d="M1828 953 c7 -3 16 -2 19 1 4 3 -2 6 -13 5 -11 0 -14 -3 -6 -6z"/>
<path d="M1898 953 c7 -3 16 -2 19 1 4 3 -2 6 -13 5 -11 0 -14 -3 -6 -6z"/>
<path d="M1978 953 c7 -3 16 -2 19 1 4 3 -2 6 -13 5 -11 0 -14 -3 -6 -6z"/>
<path d="M2048 953 c6 -2 18 -2 25 0 6 3 1 5 -13 5 -14 0 -19 -2 -12 -5z"/>
<path d="M2228 953 c7 -3 16 -2 19 1 4 3 -2 6 -13 5 -11 0 -14 -3 -6 -6z"/>
<path d="M2278 953 c6 -2 18 -2 25 0 6 3 1 5 -13 5 -14 0 -19 -2 -12 -5z"/>
<path d="M348 933 c7 -3 16 -2 19 1 4 3 -2 6 -13 5 -11 0 -14 -3 -6 -6z"/>
<path d="M848 933 c7 -3 16 -2 19 1 4 3 -2 6 -13 5 -11 0 -14 -3 -6 -6z"/>
<path d="M928 933 c7 -3 16 -2 19 1 4 3 -2 6 -13 5 -11 0 -14 -3 -6 -6z"/>
<path d="M1008 933 c7 -3 16 -2 19 1 4 3 -2 6 -13 5 -11 0 -14 -3 -6 -6z"/>
<path d="M1258 933 c7 -3 16 -2 19 1 4 3 -2 6 -13 5 -11 0 -14 -3 -6 -6z"/>
<path d="M1328 933 c7 -3 16 -2 19 1 4 3 -2 6 -13 5 -11 0 -14 -3 -6 -6z"/>
<path d="M1418 933 c7 -3 16 -2 19 1 4 3 -2 6 -13 5 -11 0 -14 -3 -6 -6z"/>
<path d="M1498 933 c7 -3 16 -2 19 1 4 3 -2 6 -13 5 -11 0 -14 -3 -6 -6z"/>
<path d="M1588 933 c7 -3 16 -2 19 1 4 3 -2 6 -13 5 -11 0 -14 -3 -6 -6z"/>
<path d="M1658 933 c7 -3 16 -2 19 1 4 3 -2 6 -13 5 -11 0 -14 -3 -6 -6z"/>
<path d="M1818 933 c7 -3 16 -2 19 1 4 3 -2 6 -13 5 -11 0 -14 -3 -6 -6z"/>
<path d="M1978 933 c7 -3 16 -2 19 1 4 3 -2 6 -13 5 -11 0 -14 -3 -6 -6z"/>
<path d="M2058 933 c7 -3 16 -2 19 1 4 3 -2 6 -13 5 -11 0 -14 -3 -6 -6z"/>
<path d="M444 913 c10 -11 37 -12 30 -2 -3 5 -12 9 -21 9 -9 0 -13 -3 -9 -7z"/>
<path d="M555 910 c3 -5 18 -10 32 -10 32 0 28 5 -10 14 -19 4 -26 3 -22 -4z"/>
<path d="M720 909 c0 -5 11 -9 25 -9 14 0 25 4 25 9 0 5 -11 9 -25 9 -14 0
-25 -4 -25 -9z"/>
<path d="M925 910 c4 -6 11 -8 16 -5 14 9 11 15 -7 15 -8 0 -12 -5 -9 -10z"/>
<path d="M1095 910 c3 -5 8 -10 11 -10 2 0 4 5 4 10 0 6 -5 10 -11 10 -5 0 -7
-4 -4 -10z"/>
<path d="M1170 910 c0 -5 5 -10 10 -10 6 0 10 5 10 10 0 6 -4 10 -10 10 -5 0
-10 -4 -10 -10z"/>
<path d="M1250 910 c0 -5 7 -10 15 -10 8 0 15 5 15 10 0 6 -7 10 -15 10 -8 0
-15 -4 -15 -10z"/>
<path d="M1335 910 c3 -5 8 -10 11 -10 2 0 4 5 4 10 0 6 -5 10 -11 10 -5 0 -7
-4 -4 -10z"/>
<path d="M1420 910 c0 -5 5 -10 10 -10 6 0 10 5 10 10 0 6 -4 10 -10 10 -5 0
-10 -4 -10 -10z"/>
<path d="M1530 908 c0 -10 19 -9 45 2 16 7 14 8 -12 7 -18 -1 -33 -5 -33 -9z"/>
<path d="M1752 908 c16 -10 58 -10 58 0 0 4 -16 7 -35 8 -22 0 -31 -3 -23 -8z"/>
<path d="M1890 910 c0 -5 5 -10 10 -10 6 0 10 5 10 10 0 6 -4 10 -10 10 -5 0
-10 -4 -10 -10z"/>
<path d="M1970 910 c0 -5 7 -10 15 -10 8 0 15 5 15 10 0 6 -7 10 -15 10 -8 0
-15 -4 -15 -10z"/>
<path d="M2082 908 c16 -10 45 -10 51 0 3 4 -10 7 -29 8 -21 0 -30 -3 -22 -8z"/>
<path d="M2227 908 c6 -10 45 -10 60 0 7 5 -4 8 -26 7 -22 0 -37 -3 -34 -7z"/>
<path d="M598 240 c-60 -76 -60 -83 -2 -76 27 3 121 10 209 16 88 5 217 15
287 21 112 10 133 9 168 -5 50 -20 100 -20 146 -1 33 14 184 7 667 -28 26 -2
47 0 47 5 0 4 -8 8 -17 9 -105 5 -328 26 -295 28 30 1 41 5 36 12 -5 9 6 10
42 6 27 -4 73 -9 102 -13 32 -4 52 -3 52 3 0 30 -589 46 -608 17 -13 -21 -51
-34 -94 -33 l-43 1 60 16 60 17 -83 3 c-46 2 -89 -1 -95 -6 -14 -11 -421 -37
-452 -29 -11 2 7 6 40 7 33 1 53 4 45 7 -10 4 -4 11 20 20 31 12 24 13 -75 7
-181 -11 -170 -12 -170 13 0 36 -8 33 -47 -17z"/>
</g>
</svg>
