<?xml version="1.0" encoding="UTF-8"?>
<svg id="Capa_30" data-name="Capa 30" xmlns="http://www.w3.org/2000/svg" viewBox="0 0 250 250">
  <defs>
    <style>
      .cls-1 {
        fill: #f6a42c;
        stroke-width: 0px;
      }
    </style>
  </defs>
  <path class="cls-1" d="M192.67,42.6H57.34c-8.14,0-14.74,6.6-14.74,14.74v135.33c0,8.14,6.6,14.74,14.74,14.74h135.33c8.14,0,14.74-6.6,14.74-14.74V57.33c0-8.14-6.6-14.74-14.74-14.74ZM166.14,116.8c-3.76-.16-7.46-.73-11.06-1.87-4.02-1.28-7.75-3.15-11.2-5.59-.22-.16-.42-.49-.71-.35-.34.16-.18.56-.18.85,0,11.1.04,22.2.04,33.31-.01,13.91-9.49,25.88-23.01,29.13-1.58.38-3.2.54-4.8.8h-4.69c-2.38-.32-4.77-.63-7.05-1.45-11.38-4.1-18.45-12-20.38-24.01-2.64-16.49,9.25-31.39,25.17-33.74,2.77-.41,5.54-.44,8.32-.14.65.07.93.34.93,1.01-.02,4.75-.02,9.51,0,14.26,0,.84-.31.91-1.03.73-8.11-2.03-15.84,2.9-17.45,11.11-1.57,7.98,4.63,15.88,12.72,16.48,7.38.55,14.27-4.67,15.17-12.5.09-.77.07-1.56.07-2.34,0-21.2,0-42.41,0-63.61,0-.34.02-.69,0-1.03-.03-.64.27-.89.9-.88,1.62.02,3.25,0,4.88,0,3,0,6.01.03,9.01-.02.86-.01,1.16.3,1.2,1.12.26,6.04,2.55,11.23,6.73,15.56,3.94,4.08,8.76,6.47,14.4,7.16.74.09,1.49.16,2.24.17.65,0,.88.29.88.92-.01,4.66-.02,9.32,0,13.98,0,.85-.42.98-1.12.95Z"/>
</svg>