<?xml version="1.0" encoding="UTF-8"?>
<svg id="Capa_30" data-name="Capa 30" xmlns="http://www.w3.org/2000/svg" viewBox="0 0 250 250">
  <defs>
    <style>
      .cls-1 {
        fill: #f6a42c;
      }

      .cls-1, .cls-2 {
        stroke-width: 0px;
      }

      .cls-2 {
        fill: #01424e;
      }
    </style>
  </defs>
  <path class="cls-2" d="M226.66,144.71c-14.8-16.81-31.78-31.13-51.56-41.76-14.98-8.04-30.78-13.22-47.8-13.8-13.15-.45-25.81,2.1-38.03,6.87-27.02,10.46-48.8,28.13-67.67,49.66-1.9,2.1-1.79,4.04.14,6.32,15.91,18.32,34.3,33.54,56.08,44.45,4.62,2.31,9.39,4.35,14.22,6.04,0,0,.52.21,1.48.52.79.31,2,.72,3.49,1.1.79.28,1.62.48,2.45.72,1.38.35,2.83.69,4.45,1.07,1.73.38,3.48.73,5.28,1,.04-.07.04,0,.07,0,1.42.24,2.93.45,4.52.59,1.14.17,2.31.27,3.52.38.07,0,.1.03.17,0,3.83.27,7.97.45,12.25.24h.17c3.73-.21,7.63-.66,11.56-1.48.97-.14,1.9-.35,2.86-.55.76-.14,1.48-.35,2.17-.48,3.93-.93,7.8-2.14,11.56-3.55,27.33-10.15,49.42-27.68,68.57-49.28,2.9-3.28,2.86-4.8.04-8.04ZM124.51,183.36c-19.15,0-34.72-15.53-34.72-34.72s15.56-34.72,34.72-34.72,34.72,15.53,34.72,34.72-15.53,34.72-34.72,34.72Z"/>
  <path class="cls-1" d="M144.2,148.65c0,10.87-8.83,19.67-19.71,19.67s-19.67-8.8-19.67-19.67,8.8-19.67,19.67-19.67c2.55,0,5,.48,7.25,1.41-1.73,1.66-2.76,4-2.76,6.56,0,5.11,4.14,9.25,9.25,9.25,2.07,0,3.97-.69,5.49-1.83.31,1.38.48,2.79.48,4.28Z"/>
  <g>
    <path class="cls-2" d="M33.82,121.81c-.93,0-1.87-.38-2.55-1.12l-10.14-10.85c-1.29-1.41-1.19-3.59.21-4.88,1.41-1.29,3.59-1.19,4.88.21l10.14,10.85c1.29,1.41,1.19,3.59-.21,4.88-.66.61-1.5.91-2.33.91Z"/>
    <path class="cls-2" d="M59.95,100.9c-1.13,0-2.24-.56-2.9-1.58l-11.01-17.17c-1.04-1.6-.58-3.74,1.02-4.77,1.6-1.04,3.74-.58,4.77,1.02l11.01,17.17c1.04,1.6.58,3.74-1.02,4.77-.58.37-1.23.55-1.87.55Z"/>
    <path class="cls-2" d="M125.33,80.74c-1.83-.1-3.28-1.62-3.26-3.47l.25-32.04c.01-1.91,1.57-3.44,3.48-3.42,1.93.03,3.44,1.57,3.42,3.48l-.25,32.04c-.01,1.91-1.57,3.44-3.48,3.42-.05,0-.11,0-.16,0Z"/>
    <path class="cls-2" d="M89.89,85.38c-1.41,0-2.74-.87-3.24-2.28l-8.78-24.21c-.65-1.79.28-3.77,2.07-4.42,1.79-.65,3.77.28,4.42,2.07l8.78,24.21c.65,1.79-.28,3.77-2.07,4.42-.39.14-.79.21-1.18.21Z"/>
    <path class="cls-2" d="M215.2,121.81c-.83,0-1.67-.3-2.33-.91-1.41-1.29-1.5-3.47-.21-4.88l11.12-10.85c1.29-1.41,3.47-1.5,4.88-.21,1.41,1.29,1.5,3.47.21,4.88l-11.12,10.85c-.68.74-1.61,1.12-2.55,1.12Z"/>
    <path class="cls-2" d="M189.07,100.9c-.64,0-1.29-.18-1.87-.55-1.6-1.04-2.06-3.17-1.02-4.77l11.56-17.03c1.03-1.6,3.17-2.06,4.77-1.02,1.6,1.04,2.06,3.17,1.02,4.77l-11.56,17.03c-.66,1.02-1.77,1.58-2.9,1.58Z"/>
    <path class="cls-2" d="M159.12,85.38c-.39,0-.79-.07-1.18-.21-1.79-.65-2.72-2.63-2.07-4.42l8.78-24.21c.65-1.79,2.63-2.72,4.42-2.07,1.79.65,2.72,2.63,2.07,4.42l-8.78,24.21c-.51,1.4-1.83,2.28-3.24,2.28Z"/>
  </g>
</svg>