<?xml version="1.0" encoding="UTF-8"?>
<svg id="Capa_30" data-name="Capa 30" xmlns="http://www.w3.org/2000/svg" viewBox="0 0 250 250">
  <defs>
    <style>
      .cls-1 {
        fill: #f6a42c;
        stroke-width: 0px;
      }
    </style>
  </defs>
  <path class="cls-1" d="M192.67,42.6H57.34c-8.14,0-14.74,6.6-14.74,14.74v135.33c0,8.14,6.6,14.74,14.74,14.74h135.33c8.14,0,14.74-6.6,14.74-14.74V57.33c0-8.14-6.6-14.74-14.74-14.74ZM182.62,154.82c-1.36,14-11.75,23.49-25.92,23.72-.71,0-1.43,0-2.14,0-8.41.27-15.93-3.05-23.51-6-20.08-7.8-35.14-21.9-48.04-38.64-5.22-6.79-10.17-13.77-13.1-21.93-4.89-13.64-3.1-25.96,7.23-36.63,2.67-2.75,5.81-4.02,9.57-3.89,1.82.06,3.64.19,5.45.36,2.39.22,3.53,2,4.38,3.9,1.58,3.54,3.01,7.14,4.51,10.72,1.53,3.65,3.02,7.32,4.61,10.94,1.09,2.47.99,4.77-.63,6.94-2.18,2.92-4.31,5.87-6.61,8.69-1.51,1.85-1.64,3.51-.4,5.59,9.15,15.35,21.86,26.52,38.53,33.1,2.17.86,3.95.58,5.52-1.26,2.83-3.31,5.63-6.64,8.24-10.13,2.29-3.06,3.56-3.46,7.12-1.96,7.74,3.24,15.19,7.12,22.7,10.85,2.43,1.21,2.7,3.32,2.48,5.63Z"/>
</svg>