<?xml version="1.0" encoding="UTF-8"?>
<svg id="Capa_30" data-name="Capa 30" xmlns="http://www.w3.org/2000/svg" viewBox="0 0 250 250">
  <defs>
    <style>
      .cls-1 {
        fill: #f6a42c;
      }

      .cls-1, .cls-2 {
        stroke-width: 0px;
      }

      .cls-2 {
        fill: #01424e;
      }
    </style>
  </defs>
  <path class="cls-1" d="M72.1,116.02h.15c18.88,0,34.2,15.32,34.2,34.2v34.35H37.9v-34.35c0-18.88,15.32-34.2,34.2-34.2Z"/>
  <path class="cls-1" d="M198.48,93.17h0s0-1.56,0-1.56c0-11.38-9.23-20.61-20.61-20.61h-.09c-11.38,0-20.61,9.23-20.61,20.61v1.56s-.3,14.82-6.31,19.14h53.93c-6.01-4.31-6.31-19.14-6.31-19.14Z"/>
  <path class="cls-1" d="M177.75,116.02h.15c18.88,0,34.2,15.32,34.2,34.2v34.35h-68.55v-34.35c0-18.88,15.32-34.2,34.2-34.2Z"/>
  <circle class="cls-2" cx="122.9" cy="115.99" r="20.66"/>
  <path class="cls-2" d="M122.82,140.36h.15c18.88,0,34.2,15.32,34.2,34.2v34.35h-68.55v-34.35c0-18.88,15.32-34.2,34.2-34.2Z"/>
  <path class="cls-1" d="M147.43,53.6v3.35c-.04.19-.1.37-.12.56-.38,2.71-1.5,5.12-3.03,7.36-1.8,2.62-4,4.89-6.32,7.04-4.5,4.16-9.24,8.05-13.86,12.07-.78.68-1.56.68-2.33.01-4.65-4.04-9.41-7.94-13.93-12.13-2.41-2.24-4.69-4.6-6.52-7.36-2.62-3.95-3.59-8.23-2.53-12.9,1.2-5.32,5.18-9.5,10.65-10.33,2.81-.43,5.46,0,7.93,1.45,2.26,1.33,3.93,3.23,5.26,5.45.28.46.3.47.57.01.54-.9,1.14-1.77,1.84-2.56,3.44-3.88,7.69-5.38,12.75-4.03,4.44,1.18,7.26,4.19,8.82,8.44.43,1.16.62,2.37.82,3.58Z"/>
  <path class="cls-1" d="M92.83,83.81v-3.05c0-5.91-4.79-10.7-10.7-10.7h-17.37c-1.68,0-3.02,1.18-3.41,2.74v-.35c0-.62-.5-1.12-1.12-1.12h-2.71c-2.7,0-4.88,2.19-4.88,4.88v8.8c-.71,2.09-1.11,4.31-1.11,6.64,0,11.41,9.25,20.65,20.65,20.65s20.66-9.25,20.66-20.65c0-2.33-.4-4.56-1.11-6.64.62-.06,1.11-.56,1.11-1.2Z"/>
</svg>