<?xml version="1.0" encoding="UTF-8"?>
<svg id="Capa_30" data-name="Capa 30" xmlns="http://www.w3.org/2000/svg" viewBox="0 0 250 250">
  <defs>
    <style>
      .cls-1 {
        fill: #f6a42c;
        stroke-width: 0px;
      }
    </style>
  </defs>
  <path class="cls-1" d="M125,94.48c-10.8.26-18.91,8.25-18.89,18.99.02,10.82,8.14,18.91,18.91,18.92,10.98,0,18.99-8.27,18.95-19-.04-10.83-8.22-18.7-18.97-18.91Z"/>
  <path class="cls-1" d="M192.67,42.6H57.34c-8.14,0-14.74,6.6-14.74,14.74v135.33c0,8.14,6.6,14.74,14.74,14.74h135.33c8.14,0,14.74-6.6,14.74-14.74V57.33c0-8.14-6.6-14.74-14.74-14.74ZM163.92,127.13c-3.35,8.97-8.37,17.02-13.81,24.83-4.41,6.33-9.14,12.42-14.21,18.22-2.08,2.38-3.93,5-6.55,6.9-2.67,1.94-6.36,1.98-8.99-.02-2.72-2.06-4.81-4.72-6.96-7.32-7.39-8.91-14.4-18.1-20.41-28.01-3.28-5.41-6.31-10.96-8.31-16.99-1.73-5.21-1.96-10.58-1.49-16.01.72-8.35,3.94-15.68,9.27-22.05,7.28-8.71,16.63-13.72,27.92-15.04.51-.06,1.03-.17,1.54-.18,1.07-.03,2.15,0,3.22,0,19.38-.18,36.25,13.34,40.84,31.61,2.07,8.26.85,16.24-2.06,24.06Z"/>
</svg>