<?xml version="1.0" encoding="UTF-8"?>
<svg id="Capa_30" data-name="Capa 30" xmlns="http://www.w3.org/2000/svg" viewBox="0 0 250 250">
  <defs>
    <style>
      .cls-1 {
        fill: #f6a42c;
        stroke-width: 0px;
      }
    </style>
  </defs>
  <path class="cls-1" d="M192.67,42.6H57.34c-8.14,0-14.74,6.6-14.74,14.74v135.33c0,8.14,6.6,14.74,14.74,14.74h135.33c8.14,0,14.74-6.6,14.74-14.74V57.33c0-8.14-6.6-14.74-14.74-14.74ZM147.96,92.97c-3.09.02-6.19-.11-9.28.12-4.14.31-6.38,2.48-6.47,6.64-.09,4.09-.02,8.19-.05,12.29,0,.83.41.89,1.06.89,4.44-.02,8.88.02,13.32-.03.89,0,1.14.26,1.03,1.12-.66,5.08-1.28,10.16-1.9,15.25-.09.74-.49.88-1.15.87-3.72-.02-7.44.02-11.16-.03-.98-.01-1.2.31-1.2,1.23.02,13.42.02,26.83.02,40.25q0,1.51-1.47,1.51c-4.88,0-9.76,0-14.64,0-1.24,0-1.24,0-1.24-1.26,0-13.42,0-26.83,0-40.24q0-1.46-1.49-1.46c-3.78,0-7.57-.02-11.35.01-.81,0-1.08-.23-1.08-1.06.03-5.04.03-10.07,0-15.11,0-.82.26-1.07,1.07-1.07,3.85.04,7.69.02,11.54.02q1.3,0,1.3-1.27c0-4.38-.05-8.76.02-13.13.07-4.11.88-8.08,2.9-11.72,3.2-5.77,8.29-8.73,14.69-9.7.21-.03.42-.09.63-.14h9.76c1.77.16,3.53.36,5.31.47.8.05.96.42.96,1.13-.02,4.44-.03,8.88,0,13.32,0,.89-.3,1.1-1.14,1.11Z"/>
</svg>