<?xml version="1.0" encoding="UTF-8"?>
<svg id="Capa_30" data-name="Capa 30" xmlns="http://www.w3.org/2000/svg" viewBox="0 0 250 250">
  <defs>
    <style>
      .cls-1 {
        fill: #f6a42c;
      }

      .cls-1, .cls-2 {
        stroke-width: 0px;
      }

      .cls-2 {
        fill: #01424e;
      }
    </style>
  </defs>
  <g>
    <path class="cls-1" d="M164.24,70.25c-.49.68-.73,1.42-.73,2.24,0,1.01.35,1.82,1.06,2.43.71.61,1.64,1.09,2.79,1.44.02,0,.05.01.07.02v-8.03c-.3.08-.59.16-.85.27-1.07.41-1.85.95-2.34,1.63Z"/>
    <path class="cls-1" d="M173.16,83.61c-.25-.08-.51-.16-.78-.23v8.23c.58-.09,1.1-.21,1.56-.37,1.07-.38,1.86-.89,2.36-1.53.5-.64.75-1.38.75-2.19,0-1.01-.36-1.82-1.09-2.43-.72-.61-1.66-1.1-2.81-1.46Z"/>
    <path class="cls-1" d="M169.9,41.1c-20.99,0-38,17.01-38,38s17.01,38,38,38,38-17.01,38-38-17.01-38-38-38ZM181.66,91.96c-.96,1.5-2.43,2.69-4.41,3.59-1.37.62-2.99,1.02-4.86,1.21v2.88c0,1.35-1.1,2.45-2.45,2.45h-.06c-1.35,0-2.45-1.1-2.45-2.45v-2.86c-1.75-.16-3.44-.48-5.07-.99-2.34-.74-4.22-1.69-5.64-2.86l2.12-4.77c1.32,1.04,2.96,1.9,4.91,2.6,1.21.43,2.44.71,3.68.87v-9.47c-.76-.2-1.53-.41-2.29-.65-1.4-.44-2.68-1-3.85-1.68-1.16-.68-2.1-1.58-2.81-2.71-.71-1.13-1.06-2.58-1.06-4.34s.48-3.44,1.44-4.93c.96-1.49,2.42-2.69,4.39-3.59,1.2-.55,2.59-.92,4.18-1.14v-4.57c0-1.35,1.1-2.45,2.45-2.45h.06c1.35,0,2.45,1.1,2.45,2.45v4.43c1.42.1,2.84.33,4.25.69,1.95.5,3.65,1.23,5.1,2.17l-1.94,4.77c-1.48-.88-3.01-1.53-4.58-1.96-.97-.26-1.91-.43-2.83-.53v9.53c1.01.25,2.02.52,3.02.82,1.38.42,2.66.98,3.82,1.65,1.16.68,2.1,1.57,2.81,2.69.71,1.12,1.06,2.54,1.06,4.27s-.48,3.39-1.44,4.88Z"/>
  </g>
  <path class="cls-2" d="M157.66,208.9h-27.21c-2.17-1.09-2.94-2.87-2.93-5.27.06-10.74.03-21.48.02-32.22,0-4.53-2.8-7.32-7.34-7.35-4.11-.02-8.22.13-12.32-.04-4.93-.21-7.73,3.63-7.67,7.66.15,10.64.02,21.29.07,31.93.01,2.39-.76,4.17-2.92,5.28h-27.21c-4.54-1.13-8.2-3.46-10.66-7.55-1.81-3-2.22-6.29-2.23-9.69,0-7.75,0-15.5,0-23.24,0-5.37-.02-10.74.01-16.1,0-1.22-.41-1.79-1.68-1.83-1.35-.04-2.7-.15-4.01-.56-5.15-1.61-8.15-5.19-9.48-10.31v-5.05c.77-3.3,2.64-5.89,5.01-8.26,18.66-18.6,37.29-37.25,55.92-55.88.76-.76,1.52-1.52,2.35-2.21,2.3-1.91,4.95-2.92,7.96-3.04,4.37-.18,7.83,1.62,10.84,4.65,9.45,9.51,18.96,18.97,28.44,28.46,9.61,9.61,19.23,19.23,28.84,28.85,4.15,4.16,5.56,9.09,3.48,14.63-2.05,5.47-6.22,8.32-12.09,8.68-2.32.14-2.32.2-2.32,2.48,0,12.85,0,25.7,0,38.55,0,3.4-.36,6.71-2.14,9.73-2.45,4.16-6.13,6.56-10.73,7.69Z"/>
</svg>