<?xml version="1.0" encoding="UTF-8"?>
<svg id="Capa_30" data-name="Capa 30" xmlns="http://www.w3.org/2000/svg" viewBox="0 0 250 250">
  <defs>
    <style>
      .cls-1 {
        fill: #f6a42c;
      }

      .cls-1, .cls-2 {
        stroke-width: 0px;
      }

      .cls-2 {
        fill: #01424e;
      }
    </style>
  </defs>
  <g>
    <path class="cls-1" d="M78.51,83.02c-.7.97-1.05,2.05-1.05,3.22,0,1.45.51,2.61,1.53,3.5,1.02.88,2.35,1.57,4.01,2.07.03.01.07.02.1.03v-11.54c-.43.11-.84.24-1.22.38-1.54.59-2.66,1.37-3.36,2.34Z"/>
    <path class="cls-1" d="M91.34,102.24c-.36-.11-.74-.23-1.12-.34v11.83c.83-.13,1.59-.3,2.24-.53,1.54-.54,2.67-1.28,3.39-2.21.72-.93,1.08-1.98,1.08-3.16,0-1.45-.52-2.61-1.56-3.5-1.04-.88-2.39-1.58-4.04-2.1Z"/>
    <path class="cls-1" d="M86.66,41.1c-30.18,0-54.65,24.47-54.65,54.65s24.47,54.64,54.65,54.64,54.64-24.47,54.64-54.64-24.47-54.65-54.64-54.65ZM103.56,114.25c-1.38,2.15-3.5,3.87-6.35,5.16-1.97.89-4.31,1.47-6.99,1.74v4.14c0,1.95-1.58,3.52-3.52,3.52h-.08c-1.95,0-3.52-1.58-3.52-3.52v-4.11c-2.51-.22-4.95-.69-7.3-1.43-3.37-1.06-6.07-2.43-8.11-4.11l3.05-6.86c1.9,1.49,4.25,2.74,7.06,3.73,1.74.62,3.51,1.02,5.29,1.25v-13.62c-1.1-.28-2.19-.59-3.29-.94-2.01-.63-3.86-1.44-5.53-2.41-1.67-.97-3.02-2.27-4.04-3.9-1.02-1.63-1.53-3.71-1.53-6.25s.69-4.94,2.07-7.09c1.38-2.15,3.49-3.87,6.31-5.16,1.72-.78,3.72-1.33,6.01-1.64v-6.57c0-1.95,1.58-3.52,3.52-3.52h.08c1.95,0,3.52,1.58,3.52,3.52v6.37c2.05.14,4.08.47,6.11,1,2.81.72,5.25,1.76,7.33,3.12l-2.78,6.86c-2.13-1.27-4.32-2.21-6.58-2.82-1.39-.38-2.75-.62-4.07-.77v13.7c1.46.36,2.91.74,4.34,1.18,1.99.61,3.82,1.4,5.5,2.38,1.67.97,3.02,2.26,4.04,3.87,1.02,1.61,1.53,3.66,1.53,6.14s-.69,4.88-2.07,7.02Z"/>
  </g>
  <path class="cls-2" d="M213.67,193.69h-9.78v-110.53c0-2.5-2.03-4.53-4.53-4.53h-35.8c-2.5,0-4.53,2.03-4.53,4.53v110.53h-4.26v-77.33c0-2.5-2.03-4.53-4.53-4.53h-35.8c-2.5,0-4.53,2.03-4.53,4.53v77.33h-4.79v-48.34c0-2.5-2.03-4.53-4.53-4.53h-35.8c-2.5,0-4.53,2.03-4.53,4.53v48.34h-9.19c-2.39,0-4.32,1.93-4.32,4.32v6.58c0,2.38,1.93,4.32,4.32,4.32h162.61c2.39,0,4.32-1.93,4.32-4.32v-6.58c0-2.38-1.93-4.32-4.32-4.32Z"/>
</svg>