<?xml version="1.0" encoding="UTF-8"?>
<svg id="Capa_1" data-name="Capa 1" xmlns="http://www.w3.org/2000/svg" viewBox="0 0 250 250">
  <defs>
    <style>
      .cls-1 {
        fill: #fff;
        stroke-width: 0px;
      }
    </style>
  </defs>
  <path class="cls-1" d="M213.88,130.18c.1-.22.17-.44.25-.66.06-.17.1-.33.15-.5.34-1.02.55-2.09.63-3.21.01-.16.04-.3.05-.46,0-.12.04-.23.04-.35s-.03-.23-.04-.35c0-.16-.04-.3-.05-.46-.07-1.12-.28-2.19-.63-3.21-.05-.17-.09-.33-.15-.5-.08-.22-.15-.45-.25-.66-.05-.1-.11-.18-.15-.28-.52-1.1-1.2-2.1-1.99-3-.06-.07-.08-.16-.14-.23l-42.88-46.41c-4.8-5.19-12.91-5.52-18.1-.71-5.2,4.8-5.51,12.9-.71,18.1l23.01,24.91H47.82c-7.08,0-12.81,5.74-12.81,12.81s5.73,12.81,12.81,12.81h125.08l-23.01,24.91c-4.8,5.2-4.48,13.3.71,18.1,2.46,2.28,5.58,3.4,8.69,3.4,3.45,0,6.89-1.38,9.42-4.11l42.88-46.41c.07-.07.08-.16.14-.23.8-.9,1.48-1.9,2-3,.05-.1.1-.18.15-.28Z"/>
</svg>