<?xml version="1.0" encoding="UTF-8"?>
<svg id="Capa_30" data-name="Capa 30" xmlns="http://www.w3.org/2000/svg" viewBox="0 0 250 250">
  <defs>
    <style>
      .cls-1 {
        fill: #f6a42c;
      }

      .cls-1, .cls-2 {
        stroke-width: 0px;
      }

      .cls-2 {
        fill: #01424e;
      }
    </style>
  </defs>
  <path class="cls-1" d="M114.8,153.03l-10.87-18.83h3.14c3.56,0,5.79-3.86,4.01-6.94l-10.58-18.32h2.93c2.81,0,4.56-3.04,3.16-5.47l-13.48-23.35c-1.4-2.43-4.91-2.43-6.31,0l-13.48,23.35c-1.4,2.43.35,5.47,3.16,5.47h2.93l-10.58,18.32c-1.78,3.09.45,6.94,4.01,6.94h3.14l-10.87,18.83c-2.1,3.63.52,8.16,4.71,8.16h15.65v7.16h8.99v-7.16h15.65c4.19,0,6.81-4.54,4.71-8.16Z"/>
  <path class="cls-2" d="M78.82,155.97l-8.79-15.22h2.53c2.88,0,4.68-3.12,3.24-5.61l-8.55-14.81h2.37c2.27,0,3.68-2.45,2.55-4.42l-10.9-18.87c-1.13-1.96-3.97-1.96-5.1,0l-10.9,18.87c-1.13,1.96.28,4.42,2.55,4.42h2.37l-8.55,14.81c-1.44,2.49.36,5.61,3.24,5.61h2.53l-8.78,15.22c-1.69,2.93.42,6.6,3.81,6.6h12.65v5.79h7.27v-5.79h12.65c3.39,0,5.5-3.67,3.81-6.6Z"/>
  <path class="cls-2" d="M209.82,155.97l-8.79-15.22h2.53c2.88,0,4.68-3.12,3.24-5.61l-8.55-14.81h2.37c2.27,0,3.68-2.45,2.55-4.42l-10.9-18.87c-1.13-1.96-3.97-1.96-5.1,0l-10.9,18.87c-1.13,1.96.28,4.42,2.55,4.42h2.37l-8.55,14.81c-1.44,2.49.36,5.61,3.24,5.61h2.53l-8.78,15.22c-1.69,2.93.42,6.6,3.81,6.6h12.65v5.79h7.27v-5.79h12.65c3.39,0,5.5-3.67,3.81-6.6Z"/>
  <path class="cls-1" d="M183.88,153.03l-10.87-18.83h3.14c3.56,0,5.79-3.86,4.01-6.94l-10.58-18.32h2.93c2.81,0,4.56-3.04,3.16-5.47l-13.48-23.35c-1.4-2.43-4.91-2.43-6.31,0l-13.48,23.35c-1.4,2.43.35,5.47,3.16,5.47h2.93l-10.58,18.32c-1.78,3.09.45,6.94,4.01,6.94h3.14l-10.87,18.83c-2.1,3.63.52,8.16,4.71,8.16h15.65v7.16h8.99v-7.16h15.65c4.19,0,6.81-4.54,4.71-8.16Z"/>
  <rect class="cls-2" x="27.33" y="166.36" width="195.34" height="17.49" rx="5.09" ry="5.09"/>
  <path class="cls-2" d="M153.21,150.96l-12.33-21.36h3.56c4.04,0,6.57-4.38,4.55-7.88l-12.01-20.79h3.33c3.18,0,5.17-3.45,3.58-6.2l-15.3-26.5c-1.59-2.76-5.57-2.76-7.16,0l-15.3,26.5c-1.59,2.76.4,6.2,3.58,6.2h3.33l-12.01,20.79c-2.02,3.5.51,7.88,4.55,7.88h3.56l-12.33,21.36c-2.38,4.12.59,9.26,5.35,9.26h17.76v8.13h10.2v-8.13h17.75c4.76,0,7.73-5.15,5.35-9.26Z"/>
</svg>