<?xml version="1.0" encoding="UTF-8"?>
<svg id="Capa_30" data-name="Capa 30" xmlns="http://www.w3.org/2000/svg" viewBox="0 0 250 250">
  <defs>
    <style>
      .cls-1 {
        fill: #f6a42c;
      }

      .cls-1, .cls-2 {
        stroke-width: 0px;
      }

      .cls-2 {
        fill: #01424e;
      }
    </style>
  </defs>
  <path class="cls-1" d="M126.76,44.03l2.76,8.5c.57,1.75,2.2,2.94,4.05,2.94h8.94c4.12,0,5.83,5.27,2.5,7.69l-7.23,5.25c-1.49,1.08-2.11,3-1.55,4.76l2.76,8.5c1.27,3.92-3.21,7.18-6.55,4.76l-7.23-5.25c-1.49-1.08-3.51-1.08-5,0l-7.23,5.25c-3.33,2.42-7.82-.84-6.55-4.76l2.76-8.5c.57-1.75-.05-3.67-1.55-4.76l-7.23-5.25c-3.33-2.42-1.62-7.69,2.5-7.69h8.94c1.84,0,3.48-1.19,4.05-2.94l2.76-8.5c1.27-3.92,6.82-3.92,8.09,0Z"/>
  <g>
    <circle class="cls-1" cx="72.97" cy="98" r="20.34"/>
    <path class="cls-1" d="M72.9,122h.15c18.59,0,33.68,15.09,33.68,33.68v33.83H39.22v-33.83c0-18.59,15.09-33.68,33.68-33.68Z"/>
    <circle class="cls-1" cx="177.03" cy="98" r="20.34"/>
    <path class="cls-1" d="M176.95,122h.15c18.59,0,33.68,15.09,33.68,33.68v33.83h-67.51v-33.83c0-18.59,15.09-33.68,33.68-33.68Z"/>
    <circle class="cls-2" cx="122.36" cy="117.4" r="20.34"/>
    <path class="cls-2" d="M122.28,141.4h.15c18.59,0,33.68,15.09,33.68,33.68v33.83h-67.51v-33.83c0-18.59,15.09-33.68,33.68-33.68Z"/>
  </g>
</svg>