<?xml version="1.0" encoding="UTF-8"?>
<svg id="Capa_13" data-name="Capa 13" xmlns="http://www.w3.org/2000/svg" viewBox="0 0 250 250">
  <defs>
    <style>
      .cls-1 {
        fill: #1a1a1a;
        stroke-width: 0px;
      }
    </style>
  </defs>
  <path class="cls-1" d="M22.96,77.6c2.26-5.67,6.65-5.8,11.71-5.51.69.04,1.07.48,1.09,1.18.02.73.04,1.46.04,2.19,0,29.14,0,58.28,0,87.42,0,7.88,3.38,13.77,10.41,17.44,2.64,1.38,5.54,1.86,8.47,1.89,8.46.09,16.8,1.08,24.99,3.21,10.28,2.67,19.74,7,27.81,14.06.47.42,1.15.69,1.3,1.77-2.67-.5-5.23-.99-7.78-1.45-12.35-2.21-24.79-2.27-37.26-1.52-10.48.63-20.81,2.33-31.07,4.47-4.71.98-7-.26-9.7-4.86v-120.29Z"/>
  <path class="cls-1" d="M119.47,137.05c0,18.25,0,36.5,0,54.76,0,.46.04.93-.01,1.39-.06.56.27,1.33-.41,1.61-.65.26-1.05-.44-1.45-.83-4.7-4.67-10.01-8.47-15.82-11.63-9.81-5.33-20.35-8.3-31.34-9.82-5.26-.73-10.55-1.05-15.86-1.19-4.78-.13-7.85-3.16-7.85-7.9-.01-36.24-.01-72.48,0-108.72,0-4.56,3.05-7.87,7.51-7.82,15.74.19,30.88,2.91,44.68,11.03,7.87,4.63,14.21,10.83,19.17,18.48,1.1,1.69,1.4,3.53,1.39,5.5-.02,18.39-.01,36.77-.01,55.16Z"/>
  <path class="cls-1" d="M130.38,136.85c0-18.19.03-36.37-.03-54.56,0-2.64.69-4.88,2.17-7.06,8.82-13,21.33-20.57,36.15-24.79,8.48-2.41,17.16-3.36,25.94-3.57,5.49-.13,8.51,2.92,8.51,8.44,0,35.84,0,71.68,0,107.52,0,5.54-2.9,8.37-8.46,8.52-14.51.38-28.65,2.55-41.98,8.67-7.23,3.33-13.84,7.58-19.58,13.12-.33.32-.65.67-1,.97-.39.33-.72.94-1.31.7-.62-.24-.4-.92-.4-1.41-.02-4.38-.01-8.76-.01-13.14,0-14.47,0-28.94,0-43.41Z"/>
  <path class="cls-1" d="M140.6,201.25c2.37-2.52,4.64-4.2,6.97-5.8,9.78-6.72,20.77-10.14,32.36-12.02,5.98-.97,12.04-.77,18.02-1.51,9.45-1.17,15.98-8.61,16.08-18.24.09-9.09.03-18.19.03-27.28,0-20.44,0-40.88,0-61.33,0-3.05,0-3.03,3.12-3.06,1.47-.01,2.93.07,4.35.41,3.19.77,5.47,3.73,5.5,7.19.04,5.64.02,11.28.02,16.92,0,32.79,0,65.57,0,98.36,0,4.47-2.33,7.41-6.33,8.15-1.43.26-2.78-.1-4.13-.39-13.26-2.85-26.63-4.59-40.22-4.76-11.38-.14-22.65.61-33.77,3.16-.44.1-.9.1-1.99.21Z"/>
</svg>