<?xml version="1.0" encoding="UTF-8"?>
<svg id="Capa_30" data-name="Capa 30" xmlns="http://www.w3.org/2000/svg" viewBox="0 0 250 250">
  <defs>
    <style>
      .cls-1 {
        fill: #f6a42c;
      }

      .cls-1, .cls-2 {
        stroke-width: 0px;
      }

      .cls-2 {
        fill: #01424e;
      }
    </style>
  </defs>
  <g>
    <rect class="cls-2" x="120.04" y="132.92" width="9.36" height="73.22" rx="4.68" ry="4.68"/>
    <path class="cls-2" d="M149.39,154.28c1.57.22,2.48,1.85,1.88,3.32-1.25,3.04-3.83,7.86-8.42,10.5-7.05,4.06-16.17,1.44-16.17,1.44,0,0,2.32-9.2,9.37-13.26,4.6-2.65,10.08-2.46,13.33-2Z"/>
    <path class="cls-2" d="M95.65,162.59c-1.68.26-2.69,2.01-2.07,3.6,1.51,3.89,4.91,10.65,11.19,14.27,9.17,5.28,21.02,1.88,21.02,1.88,0,0-3.01-11.96-12.18-17.24-6.29-3.62-13.84-3.16-17.96-2.51Z"/>
    <g>
      <path class="cls-1" d="M119.21,98.97c-.47.66-.71,1.38-.71,2.18,0,.98.34,1.77,1.03,2.36.69.6,1.59,1.06,2.71,1.4.02,0,.05.01.07.02v-7.8c-.29.07-.57.16-.83.26-1.04.4-1.8.93-2.27,1.58Z"/>
      <path class="cls-1" d="M127.89,111.95c-.25-.08-.5-.15-.76-.23v8c.56-.09,1.07-.21,1.52-.36,1.04-.37,1.81-.86,2.29-1.49.49-.63.73-1.34.73-2.13,0-.98-.35-1.77-1.06-2.36-.7-.6-1.61-1.07-2.73-1.42Z"/>
      <path class="cls-1" d="M124.72,70.62c-20.4,0-36.94,16.54-36.94,36.94s16.54,36.94,36.94,36.94,36.94-16.54,36.94-36.94-16.54-36.94-36.94-36.94ZM136.15,120.08c-.93,1.45-2.36,2.62-4.29,3.49-1.33.6-2.91.99-4.73,1.18v2.8c0,1.32-1.07,2.38-2.38,2.38h-.05c-1.32,0-2.38-1.07-2.38-2.38v-2.78c-1.7-.15-3.35-.47-4.93-.97-2.28-.72-4.11-1.64-5.48-2.78l2.06-4.63c1.29,1.01,2.88,1.85,4.77,2.52,1.17.42,2.37.69,3.58.85v-9.21c-.74-.19-1.48-.4-2.23-.63-1.36-.43-2.61-.97-3.74-1.63-1.13-.66-2.04-1.54-2.73-2.64-.69-1.1-1.03-2.51-1.03-4.22s.47-3.34,1.4-4.8c.93-1.45,2.36-2.62,4.27-3.49,1.16-.53,2.52-.9,4.06-1.11v-4.44c0-1.32,1.07-2.38,2.38-2.38h.05c1.32,0,2.38,1.07,2.38,2.38v4.3c1.38.1,2.76.32,4.13.67,1.9.49,3.55,1.19,4.96,2.11l-1.88,4.63c-1.44-.86-2.92-1.49-4.45-1.9-.94-.25-1.86-.42-2.75-.52v9.26c.99.24,1.97.5,2.94.8,1.35.41,2.59.95,3.72,1.61,1.13.66,2.04,1.53,2.73,2.62.69,1.09,1.03,2.47,1.03,4.15s-.47,3.3-1.4,4.75Z"/>
    </g>
  </g>
  <rect class="cls-1" x="121.91" y="43.85" width="5.62" height="23.33" rx="2.81" ry="2.81"/>
  <rect class="cls-1" x="69.87" y="96.58" width="5.62" height="23.33" rx="2.81" ry="2.81" transform="translate(-35.57 180.93) rotate(-90)"/>
  <rect class="cls-1" x="82.72" y="62.25" width="5.62" height="23.33" rx="2.81" ry="2.81" transform="translate(-25.24 96.51) rotate(-52.36)"/>
  <rect class="cls-1" x="100.95" y="55.91" width="5.62" height="16.19" rx="2.81" ry="2.81" transform="translate(-17.65 53.02) rotate(-26.5)"/>
  <rect class="cls-1" x="76.64" y="82.21" width="5.62" height="16.19" rx="2.81" ry="2.81" transform="translate(-34.89 127.63) rotate(-66.74)"/>
  <rect class="cls-1" x="174.51" y="96.58" width="5.62" height="23.33" rx="2.81" ry="2.81" transform="translate(69.07 285.57) rotate(-90)"/>
  <rect class="cls-1" x="161.66" y="62.25" width="5.62" height="23.33" rx="2.81" ry="2.81" transform="translate(206.37 249.3) rotate(-127.64)"/>
  <rect class="cls-1" x="143.43" y="55.91" width="5.62" height="16.19" rx="2.81" ry="2.81" transform="translate(248.56 186.52) rotate(-153.5)"/>
  <rect class="cls-1" x="167.74" y="82.21" width="5.62" height="16.19" rx="2.81" ry="2.81" transform="translate(154.94 282.66) rotate(-113.26)"/>
  <rect class="cls-1" x="162.68" y="131.96" width="5.62" height="23.33" rx="2.81" ry="2.81" transform="translate(380.28 100.29) rotate(127.64)"/>
  <rect class="cls-1" x="168.76" y="119.15" width="5.62" height="16.19" rx="2.81" ry="2.81" transform="translate(356.23 19.87) rotate(113.26)"/>
  <rect class="cls-1" x="82.36" y="131.96" width="5.62" height="23.33" rx="2.81" ry="2.81" transform="translate(146.89 -11.53) rotate(52.36)"/>
  <rect class="cls-1" x="76.28" y="119.15" width="5.62" height="16.19" rx="2.81" ry="2.81" transform="translate(164.75 4.33) rotate(66.74)"/>
</svg>