<?xml version="1.0" encoding="UTF-8"?>
<svg id="Capa_30" data-name="Capa 30" xmlns="http://www.w3.org/2000/svg" viewBox="0 0 250 250">
  <defs>
    <style>
      .cls-1 {
        fill: #f6a42c;
      }

      .cls-1, .cls-2, .cls-3 {
        stroke-width: 0px;
      }

      .cls-2 {
        fill: #01424e;
      }

      .cls-3 {
        fill: #fff;
      }
    </style>
  </defs>
  <path class="cls-2" d="M216.28,72.61c3.31,1.6,5.23,5.07,4.87,8.73-3.22,32.91-22.26,66.26-49.29,81.26-12.71,7.05-27.22,11.35-42.65,11.99-1.4.07-2.79.11-4.22.11s-2.83-.04-4.22-.11c-15.42-.64-29.94-4.94-42.65-11.99-27.02-15.01-46.07-48.36-49.29-81.26-.36-3.66,1.57-7.13,4.87-8.73,25.22-12.24,56.89-14.3,91.28-14.3s66.06,2.06,91.28,14.3Z"/>
  <g>
    <path class="cls-3" d="M125,186.04c-25.72,0-46.64-20.92-46.64-46.64s20.92-46.64,46.64-46.64,46.64,20.92,46.64,46.64-20.92,46.64-46.64,46.64Z"/>
    <path class="cls-1" d="M125,98.41c22.6,0,40.98,18.39,40.98,40.98s-18.39,40.98-40.98,40.98-40.98-18.39-40.98-40.98,18.39-40.98,40.98-40.98M125,87.1c-28.88,0-52.3,23.41-52.3,52.3s23.41,52.3,52.3,52.3,52.3-23.41,52.3-52.3-23.41-52.3-52.3-52.3h0Z"/>
  </g>
  <g>
    <path class="cls-3" d="M125,159.15c-10.89,0-19.75-8.86-19.75-19.75s8.86-19.75,19.75-19.75,19.75,8.86,19.75,19.75-8.86,19.75-19.75,19.75Z"/>
    <path class="cls-1" d="M125,123.41c8.81,0,15.98,7.17,15.98,15.98s-7.17,15.98-15.98,15.98-15.98-7.17-15.98-15.98,7.17-15.98,15.98-15.98M125,115.87c-12.99,0-23.53,10.53-23.53,23.53s10.53,23.53,23.53,23.53,23.53-10.53,23.53-23.53-10.53-23.53-23.53-23.53h0Z"/>
  </g>
  <g>
    <circle class="cls-1" cx="125" cy="107.26" r="5.25"/>
    <circle class="cls-1" cx="125" cy="171.53" r="5.25"/>
    <circle class="cls-1" cx="157.13" cy="139.4" r="5.25"/>
    <circle class="cls-1" cx="92.87" cy="139.4" r="5.25"/>
    <circle class="cls-1" cx="147.72" cy="116.68" r="5.25"/>
    <circle class="cls-1" cx="102.28" cy="162.12" r="5.25"/>
    <circle class="cls-1" cx="147.72" cy="162.12" r="5.25"/>
    <circle class="cls-1" cx="102.28" cy="116.68" r="5.25"/>
  </g>
  <circle class="cls-1" cx="125" cy="139.4" r="8.81"/>
  <circle class="cls-3" cx="130.03" cy="132.7" r="2.85"/>
  <circle class="cls-3" cx="122.69" cy="144.64" r="4.49"/>
</svg>