<?xml version="1.0" encoding="UTF-8"?>
<svg id="Capa_30" data-name="Capa 30" xmlns="http://www.w3.org/2000/svg" viewBox="0 0 250 250">
  <defs>
    <style>
      .cls-1 {
        fill: #f6a42c;
      }

      .cls-1, .cls-2 {
        stroke-width: 0px;
      }

      .cls-2 {
        fill: #01424e;
      }
    </style>
  </defs>
  <path class="cls-2" d="M48.37,73.48v-4.41c0-3.07-2.69-5.56-6.01-5.56h-2.44c4.85-.97,8.49-4.94,8.49-9.71,0-5.49-4.82-9.94-10.76-9.94s-10.76,4.45-10.76,9.94c0,4.77,3.64,8.75,8.49,9.71h-1.9c-3.32,0-6.01,2.49-6.01,5.56v4.41c-6.13,1.34-10.7,6.4-10.7,12.47v120.19h42.32v-120.19c0-6.07-4.57-11.13-10.7-12.47Z"/>
  <path class="cls-2" d="M222.55,73.48v-4.41c0-3.07-2.69-5.56-6.01-5.56h-1.9c4.85-.97,8.49-4.94,8.49-9.71,0-5.49-4.82-9.94-10.76-9.94s-10.76,4.45-10.76,9.94c0,4.77,3.64,8.75,8.49,9.71h-2.44c-3.32,0-6.01,2.49-6.01,5.56v4.41c-6.13,1.34-10.7,6.4-10.7,12.47v120.19h42.32v-120.19c0-6.07-4.57-11.13-10.7-12.47Z"/>
  <path class="cls-1" d="M102.05,43.85c-10.45,0-18.93,7.83-18.93,17.49v-1.15h0c-13.29,0-24.06,9.95-24.06,22.23v123.72h65.93V43.85h-22.95ZM81.01,185.14c0,1.92-1.69,3.49-3.77,3.49s-3.77-1.56-3.77-3.49v-94.58c0-1.93,1.69-3.49,3.77-3.49s3.77,1.56,3.77,3.49v94.58ZM99.45,185.14c0,1.92-1.69,3.49-3.77,3.49h0c-2.08,0-3.77-1.56-3.77-3.49v-94.58c0-1.93,1.69-3.49,3.77-3.49h0c2.08,0,3.77,1.56,3.77,3.49v94.58ZM116,185.14c0,1.92-1.69,3.49-3.77,3.49s-3.77-1.56-3.77-3.49v-94.58c0-1.93,1.69-3.49,3.77-3.49s3.77,1.56,3.77,3.49v94.58Z"/>
  <path class="cls-1" d="M166.87,60.19v1.15c0-9.66-8.47-17.49-18.93-17.49h-22.95v162.29h65.93v-123.72c0-12.28-10.77-22.23-24.06-22.23ZM143.92,185.14c0,1.92-1.69,3.49-3.77,3.49s-3.77-1.56-3.77-3.49v-94.58c0-1.93,1.69-3.49,3.77-3.49s3.77,1.56,3.77,3.49v94.58ZM162.36,185.14c0,1.92-1.69,3.49-3.77,3.49s-3.77-1.56-3.77-3.49v-94.58c0-1.93,1.69-3.49,3.77-3.49s3.77,1.56,3.77,3.49v94.58ZM178.9,185.14c0,1.92-1.69,3.49-3.77,3.49s-3.77-1.56-3.77-3.49v-94.58c0-1.93,1.69-3.49,3.77-3.49s3.77,1.56,3.77,3.49v94.58Z"/>
</svg>