<?xml version="1.0" encoding="UTF-8"?>
<svg id="Capa_30" data-name="Capa 30" xmlns="http://www.w3.org/2000/svg" viewBox="0 0 250 250">
  <defs>
    <style>
      .cls-1 {
        fill: #f6a42c;
      }

      .cls-1, .cls-2 {
        stroke-width: 0px;
      }

      .cls-2 {
        fill: #01424e;
      }
    </style>
  </defs>
  <path class="cls-1" d="M218.34,179.57h-.24c-9.49-1.79-28.29-7.64-35.71-26.22-8.09-20.32-28.09-21.48-35.69-21.15v73.95h67.29c2.28,0,4.12-1.84,4.12-4.12v-16.72h.24c1.58,0,2.87-1.29,2.87-2.87s-1.29-2.87-2.87-2.87Z"/>
  <path class="cls-2" d="M166.32,84.71l-55.48-40.04c-1.5-1.08-3.52-1.08-5.04,0l-55.48,40.04c-3.39,2.44-1.67,7.8,2.52,7.8h12.93v65.72h-5.69c-3.27,0-5.91,2.64-5.91,5.89v7.8h-6.77c-3.25,0-5.89,2.64-5.89,5.91v8.37h-6.83c-3.27,0-5.89,2.64-5.89,5.89v7.68c0,3.53,2.86,6.4,6.4,6.4h45.49c2.94,0,5.33-2.39,5.33-5.33v-41.82c0-6.38,5.17-11.56,11.56-11.56h19.96c6.4,0,11.56,5.18,11.56,11.56v41.82c0,2.94,2.39,5.33,5.33,5.33h16.45v-113.64h12.95c4.17,0,5.89-5.35,2.5-7.8ZM110.92,130.99c-13.61,2.24-25.24-9.38-23-23,1.36-8.25,8.01-14.9,16.25-16.25,13.61-2.24,25.24,9.38,23,23-1.36,8.25-8.01,14.9-16.25,16.25Z"/>
</svg>