<?xml version="1.0" encoding="UTF-8"?>
<svg id="Capa_30" data-name="Capa 30" xmlns="http://www.w3.org/2000/svg" viewBox="0 0 250 250">
  <defs>
    <style>
      .cls-1 {
        fill: #f6a42c;
      }

      .cls-1, .cls-2 {
        stroke-width: 0px;
      }

      .cls-2 {
        fill: #01424e;
      }
    </style>
  </defs>
  <path class="cls-2" d="M220.23,206.15H29.76c-3.84,0-6.68-3.59-5.8-7.33l21.74-85.69c.63-2.69,3.03-4.59,5.8-4.59h144.63c2.67,0,5.01,1.77,5.73,4.34l24.1,85.69c1.07,3.8-1.79,7.57-5.73,7.57Z"/>
  <path class="cls-1" d="M164.81,177.42h-25.28c-2.02-1.02-2.73-2.67-2.72-4.89.06-9.98.03-19.96.02-29.94,0-4.21-2.6-6.8-6.83-6.83-3.82-.02-7.64.12-11.45-.04-4.58-.19-7.18,3.38-7.13,7.12.14,9.89.02,19.78.07,29.68.01,2.22-.7,3.88-2.72,4.9h-25.28c-4.21-1.05-7.62-3.22-9.91-7.02-1.68-2.79-2.07-5.85-2.07-9,0-7.2,0-14.4,0-21.6,0-4.99-.02-9.98.01-14.96,0-1.14-.38-1.67-1.56-1.7-1.25-.03-2.51-.14-3.72-.52-4.79-1.5-7.57-4.82-8.81-9.58v-4.69c.72-3.07,2.45-5.47,4.66-7.67,17.34-17.29,34.65-34.62,51.97-51.93.71-.71,1.41-1.42,2.18-2.05,2.14-1.78,4.6-2.71,7.4-2.83,4.06-.17,7.28,1.51,10.08,4.32,8.79,8.84,17.62,17.63,26.43,26.44,8.93,8.93,17.87,17.87,26.8,26.81,3.86,3.86,5.17,8.45,3.23,13.59-1.91,5.08-5.78,7.73-11.23,8.07-2.15.13-2.16.18-2.16,2.31,0,11.94,0,23.88,0,35.82,0,3.16-.33,6.23-1.99,9.04-2.28,3.86-5.7,6.09-9.97,7.15Z"/>
</svg>