<?xml version="1.0" encoding="UTF-8"?>
<svg id="Capa_30" data-name="Capa 30" xmlns="http://www.w3.org/2000/svg" viewBox="0 0 250 250">
  <defs>
    <style>
      .cls-1 {
        fill: #f6a42c;
      }

      .cls-1, .cls-2 {
        stroke-width: 0px;
      }

      .cls-2 {
        fill: #fff;
      }
    </style>
  </defs>
  <circle class="cls-2" cx="99.44" cy="73.53" r="31.72"/>
  <path class="cls-2" d="M152.07,163.46v44.73H46.79v-44.73c0-29.01,23.52-52.5,52.53-52.5h.22c12.08,0,23.24,4.07,32.08,10.96,7.87,6.02,13.95,14.25,17.35,23.77h-7.42c-4.52,0-8.2,3.65-8.2,8.2s3.68,8.2,8.2,8.2h10.49c.03.45.03.92.03,1.37Z"/>
  <path class="cls-1" d="M160.27,110.96c-11.02,0-21.06,4.13-28.65,10.96-8.76,7.84-14.28,19.28-14.28,31.97,0,20.89,14.92,38.33,34.73,42.15,2.65.5,5.38.78,8.2.78,23.71,0,42.93-19.22,42.93-42.93s-19.22-42.93-42.93-42.93ZM178.99,162.1h-10.52v10.52c0,4.52-3.68,8.2-8.2,8.2s-8.2-3.68-8.2-8.2v-10.52h-10.52c-4.52,0-8.2-3.68-8.2-8.2s3.68-8.2,8.2-8.2h10.52v-10.52c0-4.55,3.68-8.2,8.2-8.2s8.2,3.65,8.2,8.2v10.52h10.52c4.52,0,8.2,3.65,8.2,8.2s-3.68,8.2-8.2,8.2Z"/>
</svg>