<?xml version="1.0" encoding="UTF-8"?>
<svg id="Capa_30" data-name="Capa 30" xmlns="http://www.w3.org/2000/svg" viewBox="0 0 250 250">
  <defs>
    <style>
      .cls-1 {
        fill: #f6a42c;
      }

      .cls-1, .cls-2 {
        stroke-width: 0px;
      }

      .cls-2 {
        fill: #fff;
      }
    </style>
  </defs>
  <g>
    <circle class="cls-2" cx="104.04" cy="72.99" r="31.18"/>
    <path class="cls-2" d="M135.3,170.38c0,1.51,1.07,2.74,2.41,2.74h18.07v8.34h-18.07c-1.34,0-2.41,1.23-2.41,2.74s1.07,2.74,2.41,2.74h18.07v21.25H52.29v-46.78c0-28.52,23.12-51.64,51.64-51.64h.22c7.13,0,13.93,1.45,20.13,4.06,7.38,3.13,13.88,7.93,19,13.93h-5.57c-1.34,0-2.41,1.18-2.41,2.61s1.07,2.6,2.41,2.6h9.52c1.48,2.22,2.77,4.55,3.89,6.99h-13.41c-1.34,0-2.41,1.23-2.41,2.74s1.07,2.74,2.41,2.74h15.55c.88,2.69,1.54,5.48,1.95,8.34h-17.5c-1.34,0-2.41,1.23-2.41,2.74s1.07,2.74,2.41,2.74h18.02c.03.71.05,1.43.05,2.14v6.23h-18.07c-1.34,0-2.41,1.21-2.41,2.74Z"/>
  </g>
  <path class="cls-1" d="M189.57,111.12h-59.23c-2.41,0-4.58,1.04-6.06,2.71-1.32,1.45-2.11,3.35-2.11,5.43v75.39c0,4.5,3.67,8.17,8.17,8.17h59.23c4.5,0,8.14-3.67,8.14-8.17v-75.39c0-4.5-3.65-8.14-8.14-8.14ZM182.16,186.94h-44.45c-1.34,0-2.41-1.23-2.41-2.74s1.07-2.74,2.41-2.74h44.45c1.34,0,2.44,1.23,2.44,2.74s-1.1,2.74-2.44,2.74ZM182.16,173.12h-44.45c-1.34,0-2.41-1.23-2.41-2.74s1.07-2.74,2.41-2.74h44.45c1.34,0,2.44,1.21,2.44,2.74s-1.1,2.74-2.44,2.74ZM182.16,159.27h-44.45c-1.34,0-2.41-1.21-2.41-2.74s1.07-2.74,2.41-2.74h44.45c1.34,0,2.44,1.23,2.44,2.74s-1.1,2.74-2.44,2.74ZM182.16,145.45h-44.45c-1.34,0-2.41-1.23-2.41-2.74s1.07-2.74,2.41-2.74h44.45c1.34,0,2.44,1.23,2.44,2.74s-1.1,2.74-2.44,2.74ZM182.16,132.97h-44.45c-1.34,0-2.41-1.18-2.41-2.6s1.07-2.61,2.41-2.61h44.45c1.34,0,2.44,1.18,2.44,2.61s-1.1,2.6-2.44,2.6Z"/>
</svg>