<svg id="Capa_1" data-name="Capa 1" xmlns="http://www.w3.org/2000/svg" xmlns:xlink="http://www.w3.org/1999/xlink" viewBox="0 0 1350 1080"><defs><style>.cls-1{fill:url(#Degradado_sin_nombre_18);}.cls-2{fill:#f6a42c;}.cls-3{fill:#fff;}.cls-4{fill:url(#Degradado_sin_nombre_5);}.cls-5{fill:url(#linear-gradient);}.cls-6{fill:url(#linear-gradient-2);}.cls-7{fill:url(#Degradado_sin_nombre_5-2);}</style><radialGradient id="Degradado_sin_nombre_18" cx="643.52" cy="540.85" r="609.54" gradientTransform="translate(28) scale(1.01 1)" gradientUnits="userSpaceOnUse"><stop offset="0" stop-color="#045a68"/><stop offset="0.02" stop-color="#045967"/><stop offset="0.59" stop-color="#024855"/><stop offset="1" stop-color="#01424e"/></radialGradient><linearGradient id="Degradado_sin_nombre_5" x1="150.64" y1="763.79" x2="1199.36" y2="763.79" gradientUnits="userSpaceOnUse"><stop offset="0" stop-color="#ffdd0d"/><stop offset="1" stop-color="#f39200"/></linearGradient><linearGradient id="linear-gradient" x1="1430.2" y1="-2642.09" x2="1545.77" y2="-2717.15" gradientTransform="translate(-2007.18 -597.46) rotate(90)" gradientUnits="userSpaceOnUse"><stop offset="0" stop-color="#959698"/><stop offset="0.03" stop-color="#9e9ea0"/><stop offset="0.11" stop-color="#b4b3b3"/><stop offset="0.21" stop-color="#c5c3c2"/><stop offset="0.34" stop-color="#d0cecc"/><stop offset="0.51" stop-color="#d7d4d2"/><stop offset="1" stop-color="#d9d6d4"/></linearGradient><linearGradient id="linear-gradient-2" x1="1422.69" y1="-2683.01" x2="1569.64" y2="-2683.01" gradientTransform="translate(-2007.18 -597.46) rotate(90)" gradientUnits="userSpaceOnUse"><stop offset="0" stop-color="#f2f1f1"/><stop offset="1" stop-color="#d9d6d4"/></linearGradient><linearGradient id="Degradado_sin_nombre_5-2" x1="1438.52" y1="-2647.82" x2="1541.56" y2="-2714.74" gradientTransform="translate(-2007.18 -597.46) rotate(90)" xlink:href="#Degradado_sin_nombre_5"/></defs><rect class="cls-1" width="1356.09" height="1081.7"/><path class="cls-2" d="M771.83,416.14,680.48,257.93a2.78,2.78,0,0,0-4.81,0L584.32,416.14a1.39,1.39,0,0,0,1.9,1.9l20.25-11.69a6.9,6.9,0,0,0,2.55-2.54l67.85-117.53a1.39,1.39,0,0,1,2.41,0l67.86,117.53a6.88,6.88,0,0,0,2.54,2.54L769.93,418A1.39,1.39,0,0,0,771.83,416.14Z"/><path class="cls-3" d="M700.55,211.11l-21.08-12.17a2.76,2.76,0,0,0-2.78,0L655.6,211.11a7,7,0,0,0-2.54,2.55L535,418.23a2.78,2.78,0,0,0,1,3.8l19.27,11.13a2.78,2.78,0,0,0,3.79-1l116.64-202a2.79,2.79,0,0,1,4.82,0l116.63,202a2.79,2.79,0,0,0,3.8,1L820.19,422a2.79,2.79,0,0,0,1-3.8L703.1,213.66A7,7,0,0,0,700.55,211.11Z"/><path class="cls-3" d="M539.78,493.82h-5.21l17.51-38.29h5l22,48.15h-5.36l-19.19-42.85Z"/><path class="cls-3" d="M614.54,487v16.64h-5V487l-13.23-21.65h5.43l10.49,17.18,16.51-27h5.09Z"/><path class="cls-3" d="M722.06,493.82h-5.21l17.51-38.29h5l22,48.15H756l-19.19-42.85Z"/><path class="cls-3" d="M816,503.68l-11-15.47a36.28,36.28,0,0,1-3.85.2H788.22v5.41h-5.09V455.53h18c12.24,0,19.67,6.19,19.67,16.51,0,7.57-4,12.86-11,15.13l11.76,16.51ZM815.73,472c0-7.7-5.09-12.11-14.72-12.11H788.22v24.15H801C810.64,484.08,815.73,479.61,815.73,472Z"/><path class="cls-3" d="M659.28,499.67l21.5,0h.1a9.2,9.2,0,0,0,9.19-9.19,9.2,9.2,0,0,0-9.19-9.19h-21.6Zm0-34.28v11.82h19.44a8.84,8.84,0,0,0,.1-17.67l-19.54.09v-4.1l19.59,0a12.88,12.88,0,0,1,7.77,23,13.26,13.26,0,0,1,7.48,11.93,13.26,13.26,0,0,1-13.24,13.25h-.14l-25.51,0V465.39Z"/><path class="cls-2" d="M756,516.54a6.14,6.14,0,0,1,6.43-6.34,5.46,5.46,0,0,1,4.89,2.47l-1.26.85a4.23,4.23,0,0,0-3.63-1.85,4.87,4.87,0,0,0,0,9.73,4.21,4.21,0,0,0,3.63-1.83l1.26.86a5.52,5.52,0,0,1-4.89,2.47A6.16,6.16,0,0,1,756,516.54Z"/><path class="cls-2" d="M773.94,516.54a6.35,6.35,0,1,1,6.36,6.36A6.14,6.14,0,0,1,773.94,516.54Zm11,0a4.64,4.64,0,1,0-4.63,4.86A4.55,4.55,0,0,0,784.93,516.54Z"/><path class="cls-2" d="M801.13,510.2v1.63l-.4,0c-2.61,0-4.2,1.66-4.2,4.61v6.36h-1.69V510.29h1.61v2.45C797.24,511.07,798.83,510.2,801.13,510.2Z"/><path class="cls-2" d="M821.58,516.54a6.05,6.05,0,0,1-6.22,6.36,5.46,5.46,0,0,1-4.75-2.47v7h-1.68v-17.1h1.61v2.47a5.43,5.43,0,0,1,4.82-2.56A6,6,0,0,1,821.58,516.54Zm-1.69,0a4.65,4.65,0,1,0-4.65,4.86A4.59,4.59,0,0,0,819.89,516.54Z"/><path class="cls-4" d="M1199.18,755.87V677.66a44.66,44.66,0,0,0-44.53-44.53H195.28a44.66,44.66,0,0,0-44.53,44.53v79.52c-1.13,28.16,6.07,58.71,27.16,69,99.5,48.47,357.28-55.85,420.88,18.1,19.92,23.17,44.85,50.19,68.29,50.19,20.5,0,47.34-24.54,74.92-51.73,83.15-82,380.08,50,442.9-32.31C1197.68,793.67,1200.13,778.61,1199.18,755.87Z"/><path class="cls-3" d="M198.21,760.78v-77h33.33a43.43,43.43,0,0,1,17.82,3.35,26.09,26.09,0,0,1,11.55,9.63,26.72,26.72,0,0,1-11.55,39.38,42.76,42.76,0,0,1-17.82,3.41H208l8.14-8v29.26Zm17.93-27.28L208,725h22.55q8.14,0,12.32-3.52t4.18-9.9q0-6.37-4.18-9.85t-12.32-3.46H208l8.14-8.47Z"/><path class="cls-3" d="M263.66,760.78l34.21-77h17.6l34.54,77h-18.7L303,692.8h7.15l-28.27,68Zm17.27-16.5,4.51-13.53h39.82l4.62,13.53Z"/><path class="cls-3" d="M394.12,762.1a47,47,0,0,1-16.83-2.92,38.27,38.27,0,0,1-22.05-20.95,42.08,42.08,0,0,1,0-31.9,37.77,37.77,0,0,1,8.85-12.65,40.14,40.14,0,0,1,13.42-8.31,51.15,51.15,0,0,1,35.37.5,36.42,36.42,0,0,1,13.8,9.9l-11.33,10.56a28.35,28.35,0,0,0-9.24-6.66,27.1,27.1,0,0,0-10.89-2.14,27.43,27.43,0,0,0-10.12,1.81,23.52,23.52,0,0,0-8,5.12,22.75,22.75,0,0,0-5.16,7.81,28,28,0,0,0,0,19.85,22.62,22.62,0,0,0,5.16,7.87,24.42,24.42,0,0,0,7.92,5.17A26.28,26.28,0,0,0,395.11,747a30.91,30.91,0,0,0,10.29-1.76,30.55,30.55,0,0,0,9.73-5.83l10.12,12.87a45.56,45.56,0,0,1-14.63,7.31A57.17,57.17,0,0,1,394.12,762.1ZM409,750V721.07h16.28v31.24Z"/><path class="cls-3" d="M431.63,760.78l34.21-77h17.6l34.54,77h-18.7L471,692.8h7.15l-28.27,68Zm17.27-16.5,4.51-13.53h39.82l4.62,13.53Z"/><path class="cls-3" d="M573.09,760.78V698.3H548.45V683.78h67.1V698.3H590.91v62.48Z"/><path class="cls-3" d="M658,762.1q-16.39,0-25.63-9.13t-9.24-26.18v-43h17.93v42.57q0,10.89,4.51,15.78t12.54,4.9q8.13,0,12.65-4.9t4.51-15.78V683.78h17.49v43q0,17.06-9.24,26.18T658,762.1Z"/><path class="cls-3" d="M741.61,760.78v-77h17.93v77Z"/><path class="cls-3" d="M777.69,760.78v-77h14.74l45.43,55.44h-7.15V683.78H848.3v77H833.56l-45.43-55.44h7.16v55.44Z"/><path class="cls-3" d="M866.56,760.78v-77H884.5v77Z"/><path class="cls-3" d="M939.49,762.1a45.93,45.93,0,0,1-16.55-2.92,38.38,38.38,0,0,1-22-20.95,42.08,42.08,0,0,1,0-31.9,38.07,38.07,0,0,1,8.8-12.65,39.55,39.55,0,0,1,13.31-8.31,48.94,48.94,0,0,1,34.7.55,35.14,35.14,0,0,1,13.64,10.18l-11.55,10.56a26.06,26.06,0,0,0-8.74-6.82,24.58,24.58,0,0,0-10.62-2.31,26.3,26.3,0,0,0-9.9,1.81,22.87,22.87,0,0,0-12.92,12.93,28.44,28.44,0,0,0,0,20,22.81,22.81,0,0,0,12.92,12.92,26.31,26.31,0,0,0,9.9,1.82,24.06,24.06,0,0,0,10.62-2.37,26.61,26.61,0,0,0,8.74-6.87l11.55,10.56a35.65,35.65,0,0,1-13.64,10.23A45.47,45.47,0,0,1,939.49,762.1Z"/><path class="cls-3" d="M983.27,760.78v-77h17.93v77Z"/><path class="cls-3" d="M1009.23,760.78l34.21-77H1061l34.54,77h-18.7l-28.27-68h7.15l-28.27,68Zm17.27-16.5,4.51-13.53h39.82l4.62,13.53Z"/><path class="cls-3" d="M1103.61,760.78v-77h17.93v62.48h38.39v14.52Z"/><path class="cls-5" d="M597.23,893.19a7.47,7.47,0,0,1,11.46-6.31h0c.15.09,14,8.73,35.68,13.74v-70a7.47,7.47,0,0,1,7.47-7.46H696.5a7.47,7.47,0,0,1,7.47,7.46v70.16a136.25,136.25,0,0,0,36-14.13,7.47,7.47,0,0,1,8.94,11.79l-69.47,69.47a7.46,7.46,0,0,1-10.56,0l-69.47-69.47a7.45,7.45,0,0,1-2.19-5.28Zm62.08-55.07v71.59a7.47,7.47,0,0,1-8.68,7.37c-5.21-.86-10.09-1.94-14.62-3.14l38.16,38.16,37.93-37.93a140.74,140.74,0,0,1-14.42,3.09,7.45,7.45,0,0,1-8.65-7.37V838.12Z"/><path class="cls-6" d="M598.89,895.24a7.47,7.47,0,0,1,11.46-6.31h0c.15.1,14,8.73,35.69,13.74v-70a7.46,7.46,0,0,1,7.46-7.47h44.66a7.47,7.47,0,0,1,7.47,7.47v70.16a136.93,136.93,0,0,0,36-14.13,7.46,7.46,0,0,1,8.94,11.78L681.11,970a7.48,7.48,0,0,1-10.56,0l-69.47-69.48a7.45,7.45,0,0,1-2.19-5.28ZM661,840.18v71.59a7.47,7.47,0,0,1-8.68,7.37c-5.21-.86-10.1-1.95-14.62-3.15l38.16,38.16,37.93-37.92a143.46,143.46,0,0,1-14.42,3.09,7.48,7.48,0,0,1-8.65-7.37V840.18Z"/><path class="cls-7" d="M675.83,964.71l69.47-69.47A141.35,141.35,0,0,1,698.16,912V832.71H653.5v79.06c-28.54-4.72-47.14-16.53-47.14-16.53Z"/></svg>