<svg id="Capa_1" data-name="Capa 1" xmlns="http://www.w3.org/2000/svg" xmlns:xlink="http://www.w3.org/1999/xlink" viewBox="0 0 1350 1080"><defs><style>.cls-1{fill:#ea6012;}.cls-2{fill:#fff;}.cls-3{fill:url(#Degradado_sin_nombre_5);}.cls-4{fill:url(#linear-gradient);}.cls-5{fill:url(#linear-gradient-2);}.cls-6{fill:url(#Degradado_sin_nombre_5-2);}</style><linearGradient id="Degradado_sin_nombre_5" x1="150.64" y1="763.79" x2="1199.36" y2="763.79" gradientUnits="userSpaceOnUse"><stop offset="0" stop-color="#ffdd0d"/><stop offset="1" stop-color="#f39200"/></linearGradient><linearGradient id="linear-gradient" x1="2800.2" y1="-1272.09" x2="2915.77" y2="-1347.15" gradientTransform="translate(-637.18 -1967.46) rotate(90)" gradientUnits="userSpaceOnUse"><stop offset="0" stop-color="#959698"/><stop offset="0.03" stop-color="#9e9ea0"/><stop offset="0.11" stop-color="#b4b3b3"/><stop offset="0.21" stop-color="#c5c3c2"/><stop offset="0.34" stop-color="#d0cecc"/><stop offset="0.51" stop-color="#d7d4d2"/><stop offset="1" stop-color="#d9d6d4"/></linearGradient><linearGradient id="linear-gradient-2" x1="2792.69" y1="-1313.01" x2="2939.64" y2="-1313.01" gradientTransform="translate(-637.18 -1967.46) rotate(90)" gradientUnits="userSpaceOnUse"><stop offset="0" stop-color="#f2f1f1"/><stop offset="1" stop-color="#d9d6d4"/></linearGradient><linearGradient id="Degradado_sin_nombre_5-2" x1="2808.52" y1="-1277.82" x2="2911.56" y2="-1344.74" gradientTransform="translate(-637.18 -1967.46) rotate(90)" xlink:href="#Degradado_sin_nombre_5"/></defs><rect class="cls-1" y="-1.7" width="1356.09" height="1081.7"/><rect class="cls-2" x="660.8" y="333.67" width="14.32" height="10.31"/><rect class="cls-2" x="679.71" y="333.67" width="14.32" height="10.31"/><rect class="cls-2" x="660.8" y="347.42" width="14.32" height="10.31"/><rect class="cls-2" x="679.71" y="347.42" width="14.32" height="10.31"/><polygon class="cls-2" points="712.54 381.45 733.68 381.45 733.68 479.61 781.3 479.61 781.3 497.32 712.54 497.32 712.54 381.45"/><path class="cls-2" d="M874.14,454.68c0,30.78-21.66,44.53-43,44.53-23.73,0-41.95-16.33-41.95-43.15,0-27.51,18-44.36,43.32-44.36,24.93,0,41.61,17.54,41.61,43m-63.1.86c0,16.16,7.91,28.37,20.8,28.37,12,0,20.46-11.86,20.46-28.71,0-13.07-5.84-28-20.28-28-15,0-21,14.44-21,28.36"/><path class="cls-2" d="M915.73,389.7v23.89h20.12v15.82H915.73v37c0,10.15,2.75,15.47,10.83,15.47a31.05,31.05,0,0,0,8.25-1l.35,16.16c-3.1,1.21-8.6,2.07-15.3,2.07-7.74,0-14.27-2.58-18.22-6.88-4.47-4.81-6.54-12.38-6.54-23.38V429.41h-12V413.59h12V394.68Z"/><path class="cls-2" d="M965.76,461.39c.51,15.13,12.37,21.66,25.78,21.66,9.8,0,16.85-1.38,23.21-3.78l3.1,14.61A78.89,78.89,0,0,1,988.62,499c-27.16,0-43.15-16.68-43.15-42.29,0-23.21,14.1-45.05,40.92-45.05,27.16,0,36.1,22.35,36.1,40.75a52.42,52.42,0,0,1-.69,8.94Zm36.79-14.79c.17-7.73-3.27-20.45-17.37-20.45-13.06,0-18.56,11.86-19.42,20.45Z"/><path class="cls-2" d="M1038.47,477.89a47.17,47.17,0,0,0,21.49,6c9.28,0,13.41-3.79,13.41-9.28,0-5.68-3.44-8.6-13.75-12.21-16.34-5.68-23.21-14.61-23-24.41,0-14.79,12.21-26.31,31.63-26.31,9.29,0,17.36,2.41,22.18,5l-4.13,15a37.49,37.49,0,0,0-17.71-4.82c-7.56,0-11.69,3.61-11.69,8.77,0,5.33,4,7.91,14.62,11.69,15.13,5.5,22.18,13.24,22.35,25.62,0,15.12-11.87,26.13-34,26.13-10.15,0-19.26-2.41-25.44-5.85Z"/><path class="cls-2" d="M398.74,493.88c-5,2.58-16,5.16-29.92,5.16-36.79,0-59.13-23-59.13-58.28,0-38.17,26.47-61.21,61.88-61.21,13.93,0,23.9,2.93,28.2,5.16l-4.64,16.85a56.3,56.3,0,0,0-22.7-4.47c-23.55,0-40.57,14.79-40.57,42.64,0,25.44,15,41.77,40.4,41.77,8.6,0,17.54-1.72,23-4.3Z"/><path class="cls-2" d="M415.41,440.59c0-4.85,0-9.11-.11-13a13.74,13.74,0,0,1,13.72-14h3.59a.54.54,0,0,1,.53.51l.66,15.48h.69c4.13-11.86,13.93-17.88,22.87-17.88a21.82,21.82,0,0,1,5,.52v19.94a29.64,29.64,0,0,0-6.19-.69c-10.14,0-17,6.54-18.91,16a36.66,36.66,0,0,0-.69,6.53v43.33H415.41Z"/><path class="cls-2" d="M490,461.39c.52,15.13,12.38,21.66,25.79,21.66,9.8,0,16.85-1.38,23.21-3.78l3.09,14.61A78.87,78.87,0,0,1,512.88,499c-27.16,0-43.15-16.68-43.15-42.29,0-23.21,14.1-45.05,40.91-45.05,27.17,0,36.11,22.35,36.11,40.75a52.42,52.42,0,0,1-.69,8.94ZM526.8,446.6c.18-7.73-3.26-20.45-17.36-20.45-13.07,0-18.57,11.86-19.43,20.45Z"/><path class="cls-2" d="M631.18,381.45a11.49,11.49,0,0,1,11.49,11.49v80.83c0,8.59.34,17.87.69,23.55H632a8.1,8.1,0,0,1-8.08-7.57l-.36-5.67h-.35c-5,9.28-15.13,15.13-27.33,15.13-19.94,0-35.76-17-35.76-42.81-.17-28,17.36-44.7,37.48-44.7,11.52,0,19.77,4.82,23.55,11h.34V381.45Zm-9.66,67A30.1,30.1,0,0,0,621,443c-1.89-8.25-8.6-14.95-18.23-14.95-13.58,0-21.14,12-21.14,27.67,0,15.3,7.56,26.48,21,26.48a18.66,18.66,0,0,0,18.23-15,23.78,23.78,0,0,0,.68-6.19Z"/><path class="cls-2" d="M668.79,497.32v-73a10.72,10.72,0,0,1,10.71-10.71h10.61v83.73Z"/><path class="cls-2" d="M755.31,324.44,677.61,270l-78.55,54.44a3.61,3.61,0,0,0,2.09,6.57l20.24-.19v39h21.29V329.56h-7a1.69,1.69,0,0,1-1-3.08L677.61,297l42.85,29.48a1.68,1.68,0,0,1-.94,3.08h-7v40.21h21.28v-39l19.39.19a3.6,3.6,0,0,0,2.1-6.55"/><path class="cls-3" d="M1199.18,755.87V677.66a44.66,44.66,0,0,0-44.53-44.53H195.28a44.66,44.66,0,0,0-44.53,44.53v79.52c-1.13,28.16,6.07,58.71,27.16,69,99.5,48.47,357.28-55.85,420.88,18.1,19.92,23.17,44.85,50.19,68.29,50.19,20.5,0,47.34-24.54,74.92-51.73,83.15-82,380.08,50,442.9-32.31C1197.68,793.67,1200.13,778.61,1199.18,755.87Z"/><path class="cls-2" d="M198.21,760.78v-77h33.33a43.43,43.43,0,0,1,17.82,3.35,26.09,26.09,0,0,1,11.55,9.63,26.72,26.72,0,0,1-11.55,39.38,42.76,42.76,0,0,1-17.82,3.41H208l8.14-8v29.26Zm17.93-27.28L208,725h22.55q8.14,0,12.32-3.52t4.18-9.9q0-6.37-4.18-9.85t-12.32-3.46H208l8.14-8.47Z"/><path class="cls-2" d="M263.66,760.78l34.21-77h17.6l34.54,77h-18.7L303,692.8h7.15l-28.27,68Zm17.27-16.5,4.51-13.53h39.82l4.62,13.53Z"/><path class="cls-2" d="M394.12,762.1a47,47,0,0,1-16.83-2.92,38.27,38.27,0,0,1-22.05-20.95,42.08,42.08,0,0,1,0-31.9,37.77,37.77,0,0,1,8.85-12.65,40.14,40.14,0,0,1,13.42-8.31,51.15,51.15,0,0,1,35.37.5,36.42,36.42,0,0,1,13.8,9.9l-11.33,10.56a28.35,28.35,0,0,0-9.24-6.66,27.1,27.1,0,0,0-10.89-2.14,27.43,27.43,0,0,0-10.12,1.81,23.38,23.38,0,0,0-8,5.12,22.63,22.63,0,0,0-5.17,7.81,28,28,0,0,0,0,19.85,22.51,22.51,0,0,0,5.17,7.87,24.2,24.2,0,0,0,7.92,5.17A26.2,26.2,0,0,0,395.11,747a30.91,30.91,0,0,0,10.29-1.76,30.55,30.55,0,0,0,9.73-5.83l10.12,12.87a45.56,45.56,0,0,1-14.63,7.31A57.17,57.17,0,0,1,394.12,762.1ZM409,750V721.07h16.28v31.24Z"/><path class="cls-2" d="M431.63,760.78l34.21-77h17.6l34.54,77h-18.7L471,692.8h7.15l-28.27,68Zm17.27-16.5,4.51-13.53h39.82l4.62,13.53Z"/><path class="cls-2" d="M573.09,760.78V698.3H548.45V683.78h67.1V698.3H590.91v62.48Z"/><path class="cls-2" d="M658,762.1q-16.39,0-25.63-9.13t-9.24-26.18v-43h17.93v42.57q0,10.89,4.51,15.78t12.54,4.9q8.13,0,12.65-4.9t4.51-15.78V683.78h17.49v43q0,17.06-9.24,26.18T658,762.1Z"/><path class="cls-2" d="M741.61,760.78v-77h17.93v77Z"/><path class="cls-2" d="M777.69,760.78v-77h14.74l45.43,55.44h-7.15V683.78h17.6v77H833.57l-45.43-55.44h7.15v55.44Z"/><path class="cls-2" d="M866.57,760.78v-77H884.5v77Z"/><path class="cls-2" d="M939.49,762.1a45.93,45.93,0,0,1-16.55-2.92,38.38,38.38,0,0,1-22-20.95,42.08,42.08,0,0,1,0-31.9,38.07,38.07,0,0,1,8.8-12.65,39.55,39.55,0,0,1,13.31-8.31,48.94,48.94,0,0,1,34.7.55,35.14,35.14,0,0,1,13.64,10.18l-11.55,10.56a26.06,26.06,0,0,0-8.74-6.82,24.58,24.58,0,0,0-10.62-2.31,26.3,26.3,0,0,0-9.9,1.81,22.87,22.87,0,0,0-12.92,12.93,28.44,28.44,0,0,0,0,20,22.81,22.81,0,0,0,12.92,12.92,26.31,26.31,0,0,0,9.9,1.82,24.06,24.06,0,0,0,10.62-2.37,26.61,26.61,0,0,0,8.74-6.87l11.55,10.56a35.65,35.65,0,0,1-13.64,10.23A45.47,45.47,0,0,1,939.49,762.1Z"/><path class="cls-2" d="M983.27,760.78v-77h17.93v77Z"/><path class="cls-2" d="M1009.23,760.78l34.21-77H1061l34.54,77h-18.7l-28.27-68h7.15l-28.27,68Zm17.27-16.5,4.51-13.53h39.82l4.62,13.53Z"/><path class="cls-2" d="M1103.61,760.78v-77h17.93v62.48h38.39v14.52Z"/><path class="cls-4" d="M597.23,893.19a7.47,7.47,0,0,1,11.46-6.31h0c.15.09,14,8.73,35.68,13.74v-70a7.47,7.47,0,0,1,7.47-7.46H696.5a7.47,7.47,0,0,1,7.47,7.46v70.16a136.25,136.25,0,0,0,36-14.13,7.47,7.47,0,0,1,8.94,11.79l-69.47,69.47a7.46,7.46,0,0,1-10.56,0l-69.47-69.47a7.45,7.45,0,0,1-2.19-5.28Zm62.08-55.07v71.59a7.47,7.47,0,0,1-8.68,7.37c-5.21-.86-10.09-1.94-14.62-3.14l38.16,38.16,37.93-37.93a140.74,140.74,0,0,1-14.42,3.09,7.45,7.45,0,0,1-8.65-7.37V838.12Z"/><path class="cls-5" d="M598.89,895.24a7.47,7.47,0,0,1,11.46-6.31h0c.15.1,14,8.73,35.69,13.74v-70a7.46,7.46,0,0,1,7.46-7.47h44.66a7.47,7.47,0,0,1,7.47,7.47v70.16a136.93,136.93,0,0,0,36-14.13,7.46,7.46,0,0,1,8.94,11.78L681.11,970a7.48,7.48,0,0,1-10.56,0l-69.47-69.48a7.45,7.45,0,0,1-2.19-5.28ZM661,840.18v71.59a7.47,7.47,0,0,1-8.68,7.37c-5.21-.86-10.1-1.95-14.62-3.15l38.16,38.16,37.93-37.92a143.46,143.46,0,0,1-14.42,3.09,7.48,7.48,0,0,1-8.65-7.37V840.18Z"/><path class="cls-6" d="M675.83,964.71l69.47-69.47A141.35,141.35,0,0,1,698.16,912V832.71H653.5v79.06c-28.54-4.72-47.14-16.53-47.14-16.53Z"/></svg>