<svg id="Capa_1" data-name="Capa 1" xmlns="http://www.w3.org/2000/svg" xmlns:xlink="http://www.w3.org/1999/xlink" viewBox="0 0 1350 1080"><defs><style>.cls-1{fill:url(#Degradado_sin_nombre_6);}.cls-2{fill:url(#Degradado_sin_nombre_5);}.cls-3{fill:#fff;}.cls-4{fill:url(#linear-gradient);}.cls-5{fill:url(#linear-gradient-2);}.cls-6{fill:url(#Degradado_sin_nombre_5-2);}.cls-7{fill:#706f6e;}.cls-8{fill:#17622d;}.cls-9{fill:#057d36;}.cls-10{fill:#026634;}.cls-11{fill:#f19001;}.cls-12{fill:#683b13;}</style><radialGradient id="Degradado_sin_nombre_6" cx="629.78" cy="540.85" r="754.56" gradientTransform="translate(41.89 -333.66) scale(1.01 1.62)" gradientUnits="userSpaceOnUse"><stop offset="0" stop-color="#fff"/><stop offset="0.12" stop-color="#fbfdfc"/><stop offset="0.25" stop-color="#eff5f2"/><stop offset="0.38" stop-color="#dbe9e2"/><stop offset="0.5" stop-color="#bed8cb"/><stop offset="0.63" stop-color="#9ac2ae"/><stop offset="0.76" stop-color="#6da78a"/><stop offset="0.88" stop-color="#398760"/><stop offset="1" stop-color="#026634"/></radialGradient><linearGradient id="Degradado_sin_nombre_5" x1="150.64" y1="763.79" x2="1199.36" y2="763.79" gradientUnits="userSpaceOnUse"><stop offset="0" stop-color="#ffdd0d"/><stop offset="1" stop-color="#f39200"/></linearGradient><linearGradient id="linear-gradient" x1="60.2" y1="-4012.09" x2="175.77" y2="-4087.15" gradientTransform="translate(-3377.18 772.54) rotate(90)" gradientUnits="userSpaceOnUse"><stop offset="0" stop-color="#959698"/><stop offset="0.03" stop-color="#9e9ea0"/><stop offset="0.11" stop-color="#b4b3b3"/><stop offset="0.21" stop-color="#c5c3c2"/><stop offset="0.34" stop-color="#d0cecc"/><stop offset="0.51" stop-color="#d7d4d2"/><stop offset="1" stop-color="#d9d6d4"/></linearGradient><linearGradient id="linear-gradient-2" x1="52.69" y1="-4053.01" x2="199.64" y2="-4053.01" gradientTransform="translate(-3377.18 772.54) rotate(90)" gradientUnits="userSpaceOnUse"><stop offset="0" stop-color="#f2f1f1"/><stop offset="1" stop-color="#d9d6d4"/></linearGradient><linearGradient id="Degradado_sin_nombre_5-2" x1="68.52" y1="-4017.82" x2="171.56" y2="-4084.74" gradientTransform="translate(-3377.18 772.54) rotate(90)" xlink:href="#Degradado_sin_nombre_5"/></defs><rect class="cls-1" width="1356.09" height="1081.7"/><path class="cls-2" d="M1199.18,755.87V677.66a44.66,44.66,0,0,0-44.53-44.53H195.28a44.66,44.66,0,0,0-44.53,44.53v79.52c-1.13,28.16,6.07,58.71,27.16,69,99.5,48.47,357.28-55.85,420.88,18.1,19.92,23.17,44.85,50.19,68.29,50.19,20.5,0,47.34-24.54,74.92-51.73,83.15-82,380.08,50,442.9-32.31C1197.68,793.67,1200.13,778.61,1199.18,755.87Z"/><path class="cls-3" d="M198.21,760.78v-77h33.33a43.43,43.43,0,0,1,17.82,3.35,26.09,26.09,0,0,1,11.55,9.63,26.72,26.72,0,0,1-11.55,39.38,42.76,42.76,0,0,1-17.82,3.41H208l8.14-8v29.26Zm17.93-27.28L208,725h22.55q8.14,0,12.32-3.52t4.18-9.9q0-6.37-4.18-9.85t-12.32-3.46H208l8.14-8.47Z"/><path class="cls-3" d="M263.66,760.78l34.21-77h17.6l34.54,77h-18.7L303,692.8h7.15l-28.27,68Zm17.27-16.5,4.51-13.53h39.82l4.62,13.53Z"/><path class="cls-3" d="M394.12,762.1a47,47,0,0,1-16.83-2.92,38.27,38.27,0,0,1-22.05-20.95,42.08,42.08,0,0,1,0-31.9,37.77,37.77,0,0,1,8.85-12.65,40.14,40.14,0,0,1,13.42-8.31,51.15,51.15,0,0,1,35.37.5,36.42,36.42,0,0,1,13.8,9.9l-11.33,10.56a28.35,28.35,0,0,0-9.24-6.66,27.1,27.1,0,0,0-10.89-2.14,27.43,27.43,0,0,0-10.12,1.81,23.52,23.52,0,0,0-8,5.12,22.75,22.75,0,0,0-5.16,7.81,28,28,0,0,0,0,19.85,22.62,22.62,0,0,0,5.16,7.87,24.42,24.42,0,0,0,7.92,5.17A26.28,26.28,0,0,0,395.11,747a30.91,30.91,0,0,0,10.29-1.76,30.55,30.55,0,0,0,9.73-5.83l10.12,12.87a45.56,45.56,0,0,1-14.63,7.31A57.17,57.17,0,0,1,394.12,762.1ZM409,750V721.07h16.28v31.24Z"/><path class="cls-3" d="M431.63,760.78l34.21-77h17.6l34.54,77h-18.7L471,692.8h7.15l-28.27,68Zm17.27-16.5,4.51-13.53h39.82l4.62,13.53Z"/><path class="cls-3" d="M573.09,760.78V698.3H548.45V683.78h67.1V698.3H590.91v62.48Z"/><path class="cls-3" d="M658,762.1q-16.39,0-25.63-9.13t-9.24-26.18v-43h17.93v42.57q0,10.89,4.51,15.78t12.54,4.9q8.13,0,12.65-4.9t4.51-15.78V683.78h17.49v43q0,17.06-9.24,26.18T658,762.1Z"/><path class="cls-3" d="M741.61,760.78v-77h17.93v77Z"/><path class="cls-3" d="M777.69,760.78v-77h14.74l45.43,55.44h-7.15V683.78H848.3v77H833.56l-45.43-55.44h7.16v55.44Z"/><path class="cls-3" d="M866.56,760.78v-77H884.5v77Z"/><path class="cls-3" d="M939.49,762.1a45.93,45.93,0,0,1-16.55-2.92,38.38,38.38,0,0,1-22-20.95,42.08,42.08,0,0,1,0-31.9,38.07,38.07,0,0,1,8.8-12.65,39.55,39.55,0,0,1,13.31-8.31,48.94,48.94,0,0,1,34.7.55,35.14,35.14,0,0,1,13.64,10.18l-11.55,10.56a26.06,26.06,0,0,0-8.74-6.82,24.58,24.58,0,0,0-10.62-2.31,26.3,26.3,0,0,0-9.9,1.81,22.87,22.87,0,0,0-12.92,12.93,28.44,28.44,0,0,0,0,20,22.81,22.81,0,0,0,12.92,12.92,26.31,26.31,0,0,0,9.9,1.82,24.06,24.06,0,0,0,10.62-2.37,26.61,26.61,0,0,0,8.74-6.87l11.55,10.56a35.65,35.65,0,0,1-13.64,10.23A45.47,45.47,0,0,1,939.49,762.1Z"/><path class="cls-3" d="M983.27,760.78v-77h17.93v77Z"/><path class="cls-3" d="M1009.23,760.78l34.21-77H1061l34.54,77h-18.7l-28.27-68h7.15l-28.27,68Zm17.27-16.5,4.51-13.53h39.82l4.62,13.53Z"/><path class="cls-3" d="M1103.61,760.78v-77h17.93v62.48h38.39v14.52Z"/><path class="cls-4" d="M597.23,893.19a7.47,7.47,0,0,1,11.46-6.31h0c.15.09,14,8.73,35.68,13.74v-70a7.47,7.47,0,0,1,7.47-7.46H696.5a7.47,7.47,0,0,1,7.47,7.46v70.16a136.25,136.25,0,0,0,36-14.13,7.47,7.47,0,0,1,8.94,11.79l-69.47,69.47a7.46,7.46,0,0,1-10.56,0l-69.47-69.47a7.45,7.45,0,0,1-2.19-5.28Zm62.08-55.07v71.59a7.47,7.47,0,0,1-8.68,7.37c-5.21-.86-10.09-1.94-14.62-3.14l38.16,38.16,37.93-37.93a140.74,140.74,0,0,1-14.42,3.09,7.45,7.45,0,0,1-8.65-7.37V838.12Z"/><path class="cls-5" d="M598.89,895.24a7.47,7.47,0,0,1,11.46-6.31h0c.15.1,14,8.73,35.69,13.74v-70a7.46,7.46,0,0,1,7.46-7.47h44.66a7.47,7.47,0,0,1,7.47,7.47v70.16a136.93,136.93,0,0,0,36-14.13,7.46,7.46,0,0,1,8.94,11.78L681.11,970a7.48,7.48,0,0,1-10.56,0l-69.47-69.48a7.45,7.45,0,0,1-2.19-5.28ZM661,840.18v71.59a7.47,7.47,0,0,1-8.68,7.37c-5.21-.86-10.1-1.95-14.62-3.15l38.16,38.16,37.93-37.92a143.46,143.46,0,0,1-14.42,3.09,7.48,7.48,0,0,1-8.65-7.37V840.18Z"/><path class="cls-6" d="M675.83,964.71l69.47-69.47A141.35,141.35,0,0,1,698.16,912V832.71H653.5v79.06c-28.54-4.72-47.14-16.53-47.14-16.53Z"/><path class="cls-7" d="M571.86,481.75h5.37v18.42c0,3.63-.73,6.31-2.19,8q-2.94,3.48-8.87,3.48a15.75,15.75,0,0,1-5.32-.79,9.29,9.29,0,0,1-5.83-6.05h6a4.91,4.91,0,0,0,2,1.37,8.39,8.39,0,0,0,2.94.47,7.87,7.87,0,0,0,3.5-.67,4.13,4.13,0,0,0,1.87-1.74,8.87,8.87,0,0,0,.54-3.68,9,9,0,0,1-3,2.05,10.21,10.21,0,0,1-10.85-2.5,12.1,12.1,0,0,1,.18-16.13,9.41,9.41,0,0,1,6.83-2.8,9.18,9.18,0,0,1,3.51.68,11.07,11.07,0,0,1,3.31,2.24Zm-5.59,4.49a5.62,5.62,0,0,0-4.21,1.71,5.9,5.9,0,0,0-1.66,4.29,6,6,0,0,0,1.7,4.41,5.73,5.73,0,0,0,4.27,1.72,5.53,5.53,0,0,0,4.14-1.68,6.09,6.09,0,0,0,1.63-4.41,6,6,0,0,0-1.64-4.36A5.67,5.67,0,0,0,566.27,486.24Z"/><path class="cls-7" d="M581.42,481.75h4.63v2.71a5.72,5.72,0,0,1,2-2.43,4.77,4.77,0,0,1,2.73-.83,5,5,0,0,1,2.19.55l-1.68,4.64a3.76,3.76,0,0,0-1.56-.47,2.46,2.46,0,0,0-2.1,1.54c-.58,1-.86,3.05-.86,6.05l0,1.05v8.69h-5.36Z"/><path class="cls-7" d="M605.73,481.2a11.45,11.45,0,0,1,5.72,1.52,11,11,0,0,1,4.18,4.13,11.12,11.12,0,0,1,1.5,5.63,11.25,11.25,0,0,1-1.51,5.69,10.85,10.85,0,0,1-4.12,4.14,11.34,11.34,0,0,1-5.75,1.49,10.72,10.72,0,0,1-7.9-3.29,11.39,11.39,0,0,1,.43-16.39A10.78,10.78,0,0,1,605.73,481.2Zm.09,5.08a5.55,5.55,0,0,0-4.19,1.75A6.16,6.16,0,0,0,600,492.5a6.35,6.35,0,0,0,1.65,4.55,5.94,5.94,0,0,0,8.4,0,6.32,6.32,0,0,0,1.69-4.53A6.24,6.24,0,0,0,610,488,5.56,5.56,0,0,0,605.82,486.28Z"/><path class="cls-7" d="M642.58,486.1l-4.49,2.47a6.63,6.63,0,0,0-5.4-2.35,6.77,6.77,0,0,0-4.9,1.8,6.19,6.19,0,0,0-1.87,4.63,6,6,0,0,0,1.8,4.48,6.56,6.56,0,0,0,4.73,1.73,6.88,6.88,0,0,0,5.64-2.47l4.25,2.92a11.61,11.61,0,0,1-9.76,4.49q-5.67,0-8.88-3.36a11.17,11.17,0,0,1,2.71-17.74,13,13,0,0,1,6.25-1.5,12.69,12.69,0,0,1,5.75,1.27A10.9,10.9,0,0,1,642.58,486.1Z"/><path class="cls-7" d="M649.55,472.9a3.29,3.29,0,0,1,2.43,1,3.55,3.55,0,0,1,0,4.95,3.28,3.28,0,0,1-2.4,1,3.32,3.32,0,0,1-2.46-1,3.5,3.5,0,0,1-1-2.52,3.43,3.43,0,0,1,3.43-3.44Zm-2.7,8.85h5.39v21.5h-5.39Z"/><path class="cls-7" d="M667.24,481.2a11.42,11.42,0,0,1,5.72,1.52,10.91,10.91,0,0,1,4.18,4.13,11.12,11.12,0,0,1,1.5,5.63,11.25,11.25,0,0,1-1.51,5.69,10.85,10.85,0,0,1-4.12,4.14,11.34,11.34,0,0,1-5.75,1.49,10.69,10.69,0,0,1-7.89-3.29,11.32,11.32,0,0,1,7.87-19.31Zm.09,5.08a5.55,5.55,0,0,0-4.19,1.75,6.2,6.2,0,0,0-1.67,4.47,6.35,6.35,0,0,0,1.65,4.55,6,6,0,0,0,8.41,0,6.31,6.31,0,0,0,1.68-4.53,6.23,6.23,0,0,0-1.65-4.49A5.58,5.58,0,0,0,667.33,486.28Z"/><path class="cls-8" d="M688.4,481.75v2.37a10.27,10.27,0,0,1,3.17-2.19,9,9,0,0,1,3.63-.73,9.37,9.37,0,0,1,7.15,3.18,11.51,11.51,0,0,1,2.95,8.16,11.29,11.29,0,0,1-3,8A9.58,9.58,0,0,1,695,503.8a9,9,0,0,1-3.45-.66A10.59,10.59,0,0,1,688.4,501v10.13h-5.35V481.75Zm5.67,4.43a5.63,5.63,0,0,0-4.22,1.74,6.26,6.26,0,0,0-1.68,4.54,6.43,6.43,0,0,0,1.68,4.63,5.58,5.58,0,0,0,4.22,1.77,5.49,5.49,0,0,0,4.16-1.79,6.42,6.42,0,0,0,1.69-4.59,6.34,6.34,0,0,0-1.66-4.53A5.48,5.48,0,0,0,694.07,486.18Z"/><path class="cls-8" d="M708.5,481.75h4.62v2.71a5.74,5.74,0,0,1,2-2.43,4.77,4.77,0,0,1,2.73-.83,5,5,0,0,1,2.19.55l-1.68,4.64a3.76,3.76,0,0,0-1.56-.47,2.48,2.48,0,0,0-2.11,1.54q-.86,1.55-.86,6.05l0,1.05v8.69H708.5Z"/><path class="cls-8" d="M738.57,481.75H744v21.5h-5.4V501a10.49,10.49,0,0,1-3.16,2.16,8.91,8.91,0,0,1-3.45.66,9.54,9.54,0,0,1-7.2-3.23,11.24,11.24,0,0,1-3-8,11.55,11.55,0,0,1,2.94-8.16,9.37,9.37,0,0,1,7.15-3.18,9.09,9.09,0,0,1,3.63.73,10,10,0,0,1,3.13,2.19Zm-5.67,4.43a5.44,5.44,0,0,0-4.15,1.77,6.39,6.39,0,0,0-1.66,4.53,6.47,6.47,0,0,0,1.69,4.59,5.47,5.47,0,0,0,4.14,1.79,5.56,5.56,0,0,0,4.22-1.77,6.46,6.46,0,0,0,1.67-4.63,6.29,6.29,0,0,0-1.67-4.54A5.64,5.64,0,0,0,732.9,486.18Z"/><path class="cls-8" d="M765.29,473.45h5.4v29.8h-5.4V501a10.52,10.52,0,0,1-3.17,2.16,8.86,8.86,0,0,1-3.44.66,9.56,9.56,0,0,1-7.21-3.23,11.29,11.29,0,0,1-3-8,11.55,11.55,0,0,1,3-8.16,9.36,9.36,0,0,1,7.14-3.18,9,9,0,0,1,3.63.73,10,10,0,0,1,3.14,2.19Zm-5.67,12.73a5.46,5.46,0,0,0-4.16,1.77,6.38,6.38,0,0,0-1.65,4.53,6.46,6.46,0,0,0,1.68,4.59,5.8,5.8,0,0,0,8.36,0,6.43,6.43,0,0,0,1.68-4.63,6.26,6.26,0,0,0-1.68-4.54A5.6,5.6,0,0,0,759.62,486.18Z"/><path class="cls-8" d="M786.24,481.2a11.47,11.47,0,0,1,5.72,1.52,11.15,11.15,0,0,1,5.68,9.76,11.35,11.35,0,0,1-1.51,5.69,10.92,10.92,0,0,1-4.12,4.14,11.35,11.35,0,0,1-5.76,1.49,10.69,10.69,0,0,1-7.89-3.29,11.39,11.39,0,0,1,.43-16.39A10.78,10.78,0,0,1,786.24,481.2Zm.08,5.08a5.53,5.53,0,0,0-4.18,1.75,6.16,6.16,0,0,0-1.67,4.47,6.35,6.35,0,0,0,1.65,4.55,5.94,5.94,0,0,0,8.4,0,6.31,6.31,0,0,0,1.68-4.53,6.23,6.23,0,0,0-1.65-4.49A5.56,5.56,0,0,0,786.32,486.28Z"/><path class="cls-9" d="M707.85,455c-2.29-1.2-5.14-1.88-6.78-3.67q-42.21-46.19-104.53-50.79c-6.29-.46-8.41-3.09-9.93-8.57a98.45,98.45,0,0,1,8-73.79c14.91-28.28,32.42-55.22,49.42-82.35,10.13-16.18,21.43-31.63,33.51-49.31,27,43.82,54.73,86.38,79.74,130.48,13,22.93,15.73,49.1,8.41,75.45-1.45,5.21-3.52,7.77-9.41,8.07-22.69,1.16-44,7.53-64,18.28-2.06,1.1-5,.48-7.75-.54,18.17-12.06,37.68-19.87,59-21.8,8.19-.75,11.62-4.15,13.64-11.75,6.84-25.72,2.4-50.36-10-72.66-15.8-28.49-34.18-55.56-51.66-83.11-5.93-9.33-12.51-18.26-19.39-28.24-14.07,20.27-28.29,39-40.56,58.94-13.07,21.23-25.43,43.07-36,65.64-8.6,18.45-9.67,38.57-4.66,58.81,2,7.93,5.49,11.31,14,12.39,38.65,4.93,70.59,23.08,96.84,51.6a45.39,45.39,0,0,1,3.39,4.76Z"/><path class="cls-10" d="M746.89,387.68c-25.4,3.68-47.47,11.32-67.95,23.44-1.26.75-3.62,1.05-4.77.37a174.64,174.64,0,0,0-68.71-23.65c20.92-17.17,43.22-24.77,67.67-26,2.74-11.41,1.25-13.69-9.36-15.05-16.84-2.16-24.32-10.46-23.89-28,10.6,7.84,27.2,1.59,34.16,17.86l-17.88-6.44-1.9,1.93c18.56,5.91,26.65,17.92,22.83,34.29,4.68-1.18,9.29-3.64,13.62-3.22C711.11,365.22,729,373.51,746.89,387.68Z"/><path class="cls-11" d="M676.26,214.59c4.64,6.77,9,12.92,13.1,19.25a9.62,9.62,0,0,1,1.59,5.69c-1.55,15.42-3.35,30.81-5.11,46.57H666.63c-1.76-15.66-4.25-31-4.78-46.45-.17-5,4.68-10.19,7.52-15.13C671.25,221.26,673.66,218.3,676.26,214.59Z"/><path class="cls-11" d="M692.29,287.36c2.71-12,5.35-23.77,8.49-37.69,7.4,11,15.34,19.93,19.59,30.36,2,5-3,12.77-4.94,19.53Z"/><path class="cls-11" d="M659.9,287.35,638.68,298.6c-9.45-12.46-9.66-15.44-1.32-28.08,4.32-6.53,8.88-12.91,14.34-20.83C654.66,263.26,657.27,275.28,659.9,287.35Z"/><path class="cls-9" d="M694.23,459.25c-2.54-1.29-5.61-2.06-7.54-4-24.15-23.8-53-37.48-86.67-41.36-2.37-.27-4.53-2.33-6.22-4.62,40.66,1.43,74.29,17.62,101.62,47.13Z"/><path class="cls-9" d="M677.52,461c-3-1.41-6.38-2.3-8.86-4.32A133.72,133.72,0,0,0,611.13,429c-3-.63-5.6-2.71-7.8-5.31,29.49,2.53,54.34,14.71,75.43,34.76C678.34,459.31,677.93,460.17,677.52,461Z"/><path class="cls-11" d="M604.31,332.87c10,1.69,13.69,6,12.74,14.76-.52,4.74.9,9.7,1.46,14.65H599C600.88,351.93,602.55,342.64,604.31,332.87Z"/><path class="cls-11" d="M734.18,362.87c.42-7.75-.28-15,1.57-21.57,1.07-3.8,6.23-6.45,11.65-11.62,2,11.09,3.75,19.22,4.74,27.44.19,1.52-2.43,4.56-4.15,4.89C743.5,362.89,738.79,362.66,734.18,362.87Z"/><path class="cls-11" d="M744.24,322.28l-9.33,7.06c-4.84-7.87-10.65-14.8-13.37-22.79-1.36-4,3-9.89,4.69-14.93l2.63.2C733.94,301.87,739,311.93,744.24,322.28Z"/><path class="cls-11" d="M608.13,322.26c5.44-10.62,10.45-20.41,16.21-31.64l8.11,12.94-14.84,25.77Z"/><path class="cls-9" d="M759.34,408.78c-1.5,2.19-2.06,4.07-3.1,4.37q-28.56,8.37-57.25,16.28c-.88.24-2.27-1.37-3.56-2.22C708.86,416.83,738.22,408.25,759.34,408.78Z"/><path class="cls-9" d="M750.7,420.31c-4.76,8.22-39.69,19.39-47.21,14.86Z"/><path class="cls-9" d="M652.33,458l-33.12-16,1.62-3.36L654,454.5Z"/><path class="cls-11" d="M751.56,371.05c-.43,3.11-.72,5.27-1.22,8.92l-13-8.8c.2-.56.4-1.11.61-1.67Z"/><path class="cls-11" d="M602,380.3c-.5-3.58-.8-5.75-1.25-9l12.62-1.69,1,1.74Z"/><path class="cls-9" d="M731.79,439.09c-4.17,5-8.46,10.53-15.39,9.84l-1.21-2.79Z"/><polygon class="cls-12" points="695.34 306.16 680.57 331.75 710.12 331.75 695.34 306.16"/><path class="cls-12" d="M681.28,330.81v36.76h8.47V351h11.19v16.62h8.46V330.81ZM694.49,343h-2.66v-2.66h2.66Zm0-3.41h-2.66v-2.66h2.66ZM697.9,343h-2.66v-2.66h2.66Zm0-3.41h-2.66v-2.66h2.66Z"/></svg>