<svg id="Capa_1" data-name="Capa 1" xmlns="http://www.w3.org/2000/svg" xmlns:xlink="http://www.w3.org/1999/xlink" viewBox="0 0 1350 1080"><defs><style>.cls-1{fill:url(#Degradado_sin_nombre_98);}.cls-2{fill:#fff;}.cls-3{fill:#ffdd0d;}.cls-4{fill:url(#Degradado_sin_nombre_5);}.cls-5{fill:url(#linear-gradient);}.cls-6{fill:url(#linear-gradient-2);}.cls-7{fill:url(#Degradado_sin_nombre_5-2);}</style><radialGradient id="Degradado_sin_nombre_98" cx="657.27" cy="539.15" r="609.54" gradientTransform="translate(14.12) scale(1.01 1)" gradientUnits="userSpaceOnUse"><stop offset="0" stop-color="#223654"/><stop offset="0.81" stop-color="#142036"/><stop offset="1" stop-color="#142036"/></radialGradient><linearGradient id="Degradado_sin_nombre_5" x1="150.64" y1="763.79" x2="1199.36" y2="763.79" gradientUnits="userSpaceOnUse"><stop offset="0" stop-color="#ffdd0d"/><stop offset="1" stop-color="#f39200"/></linearGradient><linearGradient id="linear-gradient" x1="1700.2" y1="-172.09" x2="1815.77" y2="-247.15" gradientTransform="translate(462.82 -867.46) rotate(90)" gradientUnits="userSpaceOnUse"><stop offset="0" stop-color="#959698"/><stop offset="0.03" stop-color="#9e9ea0"/><stop offset="0.11" stop-color="#b4b3b3"/><stop offset="0.21" stop-color="#c5c3c2"/><stop offset="0.34" stop-color="#d0cecc"/><stop offset="0.51" stop-color="#d7d4d2"/><stop offset="1" stop-color="#d9d6d4"/></linearGradient><linearGradient id="linear-gradient-2" x1="1692.69" y1="-213.01" x2="1839.64" y2="-213.01" gradientTransform="translate(462.82 -867.46) rotate(90)" gradientUnits="userSpaceOnUse"><stop offset="0" stop-color="#f2f1f1"/><stop offset="1" stop-color="#d9d6d4"/></linearGradient><linearGradient id="Degradado_sin_nombre_5-2" x1="1708.52" y1="-177.82" x2="1811.56" y2="-244.74" gradientTransform="translate(462.82 -867.46) rotate(90)" xlink:href="#Degradado_sin_nombre_5"/></defs><rect class="cls-1" y="-1.7" width="1356.09" height="1081.7"/><polygon class="cls-2" points="700.06 327.34 744.81 347.61 635.32 400.79 709.23 437.92 670.85 457.9 552.28 396.15 700.06 327.34"/><path class="cls-3" d="M670.82,233.47l78.51-32.58c16.33-6.78,28.39-6.11,36.33,1.87s11.8,22.21,11.8,42.94q0,32-12.86,56c-8.67,16.22-22,28.72-40.31,37.51L719,351.45v81.41l-48.14,25.07ZM719,307l11.42-5.25q13.33-6.13,18.65-15.29a38.23,38.23,0,0,0,5.31-19.56q0-10.14-4.61-15.18c-3.09-3.37-8.9-3.19-17.52.57L719,258.08Z"/><path class="cls-2" d="M589.35,505.49c0,11.63-4.11,16.35-10,16.35-7,0-9.76-7.42-9.76-15.89s3.34-15.72,10.16-15.72c7.48,0,9.58,8.2,9.58,15.26m-13.51.54c0,7,1.33,10.58,3.75,10.58s3.49-4.57,3.49-10.85c0-5.41-.82-10.31-3.53-10.31-2.38,0-3.71,3.94-3.71,10.58"/><polygon class="cls-2" points="596.18 496.13 590.73 496.13 590.73 490.59 607.68 490.59 607.68 496.13 602.19 496.13 602.19 521.48 596.18 521.48 596.18 496.13"/><polygon class="cls-2" points="623.9 507.92 616.85 507.92 616.85 516.25 624.82 516.25 624.82 521.48 610.84 521.48 610.84 490.6 624.27 490.6 624.27 495.82 616.85 495.82 616.85 502.92 623.9 502.92 623.9 507.92"/><path class="cls-2" d="M628.21,515.34a11.67,11.67,0,0,0,5.08,1.18c2.85,0,4.22-1.46,4.22-3.47,0-2.25-1.37-3.35-4-5-4.21-2.58-5.82-5.82-5.82-8.62,0-4.95,3.3-9.08,9.76-9.08a10.51,10.51,0,0,1,4.85,1.1l-1,5.19a7.34,7.34,0,0,0-3.93-1.06c-2.57,0-3.81,1.56-3.81,3.21,0,1.83.92,2.79,4.26,4.8,4.08,2.48,5.6,5.6,5.6,8.85,0,5.64-4.17,9.35-10.22,9.35a13.48,13.48,0,0,1-5.91-1.24Z"/><path class="cls-2" d="M654.22,491.05a27.56,27.56,0,0,1,6.1-.59c3.9,0,6.6.91,8.57,2.74,2.66,2.38,4,6.47,4,12.46,0,6.24-1.6,10.69-4.3,13.07-2.07,2-5.14,3-9.44,3a47,47,0,0,1-5-.32Zm6,25.66a3.61,3.61,0,0,0,1,.1c2.9,0,5.41-2.85,5.41-11.38,0-6.32-1.64-10.16-5.26-10.16a3.36,3.36,0,0,0-1.2.14Z"/><polygon class="cls-2" points="689.78 507.92 682.72 507.92 682.72 516.25 690.7 516.25 690.7 521.48 676.71 521.48 676.71 490.6 690.16 490.6 690.16 495.82 682.72 495.82 682.72 502.92 689.78 502.92 689.78 507.92"/><polygon class="cls-2" points="694.77 490.59 700.78 490.59 700.78 516.4 708.7 516.4 708.7 521.49 694.77 521.49 694.77 490.59"/><path class="cls-2" d="M719.47,491.05a31.82,31.82,0,0,1,6.27-.59c3.58,0,6.38.5,8.38,2.38a8.88,8.88,0,0,1,2.67,6.79,10.34,10.34,0,0,1-2.62,7.42,10.83,10.83,0,0,1-7.5,2.92h-1.2v11.51h-6Zm6,14a2.83,2.83,0,0,0,.95.1c3,0,4.4-2.17,4.4-5.05,0-2.7-1.09-4.81-3.87-4.81a5,5,0,0,0-1.48.22Z"/><polygon class="cls-2" points="753.46 507.92 746.4 507.92 746.4 516.25 754.38 516.25 754.38 521.48 740.4 521.48 740.4 490.6 753.84 490.6 753.84 495.82 746.4 495.82 746.4 502.92 753.46 502.92 753.46 507.92"/><path class="cls-2" d="M758.46,491.05a36.23,36.23,0,0,1,6.54-.6c3.3,0,6.24.46,8.25,2.3s2.43,3.75,2.43,6.42a8.22,8.22,0,0,1-4.77,7.73v.1c2.12.83,3.17,2.8,3.76,6.1a49.28,49.28,0,0,0,2,8.39h-6.28a42.1,42.1,0,0,1-1.51-7.39c-.56-3.85-1.52-5-3.53-5h-.87v12.34h-6Zm6,13.47h1c2.61,0,4.12-2.1,4.12-4.82s-1-4.48-3.76-4.58a4.41,4.41,0,0,0-1.41.19Z"/><path class="cls-2" d="M785.8,490.59v20.06c0,4.55,1.38,5.92,2.94,5.92,1.74,0,3-1.23,3-5.92V490.59h6v19c0,7.93-3,12.24-8.93,12.24-6.46,0-9-4.45-9-12.2V490.59Z"/><polygon class="cls-2" points="554.94 490.59 560.95 490.59 560.95 516.4 568.88 516.4 568.88 521.49 554.94 521.49 554.94 490.59"/><path class="cls-4" d="M1199.18,755.87V677.66a44.66,44.66,0,0,0-44.53-44.53H195.28a44.66,44.66,0,0,0-44.53,44.53v79.52c-1.13,28.16,6.07,58.71,27.16,69,99.5,48.47,357.28-55.85,420.88,18.1,19.92,23.17,44.85,50.19,68.29,50.19,20.5,0,47.34-24.54,74.92-51.73,83.15-82,380.08,50,442.9-32.31C1197.68,793.67,1200.13,778.61,1199.18,755.87Z"/><path class="cls-2" d="M198.21,760.78v-77h33.33a43.43,43.43,0,0,1,17.82,3.35,26.09,26.09,0,0,1,11.55,9.63,26.72,26.72,0,0,1-11.55,39.38,42.76,42.76,0,0,1-17.82,3.41H208l8.14-8v29.26Zm17.93-27.28L208,725h22.55q8.14,0,12.32-3.52t4.18-9.9q0-6.37-4.18-9.85t-12.32-3.46H208l8.14-8.47Z"/><path class="cls-2" d="M263.66,760.78l34.21-77h17.6l34.54,77h-18.7L303,692.8h7.15l-28.27,68Zm17.27-16.5,4.51-13.53h39.82l4.62,13.53Z"/><path class="cls-2" d="M394.12,762.1a47,47,0,0,1-16.83-2.92,38.27,38.27,0,0,1-22.05-20.95,42.08,42.08,0,0,1,0-31.9,37.77,37.77,0,0,1,8.85-12.65,40.14,40.14,0,0,1,13.42-8.31,51.15,51.15,0,0,1,35.37.5,36.42,36.42,0,0,1,13.8,9.9l-11.33,10.56a28.35,28.35,0,0,0-9.24-6.66,27.1,27.1,0,0,0-10.89-2.14,27.43,27.43,0,0,0-10.12,1.81,23.38,23.38,0,0,0-8,5.12,22.63,22.63,0,0,0-5.17,7.81,28,28,0,0,0,0,19.85,22.51,22.51,0,0,0,5.17,7.87,24.2,24.2,0,0,0,7.92,5.17A26.2,26.2,0,0,0,395.11,747a30.91,30.91,0,0,0,10.29-1.76,30.55,30.55,0,0,0,9.73-5.83l10.12,12.87a45.56,45.56,0,0,1-14.63,7.31A57.17,57.17,0,0,1,394.12,762.1ZM409,750V721.07h16.28v31.24Z"/><path class="cls-2" d="M431.63,760.78l34.21-77h17.6l34.54,77h-18.7L471,692.8h7.15l-28.27,68Zm17.27-16.5,4.51-13.53h39.82l4.62,13.53Z"/><path class="cls-2" d="M573.09,760.78V698.3H548.45V683.78h67.1V698.3H590.91v62.48Z"/><path class="cls-2" d="M658,762.1q-16.39,0-25.63-9.13t-9.24-26.18v-43h17.93v42.57q0,10.89,4.51,15.78t12.54,4.9q8.13,0,12.65-4.9t4.51-15.78V683.78h17.49v43q0,17.06-9.24,26.18T658,762.1Z"/><path class="cls-2" d="M741.61,760.78v-77h17.93v77Z"/><path class="cls-2" d="M777.69,760.78v-77h14.74l45.43,55.44h-7.15V683.78h17.6v77H833.57l-45.43-55.44h7.15v55.44Z"/><path class="cls-2" d="M866.57,760.78v-77H884.5v77Z"/><path class="cls-2" d="M939.49,762.1a45.93,45.93,0,0,1-16.55-2.92,38.38,38.38,0,0,1-22-20.95,42.08,42.08,0,0,1,0-31.9,38.07,38.07,0,0,1,8.8-12.65,39.55,39.55,0,0,1,13.31-8.31,48.94,48.94,0,0,1,34.7.55,35.14,35.14,0,0,1,13.64,10.18l-11.55,10.56a26.06,26.06,0,0,0-8.74-6.82,24.58,24.58,0,0,0-10.62-2.31,26.3,26.3,0,0,0-9.9,1.81,22.87,22.87,0,0,0-12.92,12.93,28.44,28.44,0,0,0,0,20,22.81,22.81,0,0,0,12.92,12.92,26.31,26.31,0,0,0,9.9,1.82,24.06,24.06,0,0,0,10.62-2.37,26.61,26.61,0,0,0,8.74-6.87l11.55,10.56a35.65,35.65,0,0,1-13.64,10.23A45.47,45.47,0,0,1,939.49,762.1Z"/><path class="cls-2" d="M983.27,760.78v-77h17.93v77Z"/><path class="cls-2" d="M1009.23,760.78l34.21-77H1061l34.54,77h-18.7l-28.27-68h7.15l-28.27,68Zm17.27-16.5,4.51-13.53h39.82l4.62,13.53Z"/><path class="cls-2" d="M1103.61,760.78v-77h17.93v62.48h38.39v14.52Z"/><path class="cls-5" d="M597.23,893.19a7.47,7.47,0,0,1,11.46-6.31h0c.15.09,14,8.73,35.68,13.74v-70a7.47,7.47,0,0,1,7.47-7.46H696.5a7.47,7.47,0,0,1,7.47,7.46v70.16a136.25,136.25,0,0,0,36-14.13,7.47,7.47,0,0,1,8.94,11.79l-69.47,69.47a7.46,7.46,0,0,1-10.56,0l-69.47-69.47a7.45,7.45,0,0,1-2.19-5.28Zm62.08-55.07v71.59a7.47,7.47,0,0,1-8.68,7.37c-5.21-.86-10.09-1.94-14.62-3.14l38.16,38.16,37.93-37.93a140.74,140.74,0,0,1-14.42,3.09,7.45,7.45,0,0,1-8.65-7.37V838.12Z"/><path class="cls-6" d="M598.89,895.24a7.47,7.47,0,0,1,11.46-6.31h0c.15.1,14,8.73,35.69,13.74v-70a7.46,7.46,0,0,1,7.46-7.47h44.66a7.47,7.47,0,0,1,7.47,7.47v70.16a136.93,136.93,0,0,0,36-14.13,7.46,7.46,0,0,1,8.94,11.78L681.11,970a7.48,7.48,0,0,1-10.56,0l-69.47-69.48a7.45,7.45,0,0,1-2.19-5.28ZM661,840.18v71.59a7.47,7.47,0,0,1-8.68,7.37c-5.21-.86-10.1-1.95-14.62-3.15l38.16,38.16,37.93-37.92a143.46,143.46,0,0,1-14.42,3.09,7.48,7.48,0,0,1-8.65-7.37V840.18Z"/><path class="cls-7" d="M675.83,964.71l69.47-69.47A141.35,141.35,0,0,1,698.16,912V832.71H653.5v79.06c-28.54-4.72-47.14-16.53-47.14-16.53Z"/></svg>