<svg id="Capa_1" data-name="Capa 1" xmlns="http://www.w3.org/2000/svg" xmlns:xlink="http://www.w3.org/1999/xlink" viewBox="0 0 1350 1080"><defs><style>.cls-1{fill:url(#Degradado_sin_nombre_18);}.cls-2{fill:url(#Degradado_sin_nombre_25);}.cls-3{fill:#fff;}.cls-4{fill:#f6a91c;}.cls-5{fill:url(#Degradado_sin_nombre_5);}.cls-6{fill:url(#linear-gradient);}.cls-7{fill:url(#linear-gradient-2);}.cls-8{fill:url(#Degradado_sin_nombre_5-2);}</style><radialGradient id="Degradado_sin_nombre_18" cx="657.27" cy="539.15" r="609.54" gradientTransform="translate(14.12) scale(1.01 1)" gradientUnits="userSpaceOnUse"><stop offset="0" stop-color="#045a68"/><stop offset="0.02" stop-color="#045967"/><stop offset="0.59" stop-color="#024855"/><stop offset="1" stop-color="#01424e"/></radialGradient><radialGradient id="Degradado_sin_nombre_25" cx="657.27" cy="539.15" r="609.54" gradientTransform="translate(14.12) scale(1.01 1)" gradientUnits="userSpaceOnUse"><stop offset="0" stop-color="#273959"/><stop offset="0.51" stop-color="#212e4c"/><stop offset="1" stop-color="#1e2945"/></radialGradient><linearGradient id="Degradado_sin_nombre_5" x1="150.64" y1="763.79" x2="1199.36" y2="763.79" gradientUnits="userSpaceOnUse"><stop offset="0" stop-color="#ffdd0d"/><stop offset="1" stop-color="#f39200"/></linearGradient><linearGradient id="linear-gradient" x1="600.2" y1="927.91" x2="715.77" y2="852.85" gradientTransform="translate(1562.82 232.54) rotate(90)" gradientUnits="userSpaceOnUse"><stop offset="0" stop-color="#959698"/><stop offset="0.03" stop-color="#9e9ea0"/><stop offset="0.11" stop-color="#b4b3b3"/><stop offset="0.21" stop-color="#c5c3c2"/><stop offset="0.34" stop-color="#d0cecc"/><stop offset="0.51" stop-color="#d7d4d2"/><stop offset="1" stop-color="#d9d6d4"/></linearGradient><linearGradient id="linear-gradient-2" x1="592.69" y1="886.99" x2="739.64" y2="886.99" gradientTransform="translate(1562.82 232.54) rotate(90)" gradientUnits="userSpaceOnUse"><stop offset="0" stop-color="#f2f1f1"/><stop offset="1" stop-color="#d9d6d4"/></linearGradient><linearGradient id="Degradado_sin_nombre_5-2" x1="608.52" y1="922.18" x2="711.56" y2="855.26" gradientTransform="translate(1562.82 232.54) rotate(90)" xlink:href="#Degradado_sin_nombre_5"/></defs><rect class="cls-1" y="-1.7" width="1356.09" height="1081.7"/><rect class="cls-2" y="-1.7" width="1356.09" height="1081.7"/><path class="cls-3" d="M497.48,458.53v34l-23.64-23.36v21.74h-5.36v-34l23.63,23.36V458.53Z"/><path class="cls-3" d="M504.12,474.49a10.6,10.6,0,0,1,4.09-3.91,12.11,12.11,0,0,1,5.88-1.41,11.94,11.94,0,0,1,5.85,1.41,10.73,10.73,0,0,1,5.62,9.69A10.88,10.88,0,0,1,524,486a10.72,10.72,0,0,1-4.09,3.93,11.94,11.94,0,0,1-5.85,1.41,12.11,12.11,0,0,1-5.88-1.41,10.58,10.58,0,0,1-4.09-3.93,11.85,11.85,0,0,1,0-11.54Zm4.46,9.27a6.13,6.13,0,0,0,2.27,2.36,6.48,6.48,0,0,0,6.45,0,6,6,0,0,0,2.29-2.36,7,7,0,0,0,.84-3.49,7.15,7.15,0,0,0-.84-3.51,5.85,5.85,0,0,0-2.29-2.36,6.61,6.61,0,0,0-6.45,0,5.93,5.93,0,0,0-2.27,2.36,7.25,7.25,0,0,0-.83,3.51A7.12,7.12,0,0,0,508.58,483.76Z"/><path class="cls-3" d="M535.23,490.91h-5V469.63h5Zm5-16.79a3.58,3.58,0,0,0-1.53-.28,3.09,3.09,0,0,0-2,.65,3.56,3.56,0,0,0-1.13,1.78,8.84,8.84,0,0,0-.35,2.66l-1.67-1a10.28,10.28,0,0,1,1-4.51,8.51,8.51,0,0,1,2.45-3.12,5.09,5.09,0,0,1,3.13-1.16,6.71,6.71,0,0,1,2.17.35,3.64,3.64,0,0,1,1.71,1.22l-2.4,4.21A6.46,6.46,0,0,0,540.27,474.12Z"/><path class="cls-3" d="M556.51,469.63V474H544.43v-4.4Zm-3.56-7.4v28.68h-5V462.23Z"/><path class="cls-3" d="M564.93,490.91h-5V454.83h5Zm7.75-16.51a3.66,3.66,0,0,0-3-1.21,4.92,4.92,0,0,0-2.45.61,4.27,4.27,0,0,0-1.66,1.66,5,5,0,0,0-.6,2.5h-1.21a10.54,10.54,0,0,1,.93-4.53,8.07,8.07,0,0,1,2.61-3.2,6.9,6.9,0,0,1,4.1-1.2,8,8,0,0,1,4,.93,5.78,5.78,0,0,1,2.47,2.75,10.92,10.92,0,0,1,.84,4.56v13.64h-5V478A5.68,5.68,0,0,0,572.68,474.4Z"/><path class="cls-3" d="M604.8,458.53v32.38h-5.5V458.53Z"/><path class="cls-3" d="M624.32,474.4a3.63,3.63,0,0,0-3-1.21,5.14,5.14,0,0,0-2.46.58,4.11,4.11,0,0,0-1.66,1.67,5.11,5.11,0,0,0-.6,2.52v13h-5V469.63h5v3.29a7,7,0,0,1,2.61-2.83,7.58,7.58,0,0,1,3.82-.92,6.85,6.85,0,0,1,5.5,2.2,8.88,8.88,0,0,1,1.9,6v13.51h-5.14V478A5.56,5.56,0,0,0,624.32,474.4Z"/><path class="cls-3" d="M638.8,469.63l5.55,13.74,5.55-13.74h5.51l-11.06,23.22-11-23.22Z"/><path class="cls-3" d="M661.4,490a9.6,9.6,0,0,1-3.82-3.89,12.18,12.18,0,0,1-1.34-5.83,12,12,0,0,1,1.37-5.87,9.47,9.47,0,0,1,3.86-3.87,12,12,0,0,1,5.87-1.36,11.71,11.71,0,0,1,5.74,1.3,8.8,8.8,0,0,1,3.63,3.72A12.45,12.45,0,0,1,678,480c0,.25,0,.51,0,.79a4.31,4.31,0,0,1-.07.6H659.2V478h14.44l-1.53,2.12a6.68,6.68,0,0,0,.3-.76,2.55,2.55,0,0,0,.16-.81,6.13,6.13,0,0,0-.67-3,4.87,4.87,0,0,0-1.85-1.94,5.26,5.26,0,0,0-2.75-.7,6,6,0,0,0-3.24.84,5.2,5.2,0,0,0-2,2.4,10.21,10.21,0,0,0-.74,3.89A9.87,9.87,0,0,0,662,484a5.12,5.12,0,0,0,2.06,2.42,6.18,6.18,0,0,0,3.3.84,7.3,7.3,0,0,0,3.57-.84,6.72,6.72,0,0,0,2.54-2.54l4.3,1.76a11.1,11.1,0,0,1-4.3,4.3,13.05,13.05,0,0,1-6.34,1.43A11.52,11.52,0,0,1,661.4,490Z"/><path class="cls-3" d="M685.78,485.85a7.74,7.74,0,0,0,2.1,1.2,6.16,6.16,0,0,0,2.13.39,3.33,3.33,0,0,0,2.11-.6,2,2,0,0,0,.76-1.66,2.32,2.32,0,0,0-.6-1.6,5,5,0,0,0-1.67-1.16c-.71-.32-1.54-.65-2.5-1a25,25,0,0,1-2.84-1.32,6.81,6.81,0,0,1-2.31-2,5.83,5.83,0,0,1,.09-6.39,5.9,5.9,0,0,1,2.68-1.92,11,11,0,0,1,6.94-.11,11.69,11.69,0,0,1,2.8,1.34,10,10,0,0,1,2.13,1.9l-2.78,3a8.69,8.69,0,0,0-2.54-2,6.5,6.5,0,0,0-3.06-.78,3.08,3.08,0,0,0-1.75.46,1.5,1.5,0,0,0-.7,1.34,1.77,1.77,0,0,0,.63,1.32,6.15,6.15,0,0,0,1.66,1c.7.31,1.48.63,2.34,1a25.6,25.6,0,0,1,3.24,1.53,7.54,7.54,0,0,1,2.38,2,5.12,5.12,0,0,1,.9,3.15,6.16,6.16,0,0,1-2.06,4.83,8.08,8.08,0,0,1-5.57,1.83,11.46,11.46,0,0,1-4-.67,11.13,11.13,0,0,1-3.19-1.76,13,13,0,0,1-2.29-2.29l2.91-2.91A16.54,16.54,0,0,0,685.78,485.85Z"/><path class="cls-3" d="M711.48,469.63V474H699.4v-4.4Zm-3.57-7.4v28.68H703V462.23Z"/><path class="cls-3" d="M745.34,490.91h-5V478a6.16,6.16,0,0,0-.85-3.59,3.16,3.16,0,0,0-2.71-1.18,4.28,4.28,0,0,0-2.2.56,3.82,3.82,0,0,0-1.48,1.62,5.8,5.8,0,0,0-.53,2.59v13h-5V478a6.16,6.16,0,0,0-.85-3.59,3.14,3.14,0,0,0-2.71-1.18,4.35,4.35,0,0,0-2.24.56,3.66,3.66,0,0,0-1.46,1.62,6,6,0,0,0-.51,2.59v13h-4.9V469.63h4.9v3.1a6.62,6.62,0,0,1,2.43-2.66,6.75,6.75,0,0,1,3.54-.9,7.24,7.24,0,0,1,3.91,1,5.51,5.51,0,0,1,2.24,2.82,7.8,7.8,0,0,1,2.8-2.82,7.58,7.58,0,0,1,3.86-1,7,7,0,0,1,3.77.95,5.66,5.66,0,0,1,2.25,2.8,12.14,12.14,0,0,1,.74,4.48Z"/><path class="cls-3" d="M755.26,490a9.6,9.6,0,0,1-3.82-3.89,12.18,12.18,0,0,1-1.34-5.83,12,12,0,0,1,1.37-5.87,9.47,9.47,0,0,1,3.86-3.87,12,12,0,0,1,5.87-1.36,11.71,11.71,0,0,1,5.74,1.3,8.8,8.8,0,0,1,3.63,3.72,12.45,12.45,0,0,1,1.27,5.85c0,.25,0,.51,0,.79a4.31,4.31,0,0,1-.07.6H753.06V478H767.5L766,480.13a6.68,6.68,0,0,0,.3-.76,2.55,2.55,0,0,0,.16-.81,6.13,6.13,0,0,0-.67-3,4.87,4.87,0,0,0-1.85-1.94,5.26,5.26,0,0,0-2.75-.7,6,6,0,0,0-3.24.84,5.2,5.2,0,0,0-2,2.4,10.21,10.21,0,0,0-.74,3.89,9.7,9.7,0,0,0,.7,3.91,5.12,5.12,0,0,0,2.06,2.42,6.18,6.18,0,0,0,3.3.84,7.3,7.3,0,0,0,3.57-.84,6.72,6.72,0,0,0,2.54-2.54l4.3,1.76a11.1,11.1,0,0,1-4.3,4.3,13.05,13.05,0,0,1-6.34,1.43A11.52,11.52,0,0,1,755.26,490Z"/><path class="cls-3" d="M789.33,474.4a3.65,3.65,0,0,0-3-1.21,5.13,5.13,0,0,0-2.45.58,4.11,4.11,0,0,0-1.66,1.67,5,5,0,0,0-.61,2.52v13h-5V469.63h5v3.29a6.94,6.94,0,0,1,2.62-2.83,7.52,7.52,0,0,1,3.81-.92,6.87,6.87,0,0,1,5.51,2.2,8.93,8.93,0,0,1,1.9,6v13.51H790.3V478A5.56,5.56,0,0,0,789.33,474.4Z"/><path class="cls-3" d="M810.93,469.63V474H798.86v-4.4Zm-3.56-7.4v28.68h-5V462.23Z"/><path class="cls-3" d="M834.22,480.73a10.94,10.94,0,0,0,4.07,4,11.06,11.06,0,0,0,5.49,1.41,13.43,13.43,0,0,0,4.16-.6,12.6,12.6,0,0,0,3.35-1.65,13.72,13.72,0,0,0,2.62-2.33V488a15.49,15.49,0,0,1-4.4,2.55,17.23,17.23,0,0,1-5.92.88,17.93,17.93,0,0,1-6.64-1.21,15.22,15.22,0,0,1-5.34-3.47,16.28,16.28,0,0,1-3.54-5.34,18.47,18.47,0,0,1,0-13.46,16.28,16.28,0,0,1,3.54-5.34,15.36,15.36,0,0,1,5.34-3.47,18.13,18.13,0,0,1,6.64-1.21,17.23,17.23,0,0,1,5.92.88,15.49,15.49,0,0,1,4.4,2.55v6.47a13.72,13.72,0,0,0-2.62-2.33,12.58,12.58,0,0,0-3.35-1.64,13.43,13.43,0,0,0-4.16-.61,11,11,0,0,0-9.56,5.39,12.48,12.48,0,0,0,0,12.05Z"/><path class="cls-3" d="M860.08,474.49a10.56,10.56,0,0,1,4.1-3.91,12.88,12.88,0,0,1,11.72,0,11.07,11.07,0,0,1,0,19.38,12.88,12.88,0,0,1-11.72,0,10.54,10.54,0,0,1-4.1-3.93,11.85,11.85,0,0,1,0-11.54Zm4.47,9.27a6.11,6.11,0,0,0,2.26,2.36,6.5,6.5,0,0,0,6.46,0,6.11,6.11,0,0,0,2.29-2.36,7.12,7.12,0,0,0,.83-3.49,7.25,7.25,0,0,0-.83-3.51,5.92,5.92,0,0,0-2.29-2.36,6.63,6.63,0,0,0-6.46,0,5.91,5.91,0,0,0-2.26,2.36,7.15,7.15,0,0,0-.84,3.51A7,7,0,0,0,864.55,483.76Z"/><path class="cls-4" d="M575.91,520.48V508.92h1.22v11.56Z"/><path class="cls-4" d="M589.16,520.48V508.92h1l8,10h-.53v-10h1.21v11.56h-1l-8-10h.53v10Z"/><path class="cls-4" d="M610.85,520.48V508.92h1l5.28,9h-.53l5.24-9h1v11.56h-1.17v-9.73H622L617.14,519h-.58l-4.85-8.26H612v9.73Z"/><path class="cls-4" d="M639.94,520.58a6.39,6.39,0,0,1-2.42-.44,5.63,5.63,0,0,1-3.2-3.1,6.18,6.18,0,0,1,0-4.68,5.55,5.55,0,0,1,1.27-1.86,5.62,5.62,0,0,1,1.92-1.24,6.6,6.6,0,0,1,2.43-.44,6.5,6.5,0,0,1,2.41.44,5.79,5.79,0,0,1,1.93,1.23,5.7,5.7,0,0,1,1.27,1.86,6.23,6.23,0,0,1,0,4.7,5.59,5.59,0,0,1-1.27,1.86,5.79,5.79,0,0,1-1.93,1.23A6.3,6.3,0,0,1,639.94,520.58Zm0-1.09a5.26,5.26,0,0,0,1.93-.35,4.65,4.65,0,0,0,2.55-2.53,5.25,5.25,0,0,0,0-3.82,4.65,4.65,0,0,0-2.55-2.53,5.5,5.5,0,0,0-3.86,0,4.66,4.66,0,0,0-2.58,2.53,5.22,5.22,0,0,0,0,3.81,4.64,4.64,0,0,0,2.58,2.54A5.3,5.3,0,0,0,639.94,519.49Z"/><path class="cls-4" d="M657,520.48V508.92h5a5.08,5.08,0,0,1,3,.77,2.56,2.56,0,0,1,1.06,2.2,2.71,2.71,0,0,1-.44,1.59,2.66,2.66,0,0,1-1.19,1,4,4,0,0,1-1.64.33l.28-.39a4.8,4.8,0,0,1,1.91.34,2.77,2.77,0,0,1,1.25,1,3,3,0,0,1,.44,1.66,2.68,2.68,0,0,1-1.08,2.28,5.42,5.42,0,0,1-3.26.81Zm1.22-1h4.08a4.4,4.4,0,0,0,2.33-.52,1.85,1.85,0,0,0,.81-1.67,1.82,1.82,0,0,0-.81-1.64,4.3,4.3,0,0,0-2.33-.52H658.1v-1h3.81a3.71,3.71,0,0,0,2.16-.53,2,2,0,0,0,0-3.14,3.79,3.79,0,0,0-2.16-.52h-3.68Z"/><path class="cls-4" d="M677.73,520.48V508.92H679v11.56Z"/><path class="cls-4" d="M691,520.48V508.92h1.22v10.51h6.47v1.05Z"/><path class="cls-4" d="M709,520.48V508.92h1.22v11.56Z"/><path class="cls-4" d="M722.22,520.48V508.92h4.33a6.19,6.19,0,0,1,2.52.47,3.58,3.58,0,0,1,1.63,1.35,3.88,3.88,0,0,1,.57,2.14,3.8,3.8,0,0,1-.57,2.11,3.58,3.58,0,0,1-1.63,1.35,6,6,0,0,1-2.52.48h-3.66l.55-.57v4.23Zm1.22-4.13-.55-.58h3.62a4,4,0,0,0,2.64-.76,3,3,0,0,0,0-4.27,4,4,0,0,0-2.64-.76h-3.62l.55-.58Zm6.67,4.13-3-4.19h1.32l3,4.19Z"/><path class="cls-4" d="M742.42,520.48V508.92h1.23v11.56Z"/><path class="cls-4" d="M753.82,520.48l5.29-11.56h1.21l5.28,11.56h-1.29l-4.85-10.85H760l-4.86,10.85Zm2.08-3.09.37-1H763l.36,1Z"/><rect class="cls-4" x="659.09" y="198.14" width="29.74" height="223.56"/><path class="cls-3" d="M601.32,406.87a31.74,31.74,0,0,1-2.23-12.6v-145l50.12,58.52V232.08l-31.63-34.65h-60v3.39l32.57,38V394.27a26.14,26.14,0,0,1-3,12.79,15,15,0,0,1-9.64,7.23L565.35,418v3.7h56.36V418l-11.12-3.71Q603.54,412.07,601.32,406.87Z"/><path class="cls-3" d="M733.94,197.43v3.71l11.13,3.71q7,2.22,9.26,7.41a31.83,31.83,0,0,1,2.23,12.61V349.65L698.71,286.3v79.29l48,56.11h19l-.26-62.29h0V224.87a26.14,26.14,0,0,1,3-12.79,15,15,0,0,1,9.64-7.23l12.24-3.71v-3.71Z"/><path class="cls-5" d="M1199.18,755.87V677.66a44.66,44.66,0,0,0-44.53-44.53H195.28a44.66,44.66,0,0,0-44.53,44.53v79.52c-1.13,28.16,6.07,58.71,27.16,69,99.5,48.47,357.28-55.85,420.88,18.1,19.92,23.17,44.85,50.19,68.29,50.19,20.5,0,47.34-24.54,74.92-51.73,83.15-82,380.08,50,442.9-32.31C1197.68,793.67,1200.13,778.61,1199.18,755.87Z"/><path class="cls-3" d="M198.21,760.78v-77h33.33a43.43,43.43,0,0,1,17.82,3.35,26.09,26.09,0,0,1,11.55,9.63,26.72,26.72,0,0,1-11.55,39.38,42.76,42.76,0,0,1-17.82,3.41H208l8.14-8v29.26Zm17.93-27.28L208,725h22.55q8.14,0,12.32-3.52t4.18-9.9q0-6.37-4.18-9.85t-12.32-3.46H208l8.14-8.47Z"/><path class="cls-3" d="M263.66,760.78l34.21-77h17.6l34.54,77h-18.7L303,692.8h7.15l-28.27,68Zm17.27-16.5,4.51-13.53h39.82l4.62,13.53Z"/><path class="cls-3" d="M394.12,762.1a47,47,0,0,1-16.83-2.92,38.27,38.27,0,0,1-22.05-20.95,42.08,42.08,0,0,1,0-31.9,37.77,37.77,0,0,1,8.85-12.65,40.14,40.14,0,0,1,13.42-8.31,51.15,51.15,0,0,1,35.37.5,36.42,36.42,0,0,1,13.8,9.9l-11.33,10.56a28.35,28.35,0,0,0-9.24-6.66,27.1,27.1,0,0,0-10.89-2.14,27.43,27.43,0,0,0-10.12,1.81,23.38,23.38,0,0,0-8,5.12,22.63,22.63,0,0,0-5.17,7.81,28,28,0,0,0,0,19.85,22.51,22.51,0,0,0,5.17,7.87,24.2,24.2,0,0,0,7.92,5.17A26.2,26.2,0,0,0,395.11,747a30.91,30.91,0,0,0,10.29-1.76,30.55,30.55,0,0,0,9.73-5.83l10.12,12.87a45.56,45.56,0,0,1-14.63,7.31A57.17,57.17,0,0,1,394.12,762.1ZM409,750V721.07h16.28v31.24Z"/><path class="cls-3" d="M431.63,760.78l34.21-77h17.6l34.54,77h-18.7L471,692.8h7.15l-28.27,68Zm17.27-16.5,4.51-13.53h39.82l4.62,13.53Z"/><path class="cls-3" d="M573.09,760.78V698.3H548.45V683.78h67.1V698.3H590.91v62.48Z"/><path class="cls-3" d="M658,762.1q-16.39,0-25.63-9.13t-9.24-26.18v-43h17.93v42.57q0,10.89,4.51,15.78t12.54,4.9q8.13,0,12.65-4.9t4.51-15.78V683.78h17.49v43q0,17.06-9.24,26.18T658,762.1Z"/><path class="cls-3" d="M741.61,760.78v-77h17.93v77Z"/><path class="cls-3" d="M777.69,760.78v-77h14.74l45.43,55.44h-7.15V683.78h17.6v77H833.57l-45.43-55.44h7.15v55.44Z"/><path class="cls-3" d="M866.57,760.78v-77H884.5v77Z"/><path class="cls-3" d="M939.49,762.1a45.93,45.93,0,0,1-16.55-2.92,38.38,38.38,0,0,1-22-20.95,42.08,42.08,0,0,1,0-31.9,38.07,38.07,0,0,1,8.8-12.65,39.55,39.55,0,0,1,13.31-8.31,48.94,48.94,0,0,1,34.7.55,35.14,35.14,0,0,1,13.64,10.18l-11.55,10.56a26.06,26.06,0,0,0-8.74-6.82,24.58,24.58,0,0,0-10.62-2.31,26.3,26.3,0,0,0-9.9,1.81,22.87,22.87,0,0,0-12.92,12.93,28.44,28.44,0,0,0,0,20,22.81,22.81,0,0,0,12.92,12.92,26.31,26.31,0,0,0,9.9,1.82,24.06,24.06,0,0,0,10.62-2.37,26.61,26.61,0,0,0,8.74-6.87l11.55,10.56a35.65,35.65,0,0,1-13.64,10.23A45.47,45.47,0,0,1,939.49,762.1Z"/><path class="cls-3" d="M983.27,760.78v-77h17.93v77Z"/><path class="cls-3" d="M1009.23,760.78l34.21-77H1061l34.54,77h-18.7l-28.27-68h7.15l-28.27,68Zm17.27-16.5,4.51-13.53h39.82l4.62,13.53Z"/><path class="cls-3" d="M1103.61,760.78v-77h17.93v62.48h38.39v14.52Z"/><path class="cls-6" d="M597.23,893.19a7.47,7.47,0,0,1,11.46-6.31h0c.15.09,14,8.73,35.68,13.74v-70a7.47,7.47,0,0,1,7.47-7.46H696.5a7.47,7.47,0,0,1,7.47,7.46v70.16a136.25,136.25,0,0,0,36-14.13,7.47,7.47,0,0,1,8.94,11.79l-69.47,69.47a7.46,7.46,0,0,1-10.56,0l-69.47-69.47a7.45,7.45,0,0,1-2.19-5.28Zm62.08-55.07v71.59a7.47,7.47,0,0,1-8.68,7.37c-5.21-.86-10.09-1.94-14.62-3.14l38.16,38.16,37.93-37.93a140.74,140.74,0,0,1-14.42,3.09,7.45,7.45,0,0,1-8.65-7.37V838.12Z"/><path class="cls-7" d="M598.89,895.24a7.47,7.47,0,0,1,11.46-6.31h0c.15.1,14,8.73,35.69,13.74v-70a7.46,7.46,0,0,1,7.46-7.47h44.66a7.47,7.47,0,0,1,7.47,7.47v70.16a136.93,136.93,0,0,0,36-14.13,7.46,7.46,0,0,1,8.94,11.78L681.11,970a7.48,7.48,0,0,1-10.56,0l-69.47-69.48a7.45,7.45,0,0,1-2.19-5.28ZM661,840.18v71.59a7.47,7.47,0,0,1-8.68,7.37c-5.21-.86-10.1-1.95-14.62-3.15l38.16,38.16,37.93-37.92a143.46,143.46,0,0,1-14.42,3.09,7.48,7.48,0,0,1-8.65-7.37V840.18Z"/><path class="cls-8" d="M675.83,964.71l69.47-69.47A141.35,141.35,0,0,1,698.16,912V832.71H653.5v79.06c-28.54-4.72-47.14-16.53-47.14-16.53Z"/></svg>