<svg id="Capa_1" data-name="Capa 1" xmlns="http://www.w3.org/2000/svg" xmlns:xlink="http://www.w3.org/1999/xlink" viewBox="0 0 1350 1080"><defs><style>.cls-1{fill:url(#Degradado_sin_nombre_68);}.cls-2{fill:#221e20;}.cls-3{fill:#669833;}.cls-4{fill:#429039;}.cls-5{fill:#167433;}.cls-6{fill:#008b3c;}.cls-7{fill:#80b93f;}.cls-8{fill:#00ac96;}.cls-9{fill:url(#Degradado_sin_nombre_5);}.cls-10{fill:#fff;}.cls-11{fill:url(#linear-gradient);}.cls-12{fill:url(#linear-gradient-2);}.cls-13{fill:url(#Degradado_sin_nombre_5-2);}</style><radialGradient id="Degradado_sin_nombre_68" cx="643.52" cy="539.15" r="840.5" gradientTransform="translate(28 -254.41) scale(1.01 1.47)" gradientUnits="userSpaceOnUse"><stop offset="0" stop-color="#f6f6f6"/><stop offset="0.2" stop-color="#f3f4f4"/><stop offset="0.34" stop-color="#eaefec"/><stop offset="0.46" stop-color="#dae6de"/><stop offset="0.57" stop-color="#c4d9cb"/><stop offset="0.68" stop-color="#a8c9b2"/><stop offset="0.78" stop-color="#85b494"/><stop offset="0.87" stop-color="#5b9c6f"/><stop offset="0.96" stop-color="#2d8147"/><stop offset="1" stop-color="#167433"/></radialGradient><linearGradient id="Degradado_sin_nombre_5" x1="150.64" y1="763.79" x2="1199.36" y2="763.79" gradientUnits="userSpaceOnUse"><stop offset="0" stop-color="#ffdd0d"/><stop offset="1" stop-color="#f39200"/></linearGradient><linearGradient id="linear-gradient" x1="-769.8" y1="-442.09" x2="-654.23" y2="-517.15" gradientTransform="translate(192.82 1602.54) rotate(90)" gradientUnits="userSpaceOnUse"><stop offset="0" stop-color="#959698"/><stop offset="0.03" stop-color="#9e9ea0"/><stop offset="0.11" stop-color="#b4b3b3"/><stop offset="0.21" stop-color="#c5c3c2"/><stop offset="0.34" stop-color="#d0cecc"/><stop offset="0.51" stop-color="#d7d4d2"/><stop offset="1" stop-color="#d9d6d4"/></linearGradient><linearGradient id="linear-gradient-2" x1="-777.31" y1="-483.01" x2="-630.36" y2="-483.01" gradientTransform="translate(192.82 1602.54) rotate(90)" gradientUnits="userSpaceOnUse"><stop offset="0" stop-color="#f2f1f1"/><stop offset="1" stop-color="#d9d6d4"/></linearGradient><linearGradient id="Degradado_sin_nombre_5-2" x1="-761.48" y1="-447.82" x2="-658.44" y2="-514.74" gradientTransform="translate(192.82 1602.54) rotate(90)" xlink:href="#Degradado_sin_nombre_5"/></defs><rect class="cls-1" y="-1.7" width="1356.09" height="1081.7"/><path class="cls-2" d="M508.83,477c9.78,0,14.71,7.59,14.71,15.17s-4.93,15.1-14.71,15.1h-10v15.1h-6.62V477Zm0,23.79c5.51,0,8.23-4.28,8.23-8.56s-2.72-8.62-8.23-8.62h-10v17.18Z"/><path class="cls-2" d="M531.83,483.32a22.93,22.93,0,0,1,32.73,0,23.31,23.31,0,0,1,0,32.79,22.93,22.93,0,0,1-32.73,0,23.31,23.31,0,0,1,0-32.79ZM559.9,488a16.68,16.68,0,0,0-11.73-4.93A16.28,16.28,0,0,0,536.56,488a16.59,16.59,0,0,0,0,23.46,16.31,16.31,0,0,0,11.61,4.92A16.68,16.68,0,0,0,559.9,488Z"/><path class="cls-2" d="M575.39,522.4V477l5.05.06,22.1,32V477H609V522.4h-5.18l-21.91-31.69V522.4Z"/><path class="cls-2" d="M619.52,522.6V483.13H605.78V477h34v6.1H626.07V522.6Z"/><path class="cls-2" d="M649.08,515.85h21.06v6.55H642.47V477.1h27.61v6.54h-21v12.77h20.54V503H649.08Z"/><path class="cls-2" d="M702.87,477.1h7l-18.21,45.43h-4.8L668.65,477.1h7.13L689.26,511Z"/><path class="cls-2" d="M717.71,515.85h21.07v6.55H711.1V477.1h27.61v6.54h-21v12.77h20.55V503H717.71Z"/><path class="cls-2" d="M758,477.1c14.85,0,22.3,11.34,22.3,22.68S772.87,522.4,758,522.4H741.75V477.1Zm0,38.75c10.5,0,15.82-8,15.82-16.07s-5.32-16.14-15.82-16.14H748.3v32.21Z"/><path class="cls-2" d="M792.83,499.39h7.64c5.51,0,8.23-3.95,8.23-7.9s-2.72-7.85-8.23-7.85h-10V522.4H784V477h16.52c9.85,0,14.78,7.26,14.78,14.46a13.66,13.66,0,0,1-11.73,13.87l14.32,17h-8.49l-16.52-19.9Z"/><path class="cls-2" d="M845.32,509.05H829.05c-1.75,4.15-4,9.59-5.44,13.35h-7.06l18.21-45.95h4.79l18.22,45.95h-7Zm-13.8-6.16h11.27l-5.57-16Z"/><path class="cls-3" d="M589.66,283v28c100.39,28,79.84,125,79.84,125S739,313.87,589.66,283Z"/><path class="cls-4" d="M734.4,407.65c.29-.34.58-.67.86-1,.54-.64,1.07-1.28,1.58-1.94.26-.32.52-.65.77-1,.53-.68,1-1.38,1.55-2.08.22-.31.45-.62.67-.94.52-.74,1-1.49,1.51-2.25l.57-.88c.51-.8,1-1.61,1.48-2.43.15-.27.31-.53.46-.79.5-.88,1-1.76,1.45-2.66.11-.22.23-.44.35-.66q.74-1.44,1.41-2.91l.24-.51q.72-1.59,1.38-3.21l.12-.3a82.42,82.42,0,0,0,5.88-30.62v-17c-.1-.28-.17-.44-.17-.44V316.38c-2.93.76-39.47,6.92-63.37,47.94.38,7.53-1.51,23.79-3.06,32.41-.19,1.07-.4,2.16-.63,3.25-.09.41-.17.82-.27,1.24-.29,1.31-.61,2.62-.95,3.95-.12.43-.24.87-.37,1.31-.28,1-.58,2-.89,3.08-.15.47-.29.94-.44,1.41-.42,1.31-.87,2.62-1.35,3.95-.19.51-.39,1-.59,1.55-.38,1-.78,2-1.19,3-.2.49-.4,1-.61,1.47A122.44,122.44,0,0,1,673.07,436a81.16,81.16,0,0,0,8.73-.57h0c.5-.06,1-.14,1.48-.21.73-.1,1.47-.19,2.2-.31.52-.08,1-.19,1.55-.28.77-.14,1.53-.27,2.29-.44.42-.08.83-.19,1.25-.29a83.9,83.9,0,0,0,8.68-2.49c.35-.12.71-.23,1.06-.36.7-.26,1.39-.54,2.08-.81.5-.2,1-.38,1.48-.58.64-.27,1.26-.56,1.89-.84s1.07-.47,1.6-.72,1.17-.58,1.75-.87,1.1-.54,1.65-.83l1.65-.92,1.66-.94c.52-.31,1-.63,1.54-.95s1.12-.69,1.67-1.05,1-.66,1.45-1l1.68-1.17c.45-.32.9-.66,1.35-1s1.12-.85,1.67-1.29.83-.67,1.25-1,1.11-.93,1.66-1.4c.39-.34.77-.69,1.15-1,.56-.5,1.11-1,1.65-1.52.36-.34.71-.69,1.06-1,.55-.54,1.1-1.09,1.63-1.65l1-1C733.34,408.85,733.87,408.25,734.4,407.65Z"/><path class="cls-5" d="M754.51,283c-40.49,8.37-64.88,23.45-78.94,41a84.48,84.48,0,0,1,14.31,33.91C701.53,338.59,721.45,319,754.51,311Z"/><path class="cls-6" d="M674.3,433.94l-.39.67c.48.93.76,1.42.76,1.42S674.52,435.29,674.3,433.94Z"/><path class="cls-7" d="M665.14,435.76c14.86-98.42-75.65-121.22-75.65-121.22v38.94A82.6,82.6,0,0,0,665.14,435.76Z"/><path class="cls-8" d="M656.83,257.42h-50a3.2,3.2,0,0,0-3.2,3.19V273.8a3.2,3.2,0,0,0,3.2,3.2h50a3.2,3.2,0,0,0,3.2-3.2V260.61A3.19,3.19,0,0,0,656.83,257.42Zm-3.19,13.18H610.08v-6.79h43.56Z"/><path class="cls-8" d="M696.4,237.59a14.69,14.69,0,1,0,14.68-14.69A14.7,14.7,0,0,0,696.4,237.59Zm14.68-8.29a8.29,8.29,0,1,1-8.29,8.29A8.3,8.3,0,0,1,711.08,229.3Z"/><path class="cls-8" d="M668.25,315.37c1.1,1.16,2.17,2.36,3.23,3.59h0q1.71-2,3.46-3.82l.61-79.63,34.58-34.58,38.13,38.12V277.7c4-.59,6.25-.7,6.25-.7l.14.17V245.45l3.57,3.57a3.2,3.2,0,0,0,4.53-4.52l-50.36-50.35a2.73,2.73,0,0,0-.46-.38l0,0a3,3,0,0,0-.75-.36l-.18-.06a3.48,3.48,0,0,0-.84-.12H634.6a3.19,3.19,0,0,0-2.26.94L582,244.5a3.2,3.2,0,0,0,2.26,5.46h5.25v27s2.39.23,6.39,1V250h63.89A3.19,3.19,0,0,0,662,249l6.21-6.21ZM608.1,243.56H592l44-44h16.13Zm25.18,0H617.14l44-44h16.14Zm25.17,0H642.32l44-44h16.13l-33.22,33.23Z"/><path class="cls-8" d="M723,259.61H699.2a3.2,3.2,0,0,0-3.2,3.2v34.74c2.13-1.4,4.27-2.71,6.39-3.93V266h17.39v19.33q3.29-1.27,6.39-2.31V262.81A3.2,3.2,0,0,0,723,259.61Z"/><path class="cls-3" d="M585.21,358,585,338c-18,.57-39.3,6-64.62,18.63l16.37,21.11a125.1,125.1,0,0,1,49.26-9.4A83.69,83.69,0,0,1,585.21,358Z"/><path class="cls-7" d="M586.82,373.29a118,118,0,0,0-47.12,8.2l24,30.63a82.58,82.58,0,0,0,93,26.69A82.63,82.63,0,0,1,586.82,373.29Z"/><path class="cls-5" d="M585.21,358,585,338c-18,.57-39.3,6-64.62,18.63l16.48,21A124.3,124.3,0,0,1,586,368.29,83.69,83.69,0,0,1,585.21,358Z"/><path class="cls-4" d="M586.82,373.29a118,118,0,0,0-47.12,8.2l24,30.63a82.58,82.58,0,0,0,93,26.69A82.63,82.63,0,0,1,586.82,373.29Z"/><path class="cls-7" d="M758.09,373.29a118,118,0,0,1,47.12,8.2l-24,30.63a82.58,82.58,0,0,1-93,26.69A82.63,82.63,0,0,0,758.09,373.29Z"/><path class="cls-3" d="M759.7,358l.23-20c18,.57,39.3,6,64.62,18.63l-16.48,21a124.3,124.3,0,0,0-49.15-9.29A83.69,83.69,0,0,0,759.7,358Z"/><path class="cls-7" d="M758.09,373.29a118,118,0,0,1,47.12,8.2l-24,30.63a82.58,82.58,0,0,1-93,26.69A82.63,82.63,0,0,0,758.09,373.29Z"/><path class="cls-9" d="M1199.18,755.87V677.66a44.66,44.66,0,0,0-44.53-44.53H195.28a44.66,44.66,0,0,0-44.53,44.53v79.52c-1.13,28.16,6.07,58.71,27.16,69,99.5,48.47,357.28-55.85,420.88,18.1,19.92,23.17,44.85,50.19,68.29,50.19,20.5,0,47.34-24.54,74.92-51.73,83.15-82,380.08,50,442.9-32.31C1197.68,793.67,1200.13,778.61,1199.18,755.87Z"/><path class="cls-10" d="M198.21,760.78v-77h33.33a43.43,43.43,0,0,1,17.82,3.35,26.09,26.09,0,0,1,11.55,9.63,26.72,26.72,0,0,1-11.55,39.38,42.76,42.76,0,0,1-17.82,3.41H208l8.14-8v29.26Zm17.93-27.28L208,725h22.55q8.14,0,12.32-3.52t4.18-9.9q0-6.37-4.18-9.85t-12.32-3.46H208l8.14-8.47Z"/><path class="cls-10" d="M263.66,760.78l34.21-77h17.6l34.54,77h-18.7L303,692.8h7.15l-28.27,68Zm17.27-16.5,4.51-13.53h39.82l4.62,13.53Z"/><path class="cls-10" d="M394.12,762.1a47,47,0,0,1-16.83-2.92,38.27,38.27,0,0,1-22.05-20.95,42.08,42.08,0,0,1,0-31.9,37.77,37.77,0,0,1,8.85-12.65,40.14,40.14,0,0,1,13.42-8.31,51.15,51.15,0,0,1,35.37.5,36.42,36.42,0,0,1,13.8,9.9l-11.33,10.56a28.35,28.35,0,0,0-9.24-6.66,27.1,27.1,0,0,0-10.89-2.14,27.43,27.43,0,0,0-10.12,1.81,23.52,23.52,0,0,0-8,5.12,22.75,22.75,0,0,0-5.16,7.81,28,28,0,0,0,0,19.85,22.62,22.62,0,0,0,5.16,7.87,24.42,24.42,0,0,0,7.92,5.17A26.28,26.28,0,0,0,395.11,747a30.91,30.91,0,0,0,10.29-1.76,30.55,30.55,0,0,0,9.73-5.83l10.12,12.87a45.56,45.56,0,0,1-14.63,7.31A57.17,57.17,0,0,1,394.12,762.1ZM409,750V721.07h16.28v31.24Z"/><path class="cls-10" d="M431.63,760.78l34.21-77h17.6l34.54,77h-18.7L471,692.8h7.15l-28.27,68Zm17.27-16.5,4.51-13.53h39.82l4.62,13.53Z"/><path class="cls-10" d="M573.09,760.78V698.3H548.45V683.78h67.1V698.3H590.91v62.48Z"/><path class="cls-10" d="M658,762.1q-16.39,0-25.63-9.13t-9.24-26.18v-43h17.93v42.57q0,10.89,4.51,15.78t12.54,4.9q8.13,0,12.65-4.9t4.51-15.78V683.78h17.49v43q0,17.06-9.24,26.18T658,762.1Z"/><path class="cls-10" d="M741.61,760.78v-77h17.93v77Z"/><path class="cls-10" d="M777.69,760.78v-77h14.74l45.43,55.44h-7.15V683.78H848.3v77H833.56l-45.43-55.44h7.16v55.44Z"/><path class="cls-10" d="M866.56,760.78v-77H884.5v77Z"/><path class="cls-10" d="M939.49,762.1a45.93,45.93,0,0,1-16.55-2.92,38.38,38.38,0,0,1-22-20.95,42.08,42.08,0,0,1,0-31.9,38.07,38.07,0,0,1,8.8-12.65,39.55,39.55,0,0,1,13.31-8.31,48.94,48.94,0,0,1,34.7.55,35.14,35.14,0,0,1,13.64,10.18l-11.55,10.56a26.06,26.06,0,0,0-8.74-6.82,24.58,24.58,0,0,0-10.62-2.31,26.3,26.3,0,0,0-9.9,1.81,22.87,22.87,0,0,0-12.92,12.93,28.44,28.44,0,0,0,0,20,22.81,22.81,0,0,0,12.92,12.92,26.31,26.31,0,0,0,9.9,1.82,24.06,24.06,0,0,0,10.62-2.37,26.61,26.61,0,0,0,8.74-6.87l11.55,10.56a35.65,35.65,0,0,1-13.64,10.23A45.47,45.47,0,0,1,939.49,762.1Z"/><path class="cls-10" d="M983.27,760.78v-77h17.93v77Z"/><path class="cls-10" d="M1009.23,760.78l34.21-77H1061l34.54,77h-18.7l-28.27-68h7.15l-28.27,68Zm17.27-16.5,4.51-13.53h39.82l4.62,13.53Z"/><path class="cls-10" d="M1103.61,760.78v-77h17.93v62.48h38.39v14.52Z"/><path class="cls-11" d="M597.23,893.19a7.47,7.47,0,0,1,11.46-6.31h0c.15.09,14,8.73,35.68,13.74v-70a7.47,7.47,0,0,1,7.47-7.46H696.5a7.47,7.47,0,0,1,7.47,7.46v70.16a136.25,136.25,0,0,0,36-14.13,7.47,7.47,0,0,1,8.94,11.79l-69.47,69.47a7.46,7.46,0,0,1-10.56,0l-69.47-69.47a7.45,7.45,0,0,1-2.19-5.28Zm62.08-55.07v71.59a7.47,7.47,0,0,1-8.68,7.37c-5.21-.86-10.09-1.94-14.62-3.14l38.16,38.16,37.93-37.93a140.74,140.74,0,0,1-14.42,3.09,7.45,7.45,0,0,1-8.65-7.37V838.12Z"/><path class="cls-12" d="M598.89,895.24a7.47,7.47,0,0,1,11.46-6.31h0c.15.1,14,8.73,35.69,13.74v-70a7.46,7.46,0,0,1,7.46-7.47h44.66a7.47,7.47,0,0,1,7.47,7.47v70.16a136.93,136.93,0,0,0,36-14.13,7.46,7.46,0,0,1,8.94,11.78L681.11,970a7.48,7.48,0,0,1-10.56,0l-69.47-69.48a7.45,7.45,0,0,1-2.19-5.28ZM661,840.18v71.59a7.47,7.47,0,0,1-8.68,7.37c-5.21-.86-10.1-1.95-14.62-3.15l38.16,38.16,37.93-37.92a143.46,143.46,0,0,1-14.42,3.09,7.48,7.48,0,0,1-8.65-7.37V840.18Z"/><path class="cls-13" d="M675.83,964.71l69.47-69.47A141.35,141.35,0,0,1,698.16,912V832.71H653.5v79.06c-28.54-4.72-47.14-16.53-47.14-16.53Z"/></svg>