<svg id="Capa_1" data-name="Capa 1" xmlns="http://www.w3.org/2000/svg" xmlns:xlink="http://www.w3.org/1999/xlink" viewBox="0 0 1350 1080"><defs><style>.cls-1{fill:url(#Degradado_sin_nombre_105);}.cls-2{fill:#a0843c;}.cls-3{fill:#5c5b5f;}.cls-4{fill:url(#Degradado_sin_nombre_5);}.cls-5{fill:#fff;}.cls-6{fill:url(#linear-gradient);}.cls-7{fill:url(#linear-gradient-2);}.cls-8{fill:url(#Degradado_sin_nombre_5-2);}</style><radialGradient id="Degradado_sin_nombre_105" cx="643.52" cy="539.15" r="745.18" gradientTransform="translate(28 -254.36) scale(1.01 1.47)" gradientUnits="userSpaceOnUse"><stop offset="0" stop-color="#fff"/><stop offset="0.17" stop-color="#fdfdfc"/><stop offset="0.32" stop-color="#f8f6f1"/><stop offset="0.45" stop-color="#f0ebe0"/><stop offset="0.58" stop-color="#e4dcc7"/><stop offset="0.71" stop-color="#d4c8a8"/><stop offset="0.83" stop-color="#c1af81"/><stop offset="0.95" stop-color="#ab9353"/><stop offset="1" stop-color="#a0843c"/></radialGradient><linearGradient id="Degradado_sin_nombre_5" x1="150.64" y1="763.79" x2="1199.36" y2="763.79" gradientUnits="userSpaceOnUse"><stop offset="0" stop-color="#ffdd0d"/><stop offset="1" stop-color="#f39200"/></linearGradient><linearGradient id="linear-gradient" x1="330.2" y1="-1542.09" x2="445.77" y2="-1617.15" gradientTransform="translate(-907.18 502.54) rotate(90)" gradientUnits="userSpaceOnUse"><stop offset="0" stop-color="#959698"/><stop offset="0.03" stop-color="#9e9ea0"/><stop offset="0.11" stop-color="#b4b3b3"/><stop offset="0.21" stop-color="#c5c3c2"/><stop offset="0.34" stop-color="#d0cecc"/><stop offset="0.51" stop-color="#d7d4d2"/><stop offset="1" stop-color="#d9d6d4"/></linearGradient><linearGradient id="linear-gradient-2" x1="322.69" y1="-1583.01" x2="469.64" y2="-1583.01" gradientTransform="translate(-907.18 502.54) rotate(90)" gradientUnits="userSpaceOnUse"><stop offset="0" stop-color="#f2f1f1"/><stop offset="1" stop-color="#d9d6d4"/></linearGradient><linearGradient id="Degradado_sin_nombre_5-2" x1="338.52" y1="-1547.82" x2="441.56" y2="-1614.74" gradientTransform="translate(-907.18 502.54) rotate(90)" xlink:href="#Degradado_sin_nombre_5"/></defs><rect class="cls-1" y="-1.7" width="1356.09" height="1081.7"/><path class="cls-2" d="M769,478.44h9.59v50.94h-6l-26.68-34.29v34.29h-9.59V478.51h7.77L769,510.05Z"/><path class="cls-2" d="M849,504.24c-.15,13.15-8.21,26.31-26.09,26.31s-26.16-12.87-26.16-26.24,8.58-26.81,26.16-26.81S849.14,490.94,849,504.24Zm-42.8.22c.22,8.36,4.72,17.29,16.71,17.29s16.5-9,16.64-17.36c.15-8.58-4.65-18.17-16.64-18.17S806,495.89,806.19,504.46Z"/><path class="cls-2" d="M912.07,529.38H900.66l-14.82-17h-9.23v17H867V478.44c8.07,0,16.13.07,24.19.07,12,.08,18.32,8.07,18.32,16.87,0,7-3.2,14-12.86,16l15.4,17.37Zm-35.46-41.93v16.28h14.6c6.11,0,8.73-4.07,8.73-8.14s-2.69-8.14-8.73-8.14Z"/><path class="cls-2" d="M942.31,487.24H926.17v-8.73H968v8.73H951.9v42.14h-9.59Z"/><path class="cls-2" d="M1022.68,529.38H984.6V478.51h38.08v9.31H994.12v11.7h27.54v8.94H994.12v11.48h28.56Z"/><path class="cls-3" d="M728.91,373.49l18.7,57.69,18.54-57.69h22.51l-29.87,79.17H735.54l-30-79Z"/><path class="cls-3" d="M821.36,373.49v79.17H798.69V373.49Zm-.3-22.51c0,6.47-4.56,11.33-11,11.33s-11-4.86-11-11.33c0-6.62,4.57-11.34,11-11.34S821.06,344.36,821.06,351Z"/><path class="cls-3" d="M855.2,373.49l18.7,57.69,18.54-57.69H915l-29.87,79.17H861.83l-30-79Z"/><path class="cls-3" d="M968.69,452.66V443.4c-5.3,6.62-13.83,10.3-24.87,10.3-16.93,0-27.23-10.3-27.23-24.73,0-14.86,10.74-23.69,30.17-23.84h21.78v-1.47c0-8.39-5.59-13.24-16.48-13.24-7.07,0-15.31,2.35-23.55,6.91l-7.06-15.6c11.77-5.88,21.92-9.12,35.76-9.12,21.19,0,33.4,10.6,33.55,28.4l.15,51.65Zm-.15-27.07v-7.07H950.73c-8.68,0-13,2.65-13,9,0,6,4.71,10,12.36,10C959.71,437.51,967.22,432.36,968.54,425.59Z"/><path class="cls-2" d="M683.52,374.4a6.55,6.55,0,0,0-2.15-5.14l-97.81-88a6.61,6.61,0,0,0-8.82,0l-99.56,88.6c-.05,0-.08.1-.13.14s-.33.35-.49.54a5.07,5.07,0,0,0-.37.44c-.13.19-.24.39-.35.58s-.21.35-.29.53a6.5,6.5,0,0,0-.22.62c-.07.2-.14.4-.19.6s-.06.41-.09.61-.06.46-.07.69c0,.07,0,.13,0,.19V488.53a6.61,6.61,0,0,0,6.61,6.61H646.19a6.61,6.61,0,0,0,6.61-6.62V438.66a6.61,6.61,0,1,0-13.22,0v43.26H486.18V377.71L579.11,295l91.22,82.11V516.64H454.76c2.8-18,7.12-62.72-10.13-103.11a6.29,6.29,0,0,0-.85-1.42c-2.21-5.87-15.72-38.94-44.65-50.67h0c-31.12-12.62-66.67,4.95-68.17,5.71a6.59,6.59,0,0,0-3.27,8.07c.55,1.59,13.85,38.94,45,51.55a65.73,65.73,0,0,0,24.75,4.54c15.39,0,29.35-4.45,37.09-7.49,17.15,45.76,6,97.46,5.9,98a6.6,6.6,0,0,0,6.45,8H677a6.61,6.61,0,0,0,6.61-6.61V374.74C683.56,374.62,683.53,374.51,683.52,374.4Zm-305.9,40.11c-19-7.7-30.43-28-35.06-38,10.26-3.93,32.59-10.56,51.6-2.85s30.45,28,35.07,38C419,415.62,396.74,422.25,377.62,414.51Z"/><path class="cls-2" d="M550.54,368.13a6.61,6.61,0,0,0-6.61,6.61v55.43a6.61,6.61,0,0,0,6.61,6.61H606a6.62,6.62,0,0,0,6.62-6.61V374.74a6.62,6.62,0,0,0-6.62-6.61Zm48.82,55.43h-42.2V381.35h42.2Z"/><path class="cls-2" d="M430.88,377.42a5.91,5.91,0,0,0,7.26,2.92c1.57-.55,38.61-13.84,51-44.71s-5.08-66.11-5.84-67.59a5.92,5.92,0,0,0-7.25-2.93c-1.57.56-38.62,13.85-51,44.72h0C412.62,340.69,430.13,375.94,430.88,377.42Zm5.17-63.16h0c7.92-19.68,29.11-31.33,38.89-35.81,4,10,11.17,33,3.22,52.76S449.05,362.54,439.27,367C435.32,357,428.1,334,436.05,314.26Z"/><path class="cls-4" d="M1199.18,755.87V677.66a44.66,44.66,0,0,0-44.53-44.53H195.28a44.66,44.66,0,0,0-44.53,44.53v79.52c-1.13,28.16,6.07,58.71,27.16,69,99.5,48.47,357.28-55.85,420.88,18.1,19.92,23.17,44.85,50.19,68.29,50.19,20.5,0,47.34-24.54,74.92-51.73,83.15-82,380.08,50,442.9-32.31C1197.68,793.67,1200.13,778.61,1199.18,755.87Z"/><path class="cls-5" d="M198.21,760.78v-77h33.33a43.43,43.43,0,0,1,17.82,3.35,26.09,26.09,0,0,1,11.55,9.63,26.72,26.72,0,0,1-11.55,39.38,42.76,42.76,0,0,1-17.82,3.41H208l8.14-8v29.26Zm17.93-27.28L208,725h22.55q8.14,0,12.32-3.52t4.18-9.9q0-6.37-4.18-9.85t-12.32-3.46H208l8.14-8.47Z"/><path class="cls-5" d="M263.66,760.78l34.21-77h17.6l34.54,77h-18.7L303,692.8h7.15l-28.27,68Zm17.27-16.5,4.51-13.53h39.82l4.62,13.53Z"/><path class="cls-5" d="M394.12,762.1a47,47,0,0,1-16.83-2.92,38.27,38.27,0,0,1-22.05-20.95,42.08,42.08,0,0,1,0-31.9,37.77,37.77,0,0,1,8.85-12.65,40.14,40.14,0,0,1,13.42-8.31,51.15,51.15,0,0,1,35.37.5,36.42,36.42,0,0,1,13.8,9.9l-11.33,10.56a28.35,28.35,0,0,0-9.24-6.66,27.1,27.1,0,0,0-10.89-2.14,27.43,27.43,0,0,0-10.12,1.81,23.52,23.52,0,0,0-8,5.12,22.75,22.75,0,0,0-5.16,7.81,28,28,0,0,0,0,19.85,22.62,22.62,0,0,0,5.16,7.87,24.42,24.42,0,0,0,7.92,5.17A26.28,26.28,0,0,0,395.11,747a30.91,30.91,0,0,0,10.29-1.76,30.55,30.55,0,0,0,9.73-5.83l10.12,12.87a45.56,45.56,0,0,1-14.63,7.31A57.17,57.17,0,0,1,394.12,762.1ZM409,750V721.07h16.28v31.24Z"/><path class="cls-5" d="M431.63,760.78l34.21-77h17.6l34.54,77h-18.7L471,692.8h7.15l-28.27,68Zm17.27-16.5,4.51-13.53h39.82l4.62,13.53Z"/><path class="cls-5" d="M573.09,760.78V698.3H548.45V683.78h67.1V698.3H590.91v62.48Z"/><path class="cls-5" d="M658,762.1q-16.39,0-25.63-9.13t-9.24-26.18v-43h17.93v42.57q0,10.89,4.51,15.78t12.54,4.9q8.13,0,12.65-4.9t4.51-15.78V683.78h17.49v43q0,17.06-9.24,26.18T658,762.1Z"/><path class="cls-5" d="M741.61,760.78v-77h17.93v77Z"/><path class="cls-5" d="M777.69,760.78v-77h14.74l45.43,55.44h-7.15V683.78H848.3v77H833.56l-45.43-55.44h7.16v55.44Z"/><path class="cls-5" d="M866.56,760.78v-77H884.5v77Z"/><path class="cls-5" d="M939.49,762.1a45.93,45.93,0,0,1-16.55-2.92,38.38,38.38,0,0,1-22-20.95,42.08,42.08,0,0,1,0-31.9,38.07,38.07,0,0,1,8.8-12.65,39.55,39.55,0,0,1,13.31-8.31,48.94,48.94,0,0,1,34.7.55,35.14,35.14,0,0,1,13.64,10.18l-11.55,10.56a26.06,26.06,0,0,0-8.74-6.82,24.58,24.58,0,0,0-10.62-2.31,26.3,26.3,0,0,0-9.9,1.81,22.87,22.87,0,0,0-12.92,12.93,28.44,28.44,0,0,0,0,20,22.81,22.81,0,0,0,12.92,12.92,26.31,26.31,0,0,0,9.9,1.82,24.06,24.06,0,0,0,10.62-2.37,26.61,26.61,0,0,0,8.74-6.87l11.55,10.56a35.65,35.65,0,0,1-13.64,10.23A45.47,45.47,0,0,1,939.49,762.1Z"/><path class="cls-5" d="M983.27,760.78v-77h17.93v77Z"/><path class="cls-5" d="M1009.23,760.78l34.21-77H1061l34.54,77h-18.7l-28.27-68h7.15l-28.27,68Zm17.27-16.5,4.51-13.53h39.82l4.62,13.53Z"/><path class="cls-5" d="M1103.61,760.78v-77h17.93v62.48h38.39v14.52Z"/><path class="cls-6" d="M597.23,893.19a7.47,7.47,0,0,1,11.46-6.31h0c.15.09,14,8.73,35.68,13.74v-70a7.47,7.47,0,0,1,7.47-7.46H696.5a7.47,7.47,0,0,1,7.47,7.46v70.16a136.25,136.25,0,0,0,36-14.13,7.47,7.47,0,0,1,8.94,11.79l-69.47,69.47a7.46,7.46,0,0,1-10.56,0l-69.47-69.47a7.45,7.45,0,0,1-2.19-5.28Zm62.08-55.07v71.59a7.47,7.47,0,0,1-8.68,7.37c-5.21-.86-10.09-1.94-14.62-3.14l38.16,38.16,37.93-37.93a140.74,140.74,0,0,1-14.42,3.09,7.45,7.45,0,0,1-8.65-7.37V838.12Z"/><path class="cls-7" d="M598.89,895.24a7.47,7.47,0,0,1,11.46-6.31h0c.15.1,14,8.73,35.69,13.74v-70a7.46,7.46,0,0,1,7.46-7.47h44.66a7.47,7.47,0,0,1,7.47,7.47v70.16a136.93,136.93,0,0,0,36-14.13,7.46,7.46,0,0,1,8.94,11.78L681.11,970a7.48,7.48,0,0,1-10.56,0l-69.47-69.48a7.45,7.45,0,0,1-2.19-5.28ZM661,840.18v71.59a7.47,7.47,0,0,1-8.68,7.37c-5.21-.86-10.1-1.95-14.62-3.15l38.16,38.16,37.93-37.92a143.46,143.46,0,0,1-14.42,3.09,7.48,7.48,0,0,1-8.65-7.37V840.18Z"/><path class="cls-8" d="M675.83,964.71l69.47-69.47A141.35,141.35,0,0,1,698.16,912V832.71H653.5v79.06c-28.54-4.72-47.14-16.53-47.14-16.53Z"/></svg>